<?xml version="1.0" encoding="utf-8"?>
<!-- Generator: Adobe Illustrator 30.3.0, SVG Export Plug-In . SVG Version: 9.03 Build 0)  -->
<svg version="1.1" id="Layer_1" xmlns="http://www.w3.org/2000/svg" xmlns:xlink="http://www.w3.org/1999/xlink" x="0px" y="0px"
	 viewBox="0 0 1080 800" enable-background="new 0 0 1080 800" xml:space="preserve">
<circle fill="none" stroke="#4F46E5" stroke-width="2" stroke-linecap="round" stroke-linejoin="round" stroke-miterlimit="10" cx="-1000" cy="120" r="90"/>
<circle fill="none" stroke="#4F46E5" stroke-width="2" stroke-linecap="round" stroke-linejoin="round" stroke-miterlimit="10" cx="-1000" cy="120" r="60"/>
<polyline fill="none" stroke="#E85D43" stroke-width="2" stroke-linecap="round" stroke-linejoin="round" stroke-miterlimit="10" points="
	-1025,125 -1005,145 -970,100 "/>
<line fill="none" stroke="#4F46E5" stroke-width="2" stroke-linecap="round" stroke-linejoin="round" stroke-miterlimit="10" x1="-1090" y1="960" x2="-1020" y2="960"/>
<line fill="none" stroke="#4F46E5" stroke-width="2" stroke-linecap="round" stroke-linejoin="round" stroke-miterlimit="10" x1="-980" y1="960" x2="-910" y2="960"/>
<circle fill="#E85D43" cx="-1000" cy="960" r="10"/>
<polygon fill="none" stroke="#4F46E5" stroke-width="2" stroke-linecap="round" stroke-linejoin="round" stroke-miterlimit="10" points="
	-1000,1710 -920,1750 -920,1820 -960,1870 -1000,1890 -1040,1870 -1080,1820 -1080,1750 "/>
<polyline fill="none" stroke="#4F46E5" stroke-width="2" stroke-linecap="round" stroke-linejoin="round" stroke-miterlimit="10" points="
	-1080,2700 -1040,2620 -960,2660 -920,2580 "/>
<circle fill="#E85D43" cx="-1000" cy="2640" r="15"/>
<circle fill="none" stroke="#4F46E5" stroke-width="2" stroke-linecap="round" stroke-linejoin="round" stroke-miterlimit="10" cx="120" cy="120" r="100"/>
<ellipse fill="none" stroke="#E85D43" stroke-width="1.6" stroke-linecap="round" stroke-linejoin="round" stroke-miterlimit="10" cx="120" cy="115" rx="40" ry="35"/>
<rect x="60" y="890" fill="none" stroke="#4F46E5" stroke-width="2" stroke-linecap="round" stroke-linejoin="round" stroke-miterlimit="10" width="120" height="160"/>
<rect x="85" y="920" fill="none" stroke="#4F46E5" stroke-width="1.2" stroke-linecap="round" stroke-linejoin="round" stroke-miterlimit="10" width="30" height="30"/>
<rect x="125" y="920" fill="none" stroke="#4F46E5" stroke-width="1.2" stroke-linecap="round" stroke-linejoin="round" stroke-miterlimit="10" width="30" height="30"/>
<rect x="100" y="990" fill="none" stroke="#E85D43" stroke-width="1.6" stroke-linecap="round" stroke-linejoin="round" stroke-miterlimit="10" width="40" height="60"/>
<rect x="50" y="1710" fill="none" stroke="#4F46E5" stroke-width="2" stroke-linecap="round" stroke-linejoin="round" stroke-miterlimit="10" width="140" height="180"/>
<line fill="none" stroke="#4F46E5" stroke-linecap="round" stroke-linejoin="round" stroke-miterlimit="10" x1="80" y1="1760" x2="160" y2="1760"/>
<line fill="none" stroke="#4F46E5" stroke-linecap="round" stroke-linejoin="round" stroke-miterlimit="10" x1="80" y1="1795" x2="160" y2="1795"/>
<line fill="none" stroke="#4F46E5" stroke-linecap="round" stroke-linejoin="round" stroke-miterlimit="10" x1="80" y1="1830" x2="160" y2="1830"/>
<circle fill="none" stroke="#4F46E5" stroke-width="2" stroke-linecap="round" stroke-linejoin="round" stroke-miterlimit="10" cx="120" cy="2640" r="95"/>
<line fill="none" stroke="#E85D43" stroke-width="2" stroke-linecap="round" stroke-linejoin="round" stroke-miterlimit="10" x1="70" y1="2640" x2="170" y2="2640"/>
<line fill="none" stroke="#E85D43" stroke-width="2" stroke-linecap="round" stroke-linejoin="round" stroke-miterlimit="10" x1="120" y1="2590" x2="120" y2="2690"/>
<polygon fill="none" stroke="#4F46E5" stroke-width="2" stroke-linecap="round" stroke-linejoin="round" stroke-miterlimit="10" points="
	1240,40 1220,100 1160,120 1220,140 1240,200 1260,140 1320,120 1260,100 "/>
<circle fill="#E85D43" cx="1240" cy="120" r="15"/>
<rect x="1180" y="950" fill="none" stroke="#4F46E5" stroke-width="2" stroke-linecap="round" stroke-linejoin="round" stroke-miterlimit="10" width="120" height="100"/>
<ellipse fill="none" stroke="#4F46E5" stroke-width="2" stroke-linecap="round" stroke-linejoin="round" stroke-miterlimit="10" cx="1240" cy="930" rx="40" ry="50"/>
<circle fill="#E85D43" cx="1240" cy="990" r="10"/>
<circle fill="none" stroke="#4F46E5" stroke-width="2" stroke-linecap="round" stroke-linejoin="round" stroke-miterlimit="10" cx="1240" cy="1730" r="20"/>
<line fill="none" stroke="#4F46E5" stroke-width="1.6" stroke-linecap="round" stroke-linejoin="round" stroke-miterlimit="10" x1="1240" y1="1750" x2="1240" y2="1790"/>
<line fill="none" stroke="#4F46E5" stroke-width="1.6" stroke-linecap="round" stroke-linejoin="round" stroke-miterlimit="10" x1="1170" y1="1790" x2="1310" y2="1790"/>
<line fill="none" stroke="#4F46E5" stroke-width="1.6" stroke-linecap="round" stroke-linejoin="round" stroke-miterlimit="10" x1="1170" y1="1790" x2="1170" y2="1830"/>
<circle fill="none" stroke="#4F46E5" stroke-width="2" stroke-linecap="round" stroke-linejoin="round" stroke-miterlimit="10" cx="1170" cy="1850" r="20"/>
<line fill="none" stroke="#4F46E5" stroke-width="1.6" stroke-linecap="round" stroke-linejoin="round" stroke-miterlimit="10" x1="1240" y1="1790" x2="1240" y2="1830"/>
<circle fill="none" stroke="#E85D43" stroke-width="2" stroke-linecap="round" stroke-linejoin="round" stroke-miterlimit="10" cx="1240" cy="1850" r="20"/>
<line fill="none" stroke="#4F46E5" stroke-width="1.6" stroke-linecap="round" stroke-linejoin="round" stroke-miterlimit="10" x1="1310" y1="1790" x2="1310" y2="1830"/>
<circle fill="none" stroke="#4F46E5" stroke-width="2" stroke-linecap="round" stroke-linejoin="round" stroke-miterlimit="10" cx="1310" cy="1850" r="20"/>
<circle fill="none" stroke="#4F46E5" stroke-width="2" stroke-linecap="round" stroke-linejoin="round" stroke-miterlimit="10" cx="1240" cy="2590" r="40"/>
<polyline fill="none" stroke="#4F46E5" stroke-width="2" stroke-linecap="round" stroke-linejoin="round" stroke-miterlimit="10" points="
	1160,2730 1190,2660 1240,2640 1290,2660 1320,2730 "/>
<g>
</g>
<g>
</g>
<g>
</g>
<g>
</g>
<g>
</g>
<g>
</g>
<g>
</g>
<g>
</g>
<g>
</g>
<g>
</g>
<g>
</g>
<g>
</g>
<g>
</g>
<g>
</g>
<g>
</g>
</svg>
