<?xml version="1.0" encoding="utf-8"?>
<!-- Generator: Adobe Illustrator 30.3.0, SVG Export Plug-In . SVG Version: 9.03 Build 0)  -->
<svg version="1.1" id="Layer_1" xmlns="http://www.w3.org/2000/svg" xmlns:xlink="http://www.w3.org/1999/xlink" x="0px" y="0px"
	 viewBox="0 0 1080 520" enable-background="new 0 0 1080 520" xml:space="preserve">
<line fill="none" stroke="#4F46E5" stroke-width="2" stroke-linecap="round" stroke-linejoin="round" stroke-miterlimit="10" x1="120" y1="30" x2="120" y2="140"/>
<line fill="none" stroke="#4F46E5" stroke-width="2" stroke-linecap="round" stroke-linejoin="round" stroke-miterlimit="10" x1="40" y1="80" x2="200" y2="100"/>
<ellipse fill="none" stroke="#E85D43" stroke-width="1.6" stroke-linecap="round" stroke-linejoin="round" stroke-miterlimit="10" cx="50" cy="165" rx="30" ry="15"/>
<ellipse fill="none" stroke="#4F46E5" stroke-width="1.6" stroke-linecap="round" stroke-linejoin="round" stroke-miterlimit="10" cx="190" cy="185" rx="30" ry="15"/>
<polyline fill="none" stroke="#4F46E5" stroke-width="1.2" stroke-linecap="round" stroke-linejoin="round" stroke-miterlimit="10" points="
	80,210 120,140 160,210 "/>
<line fill="none" stroke="#4F46E5" stroke-width="1.2" stroke-linecap="round" stroke-linejoin="round" stroke-miterlimit="10" x1="30" y1="740" x2="210" y2="740"/>
<polyline fill="none" stroke="#4F46E5" stroke-width="2" stroke-linecap="round" stroke-linejoin="round" stroke-miterlimit="10" points="
	80,720 60,620 50,590 80,610 180,710 "/>
<circle fill="#E85D43" cx="80" cy="725" r="10"/>
<rect x="30" y="1300" fill="none" stroke="#4F46E5" stroke-width="2" stroke-linecap="round" stroke-linejoin="round" stroke-miterlimit="10" width="60" height="30"/>
<rect x="80" y="1260" fill="none" stroke="#4F46E5" stroke-width="2" stroke-linecap="round" stroke-linejoin="round" stroke-miterlimit="10" width="60" height="70"/>
<rect x="130" y="1210" fill="none" stroke="#4F46E5" stroke-width="2" stroke-linecap="round" stroke-linejoin="round" stroke-miterlimit="10" width="60" height="120"/>
<rect x="180" y="1160" fill="none" stroke="#E85D43" stroke-width="2" stroke-linecap="round" stroke-linejoin="round" stroke-miterlimit="10" width="30" height="170"/>
<line fill="none" stroke="#4F46E5" stroke-width="1.2" stroke-linecap="round" stroke-linejoin="round" stroke-miterlimit="10" x1="40" y1="1710" x2="40" y2="1870"/>
<line fill="none" stroke="#4F46E5" stroke-width="1.2" stroke-linecap="round" stroke-linejoin="round" stroke-miterlimit="10" x1="40" y1="1870" x2="200" y2="1870"/>
<rect x="70" y="1790" fill="none" stroke="#4F46E5" stroke-width="2" stroke-linecap="round" stroke-linejoin="round" stroke-miterlimit="10" width="30" height="80"/>
<rect x="110" y="1730" fill="none" stroke="#E85D43" stroke-width="2" stroke-linecap="round" stroke-linejoin="round" stroke-miterlimit="10" width="30" height="140"/>
<rect x="150" y="1770" fill="none" stroke="#4F46E5" stroke-width="2" stroke-linecap="round" stroke-linejoin="round" stroke-miterlimit="10" width="30" height="100"/>
<rect x="190" y="1710" fill="none" stroke="#4F46E5" stroke-width="2" stroke-linecap="round" stroke-linejoin="round" stroke-miterlimit="10" width="30" height="160"/>
<ellipse fill="none" stroke="#E85D43" stroke-width="2" stroke-linecap="round" stroke-linejoin="round" stroke-miterlimit="10" cx="1240" cy="90" rx="60" ry="30"/>
<ellipse fill="none" stroke="#4F46E5" stroke-width="2" stroke-linecap="round" stroke-linejoin="round" stroke-miterlimit="10" cx="1240" cy="140" rx="60" ry="30"/>
<ellipse fill="none" stroke="#4F46E5" stroke-width="2" stroke-linecap="round" stroke-linejoin="round" stroke-miterlimit="10" cx="1240" cy="190" rx="60" ry="30"/>
<line fill="none" stroke="#4F46E5" stroke-width="2" stroke-linecap="round" stroke-linejoin="round" stroke-miterlimit="10" x1="1240" y1="590" x2="1240" y2="710"/>
<polyline fill="none" stroke="#4F46E5" stroke-width="2" stroke-linecap="round" stroke-linejoin="round" stroke-miterlimit="10" points="
	1190,670 1240,710 1290,670 "/>
<line fill="none" stroke="#E85D43" stroke-width="2" stroke-linecap="round" stroke-linejoin="round" stroke-miterlimit="10" x1="1170" y1="750" x2="1310" y2="750"/>
<circle fill="none" stroke="#4F46E5" stroke-width="2" stroke-linecap="round" stroke-linejoin="round" stroke-miterlimit="10" cx="1180" cy="1185" r="25"/>
<polyline fill="none" stroke="#4F46E5" stroke-width="1.6" stroke-linecap="round" stroke-linejoin="round" stroke-miterlimit="10" points="
	1150,1320 1170,1240 1190,1240 1210,1320 "/>
<circle fill="none" stroke="#E85D43" stroke-width="2" stroke-linecap="round" stroke-linejoin="round" stroke-miterlimit="10" cx="1240" cy="1185" r="25"/>
<polyline fill="none" stroke="#E85D43" stroke-width="1.6" stroke-linecap="round" stroke-linejoin="round" stroke-miterlimit="10" points="
	1210,1320 1230,1240 1250,1240 1270,1320 "/>
<circle fill="none" stroke="#4F46E5" stroke-width="2" stroke-linecap="round" stroke-linejoin="round" stroke-miterlimit="10" cx="1300" cy="1185" r="25"/>
<polyline fill="none" stroke="#4F46E5" stroke-width="1.6" stroke-linecap="round" stroke-linejoin="round" stroke-miterlimit="10" points="
	1270,1320 1290,1240 1310,1240 1330,1320 "/>
<ellipse fill="none" stroke="#4F46E5" stroke-width="2" stroke-linecap="round" stroke-linejoin="round" stroke-miterlimit="10" cx="1220" cy="1790" rx="60" ry="70"/>
<ellipse fill="none" stroke="#E85D43" stroke-width="2" stroke-linecap="round" stroke-linejoin="round" stroke-miterlimit="10" cx="1260" cy="1790" rx="60" ry="70"/>
<circle fill="#E85D43" cx="1240" cy="1795" r="15"/>
<g>
</g>
<g>
</g>
<g>
</g>
<g>
</g>
<g>
</g>
<g>
</g>
<g>
</g>
<g>
</g>
<g>
</g>
<g>
</g>
<g>
</g>
<g>
</g>
<g>
</g>
<g>
</g>
<g>
</g>
</svg>
