<?xml version="1.0" encoding="utf-8"?>
<!-- Generator: Adobe Illustrator 30.3.0, SVG Export Plug-In . SVG Version: 9.03 Build 0)  -->
<svg version="1.1" id="Layer_1" xmlns="http://www.w3.org/2000/svg" xmlns:xlink="http://www.w3.org/1999/xlink" x="0px" y="0px"
	 viewBox="0 0 1080 800" enable-background="new 0 0 1080 800" xml:space="preserve">
<circle fill="none" stroke="#4F46E5" stroke-width="2" stroke-linecap="round" stroke-linejoin="round" stroke-miterlimit="10" cx="-1000" cy="-1560" r="90"/>
<circle fill="none" stroke="#4F46E5" stroke-width="2" stroke-linecap="round" stroke-linejoin="round" stroke-miterlimit="10" cx="-1000" cy="-1560" r="60"/>
<polyline fill="none" stroke="#E85D43" stroke-width="2" stroke-linecap="round" stroke-linejoin="round" stroke-miterlimit="10" points="
	-1025,-1555 -1005,-1535 -970,-1580 "/>
<line fill="none" stroke="#4F46E5" stroke-width="2" stroke-linecap="round" stroke-linejoin="round" stroke-miterlimit="10" x1="-1090" y1="-720" x2="-1020" y2="-720"/>
<line fill="none" stroke="#4F46E5" stroke-width="2" stroke-linecap="round" stroke-linejoin="round" stroke-miterlimit="10" x1="-980" y1="-720" x2="-910" y2="-720"/>
<circle fill="#E85D43" cx="-1000" cy="-720" r="10"/>
<polygon fill="none" stroke="#4F46E5" stroke-width="2" stroke-linecap="round" stroke-linejoin="round" stroke-miterlimit="10" points="
	-1000,30 -920,70 -920,140 -960,190 -1000,210 -1040,190 -1080,140 -1080,70 "/>
<polyline fill="none" stroke="#4F46E5" stroke-width="2" stroke-linecap="round" stroke-linejoin="round" stroke-miterlimit="10" points="
	-1080,1020 -1040,940 -960,980 -920,900 "/>
<circle fill="#E85D43" cx="-1000" cy="960" r="15"/>
<circle fill="none" stroke="#4F46E5" stroke-width="2" stroke-linecap="round" stroke-linejoin="round" stroke-miterlimit="10" cx="120" cy="-1560" r="100"/>
<ellipse fill="none" stroke="#E85D43" stroke-width="1.6" stroke-linecap="round" stroke-linejoin="round" stroke-miterlimit="10" cx="120" cy="-1565" rx="40" ry="35"/>
<rect x="60" y="-790" fill="none" stroke="#4F46E5" stroke-width="2" stroke-linecap="round" stroke-linejoin="round" stroke-miterlimit="10" width="120" height="160"/>
<rect x="85" y="-760" fill="none" stroke="#4F46E5" stroke-width="1.2" stroke-linecap="round" stroke-linejoin="round" stroke-miterlimit="10" width="30" height="30"/>
<rect x="125" y="-760" fill="none" stroke="#4F46E5" stroke-width="1.2" stroke-linecap="round" stroke-linejoin="round" stroke-miterlimit="10" width="30" height="30"/>
<rect x="100" y="-690" fill="none" stroke="#E85D43" stroke-width="1.6" stroke-linecap="round" stroke-linejoin="round" stroke-miterlimit="10" width="40" height="60"/>
<rect x="50" y="30" fill="none" stroke="#4F46E5" stroke-width="2" stroke-linecap="round" stroke-linejoin="round" stroke-miterlimit="10" width="140" height="180"/>
<line fill="none" stroke="#4F46E5" stroke-linecap="round" stroke-linejoin="round" stroke-miterlimit="10" x1="80" y1="80" x2="160" y2="80"/>
<line fill="none" stroke="#4F46E5" stroke-linecap="round" stroke-linejoin="round" stroke-miterlimit="10" x1="80" y1="115" x2="160" y2="115"/>
<line fill="none" stroke="#4F46E5" stroke-linecap="round" stroke-linejoin="round" stroke-miterlimit="10" x1="80" y1="150" x2="160" y2="150"/>
<circle fill="none" stroke="#4F46E5" stroke-width="2" stroke-linecap="round" stroke-linejoin="round" stroke-miterlimit="10" cx="120" cy="960" r="95"/>
<line fill="none" stroke="#E85D43" stroke-width="2" stroke-linecap="round" stroke-linejoin="round" stroke-miterlimit="10" x1="70" y1="960" x2="170" y2="960"/>
<line fill="none" stroke="#E85D43" stroke-width="2" stroke-linecap="round" stroke-linejoin="round" stroke-miterlimit="10" x1="120" y1="910" x2="120" y2="1010"/>
<polygon fill="none" stroke="#4F46E5" stroke-width="2" stroke-linecap="round" stroke-linejoin="round" stroke-miterlimit="10" points="
	1240,-1640 1220,-1580 1160,-1560 1220,-1540 1240,-1480 1260,-1540 1320,-1560 1260,-1580 "/>
<circle fill="#E85D43" cx="1240" cy="-1560" r="15"/>
<rect x="1180" y="-730" fill="none" stroke="#4F46E5" stroke-width="2" stroke-linecap="round" stroke-linejoin="round" stroke-miterlimit="10" width="120" height="100"/>
<ellipse fill="none" stroke="#4F46E5" stroke-width="2" stroke-linecap="round" stroke-linejoin="round" stroke-miterlimit="10" cx="1240" cy="-750" rx="40" ry="50"/>
<circle fill="#E85D43" cx="1240" cy="-690" r="10"/>
<circle fill="none" stroke="#4F46E5" stroke-width="2" stroke-linecap="round" stroke-linejoin="round" stroke-miterlimit="10" cx="1240" cy="50" r="20"/>
<line fill="none" stroke="#4F46E5" stroke-width="1.6" stroke-linecap="round" stroke-linejoin="round" stroke-miterlimit="10" x1="1240" y1="70" x2="1240" y2="110"/>
<line fill="none" stroke="#4F46E5" stroke-width="1.6" stroke-linecap="round" stroke-linejoin="round" stroke-miterlimit="10" x1="1170" y1="110" x2="1310" y2="110"/>
<line fill="none" stroke="#4F46E5" stroke-width="1.6" stroke-linecap="round" stroke-linejoin="round" stroke-miterlimit="10" x1="1170" y1="110" x2="1170" y2="150"/>
<circle fill="none" stroke="#4F46E5" stroke-width="2" stroke-linecap="round" stroke-linejoin="round" stroke-miterlimit="10" cx="1170" cy="170" r="20"/>
<line fill="none" stroke="#4F46E5" stroke-width="1.6" stroke-linecap="round" stroke-linejoin="round" stroke-miterlimit="10" x1="1240" y1="110" x2="1240" y2="150"/>
<circle fill="none" stroke="#E85D43" stroke-width="2" stroke-linecap="round" stroke-linejoin="round" stroke-miterlimit="10" cx="1240" cy="170" r="20"/>
<line fill="none" stroke="#4F46E5" stroke-width="1.6" stroke-linecap="round" stroke-linejoin="round" stroke-miterlimit="10" x1="1310" y1="110" x2="1310" y2="150"/>
<circle fill="none" stroke="#4F46E5" stroke-width="2" stroke-linecap="round" stroke-linejoin="round" stroke-miterlimit="10" cx="1310" cy="170" r="20"/>
<circle fill="none" stroke="#4F46E5" stroke-width="2" stroke-linecap="round" stroke-linejoin="round" stroke-miterlimit="10" cx="1240" cy="910" r="40"/>
<polyline fill="none" stroke="#4F46E5" stroke-width="2" stroke-linecap="round" stroke-linejoin="round" stroke-miterlimit="10" points="
	1160,1050 1190,980 1240,960 1290,980 1320,1050 "/>
<g>
</g>
<g>
</g>
<g>
</g>
<g>
</g>
<g>
</g>
<g>
</g>
<g>
</g>
<g>
</g>
<g>
</g>
<g>
</g>
<g>
</g>
<g>
</g>
<g>
</g>
<g>
</g>
<g>
</g>
</svg>
