<?xml version="1.0" encoding="utf-8"?>
<!-- Generator: Adobe Illustrator 30.3.0, SVG Export Plug-In . SVG Version: 9.03 Build 0)  -->
<svg version="1.1" id="Layer_1" xmlns="http://www.w3.org/2000/svg" xmlns:xlink="http://www.w3.org/1999/xlink" x="0px" y="0px"
	 viewBox="0 0 1080 800" enable-background="new 0 0 1080 800" xml:space="preserve">
<circle fill="none" stroke="#4F46E5" stroke-width="2" stroke-linecap="round" stroke-linejoin="round" stroke-miterlimit="10" cx="-1000" cy="-2400" r="90"/>
<circle fill="none" stroke="#4F46E5" stroke-width="2" stroke-linecap="round" stroke-linejoin="round" stroke-miterlimit="10" cx="-1000" cy="-2400" r="60"/>
<polyline fill="none" stroke="#E85D43" stroke-width="2" stroke-linecap="round" stroke-linejoin="round" stroke-miterlimit="10" points="
	-1025,-2395 -1005,-2375 -970,-2420 "/>
<line fill="none" stroke="#4F46E5" stroke-width="2" stroke-linecap="round" stroke-linejoin="round" stroke-miterlimit="10" x1="-1090" y1="-1560" x2="-1020" y2="-1560"/>
<line fill="none" stroke="#4F46E5" stroke-width="2" stroke-linecap="round" stroke-linejoin="round" stroke-miterlimit="10" x1="-980" y1="-1560" x2="-910" y2="-1560"/>
<circle fill="#E85D43" cx="-1000" cy="-1560" r="10"/>
<polygon fill="none" stroke="#4F46E5" stroke-width="2" stroke-linecap="round" stroke-linejoin="round" stroke-miterlimit="10" points="
	-1000,-810 -920,-770 -920,-700 -960,-650 -1000,-630 -1040,-650 -1080,-700 -1080,-770 "/>
<polyline fill="none" stroke="#4F46E5" stroke-width="2" stroke-linecap="round" stroke-linejoin="round" stroke-miterlimit="10" points="
	-1080,180 -1040,100 -960,140 -920,60 "/>
<circle fill="#E85D43" cx="-1000" cy="120" r="15"/>
<circle fill="none" stroke="#4F46E5" stroke-width="2" stroke-linecap="round" stroke-linejoin="round" stroke-miterlimit="10" cx="120" cy="-2400" r="100"/>
<ellipse fill="none" stroke="#E85D43" stroke-width="1.6" stroke-linecap="round" stroke-linejoin="round" stroke-miterlimit="10" cx="120" cy="-2405" rx="40" ry="35"/>
<rect x="60" y="-1630" fill="none" stroke="#4F46E5" stroke-width="2" stroke-linecap="round" stroke-linejoin="round" stroke-miterlimit="10" width="120" height="160"/>
<rect x="85" y="-1600" fill="none" stroke="#4F46E5" stroke-width="1.2" stroke-linecap="round" stroke-linejoin="round" stroke-miterlimit="10" width="30" height="30"/>
<rect x="125" y="-1600" fill="none" stroke="#4F46E5" stroke-width="1.2" stroke-linecap="round" stroke-linejoin="round" stroke-miterlimit="10" width="30" height="30"/>
<rect x="100" y="-1530" fill="none" stroke="#E85D43" stroke-width="1.6" stroke-linecap="round" stroke-linejoin="round" stroke-miterlimit="10" width="40" height="60"/>
<rect x="50" y="-810" fill="none" stroke="#4F46E5" stroke-width="2" stroke-linecap="round" stroke-linejoin="round" stroke-miterlimit="10" width="140" height="180"/>
<line fill="none" stroke="#4F46E5" stroke-linecap="round" stroke-linejoin="round" stroke-miterlimit="10" x1="80" y1="-760" x2="160" y2="-760"/>
<line fill="none" stroke="#4F46E5" stroke-linecap="round" stroke-linejoin="round" stroke-miterlimit="10" x1="80" y1="-725" x2="160" y2="-725"/>
<line fill="none" stroke="#4F46E5" stroke-linecap="round" stroke-linejoin="round" stroke-miterlimit="10" x1="80" y1="-690" x2="160" y2="-690"/>
<circle fill="none" stroke="#4F46E5" stroke-width="2" stroke-linecap="round" stroke-linejoin="round" stroke-miterlimit="10" cx="120" cy="120" r="95"/>
<line fill="none" stroke="#E85D43" stroke-width="2" stroke-linecap="round" stroke-linejoin="round" stroke-miterlimit="10" x1="70" y1="120" x2="170" y2="120"/>
<line fill="none" stroke="#E85D43" stroke-width="2" stroke-linecap="round" stroke-linejoin="round" stroke-miterlimit="10" x1="120" y1="70" x2="120" y2="170"/>
<polygon fill="none" stroke="#4F46E5" stroke-width="2" stroke-linecap="round" stroke-linejoin="round" stroke-miterlimit="10" points="
	1240,-2480 1220,-2420 1160,-2400 1220,-2380 1240,-2320 1260,-2380 1320,-2400 1260,-2420 "/>
<circle fill="#E85D43" cx="1240" cy="-2400" r="15"/>
<rect x="1180" y="-1570" fill="none" stroke="#4F46E5" stroke-width="2" stroke-linecap="round" stroke-linejoin="round" stroke-miterlimit="10" width="120" height="100"/>
<ellipse fill="none" stroke="#4F46E5" stroke-width="2" stroke-linecap="round" stroke-linejoin="round" stroke-miterlimit="10" cx="1240" cy="-1590" rx="40" ry="50"/>
<circle fill="#E85D43" cx="1240" cy="-1530" r="10"/>
<circle fill="none" stroke="#4F46E5" stroke-width="2" stroke-linecap="round" stroke-linejoin="round" stroke-miterlimit="10" cx="1240" cy="-790" r="20"/>
<line fill="none" stroke="#4F46E5" stroke-width="1.6" stroke-linecap="round" stroke-linejoin="round" stroke-miterlimit="10" x1="1240" y1="-770" x2="1240" y2="-730"/>
<line fill="none" stroke="#4F46E5" stroke-width="1.6" stroke-linecap="round" stroke-linejoin="round" stroke-miterlimit="10" x1="1170" y1="-730" x2="1310" y2="-730"/>
<line fill="none" stroke="#4F46E5" stroke-width="1.6" stroke-linecap="round" stroke-linejoin="round" stroke-miterlimit="10" x1="1170" y1="-730" x2="1170" y2="-690"/>
<circle fill="none" stroke="#4F46E5" stroke-width="2" stroke-linecap="round" stroke-linejoin="round" stroke-miterlimit="10" cx="1170" cy="-670" r="20"/>
<line fill="none" stroke="#4F46E5" stroke-width="1.6" stroke-linecap="round" stroke-linejoin="round" stroke-miterlimit="10" x1="1240" y1="-730" x2="1240" y2="-690"/>
<circle fill="none" stroke="#E85D43" stroke-width="2" stroke-linecap="round" stroke-linejoin="round" stroke-miterlimit="10" cx="1240" cy="-670" r="20"/>
<line fill="none" stroke="#4F46E5" stroke-width="1.6" stroke-linecap="round" stroke-linejoin="round" stroke-miterlimit="10" x1="1310" y1="-730" x2="1310" y2="-690"/>
<circle fill="none" stroke="#4F46E5" stroke-width="2" stroke-linecap="round" stroke-linejoin="round" stroke-miterlimit="10" cx="1310" cy="-670" r="20"/>
<circle fill="none" stroke="#4F46E5" stroke-width="2" stroke-linecap="round" stroke-linejoin="round" stroke-miterlimit="10" cx="1240" cy="70" r="40"/>
<polyline fill="none" stroke="#4F46E5" stroke-width="2" stroke-linecap="round" stroke-linejoin="round" stroke-miterlimit="10" points="
	1160,210 1190,140 1240,120 1290,140 1320,210 "/>
<g>
</g>
<g>
</g>
<g>
</g>
<g>
</g>
<g>
</g>
<g>
</g>
<g>
</g>
<g>
</g>
<g>
</g>
<g>
</g>
<g>
</g>
<g>
</g>
<g>
</g>
<g>
</g>
<g>
</g>
</svg>
