<?xml version="1.0" encoding="utf-8"?>
<!-- Generator: Adobe Illustrator 30.3.0, SVG Export Plug-In . SVG Version: 9.03 Build 0)  -->
<svg version="1.1" id="Layer_1" xmlns="http://www.w3.org/2000/svg" xmlns:xlink="http://www.w3.org/1999/xlink" x="0px" y="0px"
	 viewBox="0 0 1080 800" enable-background="new 0 0 1080 800" xml:space="preserve">
<circle fill="none" stroke="#4F46E5" stroke-width="2" stroke-linecap="round" stroke-linejoin="round" stroke-miterlimit="10" cx="120" cy="-1560" r="90"/>
<circle fill="none" stroke="#4F46E5" stroke-width="2" stroke-linecap="round" stroke-linejoin="round" stroke-miterlimit="10" cx="120" cy="-1560" r="60"/>
<polyline fill="none" stroke="#E85D43" stroke-width="2" stroke-linecap="round" stroke-linejoin="round" stroke-miterlimit="10" points="
	95,-1555 115,-1535 150,-1580 "/>
<line fill="none" stroke="#4F46E5" stroke-width="2" stroke-linecap="round" stroke-linejoin="round" stroke-miterlimit="10" x1="30" y1="-720" x2="100" y2="-720"/>
<line fill="none" stroke="#4F46E5" stroke-width="2" stroke-linecap="round" stroke-linejoin="round" stroke-miterlimit="10" x1="140" y1="-720" x2="210" y2="-720"/>
<circle fill="#E85D43" cx="120" cy="-720" r="10"/>
<polygon fill="none" stroke="#4F46E5" stroke-width="2" stroke-linecap="round" stroke-linejoin="round" stroke-miterlimit="10" points="
	120,30 200,70 200,140 160,190 120,210 80,190 40,140 40,70 "/>
<polyline fill="none" stroke="#4F46E5" stroke-width="2" stroke-linecap="round" stroke-linejoin="round" stroke-miterlimit="10" points="
	40,1020 80,940 160,980 200,900 "/>
<circle fill="#E85D43" cx="120" cy="960" r="15"/>
<circle fill="none" stroke="#4F46E5" stroke-width="2" stroke-linecap="round" stroke-linejoin="round" stroke-miterlimit="10" cx="1240" cy="-1560" r="100"/>
<ellipse fill="none" stroke="#E85D43" stroke-width="1.6" stroke-linecap="round" stroke-linejoin="round" stroke-miterlimit="10" cx="1240" cy="-1565" rx="40" ry="35"/>
<rect x="1180" y="-790" fill="none" stroke="#4F46E5" stroke-width="2" stroke-linecap="round" stroke-linejoin="round" stroke-miterlimit="10" width="120" height="160"/>
<rect x="1205" y="-760" fill="none" stroke="#4F46E5" stroke-width="1.2" stroke-linecap="round" stroke-linejoin="round" stroke-miterlimit="10" width="30" height="30"/>
<rect x="1245" y="-760" fill="none" stroke="#4F46E5" stroke-width="1.2" stroke-linecap="round" stroke-linejoin="round" stroke-miterlimit="10" width="30" height="30"/>
<rect x="1220" y="-690" fill="none" stroke="#E85D43" stroke-width="1.6" stroke-linecap="round" stroke-linejoin="round" stroke-miterlimit="10" width="40" height="60"/>
<rect x="1170" y="30" fill="none" stroke="#4F46E5" stroke-width="2" stroke-linecap="round" stroke-linejoin="round" stroke-miterlimit="10" width="140" height="180"/>
<line fill="none" stroke="#4F46E5" stroke-linecap="round" stroke-linejoin="round" stroke-miterlimit="10" x1="1200" y1="80" x2="1280" y2="80"/>
<line fill="none" stroke="#4F46E5" stroke-linecap="round" stroke-linejoin="round" stroke-miterlimit="10" x1="1200" y1="115" x2="1280" y2="115"/>
<line fill="none" stroke="#4F46E5" stroke-linecap="round" stroke-linejoin="round" stroke-miterlimit="10" x1="1200" y1="150" x2="1280" y2="150"/>
<circle fill="none" stroke="#4F46E5" stroke-width="2" stroke-linecap="round" stroke-linejoin="round" stroke-miterlimit="10" cx="1240" cy="960" r="95"/>
<line fill="none" stroke="#E85D43" stroke-width="2" stroke-linecap="round" stroke-linejoin="round" stroke-miterlimit="10" x1="1190" y1="960" x2="1290" y2="960"/>
<line fill="none" stroke="#E85D43" stroke-width="2" stroke-linecap="round" stroke-linejoin="round" stroke-miterlimit="10" x1="1240" y1="910" x2="1240" y2="1010"/>
<polygon fill="none" stroke="#4F46E5" stroke-width="2" stroke-linecap="round" stroke-linejoin="round" stroke-miterlimit="10" points="
	2360,-1640 2340,-1580 2280,-1560 2340,-1540 2360,-1480 2380,-1540 2440,-1560 2380,-1580 "/>
<circle fill="#E85D43" cx="2360" cy="-1560" r="15"/>
<rect x="2300" y="-730" fill="none" stroke="#4F46E5" stroke-width="2" stroke-linecap="round" stroke-linejoin="round" stroke-miterlimit="10" width="120" height="100"/>
<ellipse fill="none" stroke="#4F46E5" stroke-width="2" stroke-linecap="round" stroke-linejoin="round" stroke-miterlimit="10" cx="2360" cy="-750" rx="40" ry="50"/>
<circle fill="#E85D43" cx="2360" cy="-690" r="10"/>
<circle fill="none" stroke="#4F46E5" stroke-width="2" stroke-linecap="round" stroke-linejoin="round" stroke-miterlimit="10" cx="2360" cy="50" r="20"/>
<line fill="none" stroke="#4F46E5" stroke-width="1.6" stroke-linecap="round" stroke-linejoin="round" stroke-miterlimit="10" x1="2360" y1="70" x2="2360" y2="110"/>
<line fill="none" stroke="#4F46E5" stroke-width="1.6" stroke-linecap="round" stroke-linejoin="round" stroke-miterlimit="10" x1="2290" y1="110" x2="2430" y2="110"/>
<line fill="none" stroke="#4F46E5" stroke-width="1.6" stroke-linecap="round" stroke-linejoin="round" stroke-miterlimit="10" x1="2290" y1="110" x2="2290" y2="150"/>
<circle fill="none" stroke="#4F46E5" stroke-width="2" stroke-linecap="round" stroke-linejoin="round" stroke-miterlimit="10" cx="2290" cy="170" r="20"/>
<line fill="none" stroke="#4F46E5" stroke-width="1.6" stroke-linecap="round" stroke-linejoin="round" stroke-miterlimit="10" x1="2360" y1="110" x2="2360" y2="150"/>
<circle fill="none" stroke="#E85D43" stroke-width="2" stroke-linecap="round" stroke-linejoin="round" stroke-miterlimit="10" cx="2360" cy="170" r="20"/>
<line fill="none" stroke="#4F46E5" stroke-width="1.6" stroke-linecap="round" stroke-linejoin="round" stroke-miterlimit="10" x1="2430" y1="110" x2="2430" y2="150"/>
<circle fill="none" stroke="#4F46E5" stroke-width="2" stroke-linecap="round" stroke-linejoin="round" stroke-miterlimit="10" cx="2430" cy="170" r="20"/>
<circle fill="none" stroke="#4F46E5" stroke-width="2" stroke-linecap="round" stroke-linejoin="round" stroke-miterlimit="10" cx="2360" cy="910" r="40"/>
<polyline fill="none" stroke="#4F46E5" stroke-width="2" stroke-linecap="round" stroke-linejoin="round" stroke-miterlimit="10" points="
	2280,1050 2310,980 2360,960 2410,980 2440,1050 "/>
<g>
</g>
<g>
</g>
<g>
</g>
<g>
</g>
<g>
</g>
<g>
</g>
<g>
</g>
<g>
</g>
<g>
</g>
<g>
</g>
<g>
</g>
<g>
</g>
<g>
</g>
<g>
</g>
<g>
</g>
</svg>
