<?xml version="1.0" encoding="UTF-8"?>
<svg id="Layer_1" data-name="Layer 1" xmlns="http://www.w3.org/2000/svg" viewBox="0 0 200 200">
  <g id="Generative_Object" data-name="Generative Object">
    <path d="M180.47,0c-3.48,6-7.48,11.65-12.1,17-3.57,4.12-7.42,7.67-11.78,10.86-7.04,5.15-14.65,7.73-22.99,9.75-3.69.89-7.18,1.69-10.63,2.87-5.4,1.85-9.86,4.12-13.02,9.14-.19.07-.24-.19-.28-.3-1.44-5.16-5-9.08-9.66-11.24-3.08-1.43-6.32-2.61-10-2.58-.27,0-.59.48-.53.71.05.19.26.64.51.65,3.15.12,6.14.99,9.07,2.18.86.35,1.59,1.1,2.49,1.39,3.55,2.49,6,5.98,7.04,10.16-.82.56-1.44,1.37-1.55,2.31-.12,1.02.4,2.07,1.36,2.66-.31,8.82,10.19,14.17,17.17,17.17l8.43,3.63c.02.36.26.83.22,1.21-5.45,4.84-10.71,7.81-18.14,8.28-1.79.11-4.96-.28-6.52-.87-1.41-.53-3.17-.7-4.54-1.41-2.72-1.41-5.38-2.94-8.12-4.73-.51-.33-1.27.79-.84,1.09,2.68,1.84,5.37,3.55,8.25,4.68.52.21,1.12.77,1.74.75,3.8,1.56,7.65,2.09,12.23,1.68,6.09-.55,12.71-4.22,16.88-8.47,1.09.55,2.42.59,3.48-.1,6.82,3.76,12.44,8.74,12.98,16.88.05.8.34,1.53-.01,2.36.28-.67-.57,3.92-.6,3.87-.83.3-1.66.86-1.94,1.55-.38.92-.4,2.12.15,2.95-3.45,5.91-8.35,9.59-15.11,10.66-1.45.23-2.95.03-4.4.12-.28-.85-1.21-1.51-2.06-1.73s-1.9.24-2.62.74c-8.02-2.84-15.2-9.76-21.76-15.37l-6.64-5.68c-3.14-2.69-6.39-4.98-10.1-6.93-6.79-3.58-14.5-4.27-20.45.71-3.4,2.85-5.88,6.79-6.68,11.05-.75.14-1.2,1.18-1.76,1.59-3.63-.96-6.21-3.94-6.82-7.64l-.34-2.07c-.14-.85.04-1.65-.19-2.46-.16-.56-.1-1.14-.13-1.67-.05-.66-.17-1.34-.26-2.04-.51-3.84-2.92-7.23-6.7-8.5-.31-.1-.65.18-.78.3-.17.14.04.77.32.89,6.22,2.73,5.8,8.69,5.9,8.92.27.61.16,1.19.23,1.96l.25,2.64.3,2.44c.49,4,3.34,7.27,7.56,8.6-5.68,2.2-8.56,7.76-7.57,13.49,1.3,7.54,5.07,10.66,5.97,18.62.66,5.8-1.1,11.12-4.57,15.94-.63.88-1.31,1.56-1.79,2.39-.63-.53-2.12-.19-2.74.11-.87.42-1.41,1.29-1.49,2.33-.2.04-.31.15-.23.25-3.25,1.77-6.14,4.11-8.96,6.68-3.84,3.5-7.33,7.11-10.97,10.92-8.09,8.45-16.13,16.74-24.62,24.58v-.78c.67-.15,1.09-.77,1.65-1.31l11.4-11.03,6.97-7.28,7.33-7.57,4.64-4.71,2.73-2.52c3.11-2.87,6.05-5.33,9.78-7.44.14-.77.45-1.61.93-2.02,1.85-1.62,2.71.42,4.01-1.42l2.06-2.93c2.31-3.27,3.41-6.89,3.68-10.79.05-.78.12-1.48.01-2.28-1.33-10.13-5.03-12.3-6.06-19.27-.25-1.65-.12-3.41,0-5.21-.01.19.6-2.17.74-2.49.35-.8.78-1.62,1.38-2.33,2.71-3.23,2.21-2.04,3.82-3.56.09-.09.38-.07.52-.14.68-.38-3.74-1.32-5.65-6.17-.56-1.4-1.14-3.8-1.23-5.28l-.15-2.58c-.03-.54-.13-1.06-.19-1.61-.22-1.9-.54-3.8-1.72-5.52-1.46-2.11-3.86-3.53-6.38-3.97-.53-.09-1.19-.24-1.32-.64-.1-.32-.06-1.24.43-1.33.68-.12,2.9.41,3.6.63,4.16,1.31,6.93,5.03,7.34,9.27.06.6.17,1.19.2,1.79l.16,2.59c.18,3.01.88,6.11,3.01,8.52,1,1.13,2.57,1.69,3.78,2.52.37-1.18.6-.49,1.86-1.96-.35-.62.03-1.09.21-1.59,1.39-3.98,3.78-7.37,7.29-9.96,1.88-1.39,4.08-2.2,6.35-2.6,1.86-.33,3.96-.2,5.84-.02,1.09.1,2.16.43,3.21.74,4.95,1.5,9.89,4.94,14.04,8.38.25.21.52.26.8.53,1.28,1.26,2.45,2.11,3.79,3.26l3.68,3.15c.91.78,1.7,1.68,2.68,2.39.44.32.77.63,1.17.99,1.97,1.77,3.95,3.35,6.08,5.01,2.51,1.96,4.96,3.61,7.84,4.94.84.39,1.94,1.15,2.85.94,1.07-.24,1.84-.55,2.87-.21.82.27,1.45.53,1.93,1.42,1.2.33,2.94.1,4.36-.12,5.93-.92,10.93-4.37,14.02-9.59.38-.65.4-1.09.24-1.83-.57-2.7,2.16-3.48,2.27-3.86.05-.18-.1-.63,0-.74.55-.63.25-1.39.38-2.03.38-1.84-.11-5.94-.81-6.95-.05-.07.14-.3.06-.48-1.72-4.07-4.65-7.35-8.3-9.73-1.19-.78-2.28-2.24-3.61-2.11l-2.08.2c-.22-.08-.9-.32-1.15-.09-1.47,1.38-3.03,2.56-4.69,3.65-3.76,2.46-7.79,4.16-12.33,4.65-2.78.3-6,.12-8.64-.56l-1.83-.47c-1.43-.37-13.73-5.47-12.01-7.4.95-1.07,2.18.29,4.03,1.3l3.89,2.13c1.59.87,7.27,2.98,8.23,2.77.45-.1.96.3,1.42.32,3.97.19,2.54,0,5.62-.29,3.4-.31,10.09-3.63,12.86-6.11l1.76-1.58c.29-.26.25-.6.02-.9-.14-.18-.4-.19-.75-.35l-10.15-4.48c-2.8-1.23-5.37-2.67-7.85-4.49s-4.7-3.99-5.96-7.01c-.2-.47-.23-1.01-.48-1.51-.52-1.05-.26-2.85-.69-3.24-.56-.5-.8-1.13-1.05-1.9-.39-1.19.62-2.26,1.3-3.2-.69-3.07-2.31-5.9-4.57-7.94-5.97-5.38-11.99-4.75-13.99-5.6-.41-.17-.25-1.58.19-1.65,2.04-.31,2.5.19,3.93.34,2.63.28,8.14,2.31,10.14,4.27l2.68,2.62c2.34,2.29,3.3,6.62,3.85,5.94,1.52-1.93,3.13-3.59,5.21-4.86l1.53-.93c1.22-.74,6.01-2.6,7.25-2.96l3.68-1.05c.7-.2,1.36-.22,1.9-.36,1.89-.48,3.32-.9,5.18-1.37l1.99-.5c6.9-1.75,13.6-4.31,19.43-8.82l2.56-1.98c3.96-3.06,10.32-9.77,13.18-13.81l5.4-7.65,1.8-2.95c.23-.39.52-.74.35-1.15h.78Z" fill="#4F46E5"/>
    <path d="M183.79,0c-.24,1.13-.92,2.09-1.57,3.12l-2.44,3.86c-.86,1.35-4.16,5.97-5.19,7.25l-1.78,2.21c-3.68,4.57-7.7,8.59-12.27,12.27s-9.26,6.29-14.61,8.33c-1.42.54-2.68,1.08-4.14,1.51l-1.39.4-3.94,1.03-7.19,1.8c-3.74.94-7.29,2.04-10.68,3.86-2.14,1.15-3.92,2.62-5.3,4.58-.51.73-1,1.23-.52,2.18.33.66-.01,2.13-.55,2.71-.42.45-1.04.57-.92,1.26.65,3.57,2.35,5.45,5.06,7.66l1.23,1c2.71,2.22,14.23,7.27,17.79,8.46,1.11-.97,3.76-.23,4.18,1.19.23.79.78,1.17,1.48,1.6l2.9,1.81c1.83,1.14,6.13,4.98,7.16,6.77.58,1.02,1.28,1.97,1.77,3.05,1.14,2.49,2.17,7.39,1.76,10.24-.08.53-.31,1.06.08,1.54,2.91-3.12,4.86-6.92,5.77-11.03.16-.74.1-1.52.04-2.28-.84-.15-2.02-1.66-2.06-2.02-.45-3.68,1.52-2.71.39-4.89-.82-1.58-1.56-3.18-2.72-4.57l-2.06-2.47c-.64-.76-1.24-1.45-1.94-2.14l-4.13-4.05c-.46-.45-.41-1.17-.13-1.54.43-.55,1.19-.41,1.71.03,1.35,1.14,2.49,2.48,3.82,3.73,1.97,1.86,5.29,5.73,6.47,8l.85,1.63c.35.66.5,1.24.79,2.07,1.87.03,3.27,1.74,2.89,3.56-.15.72.21.94.66,1.36,2.45,2.29,6.14,4.42,9.16,5.32,2.41.72,2.48.45,4.58.88.69.14,1.5.12,2.2,0l3.33-.56,2.38-.71c.39-.12.97-.04,1.33.09.32.12.75.9.36,1.22-1.61,1.3-3.65,1.45-5.56,1.83-1.73.34-3.63.18-5.39.07-.54-.03-1.11-.23-1.66-.32-4.96-.78-9.37-3.37-13.02-6.88-.28.86.12,1.66-.15,2.31-.22.53-.02,1.05-.17,1.54l-.85,2.74c-1.14,3.68-4.23,7.78-7.1,10.74.51,1.47-.29,3.55-1.75,3.75-.95.13-1.17.91-1.58,1.55-1.41,2.19-2.88,4.13-4.87,5.78-3.26,2.7-6.78,4.38-10.98,5.13-2.24.41-4.98-.4-6.2.69-.29.26-.62.4-.73.7-.1.26,1.25,4.78,1.85,6.01.99,2.01,2.09,3.96,3.83,5.55.75.68,1.32,1.43,2.07,2.03,2.11,1.69,5.36,3.51,7.82,4.28.36.11,3.01,1.12,3.31,1.16-.69-.11,6.61,1.37,5.47,1.03,1.2.35,2.3.32,3.43.45l1.94.21,4.27.18c.78.03.91,1.37.38,1.78-.65.51-2.3.12-2.36.12-1.34-.14-2.55.1-3.8-.13-2.07-.38-2.29-.2-4.66-.59s-3.74-.62-6.02-1.3c-9.04-2.69-15.72-7.13-18.73-16.78-.75-2.41-.31-3.85-1.34-4.42-.18-.1-.2.44-.31.5-.53.28-.88.92-1.21,1.42-1.45,2.22-1.85,4.67-1.08,7.2,1.99,6.6,6.24,8.48,7.22,13.85.11.61-.02,1.15.21,1.78.12.32-.44.89-.29,1.14.41.68-.55,2.72-.96,3.34-.34.52-.92.44-1.43.22-1.71-.75,2.57-3.63-.82-8.88-.98-1.52-1.89-3.01-2.98-4.44-.54-.71-.87-1.47-1.31-2.21-1.62-2.7-2.42-6.36-1.84-9.59.73-4.07,3.74-5.75,2.66-6.25l-3.59-1.65-1.97-.98c-2.52-1.25-8.13-5.74-10.43-7.72l-3.66-3.16-6.92-6-5.86-4.67c-.71-.57-1.44-1.04-2.23-1.56-2.78-1.86-5.58-3.5-8.89-4.37-.48-.13-.95-.21-1.5-.39-.6-.2-4.38-.2-4.92-.06-1.4.35-2.68.75-3.73,1.39-1.9,1.15-3.45,2.62-4.84,4.38s-2.1,3.8-2.79,5.92c.88,1.41,1.46,3.75-.12,4.95.38,1.95,1.46,3.98,2.91,5.4l1.92,1.89c1.61,1.59,6.45,4.48,8.67,5.6l10.09,5.09c4.81,2.43,11.6,6.77,13.82,11.76,1.14,2.56,1.64,4.86,1.22,7.79-.82,5.77-5.77,12.14-11.99,13.36-.82.16-1.71.49-2.58.53-2.6.12-5.17.09-7.7,0-.41-.01-.93-.21-1.34-.26l-3.27-.43-6.86-.92-2.95-.17c-4.81-.28-8.98.04-13.52,1.78-.5,1.7-2.07,2.67-3.8,2.31-.8-.16-1.24-.05-1.97.44l-2.18,1.47-1.28.94c-3.86,2.84-10.38,9.62-13.81,13.19l-4.24,4.41-6.29,6.48c-.5.52-.94,1-1.45,1.51l-5.68,5.63-6.43,6.27c-.35.34-.67.77-.81,1.17h-.97c8.76-8.56,17.45-17.15,25.96-26.16,3.11-3.29,6.16-6.32,9.41-9.36,2.75-2.57,5.67-4.71,8.76-6.67.71.54,2.25.57,3.01.11.63-.38,1.55-1.31,1.63-2.23,4.47-1.31,9.03-2.18,13.76-1.65,1.01.11,3.25.2,4.21.34l5.55.84,4.51.58,2.55.17c4.38.29,9.35-.35,13.06-3.2,4.41-3.39,7.06-8.93,6.31-14.4-.45-3.26-2.23-6.11-4.66-8.41s-5.13-4.2-8.14-5.76l-6.25-3.25c-6.82-3.54-17.69-8.1-19.67-16.05.87-.62,1.24-1.69,1.21-2.69-.02-.8-.41-1.57-1.06-2.02,1.76-7.15,7.43-13.25,15.44-12.46,7.03.7,13.96,5.98,19.29,10.56l12.28,10.55c4.19,3.6,10.16,7.99,15.34,9.5.15.32.31.66.35,1.01-4.82,4.39-4.23,10.79-.82,16l3.87,5.9c1.51,2.31,1.61,5.09.34,7.52-.22.42-.09.84.23,1.01.58.3.84,0,1.11-.55,2.44-4.96-.3-8.8-3.03-12.66-3.9-5.5-5.79-10.95-.76-16.24.29.2.78.3,1.12.36.54,5.19,2.79,10.25,6.74,14.01,3.1,2.95,6.79,4.82,10.7,6.16s7.99,2.03,12.16,2.42c.99.09,1.96,0,2.94.18.57.11,3.97.46,3.49-.78-.4-1.03-1.37-.23-3.34-.65-.85-.18-1.7.11-2.49-.11-.69-.19-1.44-.14-2.15-.21-3.53-.37-6.89-1.15-10.22-2.26-9.26-3.08-15.2-9.31-16.4-18.78.43-.47.94-1,1.57-1.16,9.06.56,17.66-4.15,21.82-12.32.84,0,1.92-.6,2.31-1.19.5-.77.81-2.02.28-2.9,4.56-4.33,8.44-10.71,8.32-17.02-.19-.19.01-.11.11-.2.12-.12.25-.13.38-.12,4.17,3.98,9.39,6.71,15.22,7.21,1.63.14,3.08-.09,4.52-.2,1.64-.13,3.21-.44,4.88-1.2.38-.17.7-.37.52-.85-.16-.43-.6-.59-1.08-.41-.66.25-3.91,1.25-4.35,1.1.63.21-3.83.24-4.81.12-5.33-.65-9.8-2.99-13.79-6.75.21-1.01.36-1.96-.25-2.91-.52-.82-1.46-1.34-2.61-1.4-1.7-5.74-7.49-11.23-11.87-15.48-.31-.3-.74-.3-1.04-.03-.22.2-.36.7.02,1.06,4.11,3.88,9.97,9.57,11.51,14.87-.7.97-1.47,1.85-1.1,3.09.31,1.05,1.14,1.9,2.27,2.17.1,5.4-2.98,11.08-7.11,15.12,2.28-11.72-3.92-19.94-13.99-25.08-.57-.76-.38-1.78-1.91-2.5-.91-.43-2.14-.35-2.95.21-7.77-3.72-23.36-8.21-24.03-18.03,1.89-1.16,2.08-3.64,1.19-4.51,2.07-4.73,9.09-7.83,13.87-9.07l5.96-1.54c3.16-.82,6.19-1.5,9.43-2.52,6.59-2.06,12.64-4.97,18.09-9.21,6.7-5.22,12.32-11.41,17.22-18.32,2.48-3.51,4.93-6.93,6.69-10.7h.39Z" fill="#4F46E5"/>
    <path d="M199.41,0h.59v.52c-.12-.07-.56.14-.56-.03,0-.2.01-.37-.03-.49Z" fill="#4F46E5"/>
    <path d="M136.74,149.92c.74.82-.66,2.57-1.48,2.61-.22.01-.23-.09-.29-.27.22.66-.25-1.74,1.06-2.58.28-.18.55.05.72.24Z" fill="#4F46E5"/>
    <path d="M171.5,59.8c0,.42-1.23,1.53-1.86.95-.29-.27-.73-.72-.39-1.07.45-.47,1.07-.54,1.73-.71.47-.12.52.44.53.83Z" fill="#4F46E5"/>
    <path d="M199.43,55.46c.01.17-.46.11-.54,0-.05-.06-.03-10.04-.04-11.06,0-.17.4-.16.48-.11.09.06-.03,9.64.1,11.16Z" fill="#4F46E5"/>
    <path d="M200,44.53v14.06c-.1,0-.21.04-.39-.04v-13.98c.18-.09.29-.03.39-.04Z" fill="#4F46E5"/>
    <path d="M198.61,48.27c-.14.51.42,3.28-.47,2.91-.31-.13-.23-3.85.47-2.91Z" fill="#4F46E5"/>
    <path d="M128.71,151.68c.32-.28.66-.11.89.16.16.19.17.56-.12.79-.2.16-.55.16-.77,0-.23-.17-.34-.65,0-.95Z" fill="#4F46E5"/>
    <path d="M135.18,168.31c-.41-.11-.15-.63-.21-.81-.07-.22.24-.44.61-.26s.09,1.2-.4,1.07Z" fill="#4F46E5"/>
    <path d="M169.6,57.37c.09-.22.44-.15.6-.1s.14.39.08.62c-.04.15-.28.1-.44.12-.26.02-.41-.23-.24-.64Z" fill="#4F46E5"/>
    <path d="M132.62,163.93c.15.21-.11.79-.23.98-.17.25-.83.2-.91-.25-.15-.81.15-1.62-.12-2.26-.23-.54.02-.93.03-1.5l.17-6.54c0-.16.78-.37.77-.21s.23.56.1.73c-.42.55.07,1.11.06,1.63l-.12,5.2c-.02.79-.34,1.39.25,2.22Z" fill="#4F46E5"/>
    <path d="M171.03,62.71c.18.61-.33,1-.91.97-.32-.01-.53-.03-.68-.21-.12-.15-.22-.68.06-.74.51-.11.89-.02,1.53-.02Z" fill="#4F46E5"/>
    <path d="M135.25,160.95c.51-.07.32,1.72.11,1.82-.73-.29-.71-1.06-.41-1.64.09-.18.18-.16.3-.18Z" fill="#4F46E5"/>
    <path d="M171.15,65.71c.25.09.16.61.09.77-.07.18-1.12.18-1.31.01-.13-.11-.32-.41-.1-.59.33-.27.79-.39,1.32-.19Z" fill="#4F46E5"/>
    <path d="M135.61,163.33c.25.41.45.68.29,1.01s-.43.59-.84.5c-.39-.08-.49-.56-.49-.97,0-.36,0-.53.27-.63.22-.09.53-.32.77.09Z" fill="#4F46E5"/>
    <path d="M165.31,73.87c.38.14.09,3.95-1.01,2.84-.42-.43-.64-1.12-.05-1.48.2-.12.52.03.55-.15.07-.41,0-.88.07-1.12.04-.12.27-.14.43-.08Z" fill="#4F46E5"/>
    <path d="M167.66,75.52c.09-.23.61-.15.77-.08.19.08.16.55.08.81-.06.19-.43.1-.63.12-.33.02-.41-.39-.22-.84Z" fill="#4F46E5"/>
    <path d="M132.61,166.13c.52.42-.09,1.56-.35,2.31-.59-.24-.81-.74-.83-1.16s.09-1.04.59-1.24c.26-.1.49.01.58.09Z" fill="#4F46E5"/>
    <path d="M135.41,166.35c.08-.23.44-.13.59-.1.12.02.15.25.09.43-.06.16-.3.09-.43.11-.17.03-.38-.09-.25-.44Z" fill="#4F46E5"/>
    <path d="M168.27,77.35c.5.03.28.95.13,1.29-.07.16-.31.41-.64.22-.55-.32.17-1.53.51-1.51Z" fill="#4F46E5"/>
    <path d="M132.79,169.08c.02.16-.09,2.51-.79,1.95-.57-.46-.47-1.74.04-2.22.26-.25.73.07.76.27Z" fill="#4F46E5"/>
    <path d="M135.22,168.89c.11-.24.46-.13.48-.02.04.15.05.37,0,.54-.04.11-.29.14-.43.07-.13-.06-.18-.32-.05-.59Z" fill="#4F46E5"/>
    <path d="M132.7,171.33c.06.01.41,1.76-.29,1.46-.36-.15-.17-1.06-.11-1.42.02-.11.32-.06.4-.04Z" fill="#4F46E5"/>
    <path d="M135.22,171.83c.1-.24.43-.14.6-.11.15.03.13.37.09.61-.02.12-.27.15-.43.09-.14-.05-.39-.25-.26-.6Z" fill="#4F46E5"/>
    <path d="M132.5,174.39c-.41.02-.39-1.06-.06-1.13.52-.11.61,1.1.06,1.13Z" fill="#4F46E5"/>
    <path d="M165.48,190.68c.1-.25.44-.16.6-.08.11.06.14.22.1.47-.02.14-.21.13-.44.15-.26.02-.38-.22-.26-.53Z" fill="#4F46E5"/>
    <path d="M183.98,200H8.28c-.02-.09.18-.52.38-.52l6.44-.15c2.81-.07,2.81-.16,5.8-.03,1.48.06,3.01-.29,4.49-.02.84.15,1.46.3,2.33.23,1.25-.11,2.52,0,3.71-.03l2.35-.05c1.32-.03,2.59-.04,3.89-.02l4.71.07c.66,0,4.97-.05,5.26,0-.17-.03,4.7,0,5.1,0l3.13-.02,3.11.02h2.74c.42,0,5.92.04,5.48.06l1.93-.11c1.19-.07,2.36-.12,3.49-.03l1.23.1c.83.06,5.84-.12,7.2-.07l2.54.1,4.14-.1c.96-.02,1.89.26,2.89.01-.02,0,7.08.07,7.83.05l3.54-.06c1-.02,2.06.03,3.09.03h2.94c1.06,0,2.04.02,3.12,0l3.31-.02h3.13s2.93,0,2.93,0c3.77-.02,6.45,0,10.15.01h3.12s2.94,0,2.94,0c2.22,0,3.87-.01,6.04-.01h5.1c.68,0,1.31-.03,1.95-.03l4.1.02c.73,0,1.42.1,2.16,0,.64-.09,6.96.05,8.18.02l1.55-.04,6.46.04c.26,0,.54,0,.6-.2.03-.09-.07-.3.04-.46l3.18.02c-.88,1.21,8.58-.03,7.91,1.16Z" fill="#4F46E5"/>
    <path d="M59.21,105.1c1.3,8.84,13.38,14.44,20.87,18.15,5.15,2.55,10.98,5.39,14.91,9.67,3.23,3.53,3.87,8.08,1.83,12.41s-5.93,7.31-10.89,7.87c-2.08.24-4.34.28-6.47.03l-2.3-.27-7.24-1.02-2.07-.26c-1.53-.19-8.75-.49-9.77-.26l-.64.14c-2.11.46-4.21.73-6.53,1.24,4.59-5.65,6.59-11.4,5.83-18.33-.86-7.89-5.26-13.46-5.8-17.65l-.2-1.54c-.67-5.09,2.19-9.67,7.05-11.52.26.63.82,1.06,1.43,1.37ZM67.38,151.26l1.95.25c.57.07,1.02.11,1.58.26.75.19,1.63-.08,2.4.4.22.14.77-.17,1.11-.03,1.03.42,2.03.35,3.02.49.45.06.91.21,1.35.23l3.65.14c.33.01.48.15.86.04.91-.27,1.91.04,2.89-.17,2.94-.63,5.9-1.79,7.86-4.09,2.29-2.69,4.02-6.19,3.52-9.67-.58-4.1-3.31-6.84-6.72-9.3-6.93-5.01-15.76-7.95-23.11-12.92-1.79-1.21-3.2-2.46-4.7-3.95-1.66-1.66-3.01-3.6-3.72-5.92-.3-.98-.33-2.1-1.68-2.63-.7-.28-7.84,3.61-6.53,11.28.99,5.77,2.99,7.35,4.57,12.62l.27.88c.33,1.11.68,2.26.87,3.44l.34,2.06c.28,1.7.11,5.87-.47,7.54-.19.55-.17,1.09-.37,1.6l-.7,1.85c-.57,1.5-1.12,2.83-2.12,4.14,1.16-1.51-2.96,4.33-1.2,2.43.05-.35,4.1-.95,3.7-.92l3.27-.21c1.38-.09,2.88-.04,4.27.01l3.86.16Z" fill="#4F46E5"/>
    <path d="M137.33,125.16c-1.1-.28-1.87.42-1.98-.48-.09-.8,2.41-1.41,2.9-1.2.54.23.41.81.31,1.08-.13.38-.73.73-1.23.6Z" fill="#4F46E5"/>
    <path d="M200,124.02v21.29c-.1,0-.21.05-.39-.05v-21.19c.18-.1.29-.04.39-.05Z" fill="#4F46E5"/>
    <path d="M136.39,148.58c.11-.24.46-.13.48-.02.04.16.05.37,0,.54-.04.11-.29.14-.43.07-.13-.06-.18-.32-.05-.59Z" fill="#4F46E5"/>
    <g>
      <path d="M199.41,0c.04.12.03.29.03.49,0,.16.44-.04.56.03v44.01c-.1,0-.21-.04-.39.04v13.98c.18.09.29.03.39.04v65.43c-.1,0-.21-.05-.39.05v21.19c.18.1.29.04.39.05v54.69h-16.02c.67-1.18-8.79.05-7.91-1.16l-3.18-.02c-.11.16-.01.37-.04.46-.06.2-.34.2-.6.2l-6.46-.04-1.55.04c-1.22.03-7.54-.11-8.18-.02-.74.1-1.44,0-2.16,0l-4.1-.02c-.64,0-1.27.03-1.95.03h-5.1c-2.17,0-3.82.01-6.04,0h-2.94s-3.12,0-3.12,0c-3.71,0-6.38-.03-10.15-.01h-2.93s-3.13,0-3.13,0l-3.31.02c-1.08,0-2.06,0-3.12,0h-2.94c-1.03,0-2.09-.05-3.09-.03l-3.54.06c-.75.01-7.85-.05-7.83-.05-1,.25-1.93-.04-2.89-.01l-4.14.1-2.54-.1c-1.36-.05-6.37.13-7.2.07l-1.23-.1c-1.13-.09-2.3-.04-3.49.03l-1.93.11c.44-.03-5.07-.07-5.48-.07h-2.74s-3.11-.01-3.11-.01l-3.13.02c-.4,0-5.27-.03-5.1,0-.29-.05-4.6,0-5.26,0l-4.71-.07c-1.31-.02-2.57,0-3.89.02l-2.35.05c-1.19.02-2.47-.08-3.71.03-.87.07-1.49-.07-2.33-.23-1.49-.27-3.01.08-4.49.02-2.99-.13-2.99-.03-5.8.03l-6.44.15c-.21,0-.4.44-.38.52H2.73c.15-.4.46-.83.81-1.17l6.43-6.27,5.68-5.63c.51-.51.95-.99,1.45-1.51l6.29-6.48,4.24-4.41c3.43-3.57,9.95-10.35,13.81-13.19l1.28-.94,2.18-1.47c.73-.49,1.17-.6,1.97-.44,1.73.36,3.3-.6,3.8-2.31,4.54-1.74,8.71-2.05,13.52-1.78l2.95.17,6.86.92,3.27.43c.41.05.92.25,1.34.26,2.53.09,5.1.12,7.7,0,.88-.04,1.76-.37,2.58-.53,6.22-1.22,11.17-7.59,11.99-13.36.42-2.93-.08-5.23-1.22-7.79-2.22-4.99-9-9.33-13.82-11.76l-10.09-5.09c-2.22-1.12-7.06-4.01-8.67-5.6l-1.92-1.89c-1.45-1.43-2.53-3.46-2.91-5.4,1.57-1.2,1-3.54.12-4.95.69-2.12,1.45-4.22,2.79-5.92s2.94-3.23,4.84-4.38c1.05-.63,2.33-1.03,3.73-1.39.54-.14,4.32-.14,4.92.06.55.18,1.01.26,1.5.39,3.31.87,6.1,2.52,8.89,4.37.79.53,1.52.99,2.23,1.56l5.86,4.67,6.92,6,3.66,3.16c2.29,1.98,7.91,6.47,10.43,7.72l1.97.98,3.59,1.65c1.08.5-1.93,2.18-2.66,6.25-.58,3.23.21,6.89,1.84,9.59.45.74.77,1.5,1.31,2.21,1.09,1.43,2,2.92,2.98,4.44,3.39,5.25-.89,8.13.82,8.88.51.22,1.09.29,1.43-.22.41-.63,1.36-2.67.96-3.34-.15-.25.41-.82.29-1.14-.23-.63-.1-1.17-.21-1.78-.98-5.37-5.23-7.25-7.22-13.85-.77-2.54-.37-4.98,1.08-7.2.33-.51.67-1.14,1.21-1.42.12-.06.13-.6.31-.5,1.03.57.59,2.01,1.34,4.42,3.01,9.65,9.69,14.09,18.73,16.78,2.28.68,3.59.89,6.02,1.3s2.59.21,4.66.59c1.25.23,2.47-.01,3.8.13.06,0,1.71.39,2.36-.12.52-.41.4-1.74-.38-1.78l-4.27-.18-1.94-.21c-1.14-.12-2.24-.09-3.43-.45,1.14.34-6.15-1.14-5.47-1.03-.3-.05-2.94-1.05-3.31-1.16-2.46-.77-5.71-2.59-7.82-4.28-.75-.6-1.32-1.35-2.07-2.03-1.74-1.58-2.85-3.53-3.83-5.55-.6-1.22-1.95-5.74-1.85-6.01.11-.3.44-.44.73-.7,1.23-1.09,3.96-.28,6.2-.69,4.2-.76,7.72-2.44,10.98-5.13,1.99-1.65,3.46-3.59,4.87-5.78.41-.64.63-1.42,1.58-1.55,1.46-.2,2.26-2.29,1.75-3.75,2.88-2.96,5.97-7.07,7.1-10.74l.85-2.74c.15-.49-.05-1.01.17-1.54.27-.65-.12-1.45.15-2.31,3.64,3.51,8.06,6.09,13.02,6.88.55.09,1.12.29,1.66.32,1.76.1,3.65.27,5.39-.07,1.92-.38,3.96-.53,5.56-1.83.39-.32-.04-1.09-.36-1.22-.35-.13-.93-.21-1.33-.09l-2.38.71-3.33.56c-.71.12-1.51.14-2.2,0-2.1-.43-2.17-.16-4.58-.88-3.02-.9-6.71-3.03-9.16-5.32-.45-.42-.81-.65-.66-1.36.38-1.83-1.02-3.53-2.89-3.56-.29-.83-.44-1.41-.79-2.07l-.85-1.63c-1.18-2.26-4.5-6.13-6.47-8-1.33-1.25-2.47-2.6-3.82-3.73-.52-.44-1.29-.58-1.71-.03-.28.37-.33,1.09.13,1.54l4.13,4.05c.71.69,1.31,1.38,1.94,2.14l2.06,2.47c1.16,1.39,1.9,2.98,2.72,4.57,1.14,2.19-.84,1.21-.39,4.89.04.35,1.22,1.87,2.06,2.02.06.76.12,1.54-.04,2.28-.91,4.11-2.85,7.91-5.77,11.03-.39-.47-.15-1.01-.08-1.54.41-2.85-.62-7.76-1.76-10.24-.49-1.08-1.19-2.03-1.77-3.05-1.03-1.79-5.33-5.63-7.16-6.77l-2.9-1.81c-.7-.44-1.25-.81-1.48-1.6-.41-1.42-3.06-2.16-4.18-1.19-3.56-1.19-15.08-6.25-17.79-8.46l-1.23-1c-2.71-2.22-4.4-4.1-5.06-7.66-.13-.69.49-.81.92-1.26.54-.58.89-2.06.55-2.71-.48-.95,0-1.45.52-2.18,1.38-1.97,3.16-3.43,5.3-4.58,3.39-1.82,6.93-2.92,10.68-3.86l7.19-1.8,3.94-1.03,1.39-.4c1.46-.42,2.72-.96,4.14-1.51,5.35-2.05,10.14-4.73,14.61-8.33s8.59-7.7,12.27-12.27l1.78-2.21c1.03-1.29,4.34-5.9,5.19-7.25l2.44-3.86c.65-1.03,1.33-2,1.57-3.12h15.62ZM199.43,55.46c-.13-1.52,0-11.1-.1-11.16-.08-.06-.48-.06-.48.11,0,1.02,0,11,.04,11.06.08.11.56.16.54,0ZM198.61,48.27c-.69-.94-.77,2.78-.47,2.91.89.37.33-2.4.47-2.91ZM169.6,57.37c-.17.41-.02.66.24.64.16-.02.39.03.44-.12.06-.22.08-.56-.08-.62s-.5-.12-.6.1ZM171.5,59.8c0-.39-.05-.96-.53-.83-.66.17-1.28.24-1.73.71-.34.35.1.8.39,1.07.63.58,1.87-.52,1.86-.95ZM171.03,62.71c-.63,0-1.02-.08-1.53.02-.28.06-.19.58-.06.74.14.18.36.2.68.21.59.03,1.09-.36.91-.97ZM171.15,65.71c-.53-.2-.99-.08-1.32.19-.22.18-.03.49.1.59.2.16,1.24.17,1.31-.01.06-.17.15-.68-.09-.77ZM165.31,73.87c-.16-.06-.39-.04-.43.08-.08.24,0,.71-.07,1.12-.03.18-.35.03-.55.15-.6.36-.38,1.05.05,1.48,1.09,1.11,1.39-2.7,1.01-2.84ZM167.66,75.52c-.19.45-.11.86.22.84.19-.01.57.07.63-.12.08-.25.11-.73-.08-.81-.16-.07-.67-.14-.77.08ZM168.27,77.35c-.34-.02-1.06,1.2-.51,1.51.33.19.58-.06.64-.22.15-.34.37-1.26-.13-1.29ZM137.33,125.16c.5.13,1.1-.22,1.23-.6.09-.28.23-.85-.31-1.08-.49-.21-2.99.4-2.9,1.2.11.9.88.2,1.98.48ZM136.39,148.58c-.13.27-.08.53.05.59.14.07.39.04.43-.07.06-.17.04-.38,0-.54-.03-.11-.37-.22-.48.02ZM136.74,149.92c-.17-.19-.44-.42-.72-.24-1.31.84-.83,3.24-1.06,2.58.06.19.07.29.29.27.83-.04,2.22-1.79,1.48-2.61ZM128.71,151.68c-.33.29-.23.78,0,.95s.56.16.77,0c.29-.22.27-.6.12-.79-.23-.27-.57-.44-.89-.16ZM132.62,163.93c-.59-.83-.27-1.44-.25-2.22l.12-5.2c.01-.52-.48-1.07-.06-1.63.13-.17-.1-.57-.1-.73s-.77.04-.77.21l-.17,6.54c-.01.58-.26.96-.03,1.5.27.64-.03,1.45.12,2.26.09.45.74.5.91.25.13-.19.39-.77.23-.98ZM135.25,160.95c-.12.02-.21,0-.3.18-.3.57-.32,1.35.41,1.64.21-.09.4-1.89-.11-1.82ZM135.61,163.33c-.25-.41-.55-.17-.77-.09-.27.11-.27.28-.27.63,0,.41.11.89.49.97.41.08.68-.17.84-.5s-.04-.61-.29-1.01ZM132.61,166.13c-.09-.07-.32-.19-.58-.09-.5.2-.61.8-.59,1.24s.24.91.83,1.16c.26-.75.87-1.89.35-2.31ZM135.41,166.35c-.13.35.08.47.25.44.13-.02.37.04.43-.11.07-.18.03-.41-.09-.43-.15-.02-.51-.13-.59.1ZM135.18,168.31c.48.13.78-.9.4-1.07s-.69.04-.61.26c.06.18-.2.7.21.81ZM132.79,169.08c-.03-.2-.5-.52-.76-.27-.5.49-.61,1.76-.04,2.22.71.56.82-1.79.79-1.95ZM135.22,168.89c-.13.27-.08.53.05.59.14.07.39.04.43-.07.06-.17.04-.38,0-.54-.03-.11-.37-.22-.48.02ZM132.7,171.33c-.08-.02-.39-.06-.4.04-.06.36-.25,1.27.11,1.42.71.3.36-1.45.29-1.46ZM135.22,171.83c-.14.34.11.55.26.6.16.06.41.02.43-.09.04-.24.06-.58-.09-.61-.17-.03-.5-.14-.6.11ZM132.5,174.39c.55-.03.46-1.24-.06-1.13-.33.07-.35,1.15.06,1.13ZM165.48,190.68c-.12.32,0,.56.26.53.23-.02.42,0,.44-.15.04-.24,0-.41-.1-.47-.16-.08-.5-.17-.6.08Z" fill="#4F46E5"/>
      <path d="M179.69,0c.17.41-.11.77-.35,1.15l-1.8,2.95-5.4,7.65c-2.86,4.05-9.22,10.75-13.18,13.81l-2.56,1.98c-5.84,4.52-12.53,7.08-19.43,8.82l-1.99.5c-1.86.47-3.29.89-5.18,1.37-.54.14-1.2.15-1.9.36l-3.68,1.05c-1.24.36-6.03,2.22-7.25,2.96l-1.53.93c-2.08,1.27-3.69,2.93-5.21,4.86-.54.69-1.5-3.65-3.85-5.94l-2.68-2.62c-2-1.96-7.51-4-10.14-4.27-1.42-.15-1.88-.66-3.93-.34-.44.07-.6,1.47-.19,1.65,2,.85,8.03.22,13.99,5.6,2.26,2.04,3.89,4.87,4.57,7.94-.68.95-1.69,2.02-1.3,3.2.25.77.49,1.4,1.05,1.9.43.39.17,2.2.69,3.24.25.5.28,1.04.48,1.51,1.26,3.02,3.45,5.16,5.96,7.01s5.05,3.26,7.85,4.49l10.15,4.48c.34.15.6.16.75.35.23.29.27.64-.02.9l-1.76,1.58c-2.77,2.48-9.47,5.81-12.86,6.11-3.09.28-1.66.48-5.62.29-.46-.02-.98-.42-1.42-.32-.96.21-6.65-1.9-8.23-2.77l-3.89-2.13c-1.85-1.01-3.08-2.37-4.03-1.3-1.72,1.93,10.59,7.03,12.01,7.4l1.83.47c2.64.68,5.86.86,8.64.56,4.54-.49,8.57-2.19,12.33-4.65,1.66-1.09,3.22-2.27,4.69-3.65.25-.23.93,0,1.15.09l2.08-.2c1.33-.13,2.41,1.33,3.61,2.11,3.65,2.39,6.59,5.66,8.3,9.73.08.18-.11.41-.06.48.7,1.01,1.2,5.11.81,6.95-.13.64.18,1.4-.38,2.03-.1.12.05.56,0,.74-.11.38-2.84,1.16-2.27,3.86.16.75.15,1.19-.24,1.83-3.1,5.22-8.09,8.67-14.02,9.59-1.42.22-3.16.46-4.36.12-.48-.9-1.11-1.15-1.93-1.42-1.03-.34-1.8-.04-2.87.21-.91.21-2-.55-2.85-.94-2.88-1.33-5.33-2.98-7.84-4.94-2.13-1.66-4.11-3.23-6.08-5.01-.4-.36-.73-.67-1.17-.99-.98-.71-1.77-1.6-2.68-2.39l-3.68-3.15c-1.34-1.14-2.51-1.99-3.79-3.26-.27-.27-.54-.32-.8-.53-4.15-3.45-9.09-6.88-14.04-8.38-1.04-.32-2.12-.64-3.21-.74-1.87-.18-3.98-.31-5.84.02-2.26.4-4.47,1.21-6.35,2.6-3.51,2.59-5.9,5.97-7.29,9.96-.17.5-.55.97-.21,1.59-1.25,1.47-1.49.78-1.86,1.96-1.21-.84-2.78-1.4-3.78-2.52-2.14-2.41-2.83-5.51-3.01-8.52l-.16-2.59c-.04-.6-.14-1.18-.2-1.79-.41-4.24-3.18-7.96-7.34-9.27-.71-.22-2.92-.76-3.6-.63-.48.09-.53,1.01-.43,1.33.13.39.79.55,1.32.64,2.52.43,4.93,1.85,6.38,3.97,1.18,1.72,1.5,3.62,1.72,5.52.06.55.16,1.07.19,1.61l.15,2.58c.09,1.48.67,3.87,1.23,5.28,1.91,4.84,6.34,5.79,5.65,6.17-.14.07-.43.06-.52.14-1.61,1.52-1.11.33-3.82,3.56-.59.71-1.03,1.53-1.38,2.33-.14.32-.75,2.68-.74,2.49-.11,1.8-.24,3.56,0,5.21,1.03,6.97,4.73,9.14,6.06,19.27.11.8.04,1.5-.01,2.28-.27,3.91-1.38,7.52-3.68,10.79l-2.06,2.93c-1.29,1.83-2.16-.21-4.01,1.42-.47.41-.79,1.26-.93,2.02-3.73,2.11-6.67,4.57-9.78,7.44l-2.73,2.52-4.64,4.71-7.33,7.57-6.97,7.28-11.4,11.03c-.56.54-.98,1.17-1.65,1.31V0h179.69Z" fill="#4F46E5"/>
      <path d="M67.38,151.26l-3.86-.16c-1.39-.06-2.89-.1-4.27-.01l-3.27.21c.39-.03-3.66.58-3.7.92-1.76,1.9,2.36-3.94,1.2-2.43,1-1.31,1.55-2.65,2.12-4.14l.7-1.85c.19-.51.18-1.05.37-1.6.58-1.67.75-5.84.47-7.54l-.34-2.06c-.19-1.18-.54-2.33-.87-3.44l-.27-.88c-1.58-5.27-3.59-6.85-4.57-12.62-1.31-7.68,5.83-11.56,6.53-11.28,1.36.54,1.38,1.66,1.68,2.63.71,2.32,2.06,4.26,3.72,5.92,1.49,1.49,2.91,2.75,4.7,3.95,7.35,4.97,16.18,7.91,23.11,12.92,3.41,2.47,6.14,5.2,6.72,9.3.49,3.48-1.23,6.98-3.52,9.67-1.96,2.3-4.92,3.46-7.86,4.09-.98.21-1.98-.11-2.89.17-.38.11-.53-.02-.86-.04l-3.65-.14c-.44-.02-.9-.16-1.35-.23-.99-.14-1.99-.07-3.02-.49-.33-.14-.88.17-1.11.03-.78-.48-1.65-.21-2.4-.4-.55-.14-1.01-.18-1.58-.26l-1.95-.25Z" fill="#4F46E5"/>
    </g>
  </g>
</svg>