<?xml version="1.0" encoding="UTF-8"?>
<svg id="Layer_1" data-name="Layer 1" xmlns="http://www.w3.org/2000/svg" viewBox="0 0 180.6 182.84">
  <g id="Generative_Object" data-name="Generative Object">
    <path d="M.36,98.42c-.49-.42-.14-1.21-.18-1.79.35.48.12,1.19.18,1.79Z" fill="#FFFFFF"/>
    <path d="M128.64,178.43c.03.19-.13.22-.33.21-.16,0-.42.02-.24-.22.14-.2.18-.19.31-.25.07.09.07.31.26.26Z" fill="#4F46E5"/>
    <path d="M51.91,178.43c.16,0,.28-.11.24-.29.12.05.25.14.35.27.2.26-.14.21-.24.22-.21.03-.38-.06-.34-.2Z" fill="#4F46E5"/>
    <g>
      <path d="M128.84,8.69c-.12.21.14.18.25.23,8.54,3.96,16.33,9.43,23.29,15.95,12.95,12.15,22.07,27.88,25.99,45.17,3.77,16.68,2.69,34.1-2.74,50.39-3.33,9.99-10.05,18.1-14.63,27.14l-.36.71c-7,13.81-22.25,22.22-36.63,28.11-20.89,8.55-45.71,8.55-66.75.24-.03-.37-.52-.2-.72-.24-10.73-4.56-30.58-16.98-35.56-27.72-1.52-1.7-1.13-.91-1.46-1.35-4.39-5.79-8.25-11.91-11.29-18.66-4.32-9.62-6.96-19.83-7.86-30.24-.05-.59.17-1.31-.18-1.79-.68-11.27.45-22.56,3.9-33.5,4.92-15.58,14.06-29.47,26.33-40.3C45.96,9.11,65.23,1.41,84.88.21c3.52-.22,7.08-.32,10.59-.02l2.95.25c10.65.91,20.67,3.85,30.42,8.25ZM64.54,176.26c15.9,4.81,32.67,5.03,48.48.87,19.14-5.03,35.5-16.58,47.35-32.29,8.85-11.75,14.83-25.25,17.37-39.74,5.92-33.87-7.96-67.97-35.93-87.99C128.42,7.53,113.29,1.55,97.52.65l-4.01-.23c-2.12-.12-4.33-.11-6.44,0l-4.01.21C58.82,1.92,32.92,16.82,17.7,38.36,2.14,60.39-2.27,87.93,4.85,113.87c3.2,11.68,8.75,22.38,16.18,31.96,5.93,7.65,12.72,14.35,20.82,19.67,7.01,4.61,14.49,8.28,22.7,10.77Z" fill="#4F46E5"/>
      <path d="M56.53,176.4c-.46-.09-1.2.53-1.64.72-.9.4-2.05.28-2.74,1.03-12.52-5.34-26.03-15.68-33.72-27.04.48-.34.5-1.2.71-1.75.24-.64.57.7.37-2.04.33.44-.06-.35,1.46,1.35,4.98,10.74,24.83,23.16,35.56,27.72Z" fill="#FFFFFF"/>
      <path d="M162.17,151.13c-5.27,7.57-12.16,14.03-19.9,19.3-4.44,3.02-9.03,5.79-13.89,7.73-1.06-1.25-2.75-1.67-4.37-1.77,14.38-5.89,29.63-14.3,36.63-28.11l.36-.71c-.13,2.37,1.06,1.33.89,2.67-.03.26.1.74.28.88Z" fill="#FFFFFF"/>
      <path d="M18.43,151.11c7.7,11.36,21.21,21.7,33.72,27.04.04.17-.08.28-.24.29-2.79-.41-5.78-.71-8.56-1.8-2.51-.99-4.45-2.67-6.63-3.94.05-.18-.09-.22-.22-.27-.1-.04-.12-.04-.22-.01-.04-.22-.27-.34-.44-.44-.11-.06-.15-.1-.26,0-6.75-5.17-12.96-10.85-18.08-17.59-.22-.66.12-2.7.93-3.27Z" fill="#4F46E5"/>
      <path d="M162.6,155.04c-2.88,3.49-8.59,9.98-12.53,13.02-4,3.09-8.1,6.23-12.71,8.49-2.71,1.33-5.87,1.36-8.72,1.88-.19.04-.19-.18-.26-.26,4.86-1.94,9.45-4.71,13.89-7.73,7.74-5.27,14.63-11.74,19.9-19.3.81.61.93,1.88,1.04,2.95-.11.28-.44.76-.61.96Z" fill="#4F46E5"/>
      <path d="M35.58,171.97c-.2.16-.57-.02-.8.11-1.03.58-4.24-.96-5.16-1.41-.72-.35-1.22-.97-1.96-1.15-3.74-3.48-7.23-7.16-10.15-11.37-.1-1.22.17-3.25,0-3.77,5.11,6.74,11.33,12.42,18.08,17.59Z" fill="#FFFFFF"/>
      <path d="M163.06,158.13c-2.88,4.21-6.41,7.92-10.14,11.39-1.36.42-1.11-1.47-2.85-1.46,3.94-3.04,9.65-9.54,12.53-13.02-.21,1.99.53-.01.46,3.09Z" fill="#FFFFFF"/>
      <path d="M152.91,169.52c3.73-3.47,7.26-7.17,10.14-11.39-.11,5.13-5.41,9.92-10.14,11.39Z" fill="#4F46E5"/>
      <path d="M27.66,169.51c-1.53-.38-2.91-1.28-4.32-2.22-3.15-2.09-5.54-5.5-5.83-9.15,2.93,4.2,6.42,7.89,10.15,11.37Z" fill="#4F46E5"/>
      <path d="M57.25,176.64c-.3-.04-.53-.16-.72-.24.21.04.69-.13.72.24Z" fill="#FFFFFF"/>
      <path d="M129.09,8.92c-.11-.05-.36-.02-.25-.23.11.05.34.02.25.23Z" fill="#FFFFFF"/>
      <path d="M36.28,172.42c-.22.06-.45-.24-.44-.44.18.09.4.22.44.44Z" fill="#FFFFFF"/>
      <path d="M36.72,172.69c-.12-.07-.29-.07-.22-.27.13.05.27.09.22.27Z" fill="#FFFFFF"/>
      <path d="M64.54,176.26c-8.2-2.48-15.69-6.16-22.7-10.77-8.1-5.32-14.89-12.02-20.82-19.67-7.43-9.58-12.98-20.28-16.18-31.96-7.12-25.94-2.71-53.48,12.85-75.51C32.92,16.82,58.82,1.92,83.05.64l4.01-.21c2.12-.11,4.33-.12,6.44,0l4.01.23c15.77.9,30.91,6.88,44.29,16.47,27.96,20.02,41.85,54.12,35.93,87.99-2.53,14.49-8.52,28-17.37,39.74-11.84,15.71-28.21,27.26-47.35,32.29-15.8,4.15-32.57,3.94-48.48-.87ZM125.79,168.77c12.23-5.65,22.77-14.27,30.93-24.89-.24-.46-.22-.57.03-.89,15.26-19.33,21.24-44.96,16.74-69.1-6.65-34.93-34.84-62.04-69.94-67.86-1.38-1.47-2.77-3.27-4.93-3.74-5.47-1.21-11.19-1.16-16.68,0-2.13.45-3.47,2.27-4.9,3.73C43.09,11.64,15.29,37.4,7.69,71.09c-5.59,24.8.39,51.99,16.17,71.86.13.16.24.4.29.52.03.07-.28.12-.22.41,23.55,31.27,66.36,41.26,101.85,24.88Z" fill="#FFFFFF"/>
      <path d="M125.79,168.77c-35.49,16.38-78.31,6.39-101.85-24.88-.06-.29.25-.34.22-.41-.05-.12-.16-.36-.29-.52C8.09,123.07,2.1,95.89,7.69,71.09,15.29,37.4,43.09,11.64,77.04,6.02c1.43-1.47,2.78-3.28,4.9-3.73,5.48-1.16,11.21-1.21,16.68,0,2.16.48,3.55,2.27,4.93,3.74,35.1,5.82,63.29,32.92,69.94,67.86,4.49,24.13-1.48,49.77-16.74,69.1-.25.32-.27.43-.03.89-8.16,10.62-18.69,19.25-30.93,24.89ZM114.69,170.15c16.16-4.96,30.25-14.93,40.42-28.31,10.56-13.9,17.16-30.07,18.08-47.65.37-7.03.03-13.97-1.32-20.93-4.37-22.56-17.93-42.2-37.24-54.49-9.2-5.85-19.37-9.95-30.24-11.87-.23.33.34.52.18.98-9.44-2.67-19.1-2.66-28.53-.01l.25-.97c-24.26,4.32-45.52,19.36-57.94,40.64-6.52,11.17-10.22,23.78-10.96,36.73-1.18,20.62,5.19,40.73,17.78,56.97,1.94,2.5,3.66,4.86,5.87,7.2,21.38,22.69,53.93,30.84,83.66,21.71Z" fill="#4F46E5"/>
      <path d="M114.69,170.15c-29.73,9.12-62.29.98-83.66-21.71-2.2-2.34-3.93-4.7-5.87-7.2-12.59-16.23-18.96-36.35-17.78-56.97.74-12.95,4.45-25.56,10.96-36.73C30.75,26.26,52.01,11.22,76.28,6.9l-.25.97c9.43-2.65,19.09-2.66,28.53.01.15-.46-.41-.65-.18-.98,10.87,1.92,21.03,6.02,30.24,11.87,19.32,12.28,32.88,31.93,37.24,54.49,1.35,6.96,1.69,13.91,1.32,20.93-.92,17.58-7.52,33.75-18.08,47.65-10.17,13.38-24.25,23.35-40.42,28.31ZM111.81,167.23c15.98-4.58,30.35-14.31,40.18-27.28,16.79-22.15,22.34-50.25,13.14-76.57-9.15-26.18-31.74-45.9-58.97-51.67-.21-.88-.43-1.6-.88-2.42-9.82-3-20.17-3.02-29.99.02-.49.81-.6,1.54-.91,2.42-28.07,5.89-51.3,26.94-59.76,54.21-8,25.8-2.19,52.54,13.95,73.94,18.98,25.19,52.61,36.12,83.24,27.35Z" fill="#FFFFFF"/>
      <path d="M111.81,167.23c-30.63,8.77-64.26-2.16-83.24-27.35-16.13-21.4-21.95-48.14-13.95-73.94,8.46-27.27,31.7-48.33,59.76-54.21.31-.88.42-1.61.91-2.42,9.81-3.03,20.17-3.02,29.99-.02.46.82.68,1.54.88,2.42,27.23,5.76,49.82,25.49,58.97,51.67,9.2,26.32,3.65,54.42-13.14,76.57-9.83,12.97-24.2,22.7-40.18,27.28ZM150.95,137.36c10.2-13.31,16.21-29.3,16.65-46.01.44-16.72-4.35-33.09-13.96-46.66-3.54-5-7.49-9.55-12.15-13.63-9.96-8.74-21.88-14.99-34.8-17.84-.15.22.05.93-.32.8-10.44-3.44-21.46-3.37-31.93-.08-.29.09-.39-.11-.47-.06-.08.05.02-.66-.08-.63-8.98,1.93-17.38,5.55-25.12,10.53C10.98,48.09,1.62,98.25,27.88,135.03c14.08,19.73,36.3,31.88,60.42,32.49,24.47.61,47.58-10.48,62.66-30.16Z" fill="#4F46E5"/>
      <path d="M150.95,137.36c-15.08,19.67-38.19,30.77-62.66,30.16-24.12-.6-46.34-12.76-60.42-32.49C1.62,98.25,10.98,48.09,48.78,23.78c7.73-4.98,16.14-8.6,25.12-10.53.1-.02,0,.68.08.63.08-.05.17.16.47.06,10.47-3.29,21.49-3.37,31.93.08.37.12.17-.58.32-.8,12.92,2.85,24.84,9.1,34.8,17.84,4.66,4.09,8.61,8.63,12.15,13.63,9.61,13.57,14.4,29.94,13.96,46.66-.44,16.71-6.46,32.7-16.65,46.01ZM142,141.77c2.29-2.36,4.3-4.67,6.1-7.27.26.26.38.41.48.41.06,0,.18-.11.28-.24,21.58-28.46,20.46-68.29-3.73-94.9-10.17-11.18-23.49-19.13-38.09-22.59-.1-.67,0-1.09-.26-1.69-10.68-3.73-22.26-3.64-32.97,0l-.32,1.72c-26.86,6.39-48.62,27.71-55.05,54.72-4.28,17.98-1.72,36.86,7.06,53.06,1.96,3.61,4.08,7.06,6.74,9.78,3.18,3.27,6.06,6.99,9.64,10.22,28.96,26.12,73.03,24.7,100.13-3.24Z" fill="#FFFFFF"/>
      <path d="M142,141.77c-27.1,27.94-71.16,29.36-100.13,3.24-3.58-3.23-6.45-6.95-9.64-10.22-2.66-2.73-4.78-6.17-6.74-9.78-8.79-16.2-11.34-35.09-7.06-53.06,6.43-27.02,28.19-48.34,55.05-54.72l.32-1.72c10.72-3.64,22.3-3.73,32.97,0,.26.6.16,1.03.26,1.69,14.6,3.46,27.92,11.4,38.09,22.59,24.19,26.61,25.31,66.45,3.73,94.9-.1.13-.21.24-.28.24-.1,0-.22-.16-.48-.41-1.8,2.61-3.81,4.91-6.1,7.27ZM117.39,155.56c11.74-5,21.79-13,29.22-23.23.27-.04.43.31.64.46,22.37-29.46,19.05-71.09-8.31-96.32-9.03-8.33-19.9-14.39-31.86-17.37-.15.24-.01.49-.29.73-10.66-3.76-22.07-3.72-32.78-.11-.43.14-.35-.59-.5-.55-10.37,2.49-19.85,7.41-28.05,14.01-48.95,39.33-16.26,99.32-12.24,99.41l.95.02c-1.78-.04,33.39,44.19,83.24,22.95Z" fill="#4F46E5"/>
      <path d="M117.39,155.56c-49.85,21.24-85.02-22.99-83.24-22.95l-.95-.02c-4.02-.09-36.7-60.08,12.24-99.41,8.21-6.59,17.68-11.52,28.05-14.01.16-.04.08.7.5.55,10.71-3.61,22.13-3.65,32.78.11.28-.24.14-.49.29-.73,11.96,2.98,22.83,9.04,31.86,17.37,27.36,25.23,30.69,66.86,8.31,96.32-.2-.16-.37-.5-.64-.46-7.43,10.22-17.48,18.22-29.22,23.23ZM72.38,25.96c11.77-4.61,24.47-4.57,36.03.1l.23-1.04c27.8,8.33,47.6,33.61,48.06,63.04.22,14.19-4.18,28.07-12.42,39.62-.21.29-.56-.37-.73-.47-2.67,4-5.76,7.53-9.47,10.87.56.83,1.15,1.25,1.99,1.76,3.24-3.28,6.33-6.55,9.15-10.16,10.15-12.96,14.52-30.31,13.04-46.88-.81-9.09-3.47-17.53-7.71-25.45-8.89-16.61-24.29-28.82-42.38-33.96-.48-.14-.65-1.31-1.47-.87,0-.59.09-.76.01-1.22-10.66-3.81-22.21-3.76-32.89.02l.05,1.25c-.78-.44-.93.67-1.4.8-16.53,4.72-30.91,15.31-40.09,29.92-6.39,10.17-10,21.69-10.33,33.75-.42,15.16,4.07,30.92,13.33,42.66,2.8,3.55,5.83,6.95,9.15,10.11.87-.56,1.38-.97,1.93-1.69-3.64-3.4-6.76-6.9-9.4-10.91-.25.21-.6.74-.79.47-3.73-5.31-6.67-11.05-8.76-17.08-9.24-26.75-.37-56.33,21.78-73.73,6.71-5.27,14.31-9.4,22.64-11.84.25.24-.11.86.43.94ZM73.5,31.14c10.95-4.25,22.88-4.19,33.73.07.25-.06.26-.61.57-.74,12.6,3.97,23.59,11.73,31.42,22.17,15.49,20.67,16.32,48.75,1.92,70.26-.14.2-.25.29-.38.28-.1,0-.48-.5-.56-.39-2.86,4.17-6.36,8.31-10.24,11.71.57.84,1.21,1.26,1.94,1.82,3.86-3.57,7.11-7.26,10.16-11.58,7.85-11.14,11.66-24.83,11.04-38.46-1.21-26.75-19.55-49.41-44.79-57.25-.3-.12.06-.96.09-1.33-12.01-4.81-24.25-4.84-36.19.05.04.57.32.85.1,1.3-19.76,6.08-35.69,21.53-41.94,41.2-5.84,18.38-2.87,38.84,8.25,54.63,3,4.25,6.29,8.07,10.11,11.46.78-.67,1.36-1.08,1.9-1.78-3.97-3.63-7.44-7.54-10.27-11.97-.35.35-.42.63-.66.65-6.6-9.75-10.16-20.82-10.48-32.59-.74-27.69,17.4-52.06,43.62-60.17.29.11.2.65.66.64ZM104.17,35.65c.41-.23.27-.81.51-.84,26.53,7.27,44.48,32.7,41.43,60.36-.95,8.67-3.95,16.99-8.66,24.35-.24.04-.48-.27-.67-.16-2.84,4.42-6.19,8.28-10.16,11.84.57.78,1.09,1.33,1.84,1.94,3.92-3.6,7.34-7.41,10.2-11.75.18-.27-.28-.62-.56-.77,11.42-17.18,12.59-39.5,2.93-57.81-7.39-14.01-20.3-24.36-35.43-28.74.48-.8,1-.88.83-1.44-10.55-4-22.01-3.93-32.39.06.17.6.63.8.97,1.38-15.89,4.6-29.16,15.6-36.37,30.51-8.67,17.93-7.2,39.29,3.78,55.89-.18.34-.47.44-.58.77,2.94,4.39,6.25,8.33,10.28,11.87.74-.59,1.26-1.15,1.81-1.92-3.96-3.54-7.3-7.41-10.06-11.81-.13-.21-.34.05-.63.2-9.99-15.26-11.92-34.44-5.01-51.39s20.68-28.68,37.67-33.41c.25.3.15.65.49.82,9.08-2.93,18.68-3.05,27.77.03ZM121.33,48.72c20.29,15.52,25.95,43.55,13.33,65.55-.25-.43-.02-.79-.3-1.07-2.81,5.26-6.37,9.77-10.82,13.82.39.87.83,1.49,1.48,2.22,3.96-3.64,7.56-7.63,10.25-12.37.13-.47-.62-1.14-.28-1.74,4.28-7.59,6.84-15.91,6.91-24.62l.02-2.72c.08-10.19-3.56-20.11-9.5-28.42-7.1-9.91-17.39-16.96-29.14-20.19.22-.63.64-1.06.59-1.72-8.85-3.04-18.29-2.99-27.14.02-.07.65.39,1.05.61,1.74-13.05,3.57-24.21,11.85-31.21,23.32-9.87,16.17-9.93,36.46-.34,52.82.05.54-.51,1.08-.41,1.59,2.77,4.71,6.24,8.79,10.29,12.3.62-.84,1.07-1.37,1.4-2.22-4.42-4.05-7.95-8.53-10.76-13.72-.34.27-.2.52-.3,1.07-12.13-21.09-7.49-47.97,11.06-63.82,5.89-5.04,12.78-8.83,20.39-10.83.26.14.4.91.74.8,8-2.4,16.4-2.41,24.31.05.25.08.43-.84.67-.85,6.65,1.67,12.71,4.81,18.18,9ZM133.71,103.91c-.19.04-.22-.24-.41-.22.08-.09.08-.22-.2-.45-2.33,6.96-6.27,13.23-11.61,18.53.13,1.01.43,1.83.83,2.9,4.86-4.58,8.84-9.94,11.51-16.05l-.21-3.14c2.15-6.18,3.27-12.24,2.83-18.9l-.17-2.51c-.53-8.04-3.8-15.66-8.87-22.42-6.67-8.88-15.98-14.73-26.12-17.42l.36-2.02c-7.37-2.1-15.15-2.09-22.6-.03l.26,2.06c-20.01,5.25-34.14,22.18-35.23,42.52-.36,6.65.77,12.57,2.87,18.67l-.19,3.14c2.59,6.12,6.57,11.41,11.41,16.07.51-.87.69-1.79.95-2.8-5.24-5.3-9.36-11.57-11.69-18.82-.28.41.07.96-.32,1.36-2.11-5.39-3.06-12.45-2.58-18.24l.2-2.45c1.51-18.35,19.58-36.96,33.9-38.87l.62-.08.42.59c1.52,2.17,14.34-1.81,21.32.05.13-.34.18-.53.3-.61.08-.05.2-.05.43.01,21.06,5.63,35.93,25.24,34.29,47.58-.29,3.98-1.1,7.81-2.32,11.53ZM101.46,50.83c-.23-1.36-.46-2.15-.47-3.3-7.04-2.1-14.44-2.09-21.4,0,0,1.29-.27,2.15-.51,3.3,7.36-2.22,14.96-2.17,22.38-.01ZM104.39,57.4c10.98,4.95,18.56,14.96,20.31,26.91,1.3,8.85-.97,17.79-6.21,25.09.19,1.23.51,2.17.91,3.48,13.24-16.01,10.82-39.83-5.33-52.87l-6.44-2.74c-1.93-.82-3.37-2.02-4.7-3.77-8.14-2.89-17.16-3.02-25.24.07-1.02,1.2-2.22,2.51-3.69,3.18l-7.5,3.41c-8.33,6.36-13.06,16.29-13.79,26.61-.67,9.43,2.49,18.82,8.43,26.03.65-1.31.71-2.24.98-3.42-5.81-7.98-7.9-18.01-5.74-27.75,4.72-21.31,28.03-33.25,48.02-24.23ZM113.57,70.8c7.11,9.03,8.36,21.04,3.43,31.33-.27,1.52.36,3.04.77,4.42,8.69-13.58,6.04-31.16-5.83-41.77-9-8.05-21.66-10.55-33.1-6.2-8.93,3.39-16.06,10.62-19.27,19.75-3.36,9.52-2.15,19.93,3.28,28.26.4-1.53.94-2.93.76-4.44-4.46-9.33-3.92-19.95,1.52-28.68,5.1-8.17,13.79-13.31,23.17-13.94s19.19,3.55,25.27,11.27ZM114.54,102.04c4.83-8.93,4.19-19.71-1.31-28.04-6.06-9.16-16.72-13.79-27.55-11.99-8.14,1.35-15.17,6.49-19.01,13.09-4.63,7.96-5.11,17.1-1.47,25.24,3.89,8.68,11.98,14.71,21.32,16.03,11.43,1.62,22.54-4.21,28.02-14.33ZM48.81,84.84c.14,3.78-.85,7.29-.48,10.92.92,8.87,5.53,16.77,11.36,23.19.55-1.2.58-2.2.89-3.26-13.66-15.27-13.51-38.29.33-53.52-3.22.79-5.66,2.07-7.28,4.95-3.33,5.92-5.1,10.52-4.83,17.73ZM132.48,95.47c-.71-4.67-.38-13.92-1.2-17.6-1.01-4.56-2.8-9.03-5.77-12.69-1.46-1.8-3.85-2.42-5.96-3.16,14.04,15.56,14.25,38,.51,53.7.33,1.17.39,2.14.87,3.18,6.15-6.57,10.22-14.49,11.56-23.43ZM114.51,110.88l1.31-6.65c-6.07,10.02-17.18,15.75-28.85,14.4-9.27-1.07-17.31-6.44-22.22-14.38l1.43,6.73c13.41,14.36,34.87,14.35,48.33-.11ZM113.32,118.75l.49-4.14c-9.67,8.96-23.27,11.69-35.64,7.07-4.3-1.61-7.9-4.06-11.42-7.03l.63,4.19c13.88,10.65,32.13,10.57,45.95-.09ZM113.11,121.74c-14.23,9.93-31.66,9.67-45.71,0l-.37,3.01c14.03,9.5,32.35,9.45,46.47.07l-.39-3.09ZM115.13,129.86l-1.01-2.53c-14.63,9.27-33.03,9.27-47.63,0-.45.92-.68,1.72-.94,2.58,15.28,9.55,34.39,9.46,49.58-.04ZM117.14,134.79c-.4-1.01-.63-1.7-1.11-2.46-16.22,9.68-35.27,9.63-51.47,0-.49.79-.81,1.55-1.04,2.51,17.02,9.96,36.78,9.86,53.62-.04ZM117.95,137.29c-17.28,10.13-38.32,9.99-55.42-.08-.45.97-.69,1.73-.9,2.57,17.75,10.33,39.54,10.35,57.33,0-.31-.87-.34-1.74-1.01-2.49ZM59.26,140.82c-1.52.13-2.83-.28-4.45.15,21.38,15.18,49.98,15.08,71.2-.17h-4.79c-19.27,11.82-42.65,11.66-61.96.02ZM46.29,141.37c2.47,2.05,4.79,3.83,7.4,5.55,20.21,13.34,46.14,14.66,67.54,3.33,4.76-2.52,9.21-5.59,13.39-9.19-1.25-.25-2.56-.29-3.66-.21-2.56,1.89-5.11,3.69-7.84,5.32-20.49,12.28-46.37,12.08-66.63-.61-2.3-1.44-4.53-2.93-6.75-4.71-.5.05-3.91-.21-3.45.52Z" fill="#FFFFFF"/>
      <path d="M72.38,25.96c-.54-.08-.18-.7-.43-.94-8.33,2.44-15.93,6.57-22.64,11.84-22.15,17.4-31.02,46.98-21.78,73.73,2.08,6.03,5.03,11.77,8.76,17.08.19.27.55-.25.79-.47,2.64,4,5.75,7.51,9.4,10.91-.55.73-1.06,1.13-1.93,1.69-3.32-3.16-6.35-6.56-9.15-10.11-9.26-11.74-13.76-27.5-13.33-42.66.34-12.06,3.94-23.58,10.33-33.75,9.17-14.6,23.56-25.2,40.09-29.92.47-.13.62-1.24,1.4-.8l-.05-1.25c10.68-3.78,22.23-3.83,32.89-.02.08.46-.02.63-.01,1.22.82-.44.99.74,1.47.87,18.09,5.14,33.49,17.35,42.38,33.96,4.23,7.91,6.9,16.36,7.71,25.45,1.48,16.57-2.89,33.93-13.04,46.88-2.82,3.6-5.91,6.88-9.15,10.16-.84-.51-1.43-.93-1.99-1.76,3.71-3.34,6.8-6.87,9.47-10.87.17.1.51.77.73.47,8.24-11.54,12.64-25.43,12.42-39.62-.46-29.43-20.25-54.71-48.06-63.04l-.23,1.04c-11.57-4.67-24.26-4.71-36.03-.1Z" fill="#4F46E5"/>
      <path d="M73.5,31.14c-.46,0-.36-.53-.66-.64-26.21,8.11-44.36,32.48-43.62,60.17.32,11.76,3.88,22.83,10.48,32.59.24-.02.31-.31.66-.65,2.83,4.43,6.3,8.33,10.27,11.97-.54.7-1.12,1.11-1.9,1.78-3.82-3.39-7.12-7.21-10.11-11.46-11.11-15.78-14.09-36.25-8.25-54.63,6.25-19.67,22.19-35.12,41.94-41.2.22-.45-.06-.73-.1-1.3,11.94-4.89,24.18-4.86,36.19-.05-.02.38-.39,1.22-.09,1.33,25.24,7.84,43.58,30.51,44.79,57.25.62,13.64-3.19,27.32-11.04,38.46-3.04,4.32-6.29,8.02-10.16,11.58-.74-.56-1.37-.98-1.94-1.82,3.89-3.4,7.38-7.55,10.24-11.71.07-.11.46.38.56.39.13,0,.24-.08.38-.28,14.4-21.51,13.57-49.6-1.92-70.26-7.83-10.44-18.82-18.21-31.42-22.17-.31.13-.32.68-.57.74-10.85-4.27-22.78-4.32-33.73-.07Z" fill="#4F46E5"/>
      <path d="M104.17,35.65c-9.09-3.08-18.69-2.96-27.77-.03-.34-.17-.24-.52-.49-.82-16.98,4.72-30.98,16.99-37.67,33.41s-4.98,36.14,5.01,51.39c.29-.15.49-.41.63-.2,2.76,4.4,6.1,8.27,10.06,11.81-.55.77-1.07,1.33-1.81,1.92-4.03-3.54-7.34-7.48-10.28-11.87.1-.33.4-.43.58-.77-10.98-16.6-12.45-37.96-3.78-55.89,7.21-14.91,20.48-25.92,36.37-30.51-.35-.58-.8-.78-.97-1.38,10.38-3.99,21.85-4.06,32.39-.06.18.56-.35.64-.83,1.44,15.14,4.38,28.04,14.72,35.43,28.74,9.66,18.31,8.49,40.63-2.93,57.81.28.15.74.5.56.77-2.86,4.34-6.28,8.15-10.2,11.75-.75-.61-1.26-1.16-1.84-1.94,3.97-3.56,7.31-7.42,10.16-11.84.19-.11.42.2.67.16,4.71-7.36,7.71-15.68,8.66-24.35,3.04-27.66-14.9-53.09-41.43-60.36-.24.03-.11.61-.51.84Z" fill="#4F46E5"/>
      <path d="M46.29,141.37c-.45-.73,2.95-.48,3.45-.52,2.22,1.78,4.45,3.27,6.75,4.71,20.26,12.68,46.14,12.89,66.63.61,2.73-1.64,5.28-3.44,7.84-5.32,1.1-.08,2.41-.04,3.66.21-4.18,3.6-8.63,6.67-13.39,9.19-21.4,11.34-47.33,10.02-67.54-3.33-2.6-1.72-4.93-3.5-7.4-5.55Z" fill="#4F46E5"/>
      <path d="M59.26,140.82c19.32,11.64,42.69,11.81,61.96,0h4.79c-21.22,15.24-49.82,15.34-71.2.16,1.62-.43,2.93-.02,4.45-.15Z" fill="#4F46E5"/>
      <path d="M117.95,137.29c.67.75.69,1.62,1.01,2.49-17.79,10.34-39.58,10.32-57.33,0,.21-.83.45-1.6.9-2.57,17.1,10.08,38.13,10.22,55.42.08Z" fill="#4F46E5"/>
      <g>
        <path d="M114.54,102.04c-5.48,10.13-16.59,15.95-28.02,14.33-9.33-1.32-17.43-7.35-21.32-16.03-3.65-8.14-3.17-17.28,1.47-25.24,3.84-6.6,10.87-11.74,19.01-13.09,10.83-1.8,21.48,2.83,27.55,11.99,5.51,8.33,6.15,19.11,1.31,28.04ZM93.53,113.44c11.32-1.54,20.09-10.63,21.19-21.81,1.52-15.46-11.31-28.22-26.51-26.96s-25.56,15.8-21.66,30.67c3.11,11.83,14.7,19.77,26.98,18.1Z" fill="#4F46E5"/>
        <path d="M104.39,57.4c-19.99-9.02-43.3,2.92-48.02,24.23-2.16,9.74-.07,19.77,5.74,27.75-.27,1.17-.32,2.1-.98,3.42-5.94-7.21-9.1-16.6-8.43-26.03.74-10.33,5.47-20.25,13.79-26.61l7.5-3.41c1.47-.67,2.67-1.98,3.69-3.18,8.07-3.09,17.09-2.95,25.24-.07,1.33,1.75,2.77,2.95,4.7,3.77l6.44,2.74c16.15,13.04,18.57,36.85,5.33,52.87-.4-1.31-.72-2.25-.91-3.48,5.25-7.3,7.52-16.24,6.21-25.09-1.76-11.95-9.33-21.95-20.31-26.91Z" fill="#4F46E5"/>
        <path d="M113.57,70.8c-6.08-7.72-15.5-11.93-25.27-11.27s-18.07,5.77-23.17,13.94c-5.44,8.73-5.97,19.35-1.52,28.68.19,1.5-.35,2.91-.76,4.44-5.43-8.33-6.64-18.74-3.28-28.26,3.22-9.12,10.35-16.36,19.27-19.75,11.44-4.34,24.1-1.84,33.1,6.2,11.87,10.61,14.52,28.19,5.83,41.77-.41-1.38-1.04-2.91-.77-4.42,4.93-10.29,3.68-22.31-3.43-31.33Z" fill="#4F46E5"/>
        <path d="M121.33,48.72c-5.47-4.19-11.54-7.33-18.18-9-.23,0-.42.93-.67.85-7.91-2.46-16.3-2.45-24.31-.05-.34.1-.48-.66-.74-.8-7.61,1.99-14.5,5.79-20.39,10.83-18.55,15.86-23.18,42.73-11.06,63.82.09-.55-.04-.8.3-1.07,2.81,5.18,6.35,9.67,10.76,13.72-.32.85-.78,1.38-1.4,2.22-4.05-3.51-7.52-7.6-10.29-12.3-.1-.51.45-1.05.41-1.59-9.58-16.36-9.53-36.65.34-52.82,7-11.48,18.16-19.75,31.21-23.32-.21-.68-.68-1.09-.61-1.74,8.85-3,18.29-3.05,27.14-.02.05.66-.37,1.09-.59,1.72,11.75,3.23,22.04,10.28,29.14,20.19,5.95,8.31,9.58,18.23,9.5,28.42l-.02,2.72c-.07,8.71-2.62,17.04-6.91,24.62-.34.6.41,1.27.28,1.74-2.7,4.74-6.3,8.73-10.25,12.37-.65-.73-1.09-1.35-1.48-2.22,4.46-4.04,8.01-8.56,10.82-13.82.28.29.05.64.3,1.07,12.62-22,6.96-50.03-13.33-65.55Z" fill="#4F46E5"/>
        <path d="M133.3,103.69c-.05.17-.14.64.15.67.39.04.22-.33.26-.45,1.22-3.71,2.03-7.54,2.32-11.53,1.64-22.35-13.23-41.95-34.29-47.58-.23-.06-.35-.06-.43-.01-.12.08-.16.27-.3.61-6.98-1.87-19.79,2.12-21.32-.05l-.42-.59-.62.08c-14.32,1.91-32.4,20.52-33.9,38.87l-.2,2.45c-.47,5.79.47,12.84,2.58,18.24.38-.4.04-.96.32-1.36,2.33,7.25,6.45,13.52,11.69,18.82-.27,1.01-.44,1.93-.95,2.8-4.84-4.66-8.83-9.95-11.41-16.07l.19-3.14c-2.1-6.1-3.23-12.02-2.87-18.67,1.1-20.35,15.22-37.27,35.23-42.52l-.26-2.06c7.45-2.06,15.23-2.07,22.6.03l-.36,2.02c10.14,2.69,19.45,8.53,26.12,17.42,5.07,6.76,8.34,14.38,8.87,22.42l.17,2.51c.44,6.65-.68,12.72-2.83,18.9l.21,3.14c-2.68,6.11-6.66,11.47-11.51,16.05-.4-1.08-.7-1.89-.83-2.9,5.34-5.31,9.28-11.57,11.61-18.53.28.23.28.37.2.45Z" fill="#4F46E5"/>
        <path d="M114.51,110.88c-13.46,14.46-34.92,14.47-48.33.11l-1.43-6.73c4.91,7.94,12.95,13.31,22.22,14.38,11.67,1.35,22.78-4.39,28.85-14.4l-1.31,6.65Z" fill="#4F46E5"/>
        <path d="M48.81,84.84c-.27-7.21,1.5-11.8,4.83-17.73,1.62-2.88,4.05-4.16,7.28-4.95-13.84,15.23-13.99,38.25-.33,53.52-.31,1.07-.34,2.06-.89,3.26-5.83-6.43-10.44-14.32-11.36-23.19-.38-3.62.62-7.14.48-10.92Z" fill="#4F46E5"/>
        <path d="M132.48,95.47c-1.33,8.95-5.41,16.87-11.56,23.43-.48-1.04-.54-2.01-.87-3.18,13.74-15.7,13.53-38.14-.51-53.7,2.12.74,4.5,1.36,5.96,3.16,2.97,3.66,4.76,8.13,5.77,12.69.81,3.67.49,12.92,1.2,17.6Z" fill="#4F46E5"/>
        <path d="M117.14,134.79c-16.83,9.91-36.59,10-53.62.04.22-.96.55-1.72,1.04-2.51,16.2,9.64,35.25,9.69,51.47,0,.48.76.71,1.46,1.11,2.46Z" fill="#4F46E5"/>
        <path d="M113.32,118.75c-13.81,10.66-32.07,10.74-45.95.09l-.63-4.19c3.53,2.97,7.12,5.42,11.42,7.03,12.37,4.62,25.97,1.89,35.64-7.07l-.49,4.14Z" fill="#4F46E5"/>
        <path d="M115.13,129.86c-15.19,9.5-34.31,9.59-49.58.04.26-.86.49-1.65.94-2.58,14.61,9.28,33,9.28,47.63,0l1.01,2.53Z" fill="#4F46E5"/>
        <path d="M113.11,121.74l.39,3.09c-14.12,9.38-32.44,9.43-46.47-.07l.37-3.01c14.05,9.67,31.48,9.92,45.71,0Z" fill="#4F46E5"/>
        <path d="M101.46,50.83c-7.41-2.16-15.02-2.21-22.38.01.23-1.15.51-2.02.51-3.3,6.95-2.09,14.36-2.11,21.4,0,.01,1.14.25,1.93.47,3.3Z" fill="#4F46E5"/>
        <path d="M133.71,103.91c-.04.12.13.49-.26.45-.29-.03-.2-.5-.15-.67.18-.02.21.26.41.22Z" fill="#4F46E5"/>
        <path d="M93.53,113.44c-12.28,1.67-23.87-6.27-26.98-18.1-3.91-14.87,6.71-29.43,21.66-30.67s28.03,11.5,26.51,26.96c-1.1,11.18-9.87,20.28-21.19,21.81ZM89.96,111.75c9.77.13,18.34-6.03,21.59-14.93,4.16-11.36-1.46-23.83-12.54-28.55-8.47-3.6-18.28-1.61-24.8,5.01-7.51,7.62-8.71,19.46-2.76,28.29,4.11,6.1,10.83,10.07,18.51,10.18Z" fill="#FFFFFF"/>
        <path d="M89.96,111.75c-7.68-.1-14.4-4.08-18.51-10.18-5.95-8.83-4.75-20.67,2.76-28.29,6.52-6.62,16.34-8.61,24.8-5.01,11.08,4.72,16.7,17.19,12.54,28.55-3.26,8.9-11.82,15.06-21.59,14.93ZM107.85,98.02c5.47-10.74-.03-23.74-11.26-27.54-7.48-2.54-15.72-.34-20.95,5.51s-6.57,14.17-3.24,21.33c3.2,6.86,9.97,11.3,17.37,11.49,7.52.19,14.57-3.89,18.08-10.79Z" fill="#4F46E5"/>
        <path d="M107.85,98.02c-3.51,6.9-10.56,10.98-18.08,10.79-7.4-.19-14.17-4.63-17.37-11.49-3.33-7.16-1.94-15.54,3.24-21.33s13.47-8.05,20.95-5.51c11.24,3.81,16.73,16.8,11.26,27.54ZM79.58,103.25c7.81,5.99,18.84,4.39,24.79-3.32s4.4-18.97-3.21-24.84-18.95-4.51-24.89,3.19c-5.97,7.74-4.65,18.87,3.31,24.97Z" fill="#FFFFFF"/>
        <g>
          <path d="M79.58,103.25c-7.96-6.11-9.28-17.24-3.31-24.97,5.94-7.7,17.09-9.21,24.89-3.19s9.24,17.02,3.21,24.84-16.98,9.32-24.79,3.32ZM89.4,74.3c-8.31.48-14.48,7.71-13.94,15.83s7.58,14.26,15.62,13.84c8.19-.42,14.55-7.59,14.04-15.72s-7.45-14.43-15.73-13.95Z" fill="#4F46E5"/>
          <path d="M89.4,74.3c8.28-.48,15.21,5.83,15.73,13.95s-5.85,15.29-14.04,15.72c-8.04.42-15.08-5.76-15.62-13.84s5.63-15.35,13.94-15.83ZM96.28,100.58c6.39-3.38,8.65-10.97,5.61-17.18s-10.55-8.99-16.93-6.05-9.49,11-6.25,17.5c3.19,6.39,11,9.21,17.58,5.73Z" fill="#FFFFFF"/>
          <path d="M96.28,100.58c-6.58,3.48-14.39.66-17.58-5.73-3.24-6.49-.41-14.43,6.25-17.5s13.88-.18,16.93,6.05.78,13.8-5.61,17.18ZM89.39,79.13c-5.7.52-9.68,5.55-9.04,11.17.62,5.44,5.47,9.37,11.1,8.78,5.34-.57,9.39-5.42,8.84-10.93s-5.24-9.54-10.9-9.02Z" fill="#E85D43"/>
          <path d="M89.39,79.13c5.66-.51,10.35,3.58,10.9,9.02s-3.49,10.36-8.84,10.93c-5.63.6-10.48-3.34-11.1-8.78-.64-5.62,3.34-10.66,9.04-11.17ZM92.88,96.9c4.59-1.53,6.66-6.46,5.03-10.73-1.61-4.2-6.4-6.41-10.64-4.65s-6.16,6.28-4.68,10.36,5.89,6.49,10.3,5.02Z" fill="#FFFFFF"/>
          <path d="M92.88,96.9c-4.41,1.47-8.81-.92-10.3-5.02s.57-8.65,4.68-10.36,9.03.45,10.64,4.65c1.64,4.27-.44,9.2-5.03,10.73ZM89.69,83.95c-2.93.32-4.88,3-4.57,5.77.32,2.93,3,4.97,5.85,4.59s4.82-3.02,4.49-5.76c-.35-2.91-2.88-4.92-5.77-4.6Z" fill="#E85D43"/>
          <path d="M89.69,83.95c2.89-.32,5.42,1.69,5.77,4.6.33,2.74-1.64,5.38-4.49,5.76s-5.52-1.66-5.85-4.59c-.31-2.77,1.64-5.45,4.57-5.77Z" fill="#FFFFFF"/>
        </g>
      </g>
    </g>
  </g>
</svg>