<?xml version="1.0" encoding="UTF-8"?>
<svg id="Layer_1" data-name="Layer 1" xmlns="http://www.w3.org/2000/svg" viewBox="0 0 157.69 196">
  <g id="Generative_Object" data-name="Generative Object">
    <path d="M80.81,19.69l.07,15.69c0,.33.41.28.32-.04l2.55-2.82c2.06-2.28,4.72-4.18,7.42-5.91.04,1.13,1.36,1.97,2.61,2.41l-5.14,4.16c-5.36,4.33-7.77,10.06-7.76,16.11v47.03c2.46-3.64,5.24-6.85,8.88-9.74,2.71-2.16,5.6-4.04,7.94-6.3.11-.11.26-.08.39-.01.71.77,1.39,1.78,2.63,2.04-.02.1-.02.21,0,.32l-8.28,6.62c-6.51,5.21-11.47,12.44-11.5,19.85-.29-.02-.62-.04-.7.13.27-.59-.15,4.41-.41,4.51-3.46-1.12-2.22.68-2.88-.97-.04-.09-.2-.18-.4-.13l.04-34.31c0-7.42-3.49-14.2-10.59-19.18-1.75-1.23-3.28-2.56-4.84-3.82.86-.09,2.08-.75,2.43-1.26.25-.37.08-.77.77-.79,4.36,3.08,8.86,6.33,11.94,10.28-.04.4.37.45.22.03l.13-43.82c1.36-.12,2.85.21,4.19-.06Z" fill="#4F46E5"/>
    <path d="M64.32,53.27c-.7.03-.52.42-.77.79-.35.51-1.57,1.18-2.43,1.26-3.16.31-6.01.88-9.07.64-5.78-.24-11.05-2.66-13.59-6.81-3.12-5.1-4.16-10.74-4.16-16.52,7.19.05,13.98.85,20.37,2.81,5.75,1.77,9.62,5.25,10.16,10.01.81,2.96-.69,5.56-.51,7.81Z" fill="#E85D43"/>
    <path d="M80.93,109.11l-.13,31.64c3.61-3.72,6.9-6.76,11.07-9.39.74.72,1.74,1.71,2.82,2.18-1.61,1.57-3.63,2.77-5.54,4.4-5.04,4.31-8.18,9.76-8.26,15.61l-.17,13.32c-.8-.67-.62,3.2-.79,3.7-.93-.05-1.58-.32-2.26-.56-.54.19-.54.77-1.07.75.13-4.16-.85-8.29-3.33-12.17-2.22-3.47-5.59-5.95-8.93-8.54.38-.35,1.48-.29,1.76-.75l1.18-1.78c3.36,2.44,6.33,5,9.1,8.06l.08-18.69c.03-7.84-3.7-16.08-12.43-20.42-.08-.79,1.32.29,1.84.23.97-.11.9-.77,1.99-1.41-.41-.55-.89-.87-1.09-1.34,3.97,2.03,7.18,4.72,9.47,7.97-.07.68.47.65.24,0l.02-9.26c.21-.04.37.04.4.13.67,1.65-.58-.15,2.88.97.26-.1.68-5.1.41-4.51.08-.17.41-.15.7-.13Z" fill="#4F46E5"/>
    <path d="M80.73,166.86l-.05,17.25c-.02,6.02-7.37,11.04-14.85,11.82-3.22.33-5.96-.38-8.02-1.89-1.85-1.36-2.92-3.46-2.74-5.7.81-9.67,15.22-13.66,17.21-11.39.54.61.52,1.49.29,2.16-.73,2.03-1.98,3.99-3.86,5.7-.33.3-1.12.33-.94.91,2.83-1.52,5.59-3.25,6.83-5.68.21-.02.3,0,.36-.23.65-1.33,1.44-2.71,1.49-4.29l.15-4.76c.53.02.53-.56,1.07-.75.68.25,1.33.51,2.26.56.17-.5,0-4.37.79-3.7Z" fill="#4F46E5"/>
    <path d="M26.66,80.08c-.81,10.22.8,22.34,15.81,26.07l11.63,2.89c-.01.13.05.28.19.33.19.06.52-.03.49-.13-.06-.17-.33-.2-.39-.18-3.56-4.58-5.76-9.71-5.79-15.04l4.21-.05c.4,8.04,5.16,15.48,13.97,19.99.19.47.67.79,1.09,1.34-1.09.65-1.02,1.3-1.99,1.41-.52.06-1.92-1.03-1.84-.23-12.66-6.31-25.14-5.91-38.72-13.04-4.92-2.58-9.35-5.57-13.12-8.92,1.21-.48,2.07-1.61,2.92-2.33,3.32,2.6,6.75,5.16,10.59,7.3-.05.31.32.37.34.04-4.02-6.66-4.03-12.45-3.67-19.65.91.62,2.85-.24,3.66.02l.63.2Z" fill="#4F46E5"/>
    <path d="M52.81,93.95l-4.21.05c-5.65-1.22-9.95-4.93-9.19-9.56.67-4.12,7.18-10.91,11.41-14.16,4.2,3.53,7.7,7.1,10.18,11.29,1.57,2.66,1.57,5.39-.33,8.02s-4.69,3.49-7.85,4.36Z" fill="#E85D43"/>
    <g>
      <path d="M41.87,118.2c-.17.09-.11.34.02.37.18.05.58.33.78.32,1.54-.08,7.66,1.64,9.37,2.18,7.24,2.28,13.13,6.2,14.9,12.51l.66,2.35c.59,2.09.77,4.44.13,6.54l-.61,1.99c-.47,1.55-.87,3.09-1.63,4.52l-18.7-14.31c-2.88,1.89-6.34,4.61-8.17,6.99-.89.36-1.2,1-1.72,1.48-.56.52-1.3.82-1.92,1.54-4.69-2.26-8.01-11-9.08-14.5-.81-2.67-.75-3.89-1.4-5.92-.13-.41-.22-5.31-1.07-4.32.07-.86-.2-1.77-.04-2.71.11-.63.98-.72,1.68-.69,5.78.22,11.35.74,16.81,1.68Z" fill="#E85D43"/>
      <path d="M67.29,147.51l-1.18,1.78c-.29.46-1.39.41-1.76.75-11.9,1.95-24.66,1.76-32.16-6.8-4.6-5.25-7.26-12.59-8.18-18.74l-.43-2.88c-.1-.64-.2-1.14-.15-1.69.85-.99.94,3.91,1.07,4.32.65,2.04.58,3.26,1.4,5.92,1.07,3.5,4.39,12.24,9.08,14.5.62-.72,1.36-1.02,1.92-1.54.52-.48.83-1.13,1.72-1.48,1.83-2.38,5.29-5.1,8.17-6.99l18.7,14.31c.76-1.43,1.16-2.97,1.63-4.52l.61-1.99c.64-2.1.46-4.45-.13-6.54l-.66-2.35c-1.77-6.31-7.67-10.23-14.9-12.51-1.71-.54-7.83-2.26-9.37-2.18-.21.01-.6-.27-.78-.32-.13-.03-.19-.28-.02-.37,11.83,2.03,23.84,5.86,26.3,16.86.95,4.23.08,8.33-.89,12.45Z" fill="#E85D43"/>
    </g>
    <g>
      <path d="M132.46,114.62l-9.24-2.43c-1.85-.49-2.93-1.5-3.49-2.88l-3.7-9.04c-.14-.34-.2-.79-.1-1.02.4-.94,1.37-1.98,2.95-1.99,5.08-.03,10.09.31,15.2.8,2.16.21,3.78,1.28,4.18,2.98.94,4.01,1.57,8,1.47,12.08-.03,1.44-2,2.67-3.61,2.31l-3.65-.82Z" fill="#E85D43"/>
      <path d="M97.71,117.21c2.89.95,5.99,1.56,9.03,2.38,1.84.5,3.07,1.42,3.66,2.82,1.09,2.58,1.92,5.19,3.22,7.63.34.64.35,1.35.55,2.1.3,1.08-1.24,2.61-2.92,2.61-5.65.03-11.13-.61-16.55-1.22-1.08-.46-2.08-1.46-2.82-2.18-.66-4.06-1.48-8.13-1.41-12.41.02-1.53,1.72-2.68,3.61-2.49,1.38.14,2.44.69,3.64.76Z" fill="#E85D43"/>
      <path d="M130.49,116.9l4.58,1.24c1.22.33,2.27.96,2.56,1.73.31.82.46,1.81-.23,2.6-3.65,4.22-8.34,7.83-13.88,10.64-1.18.6-2.58.54-3.63.17-1.84-.64-2.38-2.22-2.74-3.47l-3.27-8.33c-.47-1.2-.07-2.38,1.06-3.31,2.45-2.01,4.16-4.08,7.27-3.31l8.27,2.04Z" fill="#E85D43"/>
      <path d="M111.34,99.06c.4.42.74.77.93,1.25l4.05,9.76c.58,1.39.28,2.66-.95,3.69-1.56,1.3-4.18,3.94-6.74,3.33l-9.93-2.37c-2.89-.69-6-1.45-6.42-3.35-.22-1,.27-1.81,1.03-2.62,3.57-3.79,7.95-7.02,12.98-9.73,1.65-.89,3.54-.63,5.05.04Z" fill="#E85D43"/>
    </g>
    <path d="M80.81,19.69c-1.34.26-2.84-.06-4.19.06-5.04-1.02-8.13-4.74-6.91-8.84.46-1.53,1.35-2.9,2.32-4.23,1.92-2.35,3.76-4.49,6.66-6.68,3.71,3,6.92,6.31,8.68,10.11,1.94,4.18-.93,8.48-6.56,9.59Z" fill="#E85D43"/>
    <path d="M115.92,99.25c-.1.23-.04.67.1,1.02l3.7,9.04c.56,1.37,1.65,2.39,3.49,2.88l9.24,2.43c-.45,0-.93.03-.98.29l-.14.78c-.09.49-1.19.62-.85,1.22l-8.27-2.04c-3.11-.77-4.82,1.3-7.27,3.31-1.13.92-1.53,2.11-1.06,3.31l3.27,8.33c-.81-.37-.83.64-1.51.7-.53.05-.63-.69-.91-.71-.39-.03-.81.14-1.13.24-1.3-2.44-2.13-5.05-3.22-7.63-.59-1.4-1.82-2.33-3.66-2.82-3.04-.82-6.14-1.43-9.03-2.38.81.09,1.1-.04,1.05-.61-.04-.44.02-.76-.72-1.04.13-.21.6-.1.62-.26l.04-.58,9.93,2.37c2.56.61,5.18-2.03,6.74-3.33,1.24-1.03,1.53-2.3.95-3.69l-4.05-9.76c-.2-.48-.53-.84-.93-1.25.53.26.85-.27,1.36-.47.23-.09,2.54.14,3.22.67Z" fill="#FFFFFF"/>
    <path d="M26.66,80.08l-.63-.2c-.81-.26-2.74.6-3.66-.02-3.05-2.08-5.3-4.83-6.9-7.84-.76-1.43-.22-2.93,1.78-3.52,4.55-1.34,9.91-1.43,14.51.05,5.93,1.91-3.84,9.85-5.1,11.54Z" fill="#E85D43"/>
    <path d="M93.76,29.03c-1.25-.44-2.57-1.28-2.61-2.41-.11-3.21.89-6.53,2.85-9.45.88-1.32,2.76-1.59,4.43-.95,4.2,1.6,7.66,4.23,9.64,7.49.86,1.42.46,2.81-1.34,3.45-4.11,1.47-8.56,1.89-12.97,1.86Z" fill="#E85D43"/>
    <path d="M15.11,92.18c-.85.72-1.71,1.85-2.92,2.33-3.15,1.25-6.75,1.04-9.28-.61-2.37-1.54-3.52-3.98-2.6-6.5,1.33-3.65,6.56-5.48,10.95-3.96s6.03,5.44,3.85,8.75Z" fill="#E85D43"/>
    <path d="M74.61,180.02c-1.24,2.43-4.01,4.16-6.83,5.68-.18-.58.61-.61.94-.91,1.88-1.7,3.13-3.66,3.86-5.7.26.74,1.07,1.03,2.03.92Z" fill="#FFFFFF"/>
    <path d="M76.27,63.54c.07-.1.15-.05.22.03.14.42-.26.37-.22-.03Z" fill="#FFFFFF"/>
    <path d="M25.71,99.47c.11.04.22.05.34.04-.02.33-.39.28-.34-.04Z" fill="#FFFFFF"/>
    <path d="M54.1,109.04c.09-.08.19-.05.29,0,.06-.02.33.01.39.18.03.11-.3.19-.49.13-.15-.04-.21-.2-.19-.33Z" fill="#FFFFFF"/>
    <path d="M76.26,121.91c.06-.12.15-.1.24,0,.22.66-.32.69-.24,0Z" fill="#FFFFFF"/>
    <path d="M74.61,180.02c0-.21.07-.28.36-.23-.06.22-.15.2-.36.23Z" fill="#FFFFFF"/>
    <path d="M80.88,35.39c.11.01.22,0,.32-.04.09.32-.32.37-.32.04Z" fill="#FFFFFF"/>
    <g>
      <path d="M144.67,70.43c.7.02,1.49.04,2.27.27,1.23.36,1.83,1.42,1.07,2.29-2.68,3.05-5.9,5.58-9.71,7.72-4.49,2.53-9.48,3.91-15.15,4.12s-17.55-.32-22.45-2.2c-.02-.1-.02-.21,0-.32l14.62-11c1.28-.96,3.3-1.66,5.17-1.6l24.18.72Z" fill="#E85D43"/>
      <path d="M113.89,49.5l.88,15.41c.11,1.85-.98,3.43-2.61,4.72l-9.11,7.2c-1.47,1.16-3.31,2.17-4.64,3.47-.08-.05-.26.01-.34-.03-.13-.06-.28-.09-.39.01-2.36-5.61-3.49-15.01-1.55-20.93,2.14-6.53,7.53-10.9,14.23-14.84.61-.36,1.52-.38,2.07-.1,1.63.85,1.33,2.96,1.45,5.09Z" fill="#E85D43"/>
      <path d="M156.57,39.42l-13.75,10.94c-.51.4-.79.81-.65,1.3.09.32.46.88,1.18.91l9.87.51c.28.96-.24,1.76-.66,2.66l-13.16-.5c-2.28-.09-4.12.73-5.61,1.88l-9.71,7.46c-.48.37-.56.98-.41,1.36.14.36.65,1.07,1.51,1.1l20.12.68.14,1.53c-.67.24-.94.69-.77,1.17l-24.18-.72c-1.87-.06-3.9.64-5.17,1.6l-14.62,11c-1.24-.26-1.92-1.27-2.63-2.04.08.04.26-.02.34.03.79.49,1.33,1.17,2.32,1.65,1.29-1.38,2.73-2.35,4.26-3.42-.88-.46-1.69-.98-1.94-1.7l9.11-7.2c1.63-1.29,2.72-2.87,2.61-4.72l-.88-15.41c.59.1.24.63.79,1.08l2.82-.53.8,11.32c.05.7.7,1.17,1.4,1.38.62.19,1.45.04,2.07-.44l10.45-8.09c1.18-.91,1.51-2.45,1.42-3.69l-.54-7.86c.41-.09.32.25.36.57,1.08.27,2.28.33,3.23,0,.14,1.37.43,2.74.4,4.26-.01.62.66,1.06,1.13,1.17.76.17,1.38-.14,1.92-.54l14.16-10.48c.85.47,1.55,1.21,2.27,1.77Z" fill="#FFFFFF"/>
      <path d="M152.55,55.75c2.19.08,3.63,1.86,3.21,3.26-.65,2.18-1.21,4.28-2.31,6.34-1.55,2.92-5.34,2.38-8.17,2.38l-20.12-.68c-.86-.03-1.36-.74-1.51-1.1-.15-.39-.07-1,.41-1.36l9.71-7.46c1.49-1.15,3.33-1.97,5.61-1.88l13.16.5Z" fill="#E85D43"/>
      <path d="M133.1,42.69l.54,7.86c.09,1.24-.25,2.78-1.42,3.69l-10.45,8.09c-.62.48-1.46.63-2.07.44-.7-.22-1.35-.68-1.4-1.38l-.8-11.32-.25-6.11c-.05-1.33,1.13-2.89,2.71-3.39,2.89-.91,5.77-1.56,8.85-2.1,2.03-.35,3.85.89,4.16,2.3.15.69.04,1.3.13,1.93Z" fill="#E85D43"/>
      <path d="M153.22,53.09l-9.87-.51c-.72-.04-1.09-.6-1.18-.91-.14-.49.14-.9.65-1.3l13.75-10.94c.23.02.62-.13.78.02.68.63.16,9.33.06,10.74-.13,1.78-1.99,3.02-4.19,2.91Z" fill="#E85D43"/>
      <path d="M154.3,37.65l-14.16,10.48c-.54.4-1.16.71-1.92.54-.48-.11-1.14-.55-1.13-1.17.03-1.52-.27-2.89-.4-4.26-.08-.78.04-1.67-.13-2.54-.37-1.92,1.29-3.26,3.58-3.46,4.56-.4,9.07-.44,13.73-.36.3,0,.54.21.6.36.05.11-.17.21-.17.4Z" fill="#E85D43"/>
      <path d="M98.41,80.3c1.33-1.3,3.16-2.3,4.64-3.47.25.72,1.06,1.24,1.94,1.7-1.53,1.07-2.97,2.04-4.26,3.42-.99-.48-1.53-1.16-2.32-1.65Z" fill="#E85D43"/>
    </g>
  </g>
</svg>