<?xml version="1.0" encoding="UTF-8"?>
<svg id="Layer_1" data-name="Layer 1" xmlns="http://www.w3.org/2000/svg" viewBox="0 0 209.88 191.85">
  <g id="Generative_Object" data-name="Generative Object">
    <path d="M189.18,17.29c-.97.49-2.04,2.82-2.83,2.31-.83-.55,1.46-2,2.01-3-.73-1.33-.47-2.65.61-3.47.94-.72,2.26-.69,3.23.12s.99,2.29.37,3.24c-.71,1.1-2.1,1.47-3.39.79Z" fill="#E85D43"/>
    <path d="M205.04,4.35c.08-.19-.06-.39-.27-.29-.82-1.31-.53-2.74.63-3.57s2.49-.62,3.38.42c.94,1.09.77,2.6-.38,3.58-.97.83-2.27.65-3.37-.13Z" fill="#E85D43"/>
    <path d="M25.12,147.22c-.65.66-2.42,2.54-3.01,2.42-1.18-.24,1.72-2.44,2.38-3.09.18-.18.57-.06.69.05.13.12.17.4-.05.62Z" fill="#E85D43"/>
    <path d="M111.65,80.86c-4.45,3.1-3.35.92-3.09.77,1.05-.59,2.97-2.08,3.29-1.6.21.31.11.61-.2.83Z" fill="#E85D43"/>
    <path d="M49.95,125.07c-.29.22-.5.13-.61.07-.16-.08-.36-.46-.09-.69.71-.61,2.97-2.7,3.4-1.97.1.17.12.48-.13.66l-2.57,1.92Z" fill="#E85D43"/>
    <path d="M139.74,62.3c-.08.06-2.72.23,2.43-2.77.15-.08.28.05.34.12.66.64-1.8,1.94-2.77,2.65Z" fill="#E85D43"/>
    <path d="M195.65,11.64c-.28.14-.58-.61-.37-.78.37-.29,3.63-3.24,3.4-1.74-.08.53-2.22,2.1-3.03,2.52Z" fill="#E85D43"/>
    <path d="M204.5,4.51c.12.36-2.58,2.79-3.27,2.44-.28-.14-.26-.53.04-.77.71-.57,2.93-2.55,3.23-1.66Z" fill="#E85D43"/>
    <path d="M184.14,22.69c-.93,1.05-2.37,3.14-2.93,2.29-.29-.44,1.35-1.85,2.1-2.86.19-.26.53-.33.81-.13.16.11.3.37.01.7Z" fill="#E85D43"/>
    <path d="M79.42,103.3c-.3.21-.51.08-.67-.11-.17-.2-.09-.51.22-.72l2.76-1.87c.19-.13.44.11.49.21.07.17.06.47-.19.64l-2.6,1.84Z" fill="#E85D43"/>
    <path d="M167.07,41.65c-.3.34-.56.47-.79.27-.21-.18-.32-.47-.06-.76l2.17-2.39c.17-.19.4-.18.52-.12.26.14.36.47.13.74l-1.96,2.27Z" fill="#E85D43"/>
    <path d="M177.82,29.81c-.37.02-.62.39-.56.75-.05.39-.59.11-.77.25-.26-.28-.31-.64.02-1.01l1.93-2.12c.21-.23.48-.2.67-.14.11.04.33.31.18.5l-1.47,1.77Z" fill="#E85D43"/>
    <path d="M205.04,4.35c-.18-.13-.34-.12-.27-.29.2-.1.35.11.27.29Z" fill="#fff"/>
    <g>
      <path d="M177.8,30.36c.11.16-.07.19-.16.21-.16.04-.29.05-.39-.02-.06-.36.19-.73.56-.75-.08.18-.05.37-.02.56Z" fill="#fff"/>
      <g>
        <g>
          <g>
            <path d="M25.81,168.2c-.01,1.66,1.36,3.37,2.92,4.03l8.41,3.57c.35.15.87.16,1.01.58-.47,1.16,0,2.43.11,3.72.23,2.5-.74,4.8-3.03,5.74l-9.31,3.82c-2.08.85-4.11,1.93-6.41,2.18s-6.77-1.89-9.01-2.9c-2.09-.95-3.94-1.74-6.14-2.51-1.54-.55-4-1.89-4.12-4.15-.36-6.69-.28-13.54-.06-20.25.5.88,1.23,1.45,2.31,1.9l13.71,5.68c2.04.84,4.22.77,6.14,0l3.46-1.4Z" fill="#4F46E5"/>
            <path d="M21.6,152.89c1.29.29,2.94,1.48,4.24,1.42l.06,2.13-.09,11.76-3.46,1.4c-1.92.77-4.09.85-6.14,0l-13.71-5.68c-1.08-.45-1.81-1.02-2.31-1.9.07-2.02,2.22-3.32,3.83-3.96l9.42-3.76c.86-.34,1.6-.91,2.57-.99.24-.02.58.05.72-.1.07-.07,0-.24.05-.36.32,1.02,1.44,1.74,2.39,1.74,1.19,0,2.1-.61,2.45-1.7Z" fill="#4F46E5"/>
            <path d="M21.6,152.89c-.35,1.09-1.26,1.69-2.45,1.7-.94,0-2.07-.72-2.39-1.74-.37-1.18.22-2.38,1.21-2.91.92-.5,2.08-.58,2.99.34.62.62,1.08,1.64.64,2.61Z" fill="#E85D43"/>
            <path d="M37.14,175.8l-8.41-3.57c-1.56-.66-2.93-2.38-2.92-4.03l.09-11.76c.11-.52.36-1.4.4-2.24l9.36,3.97c1.88.8,2.85,2.11,2.84,4.13l-.08,12.69c0,.32-.15.57-.4.7-.12.06-.38-.16-.63-.16-.23,0-.3.17-.26.27Z" fill="#4F46E5"/>
          </g>
          <g>
            <path d="M30.52,140.97c-.81,1.11-2.92,2.31-3.03,3.09-.23,1.53,4.14-2.44,3.54-2.82,2.95,1.54,6.25,2.47,9.45,3.86,2.32,1,4.88,1.71,7.29.74l7.93-3.2.11,12.28c.02,1.85,1.48,3.33,3.04,3.99l5.57,2.38c-.69,4.47,1.66,9.19-3.52,11.31l-12.31,5.03c-4.7,1.92-6.87-.34-10.46-1.26-.15-.42-.66-.43-1.01-.58-.04-.1.02-.27.26-.27.26,0,.51.22.63.16.24-.13.4-.38.4-.7l.08-12.69c.01-2.02-.96-3.33-2.84-4.13l-9.36-3.97c-.04.84-.3,1.72-.4,2.24l-.06-2.13.09-16.49c.59.93,1.38,1.67,2.47,2.17l2.12.98Z" fill="#4F46E5"/>
            <path d="M47.6,128.45l8.09,3.18.02,11-7.93,3.2c-2.41.97-4.98.27-7.29-.74-3.21-1.39-6.51-2.32-9.45-3.86l-.51-.27-2.12-.98c-1.09-.5-1.88-1.24-2.47-2.17,0-1.63,1.13-3.02,2.74-3.68l11.5-4.73c.89-.37,1.72-.53,2.42-.93.14,1.11,1.55,2,2.52,1.99,1.29-.01,2.18-.83,2.47-2.03ZM42.22,131.23c.08-.11-.4-.58-.5-.5-.67.48-3.57,2.57-2.79,3.14.6.43,2.86-2.02,3.29-2.63ZM34.15,138.93l2.29-2.28c.26-.26.17-.55-.06-.73-.2-.16-.44-.04-.69.2l-2.22,2.13c-.33.31-.27.62.01.84.13.1.4.11.67-.16Z" fill="#4F46E5"/>
            <path d="M47.6,128.45c-.3,1.19-1.19,2.01-2.47,2.03-.97,0-2.38-.88-2.52-1.99-.23-1.83,1.12-3.13,2.78-2.96,1.37.14,2.41,1.46,2.22,2.93Z" fill="#E85D43"/>
            <path d="M31.04,141.24c.6.38-3.77,4.35-3.54,2.82.11-.77,2.22-1.98,3.03-3.09l.51.27Z" fill="#E85D43"/>
            <path d="M42.22,131.23c-.43.61-2.69,3.06-3.29,2.63-.78-.57,2.11-2.66,2.79-3.14.1-.07.58.4.5.5Z" fill="#E85D43"/>
            <path d="M34.15,138.93c-.28.27-.54.27-.67.16-.28-.22-.34-.53-.01-.84l2.22-2.13c.25-.24.5-.36.69-.2.22.18.31.47.06.73l-2.29,2.28Z" fill="#E85D43"/>
          </g>
        </g>
        <g>
          <path d="M124.09,94.85v26.88c0,4.04-.21,8.08.01,12.29.1,1.83-.66,3.7-2.5,4.46l-13.36,5.54c-1.95.81-3.94,1.01-5.92.24l-7.98-3.1-.07,13.72c-.01,2.14-1.51,3.45-3.34,4.21l-12.26,5.08c-2.47,1.02-4.94.94-7.38-.06l-6.87-2.82-5.57-2.38c-1.56-.67-3.02-2.15-3.04-3.99l-.11-12.28-.02-11,.07-10.93c.91-.79,2.12-1.27,2.81-2.27.24-.03.39-.19.7-.39l11.74,4.95c6.04,2.55,9.23-1.16,14.54-2.51l.21,14.54c.03,2.16,2.17,3.52,3.78,4.15l1.33.51c1.07.42,2.11,1.13,3.1.59l-.06-23.78c-.83-.38.32-1.25.22-1.85l.19,25.68c.04.56,1.31.59,1.75.8,2.38,1.13,7.83,3.79,10.36,2.92,4.11-1.4,7.96-3.12,11.93-4.72,2.06-.83,5.15-1.99,5.15-4.54l.04-13.21-6.06-2.72c-1.64-.73-2.28-2.2-2.29-3.97l-.08-15.24c.05-.2.27-.23.41-.29l6.1-2.62c1.04-.45,1.82-1.12,2.46-1.89Z" fill="#4F46E5"/>
          <path d="M77.66,106.24l7.89,3.09v11.16c-5.31,1.35-8.49,5.05-14.54,2.51l-11.74-4.95c-.31.2-.46.36-.7.39.07-.18-.05-.36-.19-.46-.12-.08-.24-.1-.36-.04-.79-.73-1.6-1.34-2.22-2.17.02-1.67,1.13-3.2,2.82-3.88l13.93-5.62c.06.58.41,1.2.71,1.52.62.68,2.99.74,3.73.02.38-.37.37-.96.66-1.57ZM70.87,108.68c-.94.33-3.33,1.9-3.1,2.53.14.39,4.04-1.39,3.1-2.53ZM64.58,114.08c.25-.17.39-.51.14-.67-.12-.08-.26-.26-.57-.06-.34.22-3.54,2.27-2.64,2.54.71.22,1.61-.76,3.07-1.8Z" fill="#4F46E5"/>
          <path d="M88.37,97.07c.49.13-.03.24-.3.49-.58.46-1.85.95-1.91,1.92-.21,3.26-.08,6.57-.04,9.8.95.35,1.02,1.15,1.65,1.15.4,0,.74.16,1.05-.14.04.27-.06.58.13.77.09.09.21-.16.48-.12,1.23.25,4.69,2.2,4.7,3.71.1.59-1.06,1.47-.22,1.85l.06,23.78c-.99.54-2.03-.17-3.1-.59l-1.33-.51c-1.6-.62-3.75-1.98-3.78-4.15l-.21-14.54v-11.16c0-3.32.71-6.86.17-10.25.66-.85,1.7-1.47,2.64-2.01Z" fill="#4F46E5"/>
          <path d="M77.66,106.24c-.29.61-.28,1.2-.66,1.57-.74.72-3.11.66-3.73-.02-.29-.32-.65-.94-.71-1.52-.16-1.7,1.06-3.09,2.63-3.01s2.51,1.42,2.47,2.99Z" fill="#E85D43"/>
          <path d="M58.03,117.94c-.73.55-1.35,1.33-2.26,1.5l.04-3.67c.63.84,1.43,1.45,2.22,2.17Z" fill="#4F46E5"/>
          <path d="M58.57,118.44c-.69,1-1.9,1.48-2.81,2.27-.27-.12-.56-.24-.53-.54.03-.33.53-.47.54-.73.91-.17,1.54-.96,2.26-1.5.11-.06.24-.04.36.04.14.09.26.27.19.46Z" fill="#E85D43"/>
          <path d="M64.58,114.08c-1.46,1.04-2.36,2.02-3.07,1.8-.89-.27,2.31-2.31,2.64-2.54.3-.2.45-.02.57.06.25.17.1.5-.14.67Z" fill="#E85D43"/>
          <path d="M70.87,108.68c.94,1.14-2.96,2.92-3.1,2.53-.23-.63,2.16-2.21,3.1-2.53Z" fill="#E85D43"/>
        </g>
      </g>
      <g>
        <g>
          <path d="M102.37,85.33c.22.51.82,1.14,1.33,1.47,2.52,1.64,3.29-1.74,4.04-1.45l7.56,2.94c.23.09.59.1.6.38-.13.01-.3-.06-.57.06l.2,10.64c-.14.06-.36.09-.41.29-5.15,1.46-8.41,4.81-14.32,2.34l-12.02-5.03c-.15-.06-.2-.28-.24-.43-.06-.27-.05-.42-.32-.41-.25,0-.51-.09-.61.15-.92-.03-1.13-1.1-1.9-1.42-.1-1.63.9-3.3,2.66-3.98,4.78-1.85,9.29-4,14.01-5.54ZM97.35,90.4c1.34-.65,2.36-1.42,3.44-2.23.25-.19-.07-.92-.34-.76-.39.23-4.03,2.02-3.1,2.99ZM91.45,94.65c1.33-.64,2.24-1.52,3.35-2.39-.75-1.09-2.42.59-3.48,1.39-.29.22-.25,1.18.14.99Z" fill="#4F46E5"/>
          <path d="M107.74,85.35c-.75-.29-1.52,3.08-4.04,1.45-.51-.33-1.1-.96-1.33-1.47-.12-1.48.76-2.94,2.18-3.1,1.65-.18,3.02,1.16,2.86,2.8.27.1.38.2.33.33Z" fill="#E85D43"/>
          <path d="M88.54,96.54c-.18-.12-.23,0-.2.21,0,.08.1.18.03.33-.94.54-1.98,1.15-2.64,2.01-.31.05-1.07-.19-.86-.65.19-.41.64-.68.91-.89.59-.46,1.35-.69,1.83-1.26.11-.24.36-.14.61-.15.27,0,.26.14.32.41Z" fill="#E85D43"/>
          <path d="M87.61,96.28c-.48.57-1.24.8-1.83,1.26-.32-.86-.02-1.79-.07-2.68.77.32.98,1.39,1.9,1.42Z" fill="#4F46E5"/>
          <path d="M115.12,99.65l.08,15.24c0,1.77.65,3.24,2.29,3.97l6.06,2.72-.04,13.21c0,2.55-3.09,3.72-5.15,4.54-3.97,1.59-7.82,3.31-11.93,4.72-2.53.86-7.98-1.8-10.36-2.92-.45-.21-1.71-.24-1.75-.8l-.19-25.68c-.01-1.51-3.47-3.46-4.7-3.71-.27-.04-.39.21-.48.12-.19-.19-.1-.49-.13-.77-.31.3-.66.14-1.05.14-.64,0-.7-.8-1.65-1.15-.04-3.22-.17-6.54.04-9.8.06-.97,1.33-1.46,1.91-1.92.28-.26.79-.36.3-.49.07-.15-.02-.24-.03-.33-.02-.2.03-.32.2-.21.03.15.09.37.24.43l12.02,5.03c5.91,2.47,9.17-.89,14.32-2.34Z" fill="#4F46E5"/>
          <path d="M115.9,88.67c2.02.68,4.12,1.57,6.12,2.49,1.54.7,2.07,2.22,2.07,3.7-.64.78-1.42,1.45-2.46,1.89l-6.1,2.62-.2-10.64c.27-.12.44-.05.57-.06Z" fill="#4F46E5"/>
          <path d="M97.35,90.4c-.93-.97,2.71-2.76,3.1-2.99.27-.16.59.58.34.76-1.08.81-2.1,1.58-3.44,2.23Z" fill="#E85D43"/>
          <path d="M91.45,94.65c-.38.19-.43-.77-.14-.99,1.06-.81,2.74-2.48,3.48-1.39-1.1.87-2.02,1.75-3.35,2.39Z" fill="#E85D43"/>
        </g>
        <g>
          <path d="M117.37,77.19c.14.02.29-.07.54.04l13.65,5.61c4.78,1.96,8.52-1.44,12.46-2.3l.09,16.53c.01,1.8,1.54,3.2,3.07,3.86l6.47,2.8c-.09.68.07,1.31.19,2.03.45,2.76.04,5.69.22,8.62.14,2.31-1.04,4.23-3.12,5.08l-12.09,4.95c-6.16,2.52-9.06-.87-14.75-2.7v-26.88c0-1.47-.53-2.99-2.07-3.7-2-.91-4.11-1.81-6.12-2.49,0-.28-.37-.29-.6-.38l.06-9.78c.53-.61,1.3-.97,2.01-1.31Z" fill="#4F46E5"/>
          <path d="M144,68.49l.02,12.06c-3.95.86-7.69,4.26-12.46,2.3l-13.65-5.61c-.25-.1-.4-.02-.54-.04.45-.22,1.04-.74.77-1.35l-2.55,1.1c-.79-2.34.51-4.67,2.89-5.6l13.68-5.37c.18,1.18,1.64,1.89,2.64,1.86,1.26-.03,2.12-.87,2.43-2.06l6.77,2.7ZM127.78,70.29l2.68-1.67c.34-.21.27-.67.02-.83-.2-.13-4.16,1.9-3.29,2.53.14.1.38.1.59-.03ZM124.5,72.31c.13-.15-.22-.62-.41-.54-.63.28-4.02,1.86-3.01,2.61.39.29,2.94-1.55,3.42-2.07Z" fill="#4F46E5"/>
          <path d="M137.23,65.79c-.3,1.18-1.17,2.02-2.43,2.06-.99.03-2.45-.68-2.64-1.86-.25-1.66,1.21-3.11,2.64-3.05,1.52.06,2.55,1.37,2.42,2.86Z" fill="#E85D43"/>
          <path d="M117.37,77.19c-.71.35-1.48.7-2.01,1.31-.28.08-.61.07-.76-.19-.44-.76.94-.83,1-1.38l2.55-1.1c.26.61-.32,1.13-.77,1.35Z" fill="#E85D43"/>
          <path d="M124.5,72.31c-.48.52-3.03,2.36-3.42,2.07-1.01-.75,2.38-2.34,3.01-2.61.19-.08.54.39.41.54Z" fill="#E85D43"/>
          <path d="M127.78,70.29c-.21.13-.44.14-.59.03-.87-.63,3.08-2.66,3.29-2.53.25.16.31.62-.02.83l-2.68,1.67Z" fill="#E85D43"/>
        </g>
      </g>
      <g>
        <g>
          <path d="M183.11,86.67l.02-31.61c0-2.03-.76-3.67-2.64-4.47l-9.27-3.95c-.03-1.02.62-4.17-.26-3.64.14-1.31-.03-2.66,0-3.97,1.06.51-.34-3.11,1.4-1.71l14.57,5.94c2.29.93,4.64.99,6.91.08l12.11-4.88c1.58-.64,2.93-1.41,3.86-2.75l.07,42.71c0,1.92-1.09,3.44-2.81,4.15l-12.97,5.37c-5.12,2.12-6.92-.37-10.99-1.29Z" fill="#4F46E5"/>
          <path d="M209.81,35.72c-.93,1.34-2.27,2.11-3.86,2.75l-12.11,4.88c-2.26.91-4.62.86-6.91-.08l-14.57-5.94c-1.75-1.39-.35,2.23-1.4,1.71l.06-2.84c.35.05.64.33.91.12s.42-.47.66-.76l1.59-1.91c.16-.2-.03-.45-.22-.58-.46-.32-2.24,2.4-2.85,2.34.24-3.3,4-3.51,5.37-4.59.18-.14.72.14.77-.25.1.06.23.06.39.02.09-.03.27-.05.16-.21l9.48-3.75c1.87-.74,4.1-.87,6.07-.07l13.88,5.62c1.59.64,2.58,2.03,2.58,3.55Z" fill="#4F46E5"/>
          <path d="M171.02,36.19c0-.21-.03-.28-.12-.4-.12-.16.02-.38.21-.39.61.06,2.39-2.66,2.85-2.34.19.13.38.38.22.58l-1.59,1.91c-.24.29-.39.54-.66.76s-.56-.06-.91-.12Z" fill="#E85D43"/>
        </g>
        <g>
          <path d="M183.11,86.67l-.05,10.41c0,1.68-1.2,3.12-2.74,3.76l-13.18,5.49c-2.01.84-4.3,1.02-6.43.19l-7.07-2.78-6.47-2.8c-1.53-.66-3.06-2.06-3.07-3.86l-.09-16.53-.02-12.06.17-14.72c.27,1.07,1.23,1.62,1.79,2.57.26.46-1.15.64-.74,1.35.12.21.42.16.63.02l2.62-1.7c.16-.1.33-.52.24-.66-.37-.62-1.88.82-2.55.99-.11-.46,2.04-1.85,2.71-1.15.25.26-.06.87-.33,1.13-.15.14-.32.25-.64.38l12.56,5.21c3.78,1.57,7.06-.2,10.49-1.7v-13.28c-.45-.09-.73-.2-.33-.29.31.16.37-.28.42-.58-.09-1.1-.2-2.08-.09-3.06.88-.52.23,2.63.26,3.64l9.27,3.95c1.88.8,2.64,2.44,2.64,4.47l-.02,31.61ZM177.91,84.44c.89.48,2.13.51,3.05,1.31.3.26,1.15-.21,1.67.05v-30.58c-1.47.89-2.93,1.44-4.41,2.07l-7.19,3.02-.06,16.89c-.02,5.69,3.44,5.35,6.94,7.24Z" fill="#4F46E5"/>
          <path d="M166.3,44.85c1.51.41,3.02.99,4.34,1.79-.4.09-.12.2.32.29v13.28c-3.42,1.5-6.71,3.27-10.48,1.7l-12.56-5.21c.33-.13.49-.24.64-.38.27-.25.58-.86.33-1.13-.66-.7-2.82.69-2.71,1.15-.08.02-.14.05-.22,0-.56-.95-1.52-1.5-1.79-2.57.01-1.2,1-2.5,2.29-3.05,4.88-2.08,9.65-4.13,14.55-5.84.49.34.71.87,1.2,1.52.42.55,1.7.76,2.12.35l1.97-1.9ZM160.82,46.87c-.55-.61-1.52-.34-1.85.27s-.95.72-1.41,1.13c-.28.25-.15.63.06.77.33.21,2.72-1.58,3.19-2.17ZM151.48,53.68c.44,0,4.64-2.73,3.17-2.93-1.29-.17-4.42,2.53-3.17,2.93Z" fill="#4F46E5"/>
          <path d="M166.3,44.85l-1.97,1.9c-.42.41-1.7.2-2.12-.35-.49-.65-.71-1.18-1.2-1.52-.08-1.54,1.07-2.88,2.62-2.88s2.55,1.27,2.67,2.85Z" fill="#E85D43"/>
          <path d="M177.91,84.44c-3.51-1.89-6.97-1.55-6.94-7.24l.06-16.89,7.19-3.02c1.49-.62,2.94-1.18,4.41-2.07v30.58c-.51-.26-1.36.21-1.66-.05-.92-.8-2.16-.83-3.05-1.31Z" fill="#4F46E5"/>
          <path d="M145.96,56.34c.08.05.14.02.22,0,.67-.17,2.18-1.61,2.55-.99.09.14-.09.56-.24.66l-2.62,1.7c-.21.14-.51.18-.63-.02-.41-.71.99-.89.74-1.35Z" fill="#E85D43"/>
          <path d="M151.48,53.68c-1.25-.4,1.87-3.1,3.17-2.93,1.47.19-2.73,2.93-3.17,2.93Z" fill="#E85D43"/>
          <path d="M160.82,46.87c-.47.58-2.87,2.37-3.19,2.17-.22-.14-.34-.52-.06-.77.46-.41,1.07-.51,1.41-1.13s1.29-.88,1.85-.27Z" fill="#E85D43"/>
        </g>
      </g>
    </g>
  </g>
</svg>