<?xml version="1.0" encoding="iso-8859-1"?>
<!-- Generator: Adobe Illustrator 30.2.1, SVG Export Plug-In . SVG Version: 9.03 Build 0)  -->
<svg version="1.1" id="Spiral_x5F_Variabil" xmlns="http://www.w3.org/2000/svg" xmlns:xlink="http://www.w3.org/1999/xlink"
	 x="0px" y="0px" viewBox="0 0 500 500" style="enable-background:new 0 0 500 500;" xml:space="preserve">
<polyline style="fill:none;stroke:#E75D44;stroke-width:25.8563;stroke-linecap:round;stroke-linejoin:round;stroke-miterlimit:10;" points="
	250,468 231.05,466.56 212.36,463.47 194.06,458.78 176.28,452.53 "/>
<polyline style="fill:none;stroke:#E55D46;stroke-width:25.5688;stroke-linecap:round;stroke-linejoin:round;stroke-miterlimit:10;" points="
	176.28,452.53 159.17,444.78 142.85,435.59 127.44,425.04 113.05,413.21 "/>
<polyline style="fill:none;stroke:#E35C48;stroke-width:25.2812;stroke-linecap:round;stroke-linejoin:round;stroke-miterlimit:10;" points="
	113.05,413.21 99.78,400.22 87.73,386.16 76.99,371.15 67.62,355.3 "/>
<polyline style="fill:none;stroke:#E15C4A;stroke-width:24.9937;stroke-linecap:round;stroke-linejoin:round;stroke-miterlimit:10;" points="
	67.62,355.3 59.7,338.74 53.27,321.6 48.37,304.03 45.04,286.14 "/>
<polyline style="fill:none;stroke:#DF5C4C;stroke-width:24.7062;stroke-linecap:round;stroke-linejoin:round;stroke-miterlimit:10;" points="
	45.04,286.14 43.28,268.09 43.11,250 44.51,232.02 47.47,214.29 "/>
<polyline style="fill:none;stroke:#DD5B4E;stroke-width:24.4188;stroke-linecap:round;stroke-linejoin:round;stroke-miterlimit:10;" points="
	47.47,214.29 51.95,196.93 57.91,180.08 65.29,163.87 74.04,148.41 "/>
<polyline style="fill:none;stroke:#DC5B50;stroke-width:24.1313;stroke-linecap:round;stroke-linejoin:round;stroke-miterlimit:10;" points="
	74.04,148.41 84.07,133.81 95.3,120.19 107.64,107.64 120.98,96.24 "/>
<polyline style="fill:none;stroke:#DA5B52;stroke-width:23.8438;stroke-linecap:round;stroke-linejoin:round;stroke-miterlimit:10;" points="
	120.98,96.24 135.23,86.09 150.26,77.24 165.96,69.77 182.2,63.71 "/>
<polyline style="fill:none;stroke:#D85B54;stroke-width:23.5562;stroke-linecap:round;stroke-linejoin:round;stroke-miterlimit:10;" points="
	182.2,63.71 198.85,59.1 215.79,55.98 232.88,54.35 250,54.22 "/>
<polyline style="fill:none;stroke:#D65A56;stroke-width:23.2687;stroke-linecap:round;stroke-linejoin:round;stroke-miterlimit:10;" points="
	250,54.22 267.01,55.58 283.78,58.41 300.19,62.68 316.12,68.35 331.43,75.36 "/>
<polyline style="fill:none;stroke:#D45A58;stroke-width:22.9813;stroke-linecap:round;stroke-linejoin:round;stroke-miterlimit:10;" points="
	331.43,75.36 346.04,83.66 359.82,93.17 372.67,103.81 384.51,115.49 "/>
<polyline style="fill:none;stroke:#D25A5A;stroke-width:22.6938;stroke-linecap:round;stroke-linejoin:round;stroke-miterlimit:10;" points="
	384.51,115.49 395.25,128.12 404.81,141.6 413.13,155.81 420.16,170.65 "/>
<polyline style="fill:none;stroke:#D0595C;stroke-width:22.4062;stroke-linecap:round;stroke-linejoin:round;stroke-miterlimit:10;" points="
	420.16,170.65 425.85,186 430.16,201.73 433.08,217.72 434.58,233.85 "/>
<polyline style="fill:none;stroke:#CE595E;stroke-width:22.1187;stroke-linecap:round;stroke-linejoin:round;stroke-miterlimit:10;" points="
	434.58,233.85 434.67,250 433.35,266.04 430.65,281.85 426.59,297.32 "/>
<polyline style="fill:none;stroke:#CC5960;stroke-width:21.8312;stroke-linecap:round;stroke-linejoin:round;stroke-miterlimit:10;" points="
	426.59,297.32 421.21,312.32 414.57,326.74 406.72,340.48 397.73,353.44 "/>
<polyline style="fill:none;stroke:#CA5962;stroke-width:21.5438;stroke-linecap:round;stroke-linejoin:round;stroke-miterlimit:10;" points="
	397.73,353.44 387.68,365.53 376.65,376.65 364.73,386.73 352.03,395.71 "/>
<polyline style="fill:none;stroke:#C85864;stroke-width:21.2563;stroke-linecap:round;stroke-linejoin:round;stroke-miterlimit:10;" points="
	352.03,395.71 338.63,403.51 324.65,410.09 310.2,415.41 295.4,419.43 "/>
<polyline style="fill:none;stroke:#C75866;stroke-width:20.9688;stroke-linecap:round;stroke-linejoin:round;stroke-miterlimit:10;" points="
	295.4,419.43 280.35,422.13 265.18,423.51 250,423.56 234.93,422.28 "/>
<polyline style="fill:none;stroke:#C55868;stroke-width:20.6812;stroke-linecap:round;stroke-linejoin:round;stroke-miterlimit:10;" points="
	234.93,422.28 220.08,419.7 205.56,415.85 191.49,410.77 177.96,404.5 "/>
<polyline style="fill:none;stroke:#C3576A;stroke-width:20.3937;stroke-linecap:round;stroke-linejoin:round;stroke-miterlimit:10;" points="
	177.96,404.5 165.07,397.1 152.93,388.63 141.61,379.17 131.21,368.79 "/>
<polyline style="fill:none;stroke:#C1576D;stroke-width:20.1063;stroke-linecap:round;stroke-linejoin:round;stroke-miterlimit:10;" points="
	131.21,368.79 121.78,357.59 113.39,345.65 106.11,333.07 99.98,319.96 "/>
<polyline style="fill:none;stroke:#BF576F;stroke-width:19.8188;stroke-linecap:round;stroke-linejoin:round;stroke-miterlimit:10;" points="
	99.98,319.96 95.03,306.4 91.3,292.52 88.81,278.42 87.56,264.21 "/>
<polyline style="fill:none;stroke:#BD5771;stroke-width:19.5312;stroke-linecap:round;stroke-linejoin:round;stroke-miterlimit:10;" points="
	87.56,264.21 87.56,250 88.79,235.9 91.24,222.01 94.88,208.44 "/>
<polyline style="fill:none;stroke:#BB5673;stroke-width:19.2437;stroke-linecap:round;stroke-linejoin:round;stroke-miterlimit:10;" points="
	94.88,208.44 99.67,195.29 105.57,182.65 112.53,170.63 120.47,159.3 "/>
<polyline style="fill:none;stroke:#B95675;stroke-width:18.9562;stroke-linecap:round;stroke-linejoin:round;stroke-miterlimit:10;" points="
	120.47,159.3 129.34,148.76 139.06,139.06 149.55,130.29 160.72,122.5 "/>
<polyline style="fill:none;stroke:#B75677;stroke-width:18.6688;stroke-linecap:round;stroke-linejoin:round;stroke-miterlimit:10;" points="
	160.72,122.5 172.48,115.73 184.74,110.05 197.4,105.47 210.35,102.03 "/>
<polyline style="fill:none;stroke:#B55579;stroke-width:18.3813;stroke-linecap:round;stroke-linejoin:round;stroke-miterlimit:10;" points="
	210.35,102.03 223.51,99.75 236.76,98.63 250,98.67 263.14,99.86 "/>
<polyline style="fill:none;stroke:#B3557B;stroke-width:18.0938;stroke-linecap:round;stroke-linejoin:round;stroke-miterlimit:10;" points="
	263.14,99.86 276.06,102.18 288.69,105.61 300.91,110.11 312.65,115.64 "/>
<polyline style="fill:none;stroke:#B1557D;stroke-width:17.8062;stroke-linecap:round;stroke-linejoin:round;stroke-miterlimit:10;" points="
	312.65,115.64 323.81,122.15 334.32,129.57 344.1,137.85 353.08,146.92 "/>
<polyline style="fill:none;stroke:#B0557F;stroke-width:17.5187;stroke-linecap:round;stroke-linejoin:round;stroke-miterlimit:10;" points="
	353.08,146.92 361.2,156.69 368.4,167.09 374.64,178.04 379.88,189.44 384.09,201.2 "/>
<polyline style="fill:none;stroke:#AE5481;stroke-width:17.2313;stroke-linecap:round;stroke-linejoin:round;stroke-miterlimit:10;" points="
	384.09,201.2 387.23,213.23 389.31,225.44 390.3,237.73 390.22,250 "/>
<polyline style="fill:none;stroke:#AC5483;stroke-width:16.9438;stroke-linecap:round;stroke-linejoin:round;stroke-miterlimit:10;" points="
	390.22,250 389.07,262.17 386.88,274.13 383.66,285.81 379.45,297.11 "/>
<polyline style="fill:none;stroke:#AA5485;stroke-width:16.6562;stroke-linecap:round;stroke-linejoin:round;stroke-miterlimit:10;" points="
	379.45,297.11 374.29,307.96 368.23,318.26 361.32,327.95 353.63,336.96 "/>
<polyline style="fill:none;stroke:#A85387;stroke-width:16.3687;stroke-linecap:round;stroke-linejoin:round;stroke-miterlimit:10;" points="
	353.63,336.96 345.22,345.22 336.17,352.69 326.53,359.3 316.41,365.02 "/>
<polyline style="fill:none;stroke:#A65389;stroke-width:16.0812;stroke-linecap:round;stroke-linejoin:round;stroke-miterlimit:10;" points="
	316.41,365.02 305.87,369.81 295,373.64 283.9,376.5 272.63,378.37 "/>
<polyline style="fill:none;stroke:#A4538B;stroke-width:15.7937;stroke-linecap:round;stroke-linejoin:round;stroke-miterlimit:10;" points="
	272.63,378.37 261.31,379.23 250,379.11 238.8,378 227.79,375.93 "/>
<polyline style="fill:none;stroke:#A2538D;stroke-width:15.5063;stroke-linecap:round;stroke-linejoin:round;stroke-miterlimit:10;" points="
	227.79,375.93 217.06,372.92 206.69,369 196.74,364.22 187.3,358.61 "/>
<polyline style="fill:none;stroke:#A0528F;stroke-width:15.2188;stroke-linecap:round;stroke-linejoin:round;stroke-miterlimit:10;" points="
	187.3,358.61 178.42,352.22 170.18,345.12 162.63,337.37 155.82,329.02 "/>
<polyline style="fill:none;stroke:#9E5291;stroke-width:14.9312;stroke-linecap:round;stroke-linejoin:round;stroke-miterlimit:10;" points="
	155.82,329.02 149.8,320.16 144.6,310.85 140.26,301.17 136.8,291.2 "/>
<polyline style="fill:none;stroke:#9C5293;stroke-width:14.6438;stroke-linecap:round;stroke-linejoin:round;stroke-miterlimit:10;" points="
	136.8,291.2 134.23,281.02 132.58,270.7 131.83,260.34 132,250 "/>
<polyline style="fill:none;stroke:#9B5195;stroke-width:14.3562;stroke-linecap:round;stroke-linejoin:round;stroke-miterlimit:10;" points="
	132,250 133.06,239.77 135.01,229.72 137.81,219.94 141.44,210.49 "/>
<polyline style="fill:none;stroke:#995197;stroke-width:14.0688;stroke-linecap:round;stroke-linejoin:round;stroke-miterlimit:10;" points="
	141.44,210.49 145.85,201.44 151.02,192.85 156.88,184.8 163.39,177.33 "/>
<polyline style="fill:none;stroke:#975199;stroke-width:13.7812;stroke-linecap:round;stroke-linejoin:round;stroke-miterlimit:10;" points="
	163.39,177.33 170.49,170.49 178.12,164.34 186.21,158.9 194.7,154.22 "/>
<polyline style="fill:none;stroke:#95509B;stroke-width:13.4937;stroke-linecap:round;stroke-linejoin:round;stroke-miterlimit:10;" points="
	194.7,154.22 203.52,150.33 212.6,147.24 221.86,144.96 231.22,143.52 "/>
<polyline style="fill:none;stroke:#93509D;stroke-width:13.2063;stroke-linecap:round;stroke-linejoin:round;stroke-miterlimit:10;" points="
	231.22,143.52 240.63,142.9 250,143.11 259.26,144.13 268.35,145.95 "/>
<polyline style="fill:none;stroke:#91509F;stroke-width:12.9187;stroke-linecap:round;stroke-linejoin:round;stroke-miterlimit:10;" points="
	268.35,145.95 277.19,148.54 285.71,151.88 293.87,155.92 301.59,160.64 "/>
<polyline style="fill:none;stroke:#8F50A1;stroke-width:12.6313;stroke-linecap:round;stroke-linejoin:round;stroke-miterlimit:10;" points="
	301.59,160.64 308.83,165.98 315.53,171.9 321.65,178.35 327.15,185.26 "/>
<polyline style="fill:none;stroke:#8D4FA3;stroke-width:12.3438;stroke-linecap:round;stroke-linejoin:round;stroke-miterlimit:10;" points="
	327.15,185.26 332,192.59 336.15,200.26 339.6,208.22 342.32,216.4 "/>
<polyline style="fill:none;stroke:#8B4FA5;stroke-width:12.0562;stroke-linecap:round;stroke-linejoin:round;stroke-miterlimit:10;" points="
	342.32,216.4 344.3,224.73 345.54,233.15 346.03,241.6 345.78,250 "/>
<polyline style="fill:none;stroke:#894FA7;stroke-width:11.7688;stroke-linecap:round;stroke-linejoin:round;stroke-miterlimit:10;" points="
	345.78,250 344.8,258.29 343.11,266.42 340.73,274.31 337.68,281.91 334.01,289.17 "/>
<polyline style="fill:none;stroke:#874EA9;stroke-width:11.4812;stroke-linecap:round;stroke-linejoin:round;stroke-miterlimit:10;" points="
	334.01,289.17 329.74,296.04 324.92,302.46 319.59,308.39 313.8,313.8 "/>
<polyline style="fill:none;stroke:#864EAB;stroke-width:11.1938;stroke-linecap:round;stroke-linejoin:round;stroke-miterlimit:10;" points="
	313.8,313.8 307.6,318.64 301.04,322.89 294.19,326.53 287.09,329.53 "/>
<polyline style="fill:none;stroke:#844EAD;stroke-width:10.9062;stroke-linecap:round;stroke-linejoin:round;stroke-miterlimit:10;" points="
	287.09,329.53 279.8,331.88 272.39,333.57 264.92,334.6 257.43,334.96 "/>
<polyline style="fill:none;stroke:#824EAF;stroke-width:10.6187;stroke-linecap:round;stroke-linejoin:round;stroke-miterlimit:10;" points="
	257.43,334.96 250,334.67 242.67,333.73 235.51,332.16 228.57,329.99 "/>
<polyline style="fill:none;stroke:#804DB1;stroke-width:10.3313;stroke-linecap:round;stroke-linejoin:round;stroke-miterlimit:10;" points="
	228.57,329.99 221.89,327.24 215.52,323.94 209.52,320.12 203.92,315.82 "/>
<polyline style="fill:none;stroke:#7E4DB3;stroke-width:10.0437;stroke-linecap:round;stroke-linejoin:round;stroke-miterlimit:10;" points="
	203.92,315.82 198.75,311.08 194.06,305.94 189.87,300.45 186.21,294.67 "/>
<polyline style="fill:none;stroke:#7C4DB5;stroke-width:9.7563;stroke-linecap:round;stroke-linejoin:round;stroke-miterlimit:10;" points="
	186.21,294.67 183.09,288.63 180.54,282.39 178.56,276 177.16,269.52 "/>
<polyline style="fill:none;stroke:#7A4CB7;stroke-width:9.4688;stroke-linecap:round;stroke-linejoin:round;stroke-miterlimit:10;" points="
	177.16,269.52 176.35,262.99 176.11,256.46 176.44,250 177.34,243.64 "/>
<polyline style="fill:none;stroke:#784CB9;stroke-width:9.1812;stroke-linecap:round;stroke-linejoin:round;stroke-miterlimit:10;" points="
	177.34,243.64 178.78,237.44 180.74,231.44 183.2,225.69 186.13,220.22 "/>
<polyline style="fill:none;stroke:#764CBB;stroke-width:8.8938;stroke-linecap:round;stroke-linejoin:round;stroke-miterlimit:10;" points="
	186.13,220.22 189.51,215.07 193.29,210.29 197.44,205.89 201.92,201.92 "/>
<polyline style="fill:none;stroke:#744CBE;stroke-width:8.6062;stroke-linecap:round;stroke-linejoin:round;stroke-miterlimit:10;" points="
	201.92,201.92 206.69,198.38 211.7,195.31 216.93,192.71 222.31,190.61 "/>
<polyline style="fill:none;stroke:#724BC0;stroke-width:8.3188;stroke-linecap:round;stroke-linejoin:round;stroke-miterlimit:10;" points="
	222.31,190.61 227.8,189 233.36,187.89 238.94,187.29 244.5,187.18 "/>
<polyline style="fill:none;stroke:#704BC2;stroke-width:8.0312;stroke-linecap:round;stroke-linejoin:round;stroke-miterlimit:10;" points="
	244.5,187.18 250,187.56 255.39,188.41 260.63,189.72 265.68,191.47 "/>
<polyline style="fill:none;stroke:#6F4BC4;stroke-width:7.7438;stroke-linecap:round;stroke-linejoin:round;stroke-miterlimit:10;" points="
	265.68,191.47 270.51,193.64 275.09,196.2 279.37,199.13 283.34,202.39 "/>
<polyline style="fill:none;stroke:#6D4AC6;stroke-width:7.4563;stroke-linecap:round;stroke-linejoin:round;stroke-miterlimit:10;" points="
	283.34,202.39 286.96,205.95 290.23,209.77 293.11,213.83 295.59,218.08 "/>
<polyline style="fill:none;stroke:#6B4AC8;stroke-width:7.1687;stroke-linecap:round;stroke-linejoin:round;stroke-miterlimit:10;" points="
	295.59,218.08 297.66,222.48 299.32,227 300.56,231.6 301.37,236.23 "/>
<polyline style="fill:none;stroke:#694ACA;stroke-width:6.8812;stroke-linecap:round;stroke-linejoin:round;stroke-miterlimit:10;" points="
	301.37,236.23 301.77,240.87 301.75,245.47 301.33,250 300.52,254.42 "/>
<polyline style="fill:none;stroke:#674ACC;stroke-width:6.5938;stroke-linecap:round;stroke-linejoin:round;stroke-miterlimit:10;" points="
	300.52,254.42 299.34,258.7 297.8,262.81 295.92,266.71 293.73,270.39 "/>
<polyline style="fill:none;stroke:#6549CE;stroke-width:6.3063;stroke-linecap:round;stroke-linejoin:round;stroke-miterlimit:10;" points="
	293.73,270.39 291.25,273.81 288.51,276.97 285.54,279.82 282.37,282.37 "/>
<polyline style="fill:none;stroke:#6349D0;stroke-width:6.0188;stroke-linecap:round;stroke-linejoin:round;stroke-miterlimit:10;" points="
	282.37,282.37 279.03,284.59 275.55,286.49 271.96,288.04 268.3,289.25 264.6,290.12 "/>
<polyline style="fill:none;stroke:#6149D2;stroke-width:5.7312;stroke-linecap:round;stroke-linejoin:round;stroke-miterlimit:10;" points="
	264.6,290.12 260.89,290.64 257.2,290.83 253.56,290.68 250,290.22 "/>
<polyline style="fill:none;stroke:#5F48D4;stroke-width:5.4437;stroke-linecap:round;stroke-linejoin:round;stroke-miterlimit:10;" points="
	250,290.22 246.55,289.45 243.23,288.4 240.07,287.06 237.09,285.48 "/>
<polyline style="fill:none;stroke:#5D48D6;stroke-width:5.1562;stroke-linecap:round;stroke-linejoin:round;stroke-miterlimit:10;" points="
	237.09,285.48 234.31,283.66 231.74,281.63 229.41,279.41 227.32,277.03 "/>
<polyline style="fill:none;stroke:#5B48D8;stroke-width:4.8688;stroke-linecap:round;stroke-linejoin:round;stroke-miterlimit:10;" points="
	227.32,277.03 225.49,274.51 223.92,271.89 222.61,269.18 221.58,266.41 "/>
<polyline style="fill:none;stroke:#5A48DA;stroke-width:4.5813;stroke-linecap:round;stroke-linejoin:round;stroke-miterlimit:10;" points="
	221.58,266.41 220.82,263.61 220.32,260.8 220.09,258.01 220.12,255.27 "/>
<polyline style="fill:none;stroke:#5847DC;stroke-width:4.2937;stroke-linecap:round;stroke-linejoin:round;stroke-miterlimit:10;" points="
	220.12,255.27 220.38,252.59 220.89,250 221.61,247.52 222.55,245.16 "/>
<polyline style="fill:none;stroke:#5647DE;stroke-width:4.0062;stroke-linecap:round;stroke-linejoin:round;stroke-miterlimit:10;" points="
	222.55,245.16 223.67,242.94 224.96,240.89 226.41,239 228,237.3 "/>
<polyline style="fill:none;stroke:#5447E0;stroke-width:3.7188;stroke-linecap:round;stroke-linejoin:round;stroke-miterlimit:10;" points="
	228,237.3 229.69,235.78 231.48,234.46 233.34,233.34 235.26,232.43 "/>
<polyline style="fill:none;stroke:#5246E2;stroke-width:3.4313;stroke-linecap:round;stroke-linejoin:round;stroke-miterlimit:10;" points="
	235.26,232.43 237.2,231.72 239.15,231.2 241.09,230.89 243,230.77 "/>
<polyline style="fill:none;stroke:#5046E4;stroke-width:3.1437;stroke-linecap:round;stroke-linejoin:round;stroke-miterlimit:10;" points="
	243,230.77 244.86,230.82 246.66,231.06 248.38,231.45 250,232 "/>
<circle style="fill:#4F46E5;" cx="250" cy="250" r="7.5"/>
<g>
</g>
<g>
</g>
<g>
</g>
<g>
</g>
<g>
</g>
<g>
</g>
<g>
</g>
<g>
</g>
<g>
</g>
<g>
</g>
<g>
</g>
<g>
</g>
<g>
</g>
<g>
</g>
<g>
</g>
</svg>
