<?xml version="1.0" encoding="UTF-8"?>
<svg id="Layer_1" data-name="Layer 1" xmlns="http://www.w3.org/2000/svg" viewBox="0 0 512 512">
  <g id="Generative_Object" data-name="Generative Object">
    <path d="M126.81,365.7c3.86,9.19,3.24,19.94-1.75,29.18-14.77,27.37-11.98,59.2,5.85,83.96-.34-.33-.99.07-1.21.41-.12.19.25.53.09.82-19.14-25.08-21.51-58.82-6.39-86.89.31.3.54-.02.59-.32s-.03-.57.08-.86c.19-.55.74-1.09.57-1.7.34.24.5-.11.52-.36.03-.31-.02-.58.07-.86.24-.73.79-1.5.6-2.28.89-.07.31-1.2.57-1.8.1-.23.22-.34.03-.58.34.08.45-.14.48-.33.03-.21-.08-.71-.06-.89l.19-2.87c1.28-1.24.05-3.41.02-4.66-.07-2.91-.64-5.79-1.65-8.55.75-.23.35-1.74,1.4-1.43Z" fill="#936681"/>
    <path d="M135.66,363.02c.06.54-.25,1.07-.05,1.6-3.41-.96-6.94-1.24-10.43-3.86.38,2.41,1.02,3.46,1.63,4.93-1.05-.31-.65,1.2-1.4,1.43-.85-2.33-2.01-4.45-3.67-6.68-7.23,6.03-16.42,5.99-22.92.65-.16-2.26,2.1,2.87,5.98.48,6.56,1.72,13.29-.41,17.16-5.83,4.06-5.69,3.49-12.88-.29-18.51-.4-.6-.38-1.57-1.58-2.38.47-.69,1-1.03,1.55-1.2,6.9,6.03,8.09,15.68,2.58,24.25,4.19,2.49,7.55,4.35,11.44,5.12Z" fill="#e2489a"/>
    <path d="M259.1,53.3c-.76,4.3-2.89,1.94-2.65,6.52-.93-.91-1.68-.35-2.6-.71-.59-.24-.03-1.91-.64-2.37-.65-.49-1.21-1.08-2.14-.61.09-1.06.3-2.12.84-3.35,2.44.08,4.87.73,7.21.52Z" fill="#fff"/>
    <path d="M471.47,48.6c-1.98-1.94-4.36-3.6-6.38-5.31l-8.19-6.93c5.14,2.47,10.42,7.23,14.64,11.42-.07.53-.09.77-.07.82Z" fill="#fff"/>
    <path d="M127.04,380.34c.1-1.48-.19-3.15.02-4.66.03,1.26,1.27,3.42-.02,4.66Z" fill="#fff"/>
    <path d="M125.83,386.8c-.16-.64-.43-1.86.57-1.8-.26.59.32,1.72-.57,1.8Z" fill="#fff"/>
    <path d="M258.05,92.33h.66c.12.8-.84.72-.66,0Z" fill="#fff"/>
    <path d="M315.77,105.22c.02-.25.04-.57.03-.92,0-.27.42-.27.63-.33.21.26.13.53-.03.89-.13.28-.23.67-.62.36Z" fill="#fff"/>
    <path d="M448.18,31.72c-.34,0-.91-.09-.69-.59.31.09.8.03.69.59Z" fill="#fff"/>
    <path d="M449.34,32.32c-.35,0-.73-.14-.58-.57.4-.16.62.23.58.57Z" fill="#fff"/>
    <path d="M450.5,32.9c-.35,0-.72-.13-.58-.57.4-.17.63.22.58.57Z" fill="#fff"/>
    <path d="M451.66,33.49c-.34-.03-.72-.12-.58-.57.41-.19.64.22.58.57Z" fill="#fff"/>
    <path d="M453.39,34.69c-.47-.23-1.12-.58-1.15-1.17.58-.07,1.15.63,1.15,1.17Z" fill="#fff"/>
    <path d="M454.56,35.19c-.3.14-.68-.12-.58-.47.43-.3.55.15.58.47Z" fill="#fff"/>
    <path d="M126.43,384.42c-.15-.2-.16-.52-.11-.86.03-.22.19-.6.53-.36-.01.18.1.68.06.89-.03.18-.14.41-.48.33Z" fill="#fff"/>
    <path d="M473.85,50.94c-.98-.42-1.91-1.39-2.39-2.34l2.39,2.34Z" fill="#fff"/>
    <path d="M276.12,445.07c.47-.69.98-1.65,1.85-1.92-.45.68-.88,1.75-1.85,1.92Z" fill="#fff"/>
    <path d="M335.04,440.98c.07-.29-.01-.7.47-.59.3.33-.03.9-.47.59Z" fill="#fff"/>
    <path d="M376.5,439.22c-.51.15-.54-.27-.73-.59.54-.2.53.32.73.59Z" fill="#fff"/>
    <path d="M374.75,436.89c-.91-.2-1.54-1.11-1.89-1.87.6.43,1.51,1.21,1.89,1.87Z" fill="#fff"/>
    <path d="M314.65,446.26c-.4-.14-.53-.42-.72-.74.38.15.95.15.72.74Z" fill="#fff"/>
    <path d="M92.59,117.98c-.5.24-.57-.34-.76-.58.52-.17.58.25.76.58Z" fill="#fff"/>
    <path d="M123.4,393.18c.13-.24-.12-.63,0-.88s.36-.39.67-.3c-.1.29-.03.57-.08.86s-.27.62-.59.32Z" fill="#fff"/>
    <path d="M124.64,390.3c-.07-.26-.14-.58-.06-.91.05-.23.35-.4.65-.3-.09.28-.04.54-.07.86-.02.25-.18.6-.52.36Z" fill="#fff"/>
    <path d="M95.47,122.08c-.53.22-.56-.28-.64-.64.53-.28.5.36.64.64Z" fill="#fff"/>
    <path d="M388.05,184.35c-4.06,4.05-6.68,9.92-9.82,14.66-4.96.11-9.69,2.25-11.62,7.04-2.16,5.38,1.32,9.82,4.86,13.04l-1.99,24.21c-.8,9.69-.55,18.97-1.56,28.43-3.08,28.91-15.79,52.52-39.49,68.85-2.61-1.97-5.93-2.04-7.83-.03-2.01,2.14-2.08,5.13-.78,7,1.83,2.64,4.85,2.91,6.86,2.09,3.24-1.33,3.47-4.3,3-7.39,26.46-18.04,39.54-46.08,40.88-77.99l1.1-26.23c.07-1.71.1-3.57.82-5.57.85,7.43,2.63,14.18,4.94,21.38l5.79,18.06c4.28,13.36,5.26,27.37,2.49,40.83-8.22-1.42-15.12,2.96-17.71,9.86-2.57,6.85.23,14.53,6.86,18.53-13.31,20.36-33.48,34.39-56.48,40.63-1.89-9.84-9.89-16.5-19.19-16.89-9.3-.38-17.45,5.42-20.48,14.57-20.07-7.21-32.23-14.51-52.08-20.67-6.98-2.16-13.76-4.66-21.61-5.52-15.74-1.73-31.03.04-45.49,6.7-7.68,3.54-15.93,4.61-23.87,3.04-3.89-.77-7.24-2.62-11.44-5.12,5.51-8.57,4.32-18.21-2.58-24.25-5.6-4.9-12.71-6.98-20.72-2.9-5.95-10.61-4.61-23.25,3.3-32.58,5.61-6.62,10.3-12.87,13.51-21.06,3.94-10.04,13.12-16.41,23.88-17.37-2.05,15.86-.04,31.32,5.56,46.07-7.24,3.52-10.22,10.93-8.4,18.02,1.51,5.89,6.22,10.29,11.99,11.26,6.62,1.11,12.52-2.24,15.45-7.01,3.61-5.88,2.85-12.22-1.01-17.75,7.16-4.58,15.12,1.81,18.84,7.56,3.17,4.91,6.88,8.84,10.51,12.87,4.63,5.14,9.92,9.67,16.9,12.43,13.42,5.32,20.93,2.69,30.91-5.4,35.7,9.77,73.46-5.41,94.59-36,15.3-22.14,19.44-50.39,10.93-75.49-1.89-5.57-3.26-11.42-7-16.77-.67-.96-.36-2.47-1.23-3.05-1.97-16.76,6.14-32.17,22.92-36.33,7.04,6.88,16.46,10.57,25.49,14.18Z" fill="#fffeff"/>
    <g>
      <path d="M288.39,110.87c.49-.36.89.2,1.31.16.58-.05.46-.93,1.05-1.36s2.14,0,2.74-1.23c1.93,1.73,4.14-.39,6-.62,4.56-.56,8.91.68,13.05.82,1-1.24,1.75-2.45,2.99-2.76-4.81,10.66-12.59,20.04-23.06,26.48-2.47-2.83-5.67-3.88-8.56-2.72-3.24,1.29-4.91,4.51-4.36,8.17-22.62,6.51-36.23-3.36-53.54-16.29-5.62-4.18-11.05-7.99-17.51-10.91-7.66-3.77-15.49-5.1-24.07-3.96-9.52-16.74-28.56-24.77-47.03-18.64-2.1-13.29-13.88-21.34-26.86-19.61-11.74,1.74-20.53,12.31-20.26,24.12s9.17,21.95,21.57,23.64c-3.42,14.89,1.73,29.49,13.2,39.3,9.99,8.55,23.31,10.96,36.27,7.33,2.01-.74,5.37-2.01,7.18-.61,10.36,13.97,10.56,31.89-.52,46-5.25-2.51-10.41-1.29-13.45,2.56-3.2,4.06-2.93,9.71.69,13.99-4.89,8.07-9.34,15.73-11.47,25.03-11.55-.32-22.83-7.14-26.24-17.94-1.3-4.13-3.96-6.85-5.99-10.09-8.06-12.89-20.79-21.97-35.93-25.73-1.16-.29-2.22-.43-2.84-1.09,17.26-5.06,29.88-18.76,32.16-37.42,1.7-13.89-2.25-27.89-9.48-39.49-.29-.92-1.24-1.47-2-2.19-11.02-10.36-13.74-26.71-6.17-39.61,4.95-8.44,13.58-13.82,22.05-15.22,11.31-1.88,19.54,2.44,27.75,9.14,15.83,12.92,36.94,17.05,56.84,13.35s38.05-16.14,49.95-33.7c2.12.52,4.07,1.67,5.98,2.66-4.82,14.57-2.95,29.8,6.76,41.82-5.68,6.16-7.32,14.61-3.22,21.99,3.72,6.7,11.04,11.03,19.46,9.61,7.18-1.21,13.85-7.19,15.57-14.98ZM148.36,199.46c4.36.89,7.86-2.09,9.09-5.7s-.44-7.44-3.95-9.6c-4.37-2.69-9.82-.2-11.61,4.34s1.17,9.87,6.47,10.95Z" fill="#fff"/>
      <path d="M447.49,31.14c-.21.5.36.59.69.59.2,0,.38.1.58.02-.15.44.22.58.58.57.2,0,.38.1.58.02-.14.44.23.57.58.57.2,0,.38.11.58.02-.14.45.24.53.58.57.21.02.37.05.58.03.03.59.68.94,1.15,1.17.25.12.33.21.58.03-.1.35.28.61.58.47.24.86,1.65,1.03,2.33,1.17l8.19,6.93c-.72.29-.74,1.13-.63,1.82-26.01-21.34-57.45-28.47-88.65-15.16-17.69,7.55-32.97,19.87-42.07,37.7-12.35,24.2-13.07,49.46-40.6,66.94.87,3.9-1.25,6.92-4.11,8.07-3.3,1.33-6.64.31-8.66-2.78-13.18,3.92-26.27,2.27-37.83-4.54-6.89-4.06-12.97-8.34-19.36-13.19-10.26-7.78-23.72-15.64-37.66-13.52,5.44,11.69,4.11,23.34-.3,34.69-2.61,6.71.78,14.65,5.17,20.05,6.45,7.95,16.68,8.86,25.72,11.85l1.15.38c-.32,1.13-1.46,1.71-2.93,1.61-11.66-.79-22.77-6.3-28.57-16.68-3.43-6.14-5.17-13.69-2.59-20.17,5.11-12.83,3.8-26.93-4.95-37.74s-22.03-15.69-35.41-12.9c-20.49,4.27-33.06,24.98-27.87,44.6,5.54,20.89,26.44,31.45,46.89,25.73,9.68-2.71,20.35,3.46,26.09,10.99s7.35,16.82,5.94,26.24c-.18,1.18-.76,2.32-1.79,2.39-.57-4.71.99-9.44-.21-14.19-1.91-10.67-8.97-20.38-20.41-23,9.82,14.74,9.2,33.03-1.6,47.1,3.77,4.13,4.25,9.87,1.12,13.98s-8.77,5.43-13.96,2.58c-4.72,7.19-8.6,14.52-10.99,23.53,9.79.77,19.73-3.03,26.78-9.93,1.53-1.5,2.43-3.22,3.77-5.04,4.02,2.8-7.19,10.81-10.6,12.66-15.74,8.57-40.42,5.98-49.02-11.45-2.06-4.17-3.43-8.4-6.16-12.21-.23-.32-.23-1.19-.12-1.5.11-.28.44-.67.86-.46,2.03,3.25,4.69,5.96,5.99,10.09,3.4,10.8,14.69,17.62,26.24,17.94,2.13-9.3,6.58-16.96,11.47-25.03-3.62-4.27-3.89-9.92-.69-13.99,3.03-3.85,8.19-5.07,13.45-2.56,11.08-14.11,10.88-32.03.52-46-1.82-1.41-5.17-.13-7.18.61-12.95,3.63-26.28,1.22-36.27-7.33-11.47-9.82-16.62-24.42-13.2-39.3-12.4-1.69-21.29-11.68-21.57-23.64s8.52-22.38,20.26-24.12c12.98-1.74,24.76,6.32,26.86,19.61,18.46-6.13,37.51,1.9,47.03,18.64,8.58-1.14,16.4.19,24.07,3.96,6.46,2.92,11.89,6.72,17.51,10.91,17.31,12.93,30.91,22.8,53.54,16.29-.55-3.66,1.12-6.87,4.36-8.17,2.89-1.15,6.09-.1,8.56,2.72,10.47-6.45,18.25-15.82,23.06-26.48.1-.22.22-.41.24-.66.4.31.49-.08.62-.36.17-.36.24-.63.03-.89.87-.9,1.46-2.53,1.99-3.91l9.33-24.46c11.84-31.05,41.1-51.29,73.76-54.13,16.46-1.43,31.72,2.58,45.99,9.68ZM135.46,88.47c-1.94-10.54-9.52-16.55-18.29-17.97s-17.54,3.23-21.97,11.15c-3.78,6.75-3.57,14.57.44,21.55,3.29,5.73,9.42,10.23,16.97,10.65,3.54-11.92,12.06-19.92,22.86-25.39ZM284.84,132.34c-2.55.99-3.26,3.82-2.28,5.78s3.31,2.78,5.05,2.11c2.42-.93,3.48-3.37,2.75-5.42-.76-2.15-3.18-3.38-5.53-2.47ZM161.46,209.84c-4.28.68-6.89,4.73-6.24,8.56.75,4.4,4.7,7.04,8.74,6.25s6.93-4.79,6.08-8.9c-.8-3.89-4.47-6.57-8.59-5.91Z" fill="#ff4b48"/>
      <path d="M95.44,118c7.22,11.6,11.17,25.6,9.48,39.49-2.28,18.65-14.9,32.35-32.16,37.42-4.17,1.22-8.85,1.25-13.47,1.4-21.94.73-41.09,13.24-50.5,32.83-10.29,21.4-6.96,46.25,8.66,64.23,11.85,13.64,28.78,21.4,47.06,20.27,4.75-.29,9.27-1.02,13.65-.17,6.53,1.27,12.58,4.4,17.23,9.05-.35-7.3-.15-13.85,2.9-19.63,2.27-4.31,5.82-8.1,8.99-11.91,4.05-4.88,6.59-10.27,9.13-16.03,3.77-8.54,10.83-14.03,19.93-16.36,15.38-3.94,31.66.77,41.7,12.72.37.44.4,1.46.51,1.96.08.36-.23.69-.74.92-7.99-10.32-20.61-15.96-34-14.54-2.22,15.47-.24,30.72,5.43,45.46,5.09-1.16,10.03,0,14.01,3.1.09,1.01-1.27.7-1.78,1.53.91.61,1.27,1.59,1.58,2.43-3.93-4.52-10.22-6.08-15.57-2.99-4.94,2.85-8.27,9.33-5.81,15.23-.69.07-.8-.68-1.12-.97-.74-.67-1.12.15-1.77.4-1.82-7.09,1.16-14.5,8.4-18.02-5.6-14.75-7.61-30.21-5.56-46.07-10.76.96-19.94,7.33-23.88,17.37-3.21,8.19-7.9,14.43-13.51,21.06-7.9,9.32-9.25,21.96-3.3,32.58,8.01-4.08,15.12-2,20.72,2.9-.55.17-1.08.5-1.55,1.2,1.19.81,1.18,1.78,1.58,2.38-3.01-3.43-7.32-5.78-11.99-5.73s-9.08,2.37-12.07,6.2-3.84,9.07-2.24,14.13c1.35,4.28,4.93,7.98,9.43,9.75-3.88,2.39-6.14-2.74-5.98-.48-4.43-3.64-7.47-8.21-7.28-14.37.18-5.65,2.59-10.95,7.46-14.74-5.18-11.97-17.68-18.01-30.41-16.52-16.21,1.9-31.8-2.57-44.35-12.51C.87,284.44-6.02,252.05,8.07,225.8c10.93-20.35,31.26-31.57,54.04-31.83,24.35-.28,42.19-20.62,41.05-44.56-.47-9.88-3.22-18.87-7.69-27.33-.14-.27-.11-.91-.64-.64-.34-1.39-1.58-2.26-2.24-3.46-.18-.33-.24-.75-.76-.58l-2.27-2.91c1.5-1.98,4.28,4.38,5.89,3.52Z" fill="#fb3c81"/>
      <path d="M471.47,48.6c.47.95,1.4,1.92,2.39,2.34,7.14,7,12.86,15.31,17.7,24.27,4.05,7.49,6.21,15.05,7.7,23.02-.51-.08-1.04.15-1.55-.03-.84-5.58-3.31-11.19-5.35-16.36-3.9-9.85-10.34-18.6-17.51-26.19-3.4-3.6-6.47-7.32-10.39-10.54-.11-.69-.09-1.53.63-1.82,2.03,1.72,4.41,3.37,6.38,5.31Z" fill="#946585"/>
      <path d="M456.89,36.36c-.69-.14-2.1-.3-2.33-1.17,1.23-.56,1.85.55,2.33,1.17Z" fill="#fff"/>
      <path d="M217.25,175.61c27.34-13.44,62.11-17.37,89.08-1.08.82,1.35-2.94,8.18-2.28,9.26-32.28-26.94-83.58-10.45-106.89,26.44-12.34,19.53-12.13,44.31-7.9,66.88l.67,3.57-8.83,2.24c-1.03-2.79-1.81-6.16-3.3-8.73.51-.23.82-.56.74-.92-.11-.49-.14-1.52-.51-1.96-10.03-11.95-26.32-16.66-41.7-12.72-9.1,2.33-16.15,7.82-19.93,16.36-2.54,5.76-5.08,11.15-9.13,16.03-3.16,3.81-6.71,7.6-8.99,11.91-6.3,3.63-12.2,7.9-19.69,9.85-.24.39-.15.73-.43.74-4.38-.85-8.91-.12-13.65.17-18.28,1.13-35.22-6.63-47.06-20.27-15.62-17.99-18.95-42.84-8.66-64.23,9.42-19.59,28.56-32.1,50.5-32.83,4.62-.15,9.3-.18,13.47-1.4.63.67,1.68.81,2.84,1.09,15.14,3.76,27.87,12.84,35.93,25.73-.41-.21-.75.18-.86.46-.12.31-.12,1.18.12,1.5,2.73,3.81,4.1,8.04,6.16,12.21,8.61,17.43,33.28,20.01,49.02,11.45,3.4-1.85,14.62-9.86,10.6-12.66,2.11-2.84,3.67-16,14.11-31.69.72-1.09,1.06-2.21,1.39-3.34,1.03-.07,1.62-1.21,1.79-2.39,1.41-9.41-.04-18.49-5.94-26.24s-16.42-13.69-26.09-10.99c-20.45,5.72-41.35-4.83-46.89-25.73-5.2-19.62,7.38-40.33,27.87-44.6,13.39-2.79,27.06,2.57,35.41,12.9s10.05,24.92,4.95,37.74c-2.58,6.48-.84,14.03,2.59,20.17,5.79,10.38,16.91,15.89,28.57,16.68,1.47.1,2.61-.48,2.93-1.61ZM93.12,295.05c25.03-20.37,25.94-57.89,1.71-79.06-14.97-13.07-35.96-16.27-54.18-8.15-16.78,7.48-27.77,23.37-29.85,40.62-2.3,19.01,5.71,36.76,20.9,48.03,18.4,13.65,43.65,13.02,61.42-1.44Z" fill="#ffadb7"/>
      <path d="M148.36,199.46c-5.3-1.09-8.27-6.38-6.47-10.95s7.25-7.03,11.61-4.34c3.51,2.16,5.2,5.97,3.95,9.6s-4.74,6.59-9.09,5.7ZM147.24,186.58c-2.99,1.39-3.57,5.03-2.22,7.38,1.44,2.51,4.43,3.35,6.79,2.22,2.85-1.36,3.73-4.52,2.66-6.89-1.3-2.87-4.23-4.11-7.22-2.71Z" fill="#ff4b47"/>
      <path d="M375.8,29.96c.3-.13,1.16.25.97.52-18.84,9.21-33.47,24.79-41.23,44.3-10.98,27.62-6.28,58.59,12.47,81.58.38.47.5.82.93.27-1.59,6.52-4.4,12.66-10,17.13-6.45,5.14-14.6,7.44-22.65,6.77l-9.95-6.01c-26.97-16.28-61.75-12.35-89.08,1.08l-1.15-.38c-9.04-2.99-19.27-3.9-25.72-11.85-4.39-5.4-7.78-13.34-5.17-20.05,4.41-11.35,5.74-23,.3-34.69,13.94-2.12,27.4,5.74,37.66,13.52,6.39,4.85,12.47,9.14,19.36,13.19,11.56,6.81,24.65,8.46,37.83,4.54,2.02,3.08,5.36,4.11,8.66,2.78,2.86-1.15,4.98-4.17,4.11-8.07,27.53-17.48,28.25-42.74,40.6-66.94,9.1-17.82,24.38-30.15,42.07-37.7Z" fill="#fffffe"/>
      <path d="M464.45,45.11c3.92,3.22,6.99,6.94,10.39,10.54-2.03,1.7-4.26,3.57-5.68,5.77-9.54-12.2-22.78-20.71-37.54-24.98-26.14-7.57-54.49.8-72.68,21.56-15.22,17.38-21.24,41.21-15.53,63.48,3.55,13.84,9.22,19.96,5.52,35.14-.43.54-.55.19-.93-.27-18.75-23-23.45-53.97-12.47-81.58,7.76-19.51,22.39-35.09,41.23-44.3.19-.27-.67-.65-.97-.52,31.21-13.32,62.65-6.18,88.65,15.16Z" fill="#ff9fd9"/>
      <path d="M192.08,199.67c-.33,1.12-.67,2.25-1.39,3.34-10.45,15.69-12.01,28.85-14.11,31.69-1.35,1.81-2.24,3.54-3.77,5.04-7.05,6.9-16.99,10.7-26.78,9.93,2.39-9.01,6.27-16.34,10.99-23.53,5.18,2.84,10.73,1.65,13.96-2.58s2.65-9.85-1.12-13.98c10.8-14.07,11.42-32.36,1.6-47.1,11.44,2.62,18.5,12.34,20.41,23,1.2,4.75-.36,9.47.21,14.19Z" fill="#fffefd"/>
      <path d="M135.46,88.47c-10.8,5.46-19.31,13.46-22.86,25.39-7.55-.42-13.67-4.92-16.97-10.65-4.02-6.99-4.22-14.8-.44-21.55,4.43-7.92,13.18-12.57,21.97-11.15s16.36,7.43,18.29,17.97Z" fill="#ffa7a8"/>
      <path d="M161.46,209.84c4.12-.65,7.79,2.03,8.59,5.91.84,4.11-1.87,8.08-6.08,8.9s-7.99-1.86-8.74-6.25c-.65-3.83,1.96-7.88,6.24-8.56Z" fill="#ffa8af"/>
      <path d="M284.84,132.34c2.35-.92,4.76.32,5.53,2.47s-.33,4.49-2.75,5.42c-1.74.67-4.04-.11-5.05-2.11s-.27-4.79,2.28-5.78Z" fill="#ffacb3"/>
      <path d="M177.8,274.19c1.48,2.57,2.27,5.93,3.3,8.73,7.85,21.28,24.89,39.87,45.52,49.01,4.13,1.83,8.18,4.18,12.7,5.25-3.21,2.54-6.38,5.44-11.08,6.31-12.82,2.38-25-6.19-33.19-14.4-3.09-3.1-9.87-14.83-16.09-19.5-4.95-3.72-10.21-3.09-15.73-1.38-3.98-3.11-8.92-4.26-14.01-3.1-5.68-14.73-7.66-29.99-5.43-45.46,13.39-1.41,26.01,4.22,34,14.54Z" fill="#fffefe"/>
      <path d="M121.67,337.22c3.77,5.64,4.35,12.83.29,18.51-3.87,5.42-10.59,7.55-17.16,5.83-4.5-1.77-8.08-5.47-9.43-9.75-1.6-5.06-.85-10.16,2.24-14.13s7.41-6.15,12.07-6.2,8.97,2.3,11.99,5.73Z" fill="#ffabf3"/>
      <path d="M163.05,312.17c4.35,6.36,3.09,14.99-4.05,18.8-6.26,3.35-14.44.4-17.34-6.56-2.45-5.9.87-12.38,5.81-15.23,5.35-3.09,11.64-1.53,15.57,2.99Z" fill="#ffaff5"/>
      <path d="M195.05,329.09c-.36.55-.74,1-.5,1.68-3.63-4.03-7.34-7.96-10.51-12.87-3.72-5.75-11.68-12.15-18.84-7.56,3.86,5.52,4.62,11.86,1.01,17.75-2.93,4.77-8.83,8.12-15.45,7.01-5.77-.97-10.48-5.38-11.99-11.26.65-.25,1.03-1.07,1.77-.4.32.29.42,1.05,1.12.97,2.9,6.97,11.07,9.91,17.34,6.56,7.13-3.81,8.4-12.44,4.05-18.8-.31-.85-.68-1.83-1.58-2.43.51-.83,1.86-.52,1.78-1.53,5.52-1.71,10.78-2.33,15.73,1.38,6.22,4.67,13,16.4,16.09,19.5Z" fill="#ec299b"/>
      <path d="M98.29,302.9c-3.05,5.78-3.24,12.33-2.9,19.63-4.65-4.65-10.7-7.78-17.23-9.05.28,0,.19-.35.43-.74,7.5-1.94,13.39-6.21,19.69-9.85Z" fill="#fff6ff"/>
      <path d="M492.35,81.84c-.66.02-.48.5-.31,1.13,10.1,36.81-5.25,73.39-37.28,93.04-19.38,11.89-41.98,14.57-63.67,8.94,4.69-4.62,10.53-8.45,17.32-9.14,20.59,1.76,41.22-6.78,55.7-21.92,17.21-18,23.84-43.78,17.03-67.4-2.57-8.92-6.16-17.63-11.98-25.07,1.42-2.2,3.65-4.07,5.68-5.77,7.17,7.58,13.61,16.34,17.51,26.19Z" fill="#e8bcff"/>
      <path d="M357.15,148.84c3.54,6.02,13.13,13.67,18.76,16.5.4.2.88.93,1.72,1.5-7.32-.31-14.55.14-21.59,3.44-11.54,5.41-18.3,16.68-18.51,29.31-.04,2.63.17,5.43,2.12,6.91.87.58.57,2.09,1.23,3.05,3.74,5.35,5.12,11.2,7,16.77l-.96-.53c.2.11-8.09,2.78-7.27,3.55-.58-2.19-2.25-5.79-3.32-7.56-5.31-14.15-17.15-25.36-28.7-35l-3.58-2.99c-.65-1.08,3.1-7.92,2.28-9.26l9.95,6.01c.15.73.67,1.89,2.01,1.94,10.1.33,20.19-3.72,26.56-11.96s7.48-17.58,7.16-27.56c1.85,2.31,4.01,3.99,5.13,5.9Z" fill="#ffbaff"/>
      <path d="M93.12,295.05c-17.77,14.46-43.02,15.09-61.42,1.44-15.19-11.26-23.2-29.02-20.9-48.03,2.08-17.26,13.08-33.14,29.85-40.62,18.21-8.12,39.21-4.92,54.18,8.15,24.24,21.17,23.33,58.69-1.71,79.06ZM109.22,260.21c1.78-15.34-4-30.63-15.18-40.99-15.78-14.62-39.07-16.98-57.3-6.08-13.36,8-21.6,21.83-23.11,36.53-1.64,15.97,4.37,31,16.28,41.59,16.37,14.55,40.32,16.34,58.37,3.73,11.56-8.08,19.3-20.59,20.94-34.79Z" fill="#ff4949"/>
      <path d="M232.46,324.91c-4.28,1.41-2.73,4-5.83,7.02-20.63-9.15-37.67-27.73-45.52-49.01l8.83-2.24c3.88,20.75,23.09,35.13,42.53,44.24Z" fill="#ffbaff"/>
      <path d="M304.05,183.79l3.58,2.99c-.57-.15-1.05.44-1.07.89-.03.58.67.96.52,1.53-7.44-4.37-15.04-8.38-23.82-10.69-36.33-9.54-73.46,8.9-88.73,42.89-8.27,18.4-8.57,38.62-2.23,57.52-1.11.6-.55-3.11-2.04-2.96-.41.04-.65.8-1.01,1.15-4.22-22.56-4.44-47.35,7.9-66.88,23.31-36.89,74.61-53.38,106.89-26.44Z" fill="#ff3f7e"/>
      <path d="M192.31,278.92c1.82,4.21,4.24,8.12,6.42,12.13,3.82,6.99,9.04,12.98,15.12,18.03,6.41,5.32,13.42,10.99,21.42,14.06-.63.51-1.49,1.2-1.24,2.09-.46-.21-1.16-.2-1.57-.31-19.44-9.11-38.64-23.49-42.53-44.24l-.67-3.57c.36-.35.59-1.11,1.01-1.15,1.49-.15.93,3.55,2.04,2.96Z" fill="#956185"/>
      <path d="M147.24,186.58c2.99-1.4,5.93-.16,7.22,2.71,1.07,2.37.2,5.53-2.66,6.89-2.36,1.13-5.34.28-6.79-2.22-1.35-2.35-.77-5.99,2.22-7.38Z" fill="#ffa1a7"/>
      <path d="M347.88,226.32c8.5,25.09,4.36,53.34-10.93,75.49-21.13,30.59-58.89,45.77-94.59,36,4.35-3.53,9.46-6.38,15.76-6.5l8.21-.17c36.16-.74,68.23-27.88,74.94-63.28,2.44-12.9,1.76-25.8-1.62-38.52-.82-.76,7.47-3.44,7.27-3.55l.96.53Z" fill="#dbbaff"/>
      <path d="M387.56,171.23c4.37,1.72,8.84,3.37,14.03,4.04-4.95,2.57-9.66,5.23-13.53,9.09-9.03-3.61-18.45-7.3-25.49-14.18,8.19-2.03,16.95-2.12,24.99,1.05Z" fill="#ffb3ff"/>
      <path d="M266.31,328.53c.55.88.34,1.69.01,2.61l-8.21.17c-6.3.13-11.41,2.98-15.76,6.5-9.97,8.09-17.49,10.72-30.91,5.4-6.98-2.77-12.27-7.29-16.9-12.43-.24-.69.14-1.13.5-1.68,8.19,8.21,20.37,16.79,33.19,14.4,4.7-.87,7.87-3.76,11.08-6.31,3.56-2.82,7.65-4.82,11.86-6.78-6.23-1.09-11.87-2.73-17.16-5.19-.24-.89.61-1.58,1.24-2.09,9.78,3.76,20.55,5.5,31.04,5.4Z" fill="#504be3"/>
      <path d="M387.49,168.69c-.48.51-1.2.51-1.79.93,1.01.56,1.81.83,1.86,1.61-8.04-3.17-16.81-3.08-24.99-1.05-16.78,4.16-24.89,19.57-22.92,36.33-1.94-1.48-2.16-4.27-2.12-6.91.21-12.63,6.97-23.9,18.51-29.31,7.04-3.3,14.27-3.74,21.59-3.44-.84-.57-1.31-1.3-1.72-1.5.79-.41,1.39-1.24,2.32-1.32,2.37,1.66,6.54,3.78,9.26,4.66Z" fill="#8f5e85"/>
      <path d="M429.42,38.61c23.67,6.2,41.79,24.14,48.9,47.37,3.53,11.55,3.34,24.57.31,36.1-8.17,31.11-36.54,51.97-68.24,51.21-7.81-.19-15.55-2.23-22.89-4.61-2.73-.88-6.89-3-9.26-4.66-6.79-4.75-13.98-9.8-19.25-16.33-5.44-6.74-9.03-15.12-11.72-23.18-7.25-23.45-.93-49.58,16.48-67.29s42.07-24.79,65.67-18.61ZM435.19,164.93c24.1-9.27,40.85-32.43,41.37-58.59s-15.08-50.53-39.5-60.71c-16.29-6.79-34.4-6.43-50.15.45-18.31,7.99-31.47,24.19-36.19,41.74-5.79,21.53-.52,42.83,13.23,58.78,17.71,20.55,46.04,28.03,71.25,18.34Z" fill="#ffb8ff"/>
      <path d="M481.15,86.49c6.81,23.62.17,49.4-17.03,67.4-14.47,15.14-35.1,23.68-55.7,21.92.03-.8.85-.65,2.05-.73.48-.03.04-1.48-.08-1.79,31.7.76,60.07-20.1,68.24-51.21,3.03-11.54,3.23-24.55-.31-36.1.31-.4.19-.96.53-1.11,1.89-.81.68,2.1,2.3,1.62Z" fill="#2851d0"/>
      <path d="M347.26,124.51c2.68,8.07,6.27,16.44,11.72,23.18-.69.12-1.83.25-1.83,1.15-1.12-1.9-3.28-3.58-5.13-5.9.32,9.98-.88,19.43-7.16,27.56s-16.46,12.29-26.56,11.96c-1.34-.04-1.86-1.2-2.01-1.94,8.05.67,16.2-1.63,22.65-6.77,5.6-4.47,8.41-10.61,10-17.13,3.7-15.18-1.97-21.3-5.52-35.14.67-.21,1.65-1.13,2.07-.29.73,1.47.04,3.44,1.77,3.31Z" fill="#e54097"/>
      <path d="M431.62,36.44c-.43.38-.25,1.39-.85,1.62-.66.02-1.71-.4-1.36.54-23.6-6.18-48.81,1.46-65.67,18.61s-23.74,43.84-16.48,67.29c-1.73.13-1.03-1.84-1.77-3.31-.42-.84-1.4.08-2.07.29-5.71-22.27.3-46.11,15.53-63.48,18.19-20.76,46.53-29.13,72.68-21.56Z" fill="#ff4749"/>
      <path d="M469.16,61.42c5.82,7.44,9.41,16.14,11.98,25.07-1.62.49-.41-2.43-2.3-1.62-.35.15-.23.71-.53,1.11-7.11-23.23-25.22-41.17-48.9-47.37-.35-.95.71-.52,1.36-.54.59-.23.41-1.24.85-1.62,14.76,4.27,27.99,12.78,37.54,24.98Z" fill="#db1fad"/>
      <path d="M234.03,325.22c5.29,2.45,10.93,4.1,17.16,5.19-4.21,1.95-8.3,3.96-11.86,6.78-4.53-1.08-8.57-3.42-12.7-5.25,3.1-3.02,1.55-5.61,5.83-7.02.42.1,1.12.1,1.57.31Z" fill="#dbbaff"/>
      <path d="M336.33,221.78c1.07,1.77,2.74,5.38,3.32,7.56,3.37,12.72,4.06,25.62,1.62,38.52-.74-.76-1.16-1.83-2.18-2.34,2.79-14.83-.19-29.92-5.32-43.77.22-.82.37-1.67,1.05-2.36.06,1.38,1.2,1.87,1.52,2.39Z" fill="#5b42e0"/>
      <path d="M336.33,221.78c-.31-.52-1.46-1.01-1.52-2.39-.68.69-.83,1.55-1.05,2.36-.79-2.14-2.48-4.44-3.61-6.52-3.88-7.16-8.89-13.85-15.02-19.11-2.55-2.19-5.14-5.23-8.05-6.94.15-.57-.55-.95-.52-1.53.02-.44.5-1.04,1.07-.89,11.55,9.64,23.39,20.85,28.7,35Z" fill="#9a5e7e"/>
      <path d="M358.98,147.69c5.27,6.53,12.46,11.58,19.25,16.33-.92.09-1.52.91-2.32,1.32-5.64-2.83-15.22-10.48-18.76-16.5,0-.9,1.14-1.02,1.83-1.15Z" fill="#d326b4"/>
      <path d="M109.22,260.21c-1.64,14.2-9.38,26.71-20.94,34.79-18.05,12.61-41.99,10.82-58.37-3.73-11.92-10.59-17.93-25.62-16.28-41.59,1.51-14.7,9.75-28.54,23.11-36.53,18.22-10.9,41.52-8.54,57.3,6.08,11.18,10.36,16.96,25.65,15.18,40.99ZM58.09,299.07c23.48,1.97,43.94-15.83,46.85-38.84,3.3-26.17-17.05-49.41-43.04-49.66-21.73-.21-40.71,15.69-43.72,37.78-2.67,19.61,6.55,37.76,24.9,46.74,4.63,2.27,9.36,3.51,15.02,3.98Z" fill="#ffa5ac"/>
      <path d="M307.09,189.19c2.91,1.71,5.5,4.75,8.05,6.94.76,1.06-3.91,3.1-4.68,5.3-1.49-1.12-3.48-2.03-5.14-3.5-9-7.96-20.44-11.94-32.23-13.88-2.39-.4-4.93.2-7.12-.44-1.51-.44-2.59-.39-4.09,0-2.21.57-4.71.16-6.98.46-30.88,4.12-55.38,29.17-59.01,60.02-.24,2.04.09,4.1-.43,5.98-.49,1.78-.52,3.42,0,5.2.61,2.05,0,4.36.42,6.58,1.51,8.09,3.4,16.09,7.98,22.88.54.85.78,2.42,1.07,3.41-2.11-.39-3.93,1.79-6.21,2.91-2.18-4-4.6-7.91-6.42-12.13-6.34-18.9-6.04-39.12,2.23-57.52,15.27-33.99,52.4-52.43,88.73-42.89,8.78,2.31,16.37,6.32,23.82,10.69Z" fill="#ffa4e2"/>
      <path d="M330.16,215.24c1.12,2.07,2.82,4.38,3.61,6.52,5.13,13.85,8.11,28.93,5.32,43.77-5.28,28.03-25.66,51.23-53.13,59.65-6.45,1.98-13.15,3.29-19.64,3.36-10.49.1-21.26-1.63-31.04-5.4-8-3.08-15.01-8.75-21.42-14.06-1.48-.65,4.2-5.93,4.55-5.19,3.58,3.12,8.01,5.72,12.28,8.25,11.45,6.77,25.4,9.74,39.12,8.45,15.05-1.41,28.25-6.92,39.71-17.16,13.99-12.5,22.05-29.42,22.75-47.82.08-2.03,1.01-3.58.09-5.56-.8-1.73.24-4.03-.43-5.93s-.57-3.95-.98-6.03c-1.36-6.92-4.05-13.4-7.65-19.82-.35-.63-.33-1.2-.41-1.73,3.3.4,3.22-2.13,7.25-1.3Z" fill="#edb8ff"/>
      <path d="M204.94,288.13c4.55,5.15,8.23,11.18,13.46,15.75-.35-.75-6.03,4.54-4.55,5.19-6.08-5.04-11.3-11.03-15.12-18.03,2.28-1.12,4.09-3.3,6.21-2.91Z" fill="#fbf"/>
      <path d="M341.26,267.86c-6.7,35.4-38.77,62.53-74.94,63.28.32-.92.53-1.73-.01-2.61,6.49-.06,13.19-1.38,19.64-3.36,27.47-8.42,47.85-31.62,53.13-59.65,1.02.51,1.44,1.57,2.18,2.34Z" fill="#004bc2"/>
      <path d="M435.19,164.93c-25.21,9.69-53.54,2.21-71.25-18.34-13.75-15.95-19.03-37.24-13.23-58.78,4.72-17.55,17.89-33.74,36.19-41.74,15.75-6.88,33.86-7.24,50.15-.45,24.43,10.18,40.03,34.19,39.5,60.71s-17.26,49.32-41.37,58.59ZM355.45,121.48c2.02,11.45,12.31,24.84,23.33,32.57,20.2,14.16,47.24,14.17,67.3.17,14.55-10.15,23.56-25.25,25.72-42.3.56-4.41.21-9.22-.06-13.39-1.04-16.1-9.59-29.09-21.3-39.37-24.26-21.29-62.73-18.36-84.09,7.89-7.86,9.65-12.4,20.63-13.32,32.89-.22,2.89-.54,5.45-.18,8.47l.8,6.66c.28,2.31.67,4.65,1.8,6.42Z" fill="#ffd1ff"/>
      <g>
        <path d="M259.1,53.3c-2.33.21-4.76-.44-7.21-.52-.54,1.23-.75,2.29-.84,3.35-.02.21-.03.39-.03.6-.89,1.49-1.13,3.52-1.16,5.3,0,.37-.03.73-.02,1.1-1.48-1.5.14,11.66-.04,8.84.48,7.35,3.58,14.65,8.25,20.35-.18.72.78.8.66.01,8-5.18,18-4.91,24.76,2.75,3.53,4.01,6.13,10.31,4.92,15.79-1.72,7.79-8.39,13.77-15.57,14.98-8.41,1.42-15.74-2.91-19.46-9.61-4.1-7.38-2.46-15.83,3.22-21.99-9.71-12.02-11.57-27.26-6.76-41.82-1.91-.99-3.86-2.14-5.98-2.66-11.89,17.56-29.23,29.83-49.95,33.7s-41.01-.42-56.84-13.35c-8.21-6.7-16.44-11.02-27.75-9.14-8.47,1.41-17.11,6.79-22.05,15.22-7.57,12.9-4.85,29.25,6.17,39.61.76.72,1.71,1.27,2,2.19-1.6.86-4.38-5.5-5.89-3.52-7.41-9.49-11.07-21.97-6.66-34.16,3.7-10.2,13.09-18.86,24.71-21.17s21.59,1.44,30.29,8.87c12.71,10.87,29.45,15.27,46.16,14.43,23.75-1.2,44.96-14.14,58-34.19-8.61-6.54-12.48-16.2-10.53-26.81,1.57-8.56,8-16.77,17.23-19.97,15.62-5.41,31.71,4.53,34.76,20.11s-8.54,30.27-24.41,31.71ZM236.98,38.2c4.99,9.23,15.77,13.73,25.84,11.39,9.25-2.15,16.9-10.15,18.02-20.16,1.18-10.51-4.4-19.91-13.22-24.11-9.48-4.51-20.45-2.17-27.21,5.07-7.01,7.51-8.5,18.43-3.43,27.81ZM266.88,92.07c-9.01,1.77-14.26,10.25-12.47,18.65s9.89,13.82,18.23,12.17,14.23-9.9,12.5-18.33-9.62-14.19-18.27-12.49Z" fill="#ff4a45"/>
        <path d="M249.8,71.97c.19,2.82-1.44-10.34.04-8.84.1,2.94.18,5.9-.04,8.84Z" fill="#fff"/>
        <path d="M249.87,62.03c.03-1.78.26-3.81,1.16-5.3.02,1.63.63,5.38-1.16,5.3Z" fill="#fff"/>
        <path d="M236.98,38.2c-5.07-9.38-3.58-20.3,3.43-27.81,6.76-7.24,17.74-9.58,27.21-5.07,8.81,4.19,14.39,13.6,13.22,24.11s-8.77,18.01-18.02,20.16c-10.07,2.34-20.85-2.16-25.84-11.39ZM267.06,40.38c6.1-4.39,8.41-11.64,6.5-18.51-1.75-6.33-7.29-11.2-14.18-12.05-7.47-.92-14.51,3.52-17.29,10.02-3.05,7.12-.8,14.96,4.65,19.6,5.76,4.9,13.97,5.51,20.31.95Z" fill="#ffa1a3"/>
        <path d="M266.88,92.07c8.64-1.7,16.58,4.23,18.27,12.49s-4.07,16.66-12.5,18.33-16.46-3.87-18.23-12.17,3.46-16.88,12.47-18.65Z" fill="#ffaab1"/>
        <path d="M267.06,40.38c-6.34,4.56-14.55,3.96-20.31-.95-5.45-4.64-7.7-12.48-4.65-19.6,2.78-6.5,9.82-10.94,17.29-10.02,6.89.85,12.43,5.73,14.18,12.05,1.9,6.87-.4,14.13-6.5,18.51ZM260.54,40.13c5.83-1.37,10.04-6.45,10.57-11.75.63-6.34-2.63-11.78-7.76-14.2-5.43-2.56-11.75-1.52-15.81,2.81-4.37,4.65-5.04,11.2-2.05,16.47s9.02,8.09,15.06,6.67Z" fill="#ff4946"/>
        <path d="M260.54,40.13c-6.04,1.42-12.11-1.46-15.06-6.67s-2.32-11.82,2.05-16.47c4.06-4.33,10.38-5.37,15.81-2.81,5.13,2.42,8.39,7.86,7.76,14.2-.53,5.3-4.73,10.39-10.57,11.75Z" fill="#fffefe"/>
      </g>
      <path d="M330.16,215.24c-4.03-.84-3.95,1.7-7.25,1.3-4-5.14-8.06-10.25-12.45-15.1.77-2.2,5.44-4.24,4.68-5.3,6.13,5.26,11.14,11.95,15.02,19.11Z" fill="#fbf"/>
      <path d="M58.09,299.07c-5.66-.47-10.39-1.71-15.02-3.98-18.35-8.98-27.57-27.13-24.9-46.74,3.01-22.09,21.99-37.99,43.72-37.78,25.99.25,46.34,23.49,43.04,49.66-2.9,23.02-23.36,40.81-46.85,38.84ZM103.87,261.12c3.31-23.63-12.34-45.07-35.51-49.05-1.7-.29-3.76.12-5.24-.51s-2.34-.02-3.52.04c-11.35.57-21.54,4.82-29.83,14-8.21,9.1-12.38,21.58-11.04,33.72,2.18,19.73,17.1,35.68,36.75,38.52,23.36,3.38,45.13-13.42,48.4-36.72Z" fill="#ff605c"/>
      <path d="M305.31,197.93l.02.43c-11.24-7.7-21.81-12.4-35.41-13.64-32.58-2.97-62.37,18.12-71.17,49.65-4.71,16.86-2.74,34.9,5.7,50.35h-.58c-4.58-6.8-6.47-14.79-7.98-22.88-.41-2.22.19-4.53-.42-6.58-.53-1.78-.49-3.42,0-5.2.52-1.88.19-3.93.43-5.98,3.63-30.85,28.13-55.9,59.01-60.02,2.27-.3,4.77.1,6.98-.46,1.5-.38,2.58-.44,4.09,0,2.19.64,4.73.05,7.12.44,11.79,1.95,23.23,5.92,32.23,13.88Z" fill="#f15086"/>
      <path d="M310.45,201.43c4.39,4.85,8.45,9.96,12.45,15.1.08.53.06,1.1.41,1.73,3.6,6.41,6.28,12.89,7.65,19.82-.38-.08-.67.2-.58.58-2.45-8.65-5.43-17-10.92-24.42-4.1-5.54-7.9-11.62-14.12-15.89l-.02-.43c1.67,1.47,3.65,2.38,5.14,3.5Z" fill="#906a85"/>
      <path d="M221.38,304.43c2.96,2.19,5.92,5.51,9.31,7.11v.58c-4.27-2.53-8.7-5.13-12.28-8.25-5.24-4.56-8.92-10.59-13.46-15.75-.3-.99-.53-2.56-1.07-3.41h.58c4.15,7.6,9.99,14.57,16.93,19.71Z" fill="#926c86"/>
      <path d="M230.68,312.13v-.58c7.71,3.64,15.59,7.02,24.57,7.85,5.72.53,11.65.68,16.99.03,36.12-4.42,62.65-37.01,59.01-73.33.04.41-1.18-8.54-.86-7.43-.08-.38.2-.67.58-.58.41,2.08.29,4.09.98,6.03s-.38,4.2.43,5.93c.92,1.99-.01,3.54-.09,5.56-.7,18.4-8.77,35.32-22.75,47.82-11.46,10.24-24.66,15.75-39.71,17.16-13.73,1.28-27.67-1.68-39.12-8.45Z" fill="#375db7"/>
      <path d="M355.45,121.48h.58c6.96,23.16,27.55,40.19,51.86,42.19,32.34,2.66,60.67-21.88,63.31-54.2,1.53-18.76-6.27-37.03-20.72-49.88-.07-.14-.08-.28-.04-.42,11.71,10.28,20.26,23.27,21.3,39.37.27,4.17.62,8.98.06,13.39-2.17,17.05-11.17,32.15-25.72,42.3-20.06,14-47.1,13.99-67.3-.17-11.02-7.73-21.31-21.12-23.33-32.57Z" fill="#80708b"/>
      <path d="M450.44,59.16c-.04.15-.03.29.04.42-8.86-6.57-18.32-11.63-29.44-12.94-18.67-2.21-35.73,2.57-49.64,16.28-15.58,15.35-21.59,37.89-15.38,58.57h-.58c-1.13-1.76-1.52-4.11-1.8-6.42l-.8-6.66c-.36-3.01-.04-5.58.18-8.47.92-12.27,5.47-23.24,13.32-32.89,21.36-26.25,59.83-29.18,84.09-7.89Z" fill="#ec7074"/>
      <path d="M103.87,261.12c-3.26,23.3-25.03,40.11-48.4,36.72-19.65-2.84-34.57-18.79-36.75-38.52-1.34-12.14,2.83-24.62,11.04-33.72,8.29-9.19,18.48-13.43,29.83-14,1.17-.06,2.11-.63,3.52-.04s3.54.22,5.24.51c23.18,3.98,38.82,25.41,35.51,49.05ZM67.16,293.74c20.77-3.13,35.41-22.55,32.66-44.32-2.65-21-22.02-35.71-42.31-33.66s-34.64,18.89-35.07,38.38c-.52,23.58,20.24,43.3,44.72,39.61Z" fill="#ffa7ae"/>
      <path d="M305.33,198.36c6.22,4.27,10.01,10.34,14.12,15.89-4.6,2.28-1.29,1.98-5.18,2.99-3.11-5.03-7.72-8.65-11.94-12.4-14.79-13.14-35.97-17.1-55.16-11.71-35.8,10.06-54.54,50.55-39.23,83.43,4.09,8.79,9.36,17.22,17.4,23.68,1.28-2.05-5.87,5.64-3.97,4.19-6.94-5.14-12.78-12.11-16.93-19.71-8.44-15.45-10.4-33.49-5.7-50.35,8.8-31.52,38.59-52.62,71.17-49.65,13.6,1.24,24.17,5.94,35.41,13.64Z" fill="#ffadf1"/>
      <path d="M330.38,238.67c-.31-1.11.91,7.84.86,7.43,3.65,36.32-22.88,68.91-59.01,73.33-5.33.65-11.26.51-16.99-.03-8.98-.84-16.86-4.21-24.57-7.85-3.39-1.6-6.35-4.92-9.31-7.11-1.9,1.45,5.25-6.24,3.97-4.19,4.3,3.45,9.57,6.06,14.66,8.39,8.78,4,18.41,5.34,28.61,4.68,25.13-1.63,47.08-19.44,54.19-43.76,3.07-10.5,3.06-21.22.57-31.47-1.82-7.48-4.56-14.52-9.11-20.84,3.89-1.01.58-.71,5.18-2.99,5.49,7.42,8.48,15.77,10.92,24.42Z" fill="#ebbbff"/>
      <path d="M450.48,59.58c14.45,12.86,22.25,31.13,20.72,49.88-2.64,32.32-30.97,56.86-63.31,54.2-24.31-2-44.91-19.02-51.86-42.19-6.21-20.69-.2-43.22,15.38-58.57,13.9-13.7,30.96-18.49,49.64-16.28,11.13,1.32,20.58,6.38,29.44,12.94ZM361.28,117.4c1.42,8.77,6.29,16.89,12.66,23.65,9.11,9.67,21.02,15.5,33.94,16.77,27.53,2.69,53.76-19.45,56.67-42.76l.76-6.13c.41-3.33.19-6.27-.15-9.57-2.06-19.99-15.63-37.92-35.09-44.34-5.13-1.69-10.27-3.43-16.12-3.07-.98.06-2.06-.79-3.48-.15-1.57.71-3.94.24-5.71.5-30.79,4.55-51.3,35.07-43.48,65.1Z" fill="#ffd1ff"/>
      <path d="M67.16,293.74c-24.48,3.69-45.24-16.02-44.72-39.61.43-19.48,15.26-36.37,35.07-38.38s39.66,12.66,42.31,33.66c2.75,21.77-11.89,41.19-32.66,44.32ZM99.26,251.67c-1.7-17.97-15.17-32.55-33.27-34.86-21.5-2.74-40.83,13.57-42.5,35.33-1.5,19.51,12.49,37.92,32.89,40.86,23.76,3.43,45.13-17.49,42.88-41.33Z" fill="#ff5f5d"/>
      <path d="M302.33,204.84c-.15.01-.29.01-.44,0-8.83-6.16-18.18-10.84-28.83-12.6-2.57-.42-5.29.14-7.7-.48-1.16-.3-1.74-.29-2.9,0-2.21.54-4.75.19-6.91.5-28.9,4.26-50.33,28.19-52,57.17-.57,9.93,1.37,18.34,4.98,27.13h-.58c-15.31-32.88,3.43-73.38,39.23-83.43,19.19-5.39,40.38-1.43,55.16,11.71Z" fill="#ec528a"/>
      <path d="M217.18,289.89c5.98,7.48,13.73,14.4,22.83,18.15v.58c-5.09-2.32-10.36-4.93-14.66-8.39-8.05-6.46-13.31-14.89-17.4-23.68h.58c2.07,5.04,5.32,9.16,8.65,13.33Z" fill="#916b85"/>
      <path d="M314.27,217.24c4.55,6.33,7.29,13.37,9.11,20.84h-.58c-3.32-10.06-7.58-20.72-16.29-28.06-1.59-1.34-2.54-3.79-4.61-5.18.15,0,.29,0,.44,0,4.22,3.75,8.82,7.37,11.94,12.4Z" fill="#916a85"/>
      <path d="M240.01,308.63v-.58c12.94,5.34,27.65,6.22,41.06,2.16,22.76-6.9,39.15-25.85,42.72-49.09.32-2.08-.13-4.37.41-6.44.41-1.57.09-3-.02-4.62l-.44-5.94c-.14-1.93-.29-4.06-.94-6.03h.58c2.49,10.25,2.5,20.97-.57,31.47-7.12,24.32-29.06,42.13-54.19,43.76-10.2.66-19.83-.68-28.61-4.68Z" fill="#534fcd"/>
      <path d="M361.28,117.4h.58c6.61,25.2,30.52,42.59,56.83,39.37,28.45-3.49,48.98-29.15,45.49-58.3-2.33-19.47-15.55-36.3-34.1-42.87v-.58c19.46,6.42,33.03,24.34,35.09,44.34.34,3.3.57,6.25.15,9.57l-.76,6.13c-2.91,23.3-29.14,45.44-56.67,42.76-12.92-1.26-24.83-7.1-33.94-16.77-6.37-6.76-11.24-14.88-12.66-23.65Z" fill="#8f6f86"/>
      <path d="M430.07,55.02v.58c-30.84-10.53-63.63,8.41-69.06,41.33-.76,4.59-.53,15.22.85,20.47h-.58c-7.82-30.03,12.68-60.55,43.48-65.1,1.77-.26,4.14.21,5.71-.5,1.43-.64,2.5.21,3.48.15,5.85-.36,11,1.38,16.12,3.07Z" fill="#ea6e74"/>
      <path d="M99.26,251.67c2.25,23.84-19.12,44.76-42.88,41.33-20.4-2.94-34.38-21.36-32.89-40.86,1.67-21.76,21-38.07,42.5-35.33,18.1,2.31,31.57,16.89,33.27,34.86ZM80.51,282.95c13.4-9.65,18.28-26.39,11.93-41.41-5.91-13.95-20.76-22.88-36.57-20.28-14.39,2.37-25.12,13.83-27.61,27.27-2.74,14.78,3.97,28.82,16.93,36.31,10.93,6.31,24.83,5.68,35.32-1.88Z" fill="#ffa8ac"/>
      <path d="M301.9,204.84c2.08,1.39,3.02,3.84,4.61,5.18-2.74.75-1.8,1.85-4.7,3.52-8.6-7.81-18.6-12.82-30.45-14.61-17.56-2.65-35.56,3.92-47.45,17.12s-16.79,32.5-11.95,49.85c2.03,7.3,4.98,14.31,9.84,20.37-.63-.62-.67.52-1.08.76-1.36.76-3.03,1.37-3.54,2.84-3.33-4.17-6.58-8.29-8.65-13.33-3.61-8.79-5.55-17.2-4.98-27.13,1.67-28.98,23.1-52.91,52-57.17,2.15-.32,4.69.04,6.91-.5,1.16-.29,1.75-.3,2.9,0,2.41.63,5.13.06,7.7.48,10.65,1.76,20,6.44,28.83,12.6Z" fill="#ffaff2"/>
      <path d="M306.51,210.03c8.71,7.33,12.96,17.99,16.29,28.06.65,1.97.8,4.11.94,6.03l.44,5.94c.12,1.61.44,3.05.02,4.62-.54,2.06-.09,4.35-.41,6.44-3.57,23.24-19.97,42.19-42.72,49.09-13.4,4.06-28.11,3.18-41.06-2.16-9.11-3.76-16.86-10.67-22.83-18.15.52-1.48,2.19-2.09,3.54-2.84.41-.23.45-1.38,1.08-.76,4.46,5.57,10.46,9.37,16.35,12.92,13.9,8.38,31.32,9.07,46.73,2.62,25.75-10.77,39.12-39.56,30.22-66-2.76-8.2-6.91-15.81-13.29-22.29,2.9-1.67,1.96-2.77,4.7-3.52Z" fill="#ffb3ff"/>
      <path d="M430.07,55.6c18.55,6.57,31.77,23.4,34.1,42.87,3.49,29.15-17.04,54.81-45.49,58.3-26.3,3.22-50.21-14.17-56.83-39.37-1.38-5.25-1.61-15.88-.85-20.47,5.43-32.91,38.22-51.86,69.06-41.33ZM366.45,109.18c1.17,16.33,11.56,30.25,26.24,37.42,15.84,7.73,34.86,5.95,49.1-5.75,16.96-13.93,21.85-37.27,12-56.66-4.78-9.42-11.34-15.57-20.89-20.48-14.86-7.63-32.86-6.97-47.38,3.39-12.92,9.22-21.07,25.67-19.07,42.08Z" fill="#ffceff"/>
      <path d="M80.51,282.95c-10.49,7.56-24.39,8.19-35.32,1.88-12.97-7.49-19.67-21.53-16.93-36.31,2.49-13.43,13.22-24.9,27.61-27.27,15.81-2.6,30.67,6.33,36.57,20.28,6.36,15.02,1.47,31.76-11.93,41.41ZM59.72,286.17c11.13.66,20.98-4.99,26.79-13.27,6.38-9.09,7.53-20.27,3.24-30.27-3.95-9.22-11.91-15.62-20.61-17.85-10.25-2.63-20.56-.17-28.04,6.73-9.63,8.88-13.13,22-8.49,34.54,3.99,10.78,14.4,19.36,27.11,20.12Z" fill="#ff4847"/>
      <path d="M271.36,198.94c.3,3.9,4.65,1.26,3.71,3.58-17.22-4.5-36.98,2.1-49,15.71-11.15,12.63-16.49,30.94-11.72,47.74-.7-.52-1.66-.51-2.39-.06-4.84-17.35-.24-36.31,11.95-49.85s29.89-19.77,47.45-17.12Z" fill="#fa3b7e"/>
      <path d="M301.81,213.54c6.38,6.48,10.53,14.09,13.29,22.29-1.32.45-1.55,1.69-1.99,2.88-5.09-18.02-19.57-32-38.04-36.19.94-2.32-3.41.32-3.71-3.58,11.85,1.79,21.85,6.8,30.45,14.61Z" fill="#cf2da8"/>
      <path d="M214.34,265.97c3.72,13.08,13.55,25.22,25.56,31.56-.56.5-1.57.88-1.75,1.68-5.89-3.55-11.89-7.34-16.35-12.92-4.86-6.07-7.8-13.07-9.84-20.37.72-.46,1.69-.46,2.39.06Z" fill="#98617e"/>
      <path d="M238.15,299.21c.18-.8,1.19-1.18,1.75-1.68,20.49,10.81,45.74,6.09,61.51-10.81,12.23-13.11,16.46-31.17,11.7-48.01.44-1.19.67-2.43,1.99-2.88,8.9,26.44-4.47,55.23-30.22,66-15.41,6.44-32.83,5.76-46.73-2.62Z" fill="#4e3ee3"/>
      <path d="M453.79,84.19c9.85,19.4,4.96,42.73-12,56.66-14.24,11.69-33.26,13.48-49.1,5.75.02-.69.45-.77.94-.02.85.03,1.14-1.13,1.93-1.33,14.78,6.12,31.73,3.56,44.1-6.46,15.67-12.7,20.58-33.73,12.48-52.24-.08-.54-.26-1.33.29-1.82.32-.29.75-.47,1.36-.54Z" fill="#746088"/>
      <path d="M432.9,63.71c-.8.36-1.34,1.3-1.21,2.17-9.48-4.6-20.02-5.7-30.26-2.93-26.28,7.1-39.51,35.82-28.43,59.69-1.95,1.66-4.49-12.39-4.63-12.59-.4-.56-.91-1.25-1.91-.88-2-16.42,6.15-32.86,19.07-42.08,14.52-10.36,32.51-11.02,47.38-3.39Z" fill="#ff3e7b"/>
      <path d="M373,122.65c4.51,9.72,12.37,18.38,22.57,22.6-.8.2-1.09,1.36-1.93,1.33-.5-.75-.92-.67-.94.02-14.68-7.17-25.07-21.09-26.24-37.42,1-.37,1.51.32,1.91.88.14.2,2.68,14.25,4.63,12.59Z" fill="#ce2cad"/>
      <path d="M453.79,84.19c-.61.07-1.04.25-1.36.54-.55.5-.37,1.29-.29,1.82-3.89-8.9-11.88-15.78-20.46-20.67-.13-.87.41-1.82,1.21-2.17,9.56,4.91,16.11,11.06,20.89,20.48Z" fill="#da23a5"/>
      <path d="M59.72,286.17c-12.71-.76-23.12-9.34-27.11-20.12-4.64-12.54-1.14-25.66,8.49-34.54,7.49-6.9,17.79-9.36,28.04-6.73,8.7,2.23,16.65,8.63,20.61,17.85,4.29,10,3.13,21.18-3.24,30.27-5.81,8.28-15.66,13.93-26.79,13.27Z" fill="#fffefe"/>
      <path d="M275.07,202.52c18.47,4.19,32.95,18.17,38.04,36.19,4.76,16.84.53,34.89-11.7,48.01-15.77,16.91-41.02,21.62-61.51,10.81-12.01-6.34-21.84-18.48-25.56-31.56-4.77-16.8.57-35.12,11.72-47.74,12.02-13.61,31.78-20.21,49-15.71Z" fill="#fff"/>
      <path d="M431.69,65.88c8.58,4.89,16.57,11.77,20.46,20.67,8.1,18.52,3.19,39.55-12.48,52.24-12.37,10.02-29.32,12.57-44.1,6.46-10.21-4.22-18.06-12.88-22.57-22.6-11.09-23.87,2.15-52.59,28.43-59.69,10.24-2.77,20.78-1.67,30.26,2.93Z" fill="#fff"/>
    </g>
    <g>
      <path d="M499.25,98.23c2.9,15.51.78,31.47-6.51,45.85-3.72,7.33-8.36,13.76-13.34,20.34-7.85,10.38-14.56,20.83-5.52,34.15,21.23,7.45,36.23,26.74,37.26,49.32,1.37,30.07-21.21,54.55-50.82,57.58-10.48,1.07-18.62,9.82-21.64,19.23-1.21,3.77-2.13,7.42-2.71,11.3-1.7,11.37,3.92,21.45,12.85,27.92,13.51,9.79,21.35,25.6,21.66,41.81s-7.19,32.23-20.08,42.43c-23.04,18.23-56.34,14.04-73.9-8.95-.2-.27-.19-.78-.73-.59l-1.02-1.74c-.39-.66-1.29-1.44-1.89-1.87-1.87-4.02-5.26-7.34-8.97-10.14-26.92-20.33-67.38-9.56-85.92,18.27-.87.27-1.38,1.23-1.85,1.92-4.31,6.4-7.63,12.93-10.98,20.36-11.32,25.06-34.64,42.02-61.34,45.8-28.99,4.11-56.82-8.65-74.01-31.17.16-.29-.21-.64-.09-.82.22-.34.87-.74,1.21-.41,18.94,24.2,49.32,36.26,80.01,28.94,24.08-5.74,43.74-22.71,53.34-45.4,7.75-18.31,20.77-35.06,39.33-43.73,22.22-10.38,48.92-8.15,66.49,8.73,2.09,2.01,3.81,4.76,5.6,7.39,10.8,15.87,29.32,24.78,48.47,22.28,20.56-2.68,36.87-17.57,42.26-36.55,5.88-20.69-1.9-42.45-19.04-55.05-8.13-5.97-12.96-13.75-13.91-24.44-5.29,8.15-13.03,13.61-22.5,15.12-13.96,2.22-26.14,9.55-34.51,21.21-1.66,2.32-3.26,4.66-5.26,6.48-15.37,13.98-34.52,17.26-54.78,10.8-4.77,9.17-15.18,13.24-24.71,9.92-8.97-3.13-15.15-12.39-13.36-22.89l-26.22-10.86c-8.55-3.54-16.69-7.32-25.68-10.47-.14-.54.39-1,.17-1.53,19.85,6.16,32.01,13.46,52.08,20.67,3.03-9.15,11.18-14.95,20.48-14.57,9.31.38,17.31,7.05,19.19,16.89,23-6.23,43.18-20.27,56.48-40.63-6.63-4-9.42-11.68-6.86-18.53,2.59-6.9,9.49-11.28,17.71-9.86,2.76-13.46,1.79-27.47-2.49-40.83l-5.79-18.06c-2.31-7.2-4.09-13.95-4.94-21.38-.73,2-.75,3.86-.82,5.57-.66.16-.52-.53-.51-1.12l.21-7.01c4.51,4.27.04-10.49,3.24-8.78-1.1,8.32-.02,16.76,2.64,25.11l7.41,23.34c4.57,14.39,5.84,29.09,3.11,43.87,8.02,3.32,11.58,11.74,8.77,19.63s-11.41,12.11-19.78,8.83c-12.4,20.24-34.43,35.78-58.11,41.93-.13,3.12-.37,5.68-1.28,8.81,6.77,2.07,13.05,3.34,19.91,3.08,14.14-.55,28.09-6.8,36.49-18.5,9.18-12.8,21.92-20.89,37.65-23.41,10.04-1.61,18.74-8.88,21.95-18.3,1.7-4.99,2.98-9.66,3.56-14.62,1.24-10.56-4.11-20.25-12.6-26.36-14.95-10.76-23.24-28.13-22.52-46.2.71-17.98,10.24-34.45,25.95-44.17,12.95-8.01,27.8-10.16,42.87-6.39-6.82-14.44-1.07-24.27,7.74-35.48,15.82-19.63,23.11-39.19,19.35-64.1.5.18,1.03-.05,1.55.03ZM439.46,317.51c4.84-7.79,12.52-13.35,21.67-14.37,13.61-1.52,25.57-7.66,34.67-17.91,19.9-22.41,17.18-56.74-6.49-75.69-16.01-12.82-38-15.17-56.6-5.75-17.05,8.63-28.86,26.43-28.88,46.61-.02,17.16,8.45,32.91,22.31,42.92,7.9,5.71,12.32,14.13,13.32,24.19ZM378.82,315.94c-6.82,2.18-10.44,9.35-8.26,15.7,2.16,6.28,8.86,9.61,15.04,7.96,6.66-1.78,10.47-8.94,8.49-15.31s-8.62-10.47-15.27-8.35ZM297.59,402.76c10.1.49,17.72-7.47,18.09-16.89s-6.86-17.63-16.83-18.07c-9.8-.43-17.57,7.58-17.84,16.92s6.72,17.56,16.58,18.04Z" fill="#0053b8"/>
      <path d="M372.86,435.02l-1.16-.82c-1.67-1.18-3.97-1.31-5.79-2.5-7.68-5.02-12.27-5.92-21.2-6.75-2.03-.19-10.67-3.22-9.15.86-.88-.58-2.31-.56-2.88.13-1.84,2.22,3.41,2.61,2.96,8.61-1.47-4.86-4.96-8.54-9.78-9.48-5.48-1.07-10.53,1.64-13.08,5.74-3.07,4.92-1.91,10.36,1.16,14.69-.72-.29-1.92.4-2.65-.15-5.84-5.07-2.87-5.56-10.06-8.99-3.36-1.6-6.45-1.74-9.82-.55-4.71,1.66-9.35,3.43-12.9,7.37-.25-.02-.45-.06-.53-.05,18.54-27.83,59-38.6,85.92-18.27,3.71,2.8,7.1,6.12,8.97,10.14Z" fill="#fff"/>
      <path d="M335.63,434.56c-.13,1.74.17,3.51-.08,5.25-.03.23-.27.32-.04.58-.48-.11-.39.3-.47.59-1.05,4.18-4.71,7.16-8.57,8.12-4.48,1.12-8.41-.25-11.81-2.85.23-.59-.34-.59-.72-.74-3.07-4.34-4.23-9.78-1.16-14.69,2.56-4.1,7.6-6.81,13.08-5.74,4.81.94,8.31,4.61,9.78,9.48ZM321.58,427.89c-5.43.95-8.72,6.09-7.52,11.44,1.07,4.76,5.88,8.05,10.82,7.17,5.37-.96,8.62-5.61,7.77-11.05-.77-4.94-5.55-8.52-11.07-7.56Z" fill="#0052ad"/>
      <path d="M335.54,439.8c.26-1.74-.05-3.51.08-5.25.47.68,1.42,1.58,1.23,2.65-.2,1.14.16,2.43-1.32,2.59Z" fill="#fff"/>
      <path d="M497.71,98.2c3.77,24.91-3.52,44.47-19.35,64.1-8.81,11.22-14.56,21.04-7.74,35.48-15.07-3.77-29.93-1.62-42.87,6.39-15.72,9.72-25.24,26.19-25.95,44.17-.72,18.07,7.57,35.44,22.52,46.2,8.5,6.11,13.84,15.8,12.6,26.36-.58,4.96-1.86,9.63-3.56,14.62-3.21,9.42-11.91,16.69-21.95,18.3-15.73,2.52-28.46,10.61-37.65,23.41-8.4,11.7-22.35,17.95-36.49,18.5-6.86.27-13.14-1.01-19.91-3.08.91-3.14,1.15-5.69,1.28-8.81,23.67-6.16,45.71-21.69,58.11-41.93,8.37,3.29,17.06-1.19,19.78-8.83s-.75-16.3-8.77-19.63c2.73-14.78,1.47-29.48-3.11-43.87l-7.41-23.34c-2.66-8.36-3.74-16.8-2.64-25.11-.16-.97.81-1.25,1.84-1.24,5.28.09,9.5-3.68,10.27-8.59s-1.9-9.24-6.19-11.34c2.33-6.59,6.38-10.9,10.56-15.01,21.69,5.63,44.29,2.95,63.67-8.94,32.03-19.65,47.38-56.23,37.28-93.04-.17-.63-.35-1.11.31-1.13,2.05,5.17,4.51,10.79,5.35,16.36Z" fill="#fffeff"/>
      <path d="M226.45,360.32c8.98,3.16,17.13,6.93,25.68,10.47l26.22,10.86c-1.79,10.5,4.39,19.76,13.36,22.89,9.53,3.33,19.94-.75,24.71-9.92,20.26,6.46,39.4,3.18,54.78-10.8-6.27,13.95-6.45,29.29-1.12,43.56-17.58-16.89-44.27-19.12-66.49-8.73-18.56,8.67-31.58,25.42-39.33,43.73-9.6,22.69-29.25,39.66-53.34,45.4-30.69,7.31-61.07-4.74-80.01-28.94-17.83-24.76-20.62-56.59-5.85-83.96,4.99-9.24,5.61-19.99,1.75-29.18-.62-1.47-1.26-2.52-1.63-4.93,3.49,2.62,7.03,2.9,10.43,3.86,7.44,2.09,15.66,1.17,23.41-2.32,14.82-6.66,30.39-9.36,46.61-6.81,7.2,1.13,14.27,2.53,20.82,4.83ZM127.52,459.58c11.41,28,39.99,45.93,70.3,43.8,43.21-3.03,72.99-43.13,64.81-85.25-4.08-21.04-17.05-37.34-34.81-47.68-26.56-15.46-60.89-11.72-83.85,10.2-21.16,20.2-27.94,52.15-16.45,78.94Z" fill="#fefefe"/>
      <path d="M297.59,402.76c-9.86-.48-16.85-8.81-16.58-18.04s8.04-17.35,17.84-16.92c9.96.44,17.19,8.63,16.83,18.07s-7.99,17.38-18.09,16.89Z" fill="#cdb5ff"/>
      <path d="M410.38,173.3c.13.3.56,1.76.08,1.79-1.2.08-2.02-.08-2.05.73-6.79.69-12.63,4.52-17.32,9.14-4.18,4.11-8.23,8.43-10.56,15.01,4.29,2.11,6.92,6.67,6.19,11.34-.77,4.91-4.99,8.68-10.27,8.59-1.03-.02-2,.27-1.84,1.24-3.21-1.71,1.26,13.05-3.24,8.78l-.21,7.01c-.02.59-.16,1.28.51,1.12l-1.1,26.23c-1.34,31.91-14.42,59.95-40.88,77.99.47,3.08.24,6.06-3,7.39-2.01.82-5.03.56-6.86-2.09-1.3-1.88-1.24-4.87.78-7,1.9-2.01,5.22-1.94,7.83.03,23.7-16.33,36.41-39.94,39.49-68.85,1.01-9.47.76-18.75,1.56-28.43l1.99-24.21c-3.54-3.22-7.01-7.66-4.86-13.04,1.92-4.8,6.66-6.93,11.62-7.04,3.13-4.74,5.76-10.62,9.82-14.66s8.58-6.52,13.53-9.09c-5.18-.67-9.65-2.31-14.03-4.04-.05-.78-.85-1.05-1.86-1.61.59-.42,1.31-.42,1.79-.93,7.35,2.38,15.09,4.42,22.89,4.61ZM374.66,202.33c-4.41,1.02-6.66,5.43-5.46,9.55,1.1,3.78,5.07,6.11,9.21,5.1,3.83-.93,6.26-5.12,5.33-9.21-.87-3.85-4.77-6.42-9.08-5.43ZM322.93,342.15c-1.75,1.13-1.66,3.24-.5,4.48.8.85,2.26,1.24,3.53.4,1.19-.79,1.72-2.54.93-3.8-.68-1.1-2.37-2.1-3.97-1.07Z" fill="#535e9f"/>
      <path d="M378.82,315.94c6.65-2.12,13.27,1.93,15.27,8.35s-1.83,13.53-8.49,15.31c-6.19,1.65-12.89-1.68-15.04-7.96-2.18-6.34,1.45-13.52,8.26-15.7Z" fill="#ccb5ff"/>
      <path d="M226.62,358.79c.22.53-.31.99-.17,1.53-6.55-2.3-13.62-3.7-20.82-4.83-16.21-2.55-31.79.16-46.61,6.81-7.75,3.48-15.97,4.4-23.41,2.32-.2-.53.11-1.07.05-1.6,7.94,1.57,16.19.5,23.87-3.04,14.45-6.67,29.74-8.44,45.49-6.7,7.85.86,14.63,3.36,21.61,5.52Z" fill="#8f6383"/>
      <path d="M321.58,427.89c5.53-.96,10.3,2.62,11.07,7.56.85,5.43-2.4,10.08-7.77,11.05-4.94.88-9.75-2.41-10.82-7.17-1.2-5.34,2.09-10.49,7.52-11.44Z" fill="#cdb4ff"/>
      <path d="M374.66,202.33c4.3-1,8.2,1.58,9.08,5.43.93,4.1-1.5,8.28-5.33,9.21-4.14,1.01-8.11-1.32-9.21-5.1-1.2-4.12,1.05-8.53,5.46-9.55Z" fill="#ffa9ff"/>
      <path d="M322.93,342.15c1.6-1.03,3.28-.02,3.97,1.07.79,1.26.26,3.01-.93,3.8-1.28.85-2.73.46-3.53-.4-1.16-1.23-1.25-3.35.5-4.48Z" fill="#d0b1ff"/>
      <g>
        <path d="M127.52,459.58c2.46.12,4.9-.59,7.27-1.23,2.13,4.96,5.34,8.73,8.34,12.9,13.23,18.41,37.2,27.9,59.98,24.2,22.87-3.72,41.37-19.7,49.08-39.77,11.84-30.8-.72-65.36-30.73-80.63,2.75-2.54,5.98-2.04,6.35-4.6,17.76,10.34,30.73,26.64,34.81,47.68,8.18,42.12-21.6,82.22-64.81,85.25-30.31,2.12-58.89-15.8-70.3-43.8Z" fill="#d4bdff"/>
        <path d="M227.82,370.44c-.37,2.56-3.6,2.06-6.35,4.6-.75-.64-1.93-.61-2.93-1.1-14.86-7.26-32.49-7.49-48.48-1.3-20.99,8.12-36.2,26.93-39.78,49.15-2.01,12.48-.51,24.87,4.51,36.56-2.37.64-4.8,1.35-7.27,1.23-11.49-26.79-4.72-58.74,16.45-78.94,22.96-21.91,57.29-25.66,83.85-10.2Z" fill="#ffb6ff"/>
        <path d="M218.53,373.94c1.01.49,2.19.46,2.93,1.1,30,15.27,42.57,49.82,30.73,80.63-7.71,20.07-26.21,36.05-49.08,39.77-22.79,3.7-46.75-5.79-59.98-24.2.32-.63,1.07-1.13,1.77-1.19,10.54,13.6,27.25,21.79,44.21,23.19,10.8.89,20.44-1.43,29.86-5.8,17.21-7.98,29.18-24.15,33.07-40.99,4.76-20.61-.92-40.4-14.08-55.37-6.35-7.22-14.23-11.68-22.38-15.89.55-.95,1.93-1.18,2.95-1.26Z" fill="#0051c0"/>
        <path d="M132.6,423.41c-2.23,16.18,2.21,33.61,12.31,46.64-.7.05-1.45.56-1.77,1.19-3-4.17-6.21-7.94-8.34-12.9-5.02-11.69-6.52-24.08-4.51-36.56.76.56,1.41,1.31,2.32,1.63Z" fill="#6443df"/>
        <path d="M218.53,373.94c-1.02.08-2.39.3-2.95,1.26-18.1-6.29-37.52-5.65-54.91,5.35-13.98,8.84-25.57,24.62-28.08,42.86-.91-.32-1.56-1.07-2.32-1.63,3.57-22.21,18.78-41.02,39.78-49.15,15.99-6.19,33.62-5.95,48.48,1.3Z" fill="#7f6090"/>
        <path d="M215.59,375.2c8.15,4.21,16.03,8.67,22.38,15.89,13.16,14.97,18.84,34.76,14.08,55.37-3.89,16.85-15.86,33.01-33.07,40.99-9.41,4.36-19.06,6.68-29.86,5.8-16.96-1.39-33.66-9.59-44.21-23.19s-14.53-30.46-12.31-46.64c2.51-18.24,14.1-34.02,28.08-42.86,17.4-11,36.81-11.64,54.91-5.35ZM200.04,487.33c27.92-3.49,48.26-27.68,48.19-55.36-.09-32.59-28.7-58.76-61.6-54.88-29.88,3.52-52.19,30.77-48.42,62.02s30.92,52.08,61.83,48.22Z" fill="#ebb6ff"/>
        <path d="M200.04,487.33c-30.91,3.87-58.23-18.38-61.83-48.22s18.55-58.5,48.42-62.02c32.89-3.88,61.51,22.29,61.6,54.88.07,27.67-20.27,51.86-48.19,55.36ZM247.25,434.26c.49-1.48.44-2.6,0-4.07-.54-1.84-.16-3.94-.46-5.89-2.65-16.64-12.27-31.6-27.65-39.91-9.83-5.31-20.49-7.93-32.14-6.53-29.72,3.55-51.26,30.37-48.19,59.88,3.08,29.61,29.66,51.92,59.37,48.99,25.37-2.5,44.42-21.62,48.68-46.54.34-1.99-.2-4.11.4-5.93Z" fill="#285ab0"/>
        <path d="M247.25,434.26c-.61,1.81-.06,3.94-.4,5.93-4.26,24.92-23.3,44.04-48.68,46.54-29.71,2.93-56.29-19.38-59.37-48.99-3.07-29.51,18.47-56.33,48.19-59.88,11.66-1.39,22.32,1.22,32.14,6.53,15.38,8.32,25.01,23.27,27.65,39.91.31,1.95-.07,4.05.46,5.89.43,1.47.49,2.6,0,4.07ZM149.64,454.96c6.81,14.85,22.1,24.77,38.07,26.55,27.18,3.03,51.44-17.07,54.22-44.09,2.28-22.17-9.44-42.59-31.66-51.26-18.52-7.23-40.07-2.61-53.95,13.01s-16.55,37.84-6.68,55.79Z" fill="#e2b8ff"/>
        <path d="M149.64,454.96h.58c9.37,17.61,28.13,27.62,47.21,25.84,17.65-1.65,32.66-12.71,39.88-29.22,10.75-24.58-.92-54.82-27.04-64.83v-.58c22.22,8.67,33.94,29.09,31.66,51.26-2.78,27.02-27.04,47.13-54.22,44.09-15.97-1.78-31.26-11.7-38.07-26.55Z" fill="#1659aa"/>
        <path d="M210.28,386.17v.58c-2.03-1.02-4.28-1.24-6.74-2.1-2.95-1.04-14.5-1.05-17.97-.51-22.78,3.55-39.16,22.35-40.95,44.81-.72,9.06,1.76,18.79,5.6,26.01h-.58c-9.87-17.95-6.92-40.49,6.68-55.79s35.43-20.23,53.95-13.01Z" fill="#636699"/>
        <path d="M210.28,386.75c26.13,10.02,37.8,40.25,27.04,64.83-7.22,16.5-22.24,27.57-39.88,29.22-19.08,1.78-37.84-8.23-47.21-25.84-3.84-7.22-6.33-16.96-5.6-26.01,1.79-22.47,18.18-41.26,40.95-44.81,3.47-.54,15.02-.53,17.97.51,2.45.87,4.71,1.08,6.74,2.1ZM163.64,463.63c6.77,7.47,17.46,11.78,27.88,12.14,21.8.75,39.4-14.59,43.63-34.86,4.98-23.86-10.47-47.17-34.82-51.31-23.9-4.07-47.44,12.25-50.22,37.49-1.49,13.54,3.13,28.1,13.53,36.55Z" fill="#e3baff"/>
        <path d="M200.33,389.59c-.17.43.21,1.49-.5,1.61-.43.07-1.23-.03-1.48.09-.2.09-.56.05-.36.52-13.93-1.93-27.99,4.56-36.46,15.09-9.42,11.71-11.3,27.27-5.73,40.9,2.59,6.33,6.67,11.21,11.24,15.78l-1.06-.48c-.73-.33-1.26-.82-1.74-.3-.19.21-.63.38-.59.82-10.4-8.44-15.02-23.01-13.53-36.55,2.78-25.24,26.32-41.55,50.22-37.49Z" fill="#5860a1"/>
        <path d="M235.15,440.91c-4.23,20.28-21.84,35.61-43.63,34.86-10.42-.36-21.11-4.67-27.88-12.14-.04-.45.4-.61.59-.82.48-.52,1.02-.03,1.74.3l1.06.48c11,4.93,21.63,11.29,34.2,8.44,15.02-3.41,28.04-15.37,31.26-30.85.26.14,1.01.83,1.36.69.39-.16.45-1.46,1.3-.96Z" fill="#004fb2"/>
        <path d="M235.15,440.91c-.84-.51-.91.8-1.3.96-.35.14-1.09-.55-1.36-.69,4.91-23.57-10.74-46.07-34.5-49.36-.2-.47.16-.43.36-.52.26-.12,1.05-.02,1.48-.09.71-.12.33-1.17.5-1.61,24.35,4.14,39.8,27.45,34.82,51.31Z" fill="#005bb4"/>
      </g>
      <g>
        <path d="M439.46,317.51c-1-10.06-5.42-18.48-13.32-24.19-13.85-10.01-22.32-25.76-22.31-42.92.02-20.18,11.82-37.98,28.88-46.61,18.6-9.42,40.6-7.07,56.6,5.75,23.67,18.95,26.38,53.28,6.49,75.69-9.1,10.25-21.06,16.38-34.67,17.91-9.15,1.02-16.82,6.59-21.67,14.37ZM434.43,288.81c23.46,13.67,52.81,3,62.91-21.3,10.12-24.36-3.26-52.12-28.56-59.37-25.43-7.28-51.5,9.03-55.96,35.48-3,17.77,5.6,35.86,21.61,45.19Z" fill="#d2baff"/>
        <path d="M370.08,427.38c-5.34-14.27-5.16-29.61,1.12-43.56,2-1.82,3.6-4.16,5.26-6.48,8.37-11.66,20.54-18.99,34.51-21.21,9.46-1.5,17.21-6.96,22.5-15.12.96,10.69,5.79,18.46,13.91,24.44,17.14,12.59,24.92,34.36,19.04,55.05-5.39,18.97-21.71,33.86-42.26,36.55-19.16,2.5-37.68-6.41-48.47-22.28-1.79-2.63-3.51-5.38-5.6-7.39ZM450.63,433.85c15.39-18.94,12.2-45.76-6.48-60.72-14.33-11.47-34.47-12.29-49.83-2.22-14.77,9.68-22.19,27.8-18.06,45.58,3.62,15.59,15.94,27.86,30.52,31.57,16.44,4.18,33.11-.98,43.86-14.21Z" fill="#cdb5ff"/>
        <path d="M434.43,288.81c-16.01-9.33-24.61-27.42-21.61-45.19,4.47-26.45,30.54-42.76,55.96-35.48,25.3,7.25,38.68,35.01,28.56,59.37-10.1,24.3-39.45,34.97-62.91,21.3ZM482.18,282.93c14.94-12.11,19.84-31.95,11.97-49.4-7.42-16.45-25.01-26.7-44.13-23.77-16.67,2.55-31,15.69-34.27,33.68-3.06,16.82,5.04,33.65,19.17,42.32,14.69,9.01,33.61,8.23,47.26-2.83Z" fill="#0051bc"/>
        <path d="M450.63,433.85c-10.75,13.23-27.42,18.39-43.86,14.21-14.58-3.71-26.9-15.98-30.52-31.57-4.13-17.78,3.29-35.9,18.06-45.58,15.37-10.07,35.51-9.26,49.83,2.22,18.68,14.96,21.87,41.78,6.48,60.72ZM457.36,404.48c-.79-16.73-12.09-30.64-26.8-35.59-16.52-5.56-34.15-.02-44.39,13.59-7.99,10.62-10.43,23.72-5.94,37.23,3.36,10.12,11.64,19.71,23.18,24.23,12.89,5.05,27.19,3.06,38.27-5.4,10.24-7.83,16.35-20.05,15.69-34.06Z" fill="#0050b4"/>
        <path d="M482.18,282.93c-13.65,11.06-32.57,11.84-47.26,2.83-14.13-8.67-22.23-25.5-19.17-42.32,3.27-17.99,17.6-31.13,34.27-33.68,19.12-2.93,36.71,7.32,44.13,23.77,7.87,17.45,2.97,37.29-11.97,49.4ZM453.63,288.21c15.41,1.16,28.65-6.55,35.99-19.65,9.43-16.83,4.11-38.2-12.01-49.15-18.08-12.28-42.43-6.61-53.82,12.38-3.98,6.64-5.42,13.97-4.78,22.07,1.43,18.14,16.12,32.96,34.62,34.35Z" fill="#d2b6ff"/>
        <path d="M457.36,404.48c.66,14.01-5.45,26.23-15.69,34.06-11.08,8.46-25.37,10.45-38.27,5.4-11.54-4.52-19.82-14.11-23.18-24.23-4.49-13.51-2.05-26.62,5.94-37.23,10.24-13.61,27.87-19.15,44.39-13.59,14.71,4.95,26.01,18.86,26.8,35.59ZM397.21,436.95c17.09,11.8,40.23,6.87,51.49-10.94,4.29-6.79,5.8-14.18,5.27-22.38-1.11-17.26-14.93-31.32-32.02-33.36-19.67-2.35-37.87,11.95-40.4,31.59-1.76,13.66,3.95,27,15.66,35.09Z" fill="#d0b2ff"/>
        <path d="M453.63,288.21c-18.5-1.39-33.19-16.21-34.62-34.35-.64-8.1.81-15.43,4.78-22.07,11.39-19,35.73-24.66,53.82-12.38,16.13,10.95,21.44,32.32,12.01,49.15-7.34,13.1-20.58,20.81-35.99,19.65ZM493.25,246.84c-2.39-20.94-21.15-35.57-41.61-32.79-16.9,2.3-29.88,15.41-31.81,32.51-1.59,14.07,5.14,28.37,17.72,35.74,7.18,4.21,15.22,6.09,23.1,5.09,20.38-2.6,34.85-20.79,32.6-40.55Z" fill="#145fac"/>
        <path d="M397.21,436.95c-11.71-8.08-17.42-21.42-15.66-35.09,2.53-19.64,20.73-33.94,40.4-31.59,17.09,2.04,30.91,16.1,32.02,33.36.53,8.21-.98,15.6-5.27,22.38-11.26,17.81-34.4,22.73-51.49,10.94ZM420.53,442.51c17.24-1.73,30.9-14.76,32.61-32.06.26-2.64.35-5.1.03-7.77-2.31-19.53-19.57-34.01-39.91-31.45-15.93,2-28.24,13.96-30.7,29.82-3.26,20.99,11.61,39.59,32.5,41.44,1.96.17,3.6.22,5.47.03Z" fill="#005caf"/>
        <path d="M493.25,246.84c2.25,19.76-12.22,37.95-32.6,40.55-7.89,1.01-15.93-.88-23.1-5.09-12.57-7.38-19.31-21.67-17.72-35.74,1.93-17.09,14.91-30.2,31.81-32.51,20.45-2.79,39.22,11.84,41.61,32.79ZM489.25,256.4c.64-3.59.61-7.96,0-11.63-2.71-16.54-18.49-28.71-34.93-27.42-6.99.55-13.35,2.76-18.85,7.47-7.06,6.04-11.31,13.71-12.18,22.82-1.73,18.09,11.59,34.33,29.75,36.28s33.12-10.05,36.21-27.52Z" fill="#d3b6ff"/>
        <path d="M420.53,442.51c-1.88.19-3.52.14-5.47-.03-20.89-1.84-35.75-20.45-32.5-41.44,2.46-15.85,14.77-27.81,30.7-29.82,20.34-2.56,37.6,11.92,39.91,31.45.32,2.68.23,5.13-.03,7.77-1.72,17.3-15.38,30.32-32.61,32.06ZM424.83,438.52c16.47-3.62,27.7-20.01,24.79-37.48-2.86-17.14-18.9-28.77-35.91-26.68-17.4,2.14-30.14,18.16-28.29,35.49,2.03,18.98,19.7,33.01,39.42,28.67Z" fill="#cfb1ff"/>
        <path d="M489.25,256.4c-3.09,17.47-18.87,29.39-36.21,27.52s-31.48-18.2-29.75-36.28c.87-9.11,5.13-16.78,12.18-22.82,5.5-4.71,11.86-6.93,18.85-7.47,16.44-1.28,32.22,10.89,34.93,27.42.6,3.68.63,8.04,0,11.63ZM462.36,282.66c16.65-3.08,27.61-17.71,26.55-34.29-1.01-15.94-13.82-29.14-30.26-30.15-7.49-.46-13.71,1.29-20.03,5.24-11.18,6.98-16.17,20.64-14.08,33.02,3.02,17.87,20.14,29.45,37.82,26.18Z" fill="#1b5fad"/>
        <path d="M424.83,438.52c-19.72,4.34-37.38-9.69-39.42-28.67-1.86-17.33,10.89-33.35,28.29-35.49,17.01-2.09,33.06,9.53,35.91,26.68,2.91,17.47-8.32,33.86-24.79,37.48ZM449.32,405.72c-.46-15.78-12.42-29.17-28.64-30.6-16.5-1.46-31.34,9.61-34.05,25.92-3.03,18.24,8.84,34.37,26.47,37.14,18.9,2.97,36.79-12.35,36.21-32.46Z" fill="#005bb0"/>
        <path d="M462.36,282.66c-17.68,3.27-34.79-8.31-37.82-26.18-2.09-12.37,2.9-26.04,14.08-33.02,6.32-3.95,12.54-5.7,20.03-5.24,16.44,1.01,29.24,14.21,30.26,30.15,1.05,16.58-9.91,31.21-26.55,34.29ZM468.09,277.07c12.36-5.64,18.86-18.2,16.8-31.04-2-12.46-12.2-22.38-24.81-23.92-12.58-1.54-24.77,5.26-30.04,17.2-4.89,11.09-2.14,23.63,6.25,31.94,8.21,8.14,20.69,10.88,31.79,5.81Z" fill="#d2b6ff"/>
        <path d="M449.32,405.72c.58,20.12-17.32,35.43-36.21,32.46-17.63-2.77-29.5-18.9-26.47-37.14,2.71-16.31,17.55-27.37,34.05-25.92,16.21,1.43,28.18,14.82,28.64,30.6ZM443.46,395.2c-4.92-11.35-16.16-17.45-27.67-16.73-11.36.71-21.48,8.71-24.88,19.17-3.76,11.56-.14,23.67,9.26,31.25,10.25,8.27,24.53,8.12,34.76.27,10.06-7.71,13.96-21.44,8.53-33.96Z" fill="#ceb2ff"/>
        <path d="M468.09,277.07c-11.11,5.07-23.59,2.33-31.79-5.81-8.39-8.32-11.14-20.86-6.25-31.94,5.27-11.94,17.46-18.74,30.04-17.2,12.61,1.54,22.82,11.47,24.81,23.92,2.06,12.83-4.45,25.39-16.8,31.04ZM450.77,276.05c15.53,3.51,29.64-7.49,31.42-22.41s-9.32-28.25-24.74-28.87c-13.56-.54-24.83,9.49-26.56,22.45s6.29,25.76,19.89,28.83Z" fill="#004fb6"/>
        <path d="M443.46,395.2c5.43,12.52,1.53,26.25-8.53,33.96-10.23,7.85-24.51,7.99-34.76-.27-9.4-7.58-13.02-19.69-9.26-31.25,3.4-10.46,13.52-18.46,24.88-19.17,11.51-.72,22.75,5.38,27.67,16.73ZM410.57,431.09c14.39,4.29,28.53-4.8,31.73-18.39s-5.3-28.17-19.81-30.93c-13.61-2.59-26.38,6.08-29.4,19.23s4.06,26.09,17.48,30.09Z" fill="#004fb1"/>
        <path d="M450.77,276.05c-13.6-3.07-21.63-15.8-19.89-28.83s13-22.98,26.56-22.45c15.43.61,26.5,14.13,24.74,28.87s-15.89,25.92-31.42,22.41Z" fill="#fff"/>
        <path d="M410.57,431.09c-13.42-4-20.39-17.45-17.48-30.09s15.79-21.81,29.4-19.23c14.51,2.76,23.11,16.91,19.81,30.93s-17.34,22.68-31.73,18.39Z" fill="#fff"/>
      </g>
      <path d="M197.99,391.81c23.77,3.29,39.41,25.78,34.5,49.36-3.22,15.48-16.24,27.45-31.26,30.85-12.56,2.85-23.2-3.51-34.2-8.44-4.56-4.56-8.65-9.45-11.24-15.78-5.57-13.63-3.69-29.19,5.73-40.9,8.47-10.53,22.53-17.01,36.46-15.09Z" fill="#fff"/>
    </g>
  </g>
</svg>