<?xml version="1.0" encoding="iso-8859-1"?>
<!-- Generator: Adobe Illustrator 30.2.1, SVG Export Plug-In . SVG Version: 9.03 Build 0)  -->
<svg version="1.1" id="Layer_1" xmlns="http://www.w3.org/2000/svg" xmlns:xlink="http://www.w3.org/1999/xlink" x="0px" y="0px"
	 viewBox="0 0 512 512" style="enable-background:new 0 0 512 512;" xml:space="preserve">
<g id="Generative_Object">
	<path style="fill:#E85D43;" d="M126.81,365.7c3.86,9.19,3.24,19.94-1.75,29.18c-14.77,27.37-11.98,59.2,5.85,83.96
		c-0.34-0.33-0.99,0.07-1.21,0.41c-0.12,0.19,0.25,0.53,0.09,0.82c-19.14-25.08-21.51-58.82-6.39-86.89
		c0.31,0.3,0.54-0.02,0.59-0.32s-0.03-0.57,0.08-0.86c0.19-0.55,0.74-1.09,0.57-1.7c0.34,0.24,0.5-0.11,0.52-0.36
		c0.03-0.31-0.02-0.58,0.07-0.86c0.24-0.73,0.79-1.5,0.6-2.28c0.89-0.07,0.31-1.2,0.57-1.8c0.1-0.23,0.22-0.34,0.03-0.58
		c0.34,0.08,0.45-0.14,0.48-0.33c0.03-0.21-0.08-0.71-0.06-0.89l0.19-2.87c1.28-1.24,0.05-3.41,0.02-4.66
		c-0.07-2.91-0.64-5.79-1.65-8.55C126.16,366.89,125.76,365.38,126.81,365.7L126.81,365.7z"/>
	<path style="fill:#E85D43;" d="M135.66,363.02c0.06,0.54-0.25,1.07-0.05,1.6c-3.41-0.96-6.94-1.24-10.43-3.86
		c0.38,2.41,1.02,3.46,1.63,4.93c-1.05-0.31-0.65,1.2-1.4,1.43c-0.85-2.33-2.01-4.45-3.67-6.68c-7.23,6.03-16.42,5.99-22.92,0.65
		c-0.16-2.26,2.1,2.87,5.98,0.48c6.56,1.72,13.29-0.41,17.16-5.83c4.06-5.69,3.49-12.88-0.29-18.51c-0.4-0.6-0.38-1.57-1.58-2.38
		c0.47-0.69,1-1.03,1.55-1.2c6.9,6.03,8.09,15.68,2.58,24.25C128.41,360.39,131.77,362.25,135.66,363.02z"/>
	<path style="fill:#FFFFFF;" d="M259.1,53.3c-0.76,4.3-2.89,1.94-2.65,6.52c-0.93-0.91-1.68-0.35-2.6-0.71
		c-0.59-0.24-0.03-1.91-0.64-2.37c-0.65-0.49-1.21-1.08-2.14-0.61c0.09-1.06,0.3-2.12,0.84-3.35c2.44,0.08,4.87,0.73,7.21,0.52
		L259.1,53.3z"/>
	<path style="fill:#FFFFFF;" d="M471.47,48.6c-1.98-1.94-4.36-3.6-6.38-5.31l-8.19-6.93c5.14,2.47,10.42,7.23,14.64,11.42
		C471.47,48.31,471.45,48.55,471.47,48.6z"/>
	<path style="fill:#FFFFFF;" d="M127.04,380.34c0.1-1.48-0.19-3.15,0.02-4.66C127.09,376.94,128.33,379.1,127.04,380.34z"/>
	<path style="fill:#FFFFFF;" d="M125.83,386.8c-0.16-0.64-0.43-1.86,0.57-1.8C126.14,385.59,126.72,386.72,125.83,386.8z"/>
	<path style="fill:#FFFFFF;" d="M258.05,92.33h0.66C258.83,93.13,257.87,93.05,258.05,92.33z"/>
	<path style="fill:#FFFFFF;" d="M315.77,105.22c0.02-0.25,0.04-0.57,0.03-0.92c0-0.27,0.42-0.27,0.63-0.33
		c0.21,0.26,0.13,0.53-0.03,0.89c-0.13,0.28-0.23,0.67-0.62,0.36H315.77z"/>
	<path style="fill:#FFFFFF;" d="M448.18,31.72c-0.34,0-0.91-0.09-0.69-0.59C447.8,31.22,448.29,31.16,448.18,31.72z"/>
	<path style="fill:#FFFFFF;" d="M449.34,32.32c-0.35,0-0.73-0.14-0.58-0.57C449.16,31.59,449.38,31.98,449.34,32.32z"/>
	<path style="fill:#FFFFFF;" d="M450.5,32.9c-0.35,0-0.72-0.13-0.58-0.57C450.32,32.16,450.55,32.55,450.5,32.9z"/>
	<path style="fill:#FFFFFF;" d="M451.66,33.49c-0.34-0.03-0.72-0.12-0.58-0.57C451.49,32.73,451.72,33.14,451.66,33.49z"/>
	<path style="fill:#FFFFFF;" d="M453.39,34.69c-0.47-0.23-1.12-0.58-1.15-1.17C452.82,33.45,453.39,34.15,453.39,34.69z"/>
	<path style="fill:#FFFFFF;" d="M454.56,35.19c-0.3,0.14-0.68-0.12-0.58-0.47C454.41,34.42,454.53,34.87,454.56,35.19z"/>
	<path style="fill:#FFFFFF;" d="M126.43,384.42c-0.15-0.2-0.16-0.52-0.11-0.86c0.03-0.22,0.19-0.6,0.53-0.36
		c-0.01,0.18,0.1,0.68,0.06,0.89C126.88,384.27,126.77,384.5,126.43,384.42L126.43,384.42z"/>
	<path style="fill:#FFFFFF;" d="M473.85,50.94c-0.98-0.42-1.91-1.39-2.39-2.34L473.85,50.94z"/>
	<path style="fill:#FFFFFF;" d="M276.12,445.07c0.47-0.69,0.98-1.65,1.85-1.92C277.52,443.83,277.09,444.9,276.12,445.07z"/>
	<path style="fill:#FFFFFF;" d="M335.04,440.98c0.07-0.29-0.01-0.7,0.47-0.59C335.81,440.72,335.48,441.29,335.04,440.98z"/>
	<path style="fill:#FFFFFF;" d="M376.5,439.22c-0.51,0.15-0.54-0.27-0.73-0.59C376.31,438.43,376.3,438.95,376.5,439.22z"/>
	<path style="fill:#FFFFFF;" d="M374.75,436.89c-0.91-0.2-1.54-1.11-1.89-1.87C373.46,435.45,374.37,436.23,374.75,436.89z"/>
	<path style="fill:#FFFFFF;" d="M314.65,446.26c-0.4-0.14-0.53-0.42-0.72-0.74C314.31,445.67,314.88,445.67,314.65,446.26z"/>
	<path style="fill:#FFFFFF;" d="M92.59,117.98c-0.5,0.24-0.57-0.34-0.76-0.58C92.35,117.23,92.41,117.65,92.59,117.98z"/>
	<path style="fill:#FFFFFF;" d="M123.4,393.18c0.13-0.24-0.12-0.63,0-0.88s0.36-0.39,0.67-0.3c-0.1,0.29-0.03,0.57-0.08,0.86
		S123.72,393.48,123.4,393.18z"/>
	<path style="fill:#FFFFFF;" d="M124.64,390.3c-0.07-0.26-0.14-0.58-0.06-0.91c0.05-0.23,0.35-0.4,0.65-0.3
		c-0.09,0.28-0.04,0.54-0.07,0.86C125.14,390.2,124.98,390.55,124.64,390.3L124.64,390.3z"/>
	<path style="fill:#FFFFFF;" d="M95.47,122.08c-0.53,0.22-0.56-0.28-0.64-0.64C95.36,121.16,95.33,121.8,95.47,122.08z"/>
	<path style="fill:#FFFFFF;" d="M388.05,184.35c-4.06,4.05-6.68,9.92-9.82,14.66c-4.96,0.11-9.69,2.25-11.62,7.04
		c-2.16,5.38,1.32,9.82,4.86,13.04l-1.99,24.21c-0.8,9.69-0.55,18.97-1.56,28.43c-3.08,28.91-15.79,52.52-39.49,68.85
		c-2.61-1.97-5.93-2.04-7.83-0.03c-2.01,2.14-2.08,5.13-0.78,7c1.83,2.64,4.85,2.91,6.86,2.09c3.24-1.33,3.47-4.3,3-7.39
		c26.46-18.04,39.54-46.08,40.88-77.99l1.1-26.23c0.07-1.71,0.1-3.57,0.82-5.57c0.85,7.43,2.63,14.18,4.94,21.38l5.79,18.06
		c4.28,13.36,5.26,27.37,2.49,40.83c-8.22-1.42-15.12,2.96-17.71,9.86c-2.57,6.85,0.23,14.53,6.86,18.53
		c-13.31,20.36-33.48,34.39-56.48,40.63c-1.89-9.84-9.89-16.5-19.19-16.89c-9.3-0.38-17.45,5.42-20.48,14.57
		c-20.07-7.21-32.23-14.51-52.08-20.67c-6.98-2.16-13.76-4.66-21.61-5.52c-15.74-1.73-31.03,0.04-45.49,6.7
		c-7.68,3.54-15.93,4.61-23.87,3.04c-3.89-0.77-7.24-2.62-11.44-5.12c5.51-8.57,4.32-18.21-2.58-24.25
		c-5.6-4.9-12.71-6.98-20.72-2.9c-5.95-10.61-4.61-23.25,3.3-32.58c5.61-6.62,10.3-12.87,13.51-21.06
		c3.94-10.04,13.12-16.41,23.88-17.37c-2.05,15.86-0.04,31.32,5.56,46.07c-7.24,3.52-10.22,10.93-8.4,18.02
		c1.51,5.89,6.22,10.29,11.99,11.26c6.62,1.11,12.52-2.24,15.45-7.01c3.61-5.88,2.85-12.22-1.01-17.75
		c7.16-4.58,15.12,1.81,18.84,7.56c3.17,4.91,6.88,8.84,10.51,12.87c4.63,5.14,9.92,9.67,16.9,12.43
		c13.42,5.32,20.93,2.69,30.91-5.4c35.7,9.77,73.46-5.41,94.59-36c15.3-22.14,19.44-50.39,10.93-75.49
		c-1.89-5.57-3.26-11.42-7-16.77c-0.67-0.96-0.36-2.47-1.23-3.05c-1.97-16.76,6.14-32.17,22.92-36.33
		c7.04,6.88,16.46,10.57,25.49,14.18L388.05,184.35z"/>
	<g>
		<path style="fill:#FFFFFF;" d="M288.39,110.87c0.49-0.36,0.89,0.2,1.31,0.16c0.58-0.05,0.46-0.93,1.05-1.36s2.14,0,2.74-1.23
			c1.93,1.73,4.14-0.39,6-0.62c4.56-0.56,8.91,0.68,13.05,0.82c1-1.24,1.75-2.45,2.99-2.76c-4.81,10.66-12.59,20.04-23.06,26.48
			c-2.47-2.83-5.67-3.88-8.56-2.72c-3.24,1.29-4.91,4.51-4.36,8.17c-22.62,6.51-36.23-3.36-53.54-16.29
			c-5.62-4.18-11.05-7.99-17.51-10.91c-7.66-3.77-15.49-5.1-24.07-3.96c-9.52-16.74-28.56-24.77-47.03-18.64
			c-2.1-13.29-13.88-21.34-26.86-19.61C98.8,70.14,90.01,80.71,90.28,92.52s9.17,21.95,21.57,23.64
			c-3.42,14.89,1.73,29.49,13.2,39.3c9.99,8.55,23.31,10.96,36.27,7.33c2.01-0.74,5.37-2.01,7.18-0.61
			c10.36,13.97,10.56,31.89-0.52,46c-5.25-2.51-10.41-1.29-13.45,2.56c-3.2,4.06-2.93,9.71,0.69,13.99
			c-4.89,8.07-9.34,15.73-11.47,25.03c-11.55-0.32-22.83-7.14-26.24-17.94c-1.3-4.13-3.96-6.85-5.99-10.09
			c-8.06-12.89-20.79-21.97-35.93-25.73c-1.16-0.29-2.22-0.43-2.84-1.09c17.26-5.06,29.88-18.76,32.16-37.42
			c1.7-13.89-2.25-27.89-9.48-39.49c-0.29-0.92-1.24-1.47-2-2.19C82.41,105.45,79.69,89.1,87.26,76.2
			c4.95-8.44,13.58-13.82,22.05-15.22c11.31-1.88,19.54,2.44,27.75,9.14C152.89,83.04,174,87.17,193.9,83.47s38.05-16.14,49.95-33.7
			c2.12,0.52,4.07,1.67,5.98,2.66c-4.82,14.57-2.95,29.8,6.76,41.82c-5.68,6.16-7.32,14.61-3.22,21.99
			c3.72,6.7,11.04,11.03,19.46,9.61C280.01,124.64,286.68,118.66,288.39,110.87L288.39,110.87z M148.36,199.46
			c4.36,0.89,7.86-2.09,9.09-5.7s-0.44-7.44-3.95-9.6c-4.37-2.69-9.82-0.2-11.61,4.34s1.17,9.87,6.47,10.95V199.46z"/>
		<path style="fill:#E85D43;" d="M447.49,31.14c-0.21,0.5,0.36,0.59,0.69,0.59c0.2,0,0.38,0.1,0.58,0.02
			c-0.15,0.44,0.22,0.58,0.58,0.57c0.2,0,0.38,0.1,0.58,0.02c-0.14,0.44,0.23,0.57,0.58,0.57c0.2,0,0.38,0.11,0.58,0.02
			c-0.14,0.45,0.24,0.53,0.58,0.57c0.21,0.02,0.37,0.05,0.58,0.03c0.03,0.59,0.68,0.94,1.15,1.17c0.25,0.12,0.33,0.21,0.58,0.03
			c-0.1,0.35,0.28,0.61,0.58,0.47c0.24,0.86,1.65,1.03,2.33,1.17l8.19,6.93c-0.72,0.29-0.74,1.13-0.63,1.82
			c-26.01-21.34-57.45-28.47-88.65-15.16c-17.69,7.55-32.97,19.87-42.07,37.7c-12.35,24.2-13.07,49.46-40.6,66.94
			c0.87,3.9-1.25,6.92-4.11,8.07c-3.3,1.33-6.64,0.31-8.66-2.78c-13.18,3.92-26.27,2.27-37.83-4.54
			c-6.89-4.06-12.97-8.34-19.36-13.19c-10.26-7.78-23.72-15.64-37.66-13.52c5.44,11.69,4.11,23.34-0.3,34.69
			c-2.61,6.71,0.78,14.65,5.17,20.05c6.45,7.95,16.68,8.86,25.72,11.85l1.15,0.38c-0.32,1.13-1.46,1.71-2.93,1.61
			c-11.66-0.79-22.77-6.3-28.57-16.68c-3.43-6.14-5.17-13.69-2.59-20.17c5.11-12.83,3.8-26.93-4.95-37.74s-22.03-15.69-35.41-12.9
			c-20.49,4.27-33.06,24.98-27.87,44.6c5.54,20.89,26.44,31.45,46.89,25.73c9.68-2.71,20.35,3.46,26.09,10.99s7.35,16.82,5.94,26.24
			c-0.18,1.18-0.76,2.32-1.79,2.39c-0.57-4.71,0.99-9.44-0.21-14.19c-1.91-10.67-8.97-20.38-20.41-23c9.82,14.74,9.2,33.03-1.6,47.1
			c3.77,4.13,4.25,9.87,1.12,13.98s-8.77,5.43-13.96,2.58c-4.72,7.19-8.6,14.52-10.99,23.53c9.79,0.77,19.73-3.03,26.78-9.93
			c1.53-1.5,2.43-3.22,3.77-5.04c4.02,2.8-7.19,10.81-10.6,12.66c-15.74,8.57-40.42,5.98-49.02-11.45
			c-2.06-4.17-3.43-8.4-6.16-12.21c-0.23-0.32-0.23-1.19-0.12-1.5c0.11-0.28,0.44-0.67,0.86-0.46c2.03,3.25,4.69,5.96,5.99,10.09
			c3.4,10.8,14.69,17.62,26.24,17.94c2.13-9.3,6.58-16.96,11.47-25.03c-3.62-4.27-3.89-9.92-0.69-13.99
			c3.03-3.85,8.19-5.07,13.45-2.56c11.08-14.11,10.88-32.03,0.52-46c-1.82-1.41-5.17-0.13-7.18,0.61
			c-12.95,3.63-26.28,1.22-36.27-7.33c-11.47-9.82-16.62-24.42-13.2-39.3c-12.4-1.69-21.29-11.68-21.57-23.64
			s8.52-22.38,20.26-24.12c12.98-1.74,24.76,6.32,26.86,19.61c18.46-6.13,37.51,1.9,47.03,18.64c8.58-1.14,16.4,0.19,24.07,3.96
			c6.46,2.92,11.89,6.72,17.51,10.91c17.31,12.93,30.91,22.8,53.54,16.29c-0.55-3.66,1.12-6.87,4.36-8.17
			c2.89-1.15,6.09-0.1,8.56,2.72c10.47-6.45,18.25-15.82,23.06-26.48c0.1-0.22,0.22-0.41,0.24-0.66c0.4,0.31,0.49-0.08,0.62-0.36
			c0.17-0.36,0.24-0.63,0.03-0.89c0.87-0.9,1.46-2.53,1.99-3.91l9.33-24.46c11.84-31.05,41.1-51.29,73.76-54.13
			c16.46-1.43,31.72,2.58,45.99,9.68L447.49,31.14z M135.46,88.47c-1.94-10.54-9.52-16.55-18.29-17.97S99.63,73.73,95.2,81.65
			c-3.78,6.75-3.57,14.57,0.44,21.55c3.29,5.73,9.42,10.23,16.97,10.65c3.54-11.92,12.06-19.92,22.86-25.39L135.46,88.47z
			 M284.84,132.34c-2.55,0.99-3.26,3.82-2.28,5.78s3.31,2.78,5.05,2.11c2.42-0.93,3.48-3.37,2.75-5.42
			c-0.76-2.15-3.18-3.38-5.53-2.47H284.84z M161.46,209.84c-4.28,0.68-6.89,4.73-6.24,8.56c0.75,4.4,4.7,7.04,8.74,6.25
			s6.93-4.79,6.08-8.9C169.24,211.86,165.57,209.18,161.46,209.84L161.46,209.84z"/>
		<path style="fill:#E85D43;" d="M95.44,118c7.22,11.6,11.17,25.6,9.48,39.49c-2.28,18.65-14.9,32.35-32.16,37.42
			c-4.17,1.22-8.85,1.25-13.47,1.4c-21.94,0.73-41.09,13.24-50.5,32.83c-10.29,21.4-6.96,46.25,8.66,64.23
			c11.85,13.64,28.78,21.4,47.06,20.27c4.75-0.29,9.27-1.02,13.65-0.17c6.53,1.27,12.58,4.4,17.23,9.05
			c-0.35-7.3-0.15-13.85,2.9-19.63c2.27-4.31,5.82-8.1,8.99-11.91c4.05-4.88,6.59-10.27,9.13-16.03
			c3.77-8.54,10.83-14.03,19.93-16.36c15.38-3.94,31.66,0.77,41.7,12.72c0.37,0.44,0.4,1.46,0.51,1.96
			c0.08,0.36-0.23,0.69-0.74,0.92c-7.99-10.32-20.61-15.96-34-14.54c-2.22,15.47-0.24,30.72,5.43,45.46c5.09-1.16,10.03,0,14.01,3.1
			c0.09,1.01-1.27,0.7-1.78,1.53c0.91,0.61,1.27,1.59,1.58,2.43c-3.93-4.52-10.22-6.08-15.57-2.99c-4.94,2.85-8.27,9.33-5.81,15.23
			c-0.69,0.07-0.8-0.68-1.12-0.97c-0.74-0.67-1.12,0.15-1.77,0.4c-1.82-7.09,1.16-14.5,8.4-18.02c-5.6-14.75-7.61-30.21-5.56-46.07
			c-10.76,0.96-19.94,7.33-23.88,17.37c-3.21,8.19-7.9,14.43-13.51,21.06c-7.9,9.32-9.25,21.96-3.3,32.58
			c8.01-4.08,15.12-2,20.72,2.9c-0.55,0.17-1.08,0.5-1.55,1.2c1.19,0.81,1.18,1.78,1.58,2.38c-3.01-3.43-7.32-5.78-11.99-5.73
			s-9.08,2.37-12.07,6.2s-3.84,9.07-2.24,14.13c1.35,4.28,4.93,7.98,9.43,9.75c-3.88,2.39-6.14-2.74-5.98-0.48
			c-4.43-3.64-7.47-8.21-7.28-14.37c0.18-5.65,2.59-10.95,7.46-14.74c-5.18-11.97-17.68-18.01-30.41-16.52
			c-16.21,1.9-31.8-2.57-44.35-12.51C0.87,284.44-6.02,252.05,8.07,225.8c10.93-20.35,31.26-31.57,54.04-31.83
			c24.35-0.28,42.19-20.62,41.05-44.56c-0.47-9.88-3.22-18.87-7.69-27.33c-0.14-0.27-0.11-0.91-0.64-0.64
			c-0.34-1.39-1.58-2.26-2.24-3.46c-0.18-0.33-0.24-0.75-0.76-0.58l-2.27-2.91c1.5-1.98,4.28,4.38,5.89,3.52L95.44,118z"/>
		<path style="fill:#E85D43;" d="M471.47,48.6c0.47,0.95,1.4,1.92,2.39,2.34c7.14,7,12.86,15.31,17.7,24.27
			c4.05,7.49,6.21,15.05,7.7,23.02c-0.51-0.08-1.04,0.15-1.55-0.03c-0.84-5.58-3.31-11.19-5.35-16.36
			c-3.9-9.85-10.34-18.6-17.51-26.19c-3.4-3.6-6.47-7.32-10.39-10.54c-0.11-0.69-0.09-1.53,0.63-1.82
			C467.12,45.01,469.5,46.66,471.47,48.6L471.47,48.6z"/>
		<path style="fill:#FFFFFF;" d="M456.89,36.36c-0.69-0.14-2.1-0.3-2.33-1.17C455.79,34.63,456.41,35.74,456.89,36.36z"/>
		<path style="fill:#E85D43;" d="M217.25,175.61c27.34-13.44,62.11-17.37,89.08-1.08c0.82,1.35-2.94,8.18-2.28,9.26
			c-32.28-26.94-83.58-10.45-106.89,26.44c-12.34,19.53-12.13,44.31-7.9,66.88l0.67,3.57l-8.83,2.24c-1.03-2.79-1.81-6.16-3.3-8.73
			c0.51-0.23,0.82-0.56,0.74-0.92c-0.11-0.49-0.14-1.52-0.51-1.96c-10.03-11.95-26.32-16.66-41.7-12.72
			c-9.1,2.33-16.15,7.82-19.93,16.36c-2.54,5.76-5.08,11.15-9.13,16.03c-3.16,3.81-6.71,7.6-8.99,11.91
			c-6.3,3.63-12.2,7.9-19.69,9.85c-0.24,0.39-0.15,0.73-0.43,0.74c-4.38-0.85-8.91-0.12-13.65,0.17
			c-18.28,1.13-35.22-6.63-47.06-20.27C1.83,275.39-1.5,250.54,8.79,229.15c9.42-19.59,28.56-32.1,50.5-32.83
			c4.62-0.15,9.3-0.18,13.47-1.4c0.63,0.67,1.68,0.81,2.84,1.09c15.14,3.76,27.87,12.84,35.93,25.73c-0.41-0.21-0.75,0.18-0.86,0.46
			c-0.12,0.31-0.12,1.18,0.12,1.5c2.73,3.81,4.1,8.04,6.16,12.21c8.61,17.43,33.28,20.01,49.02,11.45
			c3.4-1.85,14.62-9.86,10.6-12.66c2.11-2.84,3.67-16,14.11-31.69c0.72-1.09,1.06-2.21,1.39-3.34c1.03-0.07,1.62-1.21,1.79-2.39
			c1.41-9.41-0.04-18.49-5.94-26.24s-16.42-13.69-26.09-10.99c-20.45,5.72-41.35-4.83-46.89-25.73c-5.2-19.62,7.38-40.33,27.87-44.6
			c13.39-2.79,27.06,2.57,35.41,12.9s10.05,24.92,4.95,37.74c-2.58,6.48-0.84,14.03,2.59,20.17c5.79,10.38,16.91,15.89,28.57,16.68
			c1.47,0.1,2.61-0.48,2.93-1.61L217.25,175.61z M93.12,295.05c25.03-20.37,25.94-57.89,1.71-79.06
			c-14.97-13.07-35.96-16.27-54.18-8.15c-16.78,7.48-27.77,23.37-29.85,40.62c-2.3,19.01,5.71,36.76,20.9,48.03
			C50.1,310.14,75.35,309.51,93.12,295.05z"/>
		<path style="fill:#E85D43;" d="M148.36,199.46c-5.3-1.09-8.27-6.38-6.47-10.95s7.25-7.03,11.61-4.34c3.51,2.16,5.2,5.97,3.95,9.6
			s-4.74,6.59-9.09,5.7V199.46z M147.24,186.58c-2.99,1.39-3.57,5.03-2.22,7.38c1.44,2.51,4.43,3.35,6.79,2.22
			c2.85-1.36,3.73-4.52,2.66-6.89C153.17,186.42,150.24,185.18,147.24,186.58L147.24,186.58z"/>
		<path style="fill:#FFFFFF;" d="M375.8,29.96c0.3-0.13,1.16,0.25,0.97,0.52c-18.84,9.21-33.47,24.79-41.23,44.3
			c-10.98,27.62-6.28,58.59,12.47,81.58c0.38,0.47,0.5,0.82,0.93,0.27c-1.59,6.52-4.4,12.66-10,17.13
			c-6.45,5.14-14.6,7.44-22.65,6.77l-9.95-6.01c-26.97-16.28-61.75-12.35-89.08,1.08l-1.15-0.38c-9.04-2.99-19.27-3.9-25.72-11.85
			c-4.39-5.4-7.78-13.34-5.17-20.05c4.41-11.35,5.74-23,0.3-34.69c13.94-2.12,27.4,5.74,37.66,13.52
			c6.39,4.85,12.47,9.14,19.36,13.19c11.56,6.81,24.65,8.46,37.83,4.54c2.02,3.08,5.36,4.11,8.66,2.78
			c2.86-1.15,4.98-4.17,4.11-8.07c27.53-17.48,28.25-42.74,40.6-66.94c9.1-17.82,24.38-30.15,42.07-37.7L375.8,29.96z"/>
		<path style="fill:#E85D43;" d="M464.45,45.11c3.92,3.22,6.99,6.94,10.39,10.54c-2.03,1.7-4.26,3.57-5.68,5.77
			c-9.54-12.2-22.78-20.71-37.54-24.98c-26.14-7.57-54.49,0.8-72.68,21.56c-15.22,17.38-21.24,41.21-15.53,63.48
			c3.55,13.84,9.22,19.96,5.52,35.14c-0.43,0.54-0.55,0.19-0.93-0.27c-18.75-23-23.45-53.97-12.47-81.58
			c7.76-19.51,22.39-35.09,41.23-44.3c0.19-0.27-0.67-0.65-0.97-0.52C407,16.63,438.44,23.77,464.45,45.11L464.45,45.11z"/>
		<path style="fill:#FFFFFF;" d="M192.08,199.67c-0.33,1.12-0.67,2.25-1.39,3.34c-10.45,15.69-12.01,28.85-14.11,31.69
			c-1.35,1.81-2.24,3.54-3.77,5.04c-7.05,6.9-16.99,10.7-26.78,9.93c2.39-9.01,6.27-16.34,10.99-23.53
			c5.18,2.84,10.73,1.65,13.96-2.58s2.65-9.85-1.12-13.98c10.8-14.07,11.42-32.36,1.6-47.1c11.44,2.62,18.5,12.34,20.41,23
			C193.07,190.23,191.51,194.95,192.08,199.67L192.08,199.67z"/>
		<path style="fill:#E85D43;" d="M135.46,88.47c-10.8,5.46-19.31,13.46-22.86,25.39c-7.55-0.42-13.67-4.92-16.97-10.65
			c-4.02-6.99-4.22-14.8-0.44-21.55c4.43-7.92,13.18-12.57,21.97-11.15s16.36,7.43,18.29,17.97L135.46,88.47z"/>
		<path style="fill:#E85D43;" d="M161.46,209.84c4.12-0.65,7.79,2.03,8.59,5.91c0.84,4.11-1.87,8.08-6.08,8.9s-7.99-1.86-8.74-6.25
			C154.58,214.57,157.19,210.52,161.46,209.84L161.46,209.84z"/>
		<path style="fill:#E85D43;" d="M284.84,132.34c2.35-0.92,4.76,0.32,5.53,2.47s-0.33,4.49-2.75,5.42
			c-1.74,0.67-4.04-0.11-5.05-2.11s-0.27-4.79,2.28-5.78H284.84z"/>
		<path style="display:none;fill:#FFFFFF;" d="M177.8,274.19c1.48,2.57,2.27,5.93,3.3,8.73c7.85,21.28,24.89,39.87,45.52,49.01
			c4.13,1.83,8.18,4.18,12.7,5.25c-3.21,2.54-6.38,5.44-11.08,6.31c-12.82,2.38-25-6.19-33.19-14.4c-3.09-3.1-9.87-14.83-16.09-19.5
			c-4.95-3.72-10.21-3.09-15.73-1.38c-3.98-3.11-8.92-4.26-14.01-3.1c-5.68-14.73-7.66-29.99-5.43-45.46
			C157.18,258.24,169.8,263.87,177.8,274.19L177.8,274.19z"/>
		<path style="fill:#E85D43;" d="M121.67,337.22c3.77,5.64,4.35,12.83,0.29,18.51c-3.87,5.42-10.59,7.55-17.16,5.83
			c-4.5-1.77-8.08-5.47-9.43-9.75c-1.6-5.06-0.85-10.16,2.24-14.13s7.41-6.15,12.07-6.2s8.97,2.3,11.99,5.73V337.22z"/>
		<path style="fill:#E85D43;" d="M163.05,312.17c4.35,6.36,3.09,14.99-4.05,18.8c-6.26,3.35-14.44,0.4-17.34-6.56
			c-2.45-5.9,0.87-12.38,5.81-15.23C152.82,306.09,159.11,307.65,163.05,312.17L163.05,312.17z"/>
		<path style="fill:#E85D43;" d="M195.05,329.09c-0.36,0.55-0.74,1-0.5,1.68c-3.63-4.03-7.34-7.96-10.51-12.87
			c-3.72-5.75-11.68-12.15-18.84-7.56c3.86,5.52,4.62,11.86,1.01,17.75c-2.93,4.77-8.83,8.12-15.45,7.01
			c-5.77-0.97-10.48-5.38-11.99-11.26c0.65-0.25,1.03-1.07,1.77-0.4c0.32,0.29,0.42,1.05,1.12,0.97c2.9,6.97,11.07,9.91,17.34,6.56
			c7.13-3.81,8.4-12.44,4.05-18.8c-0.31-0.85-0.68-1.83-1.58-2.43c0.51-0.83,1.86-0.52,1.78-1.53c5.52-1.71,10.78-2.33,15.73,1.38
			c6.22,4.67,13,16.4,16.09,19.5L195.05,329.09z"/>
		<path style="fill:#FFFFFF;" d="M98.29,302.9c-3.05,5.78-3.24,12.33-2.9,19.63c-4.65-4.65-10.7-7.78-17.23-9.05
			c0.28,0,0.19-0.35,0.43-0.74C86.09,310.8,91.98,306.53,98.29,302.9L98.29,302.9z"/>
		<path style="fill:#4F46E5;" d="M492.35,81.84c-0.66,0.02-0.48,0.5-0.31,1.13c10.1,36.81-5.25,73.39-37.28,93.04
			c-19.38,11.89-41.98,14.57-63.67,8.94c4.69-4.62,10.53-8.45,17.32-9.14c20.59,1.76,41.22-6.78,55.7-21.92
			c17.21-18,23.84-43.78,17.03-67.4c-2.57-8.92-6.16-17.63-11.98-25.07c1.42-2.2,3.65-4.07,5.68-5.77
			C482.01,63.23,488.45,71.99,492.35,81.84L492.35,81.84z"/>
		<path style="fill:#4F46E5;" d="M357.15,148.84c3.54,6.02,13.13,13.67,18.76,16.5c0.4,0.2,0.88,0.93,1.72,1.5
			c-7.32-0.31-14.55,0.14-21.59,3.44c-11.54,5.41-18.3,16.68-18.51,29.31c-0.04,2.63,0.17,5.43,2.12,6.91
			c0.87,0.58,0.57,2.09,1.23,3.05c3.74,5.35,5.12,11.2,7,16.77l-0.96-0.53c0.2,0.11-8.09,2.78-7.27,3.55
			c-0.58-2.19-2.25-5.79-3.32-7.56c-5.31-14.15-17.15-25.36-28.7-35l-3.58-2.99c-0.65-1.08,3.1-7.92,2.28-9.26l9.95,6.01
			c0.15,0.73,0.67,1.89,2.01,1.94c10.1,0.33,20.19-3.72,26.56-11.96s7.48-17.58,7.16-27.56c1.85,2.31,4.01,3.99,5.13,5.9
			L357.15,148.84z"/>
		<path style="fill:#E85D43;" d="M93.12,295.05c-17.77,14.46-43.02,15.09-61.42,1.44c-15.19-11.26-23.2-29.02-20.9-48.03
			c2.08-17.26,13.08-33.14,29.85-40.62c18.21-8.12,39.21-4.92,54.18,8.15C119.07,237.16,118.16,274.68,93.12,295.05z M109.22,260.21
			c1.78-15.34-4-30.63-15.18-40.99c-15.78-14.62-39.07-16.98-57.3-6.08c-13.36,8-21.6,21.83-23.11,36.53
			c-1.64,15.97,4.37,31,16.28,41.59c16.37,14.55,40.32,16.34,58.37,3.73c11.56-8.08,19.3-20.59,20.94-34.79V260.21z"/>
		<path style="fill:#4F46E5;" d="M232.46,324.91c-4.28,1.41-2.73,4-5.83,7.02c-20.63-9.15-37.67-27.73-45.52-49.01l8.83-2.24
			C193.82,301.43,213.03,315.81,232.46,324.91L232.46,324.91z"/>
		<path style="fill:#E85D43;" d="M304.05,183.79l3.58,2.99c-0.57-0.15-1.05,0.44-1.07,0.89c-0.03,0.58,0.67,0.96,0.52,1.53
			c-7.44-4.37-15.04-8.38-23.82-10.69c-36.33-9.54-73.46,8.9-88.73,42.89c-8.27,18.4-8.57,38.62-2.23,57.52
			c-1.11,0.6-0.55-3.11-2.04-2.96c-0.41,0.04-0.65,0.8-1.01,1.15c-4.22-22.56-4.44-47.35,7.9-66.88
			c23.31-36.89,74.61-53.38,106.89-26.44L304.05,183.79z"/>
		<path style="fill:#E85D43;" d="M192.31,278.92c1.82,4.21,4.24,8.12,6.42,12.13c3.82,6.99,9.04,12.98,15.12,18.03
			c6.41,5.32,13.42,10.99,21.42,14.06c-0.63,0.51-1.49,1.2-1.24,2.09c-0.46-0.21-1.16-0.2-1.57-0.31
			c-19.44-9.11-38.64-23.49-42.53-44.24l-0.67-3.57c0.36-0.35,0.59-1.11,1.01-1.15C191.76,275.81,191.2,279.51,192.31,278.92
			L192.31,278.92z"/>
		<path style="fill:#E85D43;" d="M147.24,186.58c2.99-1.4,5.93-0.16,7.22,2.71c1.07,2.37,0.2,5.53-2.66,6.89
			c-2.36,1.13-5.34,0.28-6.79-2.22C143.66,191.61,144.24,187.97,147.24,186.58L147.24,186.58z"/>
		<path style="fill:#4F46E5;" d="M347.88,226.32c8.5,25.09,4.36,53.34-10.93,75.49c-21.13,30.59-58.89,45.77-94.59,36
			c4.35-3.53,9.46-6.38,15.76-6.5l8.21-0.17c36.16-0.74,68.23-27.88,74.94-63.28c2.44-12.9,1.76-25.8-1.62-38.52
			c-0.82-0.76,7.47-3.44,7.27-3.55L347.88,226.32L347.88,226.32z"/>
		<path style="fill:#4F46E5;" d="M387.56,171.23c4.37,1.72,8.84,3.37,14.03,4.04c-4.95,2.57-9.66,5.23-13.53,9.09
			c-9.03-3.61-18.45-7.3-25.49-14.18C370.76,168.15,379.52,168.06,387.56,171.23z"/>
		<path style="fill:#4F46E5;" d="M266.31,328.53c0.55,0.88,0.34,1.69,0.01,2.61l-8.21,0.17c-6.3,0.13-11.41,2.98-15.76,6.5
			c-9.97,8.09-17.49,10.72-30.91,5.4c-6.98-2.77-12.27-7.29-16.9-12.43c-0.24-0.69,0.14-1.13,0.5-1.68
			c8.19,8.21,20.37,16.79,33.19,14.4c4.7-0.87,7.87-3.76,11.08-6.31c3.56-2.82,7.65-4.82,11.86-6.78
			c-6.23-1.09-11.87-2.73-17.16-5.19c-0.24-0.89,0.61-1.58,1.24-2.09c9.78,3.76,20.55,5.5,31.04,5.4H266.31z"/>
		<path style="fill:#E85D43;" d="M387.49,168.69c-0.48,0.51-1.2,0.51-1.79,0.93c1.01,0.56,1.81,0.83,1.86,1.61
			c-8.04-3.17-16.81-3.08-24.99-1.05c-16.78,4.16-24.89,19.57-22.92,36.33c-1.94-1.48-2.16-4.27-2.12-6.91
			c0.21-12.63,6.97-23.9,18.51-29.31c7.04-3.3,14.27-3.74,21.59-3.44c-0.84-0.57-1.31-1.3-1.72-1.5c0.79-0.41,1.39-1.24,2.32-1.32
			C380.6,165.69,384.77,167.81,387.49,168.69L387.49,168.69z"/>
		<path style="fill:#4F46E5;" d="M429.42,38.61c23.67,6.2,41.79,24.14,48.9,47.37c3.53,11.55,3.34,24.57,0.31,36.1
			c-8.17,31.11-36.54,51.97-68.24,51.21c-7.81-0.19-15.55-2.23-22.89-4.61c-2.73-0.88-6.89-3-9.26-4.66
			c-6.79-4.75-13.98-9.8-19.25-16.33c-5.44-6.74-9.03-15.12-11.72-23.18c-7.25-23.45-0.93-49.58,16.48-67.29
			S405.82,32.43,429.42,38.61L429.42,38.61z M435.19,164.93c24.1-9.27,40.85-32.43,41.37-58.59s-15.08-50.53-39.5-60.71
			c-16.29-6.79-34.4-6.43-50.15,0.45c-18.31,7.99-31.47,24.19-36.19,41.74c-5.79,21.53-0.52,42.83,13.23,58.78
			c17.71,20.55,46.04,28.03,71.25,18.34L435.19,164.93z"/>
		<path style="fill:#4F46E5;" d="M481.15,86.49c6.81,23.62,0.17,49.4-17.03,67.4c-14.47,15.14-35.1,23.68-55.7,21.92
			c0.03-0.8,0.85-0.65,2.05-0.73c0.48-0.03,0.04-1.48-0.08-1.79c31.7,0.76,60.07-20.1,68.24-51.21c3.03-11.54,3.23-24.55-0.31-36.1
			c0.31-0.4,0.19-0.96,0.53-1.11C480.74,84.06,479.53,86.97,481.15,86.49L481.15,86.49z"/>
		<path style="fill:#E85D43;" d="M347.26,124.51c2.68,8.07,6.27,16.44,11.72,23.18c-0.69,0.12-1.83,0.25-1.83,1.15
			c-1.12-1.9-3.28-3.58-5.13-5.9c0.32,9.98-0.88,19.43-7.16,27.56s-16.46,12.29-26.56,11.96c-1.34-0.04-1.86-1.2-2.01-1.94
			c8.05,0.67,16.2-1.63,22.65-6.77c5.6-4.47,8.41-10.61,10-17.13c3.7-15.18-1.97-21.3-5.52-35.14c0.67-0.21,1.65-1.13,2.07-0.29
			c0.73,1.47,0.04,3.44,1.77,3.31V124.51z"/>
		<path style="fill:#E85D43;" d="M431.62,36.44c-0.43,0.38-0.25,1.39-0.85,1.62c-0.66,0.02-1.71-0.4-1.36,0.54
			c-23.6-6.18-48.81,1.46-65.67,18.61S340,101.05,347.26,124.5c-1.73,0.13-1.03-1.84-1.77-3.31c-0.42-0.84-1.4,0.08-2.07,0.29
			c-5.71-22.27,0.3-46.11,15.53-63.48C377.14,37.24,405.48,28.87,431.62,36.44L431.62,36.44z"/>
		<path style="fill:#E85D43;" d="M469.16,61.42c5.82,7.44,9.41,16.14,11.98,25.07c-1.62,0.49-0.41-2.43-2.3-1.62
			c-0.35,0.15-0.23,0.71-0.53,1.11c-7.11-23.23-25.22-41.17-48.9-47.37c-0.35-0.95,0.71-0.52,1.36-0.54
			c0.59-0.23,0.41-1.24,0.85-1.62C446.38,40.72,459.61,49.23,469.16,61.42L469.16,61.42z"/>
		<path style="fill:#4F46E5;" d="M234.03,325.22c5.29,2.45,10.93,4.1,17.16,5.19c-4.21,1.95-8.3,3.96-11.86,6.78
			c-4.53-1.08-8.57-3.42-12.7-5.25c3.1-3.02,1.55-5.61,5.83-7.02c0.42,0.1,1.12,0.1,1.57,0.31L234.03,325.22z"/>
		<path style="fill:#4F46E5;" d="M336.33,221.78c1.07,1.77,2.74,5.38,3.32,7.56c3.37,12.72,4.06,25.62,1.62,38.52
			c-0.74-0.76-1.16-1.83-2.18-2.34c2.79-14.83-0.19-29.92-5.32-43.77c0.22-0.82,0.37-1.67,1.05-2.36
			C334.88,220.77,336.02,221.26,336.33,221.78L336.33,221.78z"/>
		<path style="fill:#E85D43;" d="M336.33,221.78c-0.31-0.52-1.46-1.01-1.52-2.39c-0.68,0.69-0.83,1.55-1.05,2.36
			c-0.79-2.14-2.48-4.44-3.61-6.52c-3.88-7.16-8.89-13.85-15.02-19.11c-2.55-2.19-5.14-5.23-8.05-6.94
			c0.15-0.57-0.55-0.95-0.52-1.53c0.02-0.44,0.5-1.04,1.07-0.89c11.55,9.64,23.39,20.85,28.7,35L336.33,221.78z"/>
		<path style="fill:#E85D43;" d="M358.98,147.69c5.27,6.53,12.46,11.58,19.25,16.33c-0.92,0.09-1.52,0.91-2.32,1.32
			c-5.64-2.83-15.22-10.48-18.76-16.5C357.15,147.94,358.29,147.82,358.98,147.69L358.98,147.69z"/>
		<path style="fill:#E85D43;" d="M109.22,260.21c-1.64,14.2-9.38,26.71-20.94,34.79c-18.05,12.61-41.99,10.82-58.37-3.73
			c-11.92-10.59-17.93-25.62-16.28-41.59c1.51-14.7,9.75-28.54,23.11-36.53c18.22-10.9,41.52-8.54,57.3,6.08
			c11.18,10.36,16.96,25.65,15.18,40.99L109.22,260.21z M58.09,299.07c23.48,1.97,43.94-15.83,46.85-38.84
			c3.3-26.17-17.05-49.41-43.04-49.66c-21.73-0.21-40.71,15.69-43.72,37.78c-2.67,19.61,6.55,37.76,24.9,46.74
			c4.63,2.27,9.36,3.51,15.02,3.98H58.09z"/>
		<path style="fill:#E85D43;" d="M307.09,189.19c2.91,1.71,5.5,4.75,8.05,6.94c0.76,1.06-3.91,3.1-4.68,5.3
			c-1.49-1.12-3.48-2.03-5.14-3.5c-9-7.96-20.44-11.94-32.23-13.88c-2.39-0.4-4.93,0.2-7.12-0.44c-1.51-0.44-2.59-0.39-4.09,0
			c-2.21,0.57-4.71,0.16-6.98,0.46c-30.88,4.12-55.38,29.17-59.01,60.02c-0.24,2.04,0.09,4.1-0.43,5.98c-0.49,1.78-0.52,3.42,0,5.2
			c0.61,2.05,0,4.36,0.42,6.58c1.51,8.09,3.4,16.09,7.98,22.88c0.54,0.85,0.78,2.42,1.07,3.41c-2.11-0.39-3.93,1.79-6.21,2.91
			c-2.18-4-4.6-7.91-6.42-12.13c-6.34-18.9-6.04-39.12,2.23-57.52c15.27-33.99,52.4-52.43,88.73-42.89
			c8.78,2.31,16.37,6.32,23.82,10.69L307.09,189.19z"/>
		<path style="fill:#4F46E5;" d="M330.16,215.24c1.12,2.07,2.82,4.38,3.61,6.52c5.13,13.85,8.11,28.93,5.32,43.77
			c-5.28,28.03-25.66,51.23-53.13,59.65c-6.45,1.98-13.15,3.29-19.64,3.36c-10.49,0.1-21.26-1.63-31.04-5.4
			c-8-3.08-15.01-8.75-21.42-14.06c-1.48-0.65,4.2-5.93,4.55-5.19c3.58,3.12,8.01,5.72,12.28,8.25c11.45,6.77,25.4,9.74,39.12,8.45
			c15.05-1.41,28.25-6.92,39.71-17.16c13.99-12.5,22.05-29.42,22.75-47.82c0.08-2.03,1.01-3.58,0.09-5.56
			c-0.8-1.73,0.24-4.03-0.43-5.93s-0.57-3.95-0.98-6.03c-1.36-6.92-4.05-13.4-7.65-19.82c-0.35-0.63-0.33-1.2-0.41-1.73
			c3.3,0.4,3.22-2.13,7.25-1.3L330.16,215.24z"/>
		<path style="fill:#4F46E5;" d="M204.94,288.13c4.55,5.15,8.23,11.18,13.46,15.75c-0.35-0.75-6.03,4.54-4.55,5.19
			c-6.08-5.04-11.3-11.03-15.12-18.03C201.01,289.92,202.82,287.74,204.94,288.13L204.94,288.13z"/>
		<path style="fill:#4F46E5;" d="M341.26,267.86c-6.7,35.4-38.77,62.53-74.94,63.28c0.32-0.92,0.53-1.73-0.01-2.61
			c6.49-0.06,13.19-1.38,19.64-3.36c27.47-8.42,47.85-31.62,53.13-59.65C340.1,266.03,340.52,267.09,341.26,267.86L341.26,267.86z"
			/>
		<path style="fill:#4F46E5;" d="M435.19,164.93c-25.21,9.69-53.54,2.21-71.25-18.34c-13.75-15.95-19.03-37.24-13.23-58.78
			c4.72-17.55,17.89-33.74,36.19-41.74c15.75-6.88,33.86-7.24,50.15-0.45c24.43,10.18,40.03,34.19,39.5,60.71
			s-17.26,49.32-41.37,58.59L435.19,164.93z M355.45,121.48c2.02,11.45,12.31,24.84,23.33,32.57c20.2,14.16,47.24,14.17,67.3,0.17
			c14.55-10.15,23.56-25.25,25.72-42.3c0.56-4.41,0.21-9.22-0.06-13.39c-1.04-16.1-9.59-29.09-21.3-39.37
			c-24.26-21.29-62.73-18.36-84.09,7.89c-7.86,9.65-12.4,20.63-13.32,32.89c-0.22,2.89-0.54,5.45-0.18,8.47l0.8,6.66
			c0.28,2.31,0.67,4.65,1.8,6.42V121.48z"/>
		<g>
			<path style="fill:#E85D43;" d="M259.1,53.3c-2.33,0.21-4.76-0.44-7.21-0.52c-0.54,1.23-0.75,2.29-0.84,3.35
				c-0.02,0.21-0.03,0.39-0.03,0.6c-0.89,1.49-1.13,3.52-1.16,5.3c0,0.37-0.03,0.73-0.02,1.1c-1.48-1.5,0.14,11.66-0.04,8.84
				c0.48,7.35,3.58,14.65,8.25,20.35c-0.18,0.72,0.78,0.8,0.66,0.01c8-5.18,18-4.91,24.76,2.75c3.53,4.01,6.13,10.31,4.92,15.79
				c-1.72,7.79-8.39,13.77-15.57,14.98c-8.41,1.42-15.74-2.91-19.46-9.61c-4.1-7.38-2.46-15.83,3.22-21.99
				c-9.71-12.02-11.57-27.26-6.76-41.82c-1.91-0.99-3.86-2.14-5.98-2.66c-11.89,17.56-29.23,29.83-49.95,33.7
				s-41.01-0.42-56.84-13.35c-8.21-6.7-16.44-11.02-27.75-9.14c-8.47,1.41-17.11,6.79-22.05,15.22c-7.57,12.9-4.85,29.25,6.17,39.61
				c0.76,0.72,1.71,1.27,2,2.19c-1.6,0.86-4.38-5.5-5.89-3.52c-7.41-9.49-11.07-21.97-6.66-34.16c3.7-10.2,13.09-18.86,24.71-21.17
				s21.59,1.44,30.29,8.87c12.71,10.87,29.45,15.27,46.16,14.43c23.75-1.2,44.96-14.14,58-34.19c-8.61-6.54-12.48-16.2-10.53-26.81
				c1.57-8.56,8-16.77,17.23-19.97c15.62-5.41,31.71,4.53,34.76,20.11s-8.54,30.27-24.41,31.71L259.1,53.3z M236.98,38.2
				c4.99,9.23,15.77,13.73,25.84,11.39c9.25-2.15,16.9-10.15,18.02-20.16c1.18-10.51-4.4-19.91-13.22-24.11
				c-9.48-4.51-20.45-2.17-27.21,5.07C233.4,17.9,231.91,28.82,236.98,38.2L236.98,38.2z M266.88,92.07
				c-9.01,1.77-14.26,10.25-12.47,18.65c1.79,8.4,9.89,13.82,18.23,12.17s14.23-9.9,12.5-18.33S275.52,90.37,266.88,92.07
				L266.88,92.07z"/>
			<path style="fill:#FFFFFF;" d="M249.8,71.97c0.19,2.82-1.44-10.34,0.04-8.84C249.94,66.07,250.02,69.03,249.8,71.97z"/>
			<path style="fill:#FFFFFF;" d="M249.87,62.03c0.03-1.78,0.26-3.81,1.16-5.3C251.05,58.36,251.66,62.11,249.87,62.03z"/>
			<path style="fill:#E85D43;" d="M236.98,38.2c-5.07-9.38-3.58-20.3,3.43-27.81c6.76-7.24,17.74-9.58,27.21-5.07
				c8.81,4.19,14.39,13.6,13.22,24.11s-8.77,18.01-18.02,20.16C252.75,51.93,241.97,47.43,236.98,38.2L236.98,38.2z M267.06,40.38
				c6.1-4.39,8.41-11.64,6.5-18.51c-1.75-6.33-7.29-11.2-14.18-12.05c-7.47-0.92-14.51,3.52-17.29,10.02
				c-3.05,7.12-0.8,14.96,4.65,19.6c5.76,4.9,13.97,5.51,20.31,0.95L267.06,40.38z"/>
			<path style="fill:#E85D43;" d="M266.88,92.07c8.64-1.7,16.58,4.23,18.27,12.49s-4.07,16.66-12.5,18.33s-16.46-3.87-18.23-12.17
				S257.88,93.84,266.88,92.07L266.88,92.07z"/>
			<path style="fill:#E85D43;" d="M267.06,40.38c-6.34,4.56-14.55,3.96-20.31-0.95c-5.45-4.64-7.7-12.48-4.65-19.6
				c2.78-6.5,9.82-10.94,17.29-10.02c6.89,0.85,12.43,5.73,14.18,12.05c1.9,6.87-0.4,14.13-6.5,18.51L267.06,40.38z M260.54,40.13
				c5.83-1.37,10.04-6.45,10.57-11.75c0.63-6.34-2.63-11.78-7.76-14.2c-5.43-2.56-11.75-1.52-15.81,2.81
				c-4.37,4.65-5.04,11.2-2.05,16.47s9.02,8.09,15.06,6.67L260.54,40.13z"/>
			<path style="fill:#FFFFFF;" d="M260.54,40.13c-6.04,1.42-12.11-1.46-15.06-6.67s-2.32-11.82,2.05-16.47
				c4.06-4.33,10.38-5.37,15.81-2.81c5.13,2.42,8.39,7.86,7.76,14.2C270.57,33.68,266.37,38.77,260.54,40.13L260.54,40.13z"/>
		</g>
		<path style="fill:#4F46E5;" d="M330.16,215.24c-4.03-0.84-3.95,1.7-7.25,1.3c-4-5.14-8.06-10.25-12.45-15.1
			c0.77-2.2,5.44-4.24,4.68-5.3C321.27,201.4,326.28,208.09,330.16,215.24L330.16,215.24z"/>
		<path style="fill:#E85D43;" d="M58.09,299.07c-5.66-0.47-10.39-1.71-15.02-3.98c-18.35-8.98-27.57-27.13-24.9-46.74
			c3.01-22.09,21.99-37.99,43.72-37.78c25.99,0.25,46.34,23.49,43.04,49.66C102.03,283.25,81.57,301.04,58.09,299.07L58.09,299.07z
			 M103.87,261.12c3.31-23.63-12.34-45.07-35.51-49.05c-1.7-0.29-3.76,0.12-5.24-0.51s-2.34-0.02-3.52,0.04
			c-11.35,0.57-21.54,4.82-29.83,14c-8.21,9.1-12.38,21.58-11.04,33.72c2.18,19.73,17.1,35.68,36.75,38.52
			c23.36,3.38,45.13-13.42,48.4-36.72H103.87z"/>
		<path style="fill:#E85D43;" d="M305.31,197.93l0.02,0.43c-11.24-7.7-21.81-12.4-35.41-13.64c-32.58-2.97-62.37,18.12-71.17,49.65
			c-4.71,16.86-2.74,34.9,5.7,50.35h-0.58c-4.58-6.8-6.47-14.79-7.98-22.88c-0.41-2.22,0.19-4.53-0.42-6.58
			c-0.53-1.78-0.49-3.42,0-5.2c0.52-1.88,0.19-3.93,0.43-5.98c3.63-30.85,28.13-55.9,59.01-60.02c2.27-0.3,4.77,0.1,6.98-0.46
			c1.5-0.38,2.58-0.44,4.09,0c2.19,0.64,4.73,0.05,7.12,0.44c11.79,1.95,23.23,5.92,32.23,13.88L305.31,197.93z"/>
		<path style="fill:#E85D43;" d="M310.45,201.43c4.39,4.85,8.45,9.96,12.45,15.1c0.08,0.53,0.06,1.1,0.41,1.73
			c3.6,6.41,6.28,12.89,7.65,19.82c-0.38-0.08-0.67,0.2-0.58,0.58c-2.45-8.65-5.43-17-10.92-24.42c-4.1-5.54-7.9-11.62-14.12-15.89
			l-0.02-0.43c1.67,1.47,3.65,2.38,5.14,3.5L310.45,201.43z"/>
		<path style="fill:#E85D43;" d="M221.38,304.43c2.96,2.19,5.92,5.51,9.31,7.11v0.58c-4.27-2.53-8.7-5.13-12.28-8.25
			c-5.24-4.56-8.92-10.59-13.46-15.75c-0.3-0.99-0.53-2.56-1.07-3.41h0.58c4.15,7.6,9.99,14.57,16.93,19.71L221.38,304.43z"/>
		<path style="fill:#4F46E5;" d="M230.68,312.13v-0.58c7.71,3.64,15.59,7.02,24.57,7.85c5.72,0.53,11.65,0.68,16.99,0.03
			c36.12-4.42,62.65-37.01,59.01-73.33c0.04,0.41-1.18-8.54-0.86-7.43c-0.08-0.38,0.2-0.67,0.58-0.58c0.41,2.08,0.29,4.09,0.98,6.03
			s-0.38,4.2,0.43,5.93c0.92,1.99-0.01,3.54-0.09,5.56c-0.7,18.4-8.77,35.32-22.75,47.82c-11.46,10.24-24.66,15.75-39.71,17.16
			c-13.73,1.28-27.67-1.68-39.12-8.45L230.68,312.13z"/>
		<path style="fill:#4F46E5;" d="M355.45,121.48h0.58c6.96,23.16,27.55,40.19,51.86,42.19c32.34,2.66,60.67-21.88,63.31-54.2
			c1.53-18.76-6.27-37.03-20.72-49.88c-0.07-0.14-0.08-0.28-0.04-0.42c11.71,10.28,20.26,23.27,21.3,39.37
			c0.27,4.17,0.62,8.98,0.06,13.39c-2.17,17.05-11.17,32.15-25.72,42.3c-20.06,14-47.1,13.99-67.3-0.17
			C367.76,146.33,357.47,132.94,355.45,121.48L355.45,121.48z"/>
		<path style="fill:#E85D43;" d="M450.44,59.16c-0.04,0.15-0.03,0.29,0.04,0.42c-8.86-6.57-18.32-11.63-29.44-12.94
			c-18.67-2.21-35.73,2.57-49.64,16.28c-15.58,15.35-21.59,37.89-15.38,58.57h-0.58c-1.13-1.76-1.52-4.11-1.8-6.42l-0.8-6.66
			c-0.36-3.01-0.04-5.58,0.18-8.47c0.92-12.27,5.47-23.24,13.32-32.89C387.7,40.8,426.17,37.87,450.44,59.16L450.44,59.16z"/>
		<path style="fill:#E85D43;" d="M103.87,261.12c-3.26,23.3-25.03,40.11-48.4,36.72C35.82,295,20.9,279.05,18.72,259.32
			c-1.34-12.14,2.83-24.62,11.04-33.72c8.29-9.19,18.48-13.43,29.83-14c1.17-0.06,2.11-0.63,3.52-0.04s3.54,0.22,5.24,0.51
			c23.18,3.98,38.82,25.41,35.51,49.05H103.87z M67.16,293.74c20.77-3.13,35.41-22.55,32.66-44.32c-2.65-21-22.02-35.71-42.31-33.66
			s-34.64,18.89-35.07,38.38c-0.52,23.58,20.24,43.3,44.72,39.61V293.74z"/>
		<path style="fill:#E85D43;" d="M305.33,198.36c6.22,4.27,10.01,10.34,14.12,15.89c-4.6,2.28-1.29,1.98-5.18,2.99
			c-3.11-5.03-7.72-8.65-11.94-12.4c-14.79-13.14-35.97-17.1-55.16-11.71c-35.8,10.06-54.54,50.55-39.23,83.43
			c4.09,8.79,9.36,17.22,17.4,23.68c1.28-2.05-5.87,5.64-3.97,4.19c-6.94-5.14-12.78-12.11-16.93-19.71
			c-8.44-15.45-10.4-33.49-5.7-50.35c8.8-31.52,38.59-52.62,71.17-49.65c13.6,1.24,24.17,5.94,35.41,13.64H305.33z"/>
		<path style="fill:#4F46E5;" d="M330.38,238.67c-0.31-1.11,0.91,7.84,0.86,7.43c3.65,36.32-22.88,68.91-59.01,73.33
			c-5.33,0.65-11.26,0.51-16.99-0.03c-8.98-0.84-16.86-4.21-24.57-7.85c-3.39-1.6-6.35-4.92-9.31-7.11
			c-1.9,1.45,5.25-6.24,3.97-4.19c4.3,3.45,9.57,6.06,14.66,8.39c8.78,4,18.41,5.34,28.61,4.68c25.13-1.63,47.08-19.44,54.19-43.76
			c3.07-10.5,3.06-21.22,0.57-31.47c-1.82-7.48-4.56-14.52-9.11-20.84c3.89-1.01,0.58-0.71,5.18-2.99
			c5.49,7.42,8.48,15.77,10.92,24.42L330.38,238.67z"/>
		<path style="fill:#4F46E5;" d="M450.48,59.58c14.45,12.86,22.25,31.13,20.72,49.88c-2.64,32.32-30.97,56.86-63.31,54.2
			c-24.31-2-44.91-19.02-51.86-42.19c-6.21-20.69-0.2-43.22,15.38-58.57c13.9-13.7,30.96-18.49,49.64-16.28
			c11.13,1.32,20.58,6.38,29.44,12.94L450.48,59.58z M361.28,117.4c1.42,8.77,6.29,16.89,12.66,23.65
			c9.11,9.67,21.02,15.5,33.94,16.77c27.53,2.69,53.76-19.45,56.67-42.76l0.76-6.13c0.41-3.33,0.19-6.27-0.15-9.57
			c-2.06-19.99-15.63-37.92-35.09-44.34c-5.13-1.69-10.27-3.43-16.12-3.07c-0.98,0.06-2.06-0.79-3.48-0.15
			c-1.57,0.71-3.94,0.24-5.71,0.5C373.97,56.85,353.46,87.37,361.28,117.4z"/>
		<path style="fill:#E85D43;" d="M67.16,293.74c-24.48,3.69-45.24-16.02-44.72-39.61c0.43-19.48,15.26-36.37,35.07-38.38
			s39.66,12.66,42.31,33.66c2.75,21.77-11.89,41.19-32.66,44.32V293.74z M99.26,251.67c-1.7-17.97-15.17-32.55-33.27-34.86
			c-21.5-2.74-40.83,13.57-42.5,35.33c-1.5,19.51,12.49,37.92,32.89,40.86C80.14,296.43,101.51,275.51,99.26,251.67z"/>
		<path style="fill:#E85D43;" d="M302.33,204.84c-0.15,0.01-0.29,0.01-0.44,0c-8.83-6.16-18.18-10.84-28.83-12.6
			c-2.57-0.42-5.29,0.14-7.7-0.48c-1.16-0.3-1.74-0.29-2.9,0c-2.21,0.54-4.75,0.19-6.91,0.5c-28.9,4.26-50.33,28.19-52,57.17
			c-0.57,9.93,1.37,18.34,4.98,27.13h-0.58c-15.31-32.88,3.43-73.38,39.23-83.43C266.37,187.74,287.56,191.7,302.33,204.84
			L302.33,204.84z"/>
		<path style="fill:#E85D43;" d="M217.18,289.89c5.98,7.48,13.73,14.4,22.83,18.15v0.58c-5.09-2.32-10.36-4.93-14.66-8.39
			c-8.05-6.46-13.31-14.89-17.4-23.68h0.58c2.07,5.04,5.32,9.16,8.65,13.33V289.89z"/>
		<path style="fill:#E85D43;" d="M314.27,217.24c4.55,6.33,7.29,13.37,9.11,20.84h-0.58c-3.32-10.06-7.58-20.72-16.29-28.06
			c-1.59-1.34-2.54-3.79-4.61-5.18c0.15,0,0.29,0,0.44,0c4.22,3.75,8.82,7.37,11.94,12.4H314.27z"/>
		<path style="fill:#4F46E5;" d="M240.01,308.63v-0.58c12.94,5.34,27.65,6.22,41.06,2.16c22.76-6.9,39.15-25.85,42.72-49.09
			c0.32-2.08-0.13-4.37,0.41-6.44c0.41-1.57,0.09-3-0.02-4.62l-0.44-5.94c-0.14-1.93-0.29-4.06-0.94-6.03h0.58
			c2.49,10.25,2.5,20.97-0.57,31.47c-7.12,24.32-29.06,42.13-54.19,43.76c-10.2,0.66-19.83-0.68-28.61-4.68V308.63z"/>
		<path style="fill:#E85D43;" d="M361.28,117.4h0.58c6.61,25.2,30.52,42.59,56.83,39.37c28.45-3.49,48.98-29.15,45.49-58.3
			c-2.33-19.47-15.55-36.3-34.1-42.87v-0.58c19.46,6.42,33.03,24.34,35.09,44.34c0.34,3.3,0.57,6.25,0.15,9.57l-0.76,6.13
			c-2.91,23.3-29.14,45.44-56.67,42.76c-12.92-1.26-24.83-7.1-33.94-16.77C367.58,134.29,362.71,126.17,361.28,117.4L361.28,117.4z"
			/>
		<path style="fill:#E85D43;" d="M430.07,55.02v0.58c-30.84-10.53-63.63,8.41-69.06,41.33c-0.76,4.59-0.53,15.22,0.85,20.47h-0.58
			c-7.82-30.03,12.68-60.55,43.48-65.1c1.77-0.26,4.14,0.21,5.71-0.5c1.43-0.64,2.5,0.21,3.48,0.15
			C419.8,51.59,424.95,53.33,430.07,55.02L430.07,55.02z"/>
		<path style="fill:#E85D43;" d="M99.26,251.67c2.25,23.84-19.12,44.76-42.88,41.33c-20.4-2.94-34.38-21.36-32.89-40.86
			c1.67-21.76,21-38.07,42.5-35.33C84.09,219.12,97.56,233.7,99.26,251.67z M80.51,282.95c13.4-9.65,18.28-26.39,11.93-41.41
			c-5.91-13.95-20.76-22.88-36.57-20.28c-14.39,2.37-25.12,13.83-27.61,27.27c-2.74,14.78,3.97,28.82,16.93,36.31
			c10.93,6.31,24.83,5.68,35.32-1.88V282.95z"/>
		<path style="fill:#E85D43;" d="M301.9,204.84c2.08,1.39,3.02,3.84,4.61,5.18c-2.74,0.75-1.8,1.85-4.7,3.52
			c-8.6-7.81-18.6-12.82-30.45-14.61c-17.56-2.65-35.56,3.92-47.45,17.12s-16.79,32.5-11.95,49.85c2.03,7.3,4.98,14.31,9.84,20.37
			c-0.63-0.62-0.67,0.52-1.08,0.76c-1.36,0.76-3.03,1.37-3.54,2.84c-3.33-4.17-6.58-8.29-8.65-13.33
			c-3.61-8.79-5.55-17.2-4.98-27.13c1.67-28.98,23.1-52.91,52-57.17c2.15-0.32,4.69,0.04,6.91-0.5c1.16-0.29,1.75-0.3,2.9,0
			c2.41,0.63,5.13,0.06,7.7,0.48c10.65,1.76,20,6.44,28.83,12.6L301.9,204.84z"/>
		<path style="fill:#4F46E5;" d="M306.51,210.03c8.71,7.33,12.96,17.99,16.29,28.06c0.65,1.97,0.8,4.11,0.94,6.03l0.44,5.94
			c0.12,1.61,0.44,3.05,0.02,4.62c-0.54,2.06-0.09,4.35-0.41,6.44c-3.57,23.24-19.97,42.19-42.72,49.09
			c-13.4,4.06-28.11,3.18-41.06-2.16c-9.11-3.76-16.86-10.67-22.83-18.15c0.52-1.48,2.19-2.09,3.54-2.84
			c0.41-0.23,0.45-1.38,1.08-0.76c4.46,5.57,10.46,9.37,16.35,12.92c13.9,8.38,31.32,9.07,46.73,2.62
			c25.75-10.77,39.12-39.56,30.22-66c-2.76-8.2-6.91-15.81-13.29-22.29C304.71,211.88,303.77,210.78,306.51,210.03L306.51,210.03z"
			/>
		<path style="fill:#4F46E5;" d="M430.07,55.6c18.55,6.57,31.77,23.4,34.1,42.87c3.49,29.15-17.04,54.81-45.49,58.3
			c-26.3,3.22-50.21-14.17-56.83-39.37c-1.38-5.25-1.61-15.88-0.85-20.47C366.43,64.02,399.22,45.07,430.07,55.6L430.07,55.6z
			 M366.45,109.18c1.17,16.33,11.56,30.25,26.24,37.42c15.84,7.73,34.86,5.95,49.1-5.75c16.96-13.93,21.85-37.27,12-56.66
			c-4.78-9.42-11.34-15.57-20.89-20.48c-14.86-7.63-32.86-6.97-47.38,3.39C372.6,76.32,364.45,92.77,366.45,109.18z"/>
		<path style="fill:#E85D43;" d="M80.51,282.95c-10.49,7.56-24.39,8.19-35.32,1.88c-12.97-7.49-19.67-21.53-16.93-36.31
			c2.49-13.43,13.22-24.9,27.61-27.27c15.81-2.6,30.67,6.33,36.57,20.28c6.36,15.02,1.47,31.76-11.93,41.41V282.95z M59.72,286.17
			c11.13,0.66,20.98-4.99,26.79-13.27c6.38-9.09,7.53-20.27,3.24-30.27c-3.95-9.22-11.91-15.62-20.61-17.85
			c-10.25-2.63-20.56-0.17-28.04,6.73c-9.63,8.88-13.13,22-8.49,34.54C36.6,276.83,47.01,285.41,59.72,286.17z"/>
		<path style="fill:#E85D43;" d="M271.36,198.94c0.3,3.9,4.65,1.26,3.71,3.58c-17.22-4.5-36.98,2.1-49,15.71
			c-11.15,12.63-16.49,30.94-11.72,47.74c-0.7-0.52-1.66-0.51-2.39-0.06c-4.84-17.35-0.24-36.31,11.95-49.85
			S253.8,196.29,271.36,198.94z"/>
		<path style="fill:#E85D43;" d="M301.81,213.54c6.38,6.48,10.53,14.09,13.29,22.29c-1.32,0.45-1.55,1.69-1.99,2.88
			c-5.09-18.02-19.57-32-38.04-36.19c0.94-2.32-3.41,0.32-3.71-3.58C283.21,200.73,293.21,205.74,301.81,213.54L301.81,213.54z"/>
		<path style="fill:#E85D43;" d="M214.34,265.97c3.72,13.08,13.55,25.22,25.56,31.56c-0.56,0.5-1.57,0.88-1.75,1.68
			c-5.89-3.55-11.89-7.34-16.35-12.92c-4.86-6.07-7.8-13.07-9.84-20.37C212.68,265.46,213.65,265.46,214.34,265.97L214.34,265.97z"
			/>
		<path style="fill:#4F46E5;" d="M238.15,299.21c0.18-0.8,1.19-1.18,1.75-1.68c20.49,10.81,45.74,6.09,61.51-10.81
			c12.23-13.11,16.46-31.17,11.7-48.01c0.44-1.19,0.67-2.43,1.99-2.88c8.9,26.44-4.47,55.23-30.22,66
			C269.47,308.27,252.05,307.59,238.15,299.21L238.15,299.21z"/>
		<path style="fill:#4F46E5;" d="M453.79,84.19c9.85,19.4,4.96,42.73-12,56.66c-14.24,11.69-33.26,13.48-49.1,5.75
			c0.02-0.69,0.45-0.77,0.94-0.02c0.85,0.03,1.14-1.13,1.93-1.33c14.78,6.12,31.73,3.56,44.1-6.46
			c15.67-12.7,20.58-33.73,12.48-52.24c-0.08-0.54-0.26-1.33,0.29-1.82C452.75,84.44,453.18,84.26,453.79,84.19L453.79,84.19z"/>
		<path style="fill:#E85D43;" d="M432.9,63.71c-0.8,0.36-1.34,1.3-1.21,2.17c-9.48-4.6-20.02-5.7-30.26-2.93
			c-26.28,7.1-39.51,35.82-28.43,59.69c-1.95,1.66-4.49-12.39-4.63-12.59c-0.4-0.56-0.91-1.25-1.91-0.88
			c-2-16.42,6.15-32.86,19.07-42.08c14.52-10.36,32.51-11.02,47.38-3.39L432.9,63.71z"/>
		<path style="fill:#E85D43;" d="M373,122.65c4.51,9.72,12.37,18.38,22.57,22.6c-0.8,0.2-1.09,1.36-1.93,1.33
			c-0.5-0.75-0.92-0.67-0.94,0.02c-14.68-7.17-25.07-21.09-26.24-37.42c1-0.37,1.51,0.32,1.91,0.88
			C368.51,110.26,371.05,124.31,373,122.65L373,122.65z"/>
		<path style="fill:#E85D43;" d="M453.79,84.19c-0.61,0.07-1.04,0.25-1.36,0.54c-0.55,0.5-0.37,1.29-0.29,1.82
			c-3.89-8.9-11.88-15.78-20.46-20.67c-0.13-0.87,0.41-1.82,1.21-2.17C442.45,68.62,449,74.77,453.79,84.19L453.79,84.19z"/>
		<path style="fill:#FFFFFF;" d="M59.72,286.17c-12.71-0.76-23.12-9.34-27.11-20.12c-4.64-12.54-1.14-25.66,8.49-34.54
			c7.49-6.9,17.79-9.36,28.04-6.73c8.7,2.23,16.65,8.63,20.61,17.85c4.29,10,3.13,21.18-3.24,30.27
			C80.7,281.18,70.85,286.83,59.72,286.17z"/>
		<path style="fill:#FFFFFF;" d="M275.07,202.52c18.47,4.19,32.95,18.17,38.04,36.19c4.76,16.84,0.53,34.89-11.7,48.01
			c-15.77,16.91-41.02,21.62-61.51,10.81c-12.01-6.34-21.84-18.48-25.56-31.56c-4.77-16.8,0.57-35.12,11.72-47.74
			c12.02-13.61,31.78-20.21,49-15.71L275.07,202.52z"/>
		<path style="fill:#FFFFFF;" d="M431.69,65.88c8.58,4.89,16.57,11.77,20.46,20.67c8.1,18.52,3.19,39.55-12.48,52.24
			c-12.37,10.02-29.32,12.57-44.1,6.46c-10.21-4.22-18.06-12.88-22.57-22.6c-11.09-23.87,2.15-52.59,28.43-59.69
			c10.24-2.77,20.78-1.67,30.26,2.93L431.69,65.88z"/>
	</g>
	<g>
		<path style="fill:#4F46E5;" d="M499.25,98.23c2.9,15.51,0.78,31.47-6.51,45.85c-3.72,7.33-8.36,13.76-13.34,20.34
			c-7.85,10.38-14.56,20.83-5.52,34.15c21.23,7.45,36.23,26.74,37.26,49.32c1.37,30.07-21.21,54.55-50.82,57.58
			c-10.48,1.07-18.62,9.82-21.64,19.23c-1.21,3.77-2.13,7.42-2.71,11.3c-1.7,11.37,3.92,21.45,12.85,27.92
			c13.51,9.79,21.35,25.6,21.66,41.81s-7.19,32.23-20.08,42.43c-23.04,18.23-56.34,14.04-73.9-8.95c-0.2-0.27-0.19-0.78-0.73-0.59
			l-1.02-1.74c-0.39-0.66-1.29-1.44-1.89-1.87c-1.87-4.02-5.26-7.34-8.97-10.14c-26.92-20.33-67.38-9.56-85.92,18.27
			c-0.87,0.27-1.38,1.23-1.85,1.92c-4.31,6.4-7.63,12.93-10.98,20.36c-11.32,25.06-34.64,42.02-61.34,45.8
			c-28.99,4.11-56.82-8.65-74.01-31.17c0.16-0.29-0.21-0.64-0.09-0.82c0.22-0.34,0.87-0.74,1.21-0.41
			c18.94,24.2,49.32,36.26,80.01,28.94c24.08-5.74,43.74-22.71,53.34-45.4c7.75-18.31,20.77-35.06,39.33-43.73
			c22.22-10.38,48.92-8.15,66.49,8.73c2.09,2.01,3.81,4.76,5.6,7.39c10.8,15.87,29.32,24.78,48.47,22.28
			c20.56-2.68,36.87-17.57,42.26-36.55c5.88-20.69-1.9-42.45-19.04-55.05c-8.13-5.97-12.96-13.75-13.91-24.44
			c-5.29,8.15-13.03,13.61-22.5,15.12c-13.96,2.22-26.14,9.55-34.51,21.21c-1.66,2.32-3.26,4.66-5.26,6.48
			c-15.37,13.98-34.52,17.26-54.78,10.8c-4.77,9.17-15.18,13.24-24.71,9.92c-8.97-3.13-15.15-12.39-13.36-22.89l-26.22-10.86
			c-8.55-3.54-16.69-7.32-25.68-10.47c-0.14-0.54,0.39-1,0.17-1.53c19.85,6.16,32.01,13.46,52.08,20.67
			c3.03-9.15,11.18-14.95,20.48-14.57c9.31,0.38,17.31,7.05,19.19,16.89c23-6.23,43.18-20.27,56.48-40.63
			c-6.63-4-9.42-11.68-6.86-18.53c2.59-6.9,9.49-11.28,17.71-9.86c2.76-13.46,1.79-27.47-2.49-40.83l-5.79-18.06
			c-2.31-7.2-4.09-13.95-4.94-21.38c-0.73,2-0.75,3.86-0.82,5.57c-0.66,0.16-0.52-0.53-0.51-1.12l0.21-7.01
			c4.51,4.27,0.04-10.49,3.24-8.78c-1.1,8.32-0.02,16.76,2.64,25.11l7.41,23.34c4.57,14.39,5.84,29.09,3.11,43.87
			c8.02,3.32,11.58,11.74,8.77,19.63s-11.41,12.11-19.78,8.83c-12.4,20.24-34.43,35.78-58.11,41.93c-0.13,3.12-0.37,5.68-1.28,8.81
			c6.77,2.07,13.05,3.34,19.91,3.08c14.14-0.55,28.09-6.8,36.49-18.5c9.18-12.8,21.92-20.89,37.65-23.41
			c10.04-1.61,18.74-8.88,21.95-18.3c1.7-4.99,2.98-9.66,3.56-14.62c1.24-10.56-4.11-20.25-12.6-26.36
			c-14.95-10.76-23.24-28.13-22.52-46.2c0.71-17.98,10.24-34.45,25.95-44.17c12.95-8.01,27.8-10.16,42.87-6.39
			c-6.82-14.44-1.07-24.27,7.74-35.48c15.82-19.63,23.11-39.19,19.35-64.1C498.2,98.38,498.73,98.15,499.25,98.23L499.25,98.23z
			 M439.46,317.51c4.84-7.79,12.52-13.35,21.67-14.37c13.61-1.52,25.57-7.66,34.67-17.91c19.9-22.41,17.18-56.74-6.49-75.69
			c-16.01-12.82-38-15.17-56.6-5.75c-17.05,8.63-28.86,26.43-28.88,46.61c-0.02,17.16,8.45,32.91,22.31,42.92
			C434.04,299.03,438.46,307.45,439.46,317.51z M378.82,315.94c-6.82,2.18-10.44,9.35-8.26,15.7c2.16,6.28,8.86,9.61,15.04,7.96
			c6.66-1.78,10.47-8.94,8.49-15.31S385.47,313.82,378.82,315.94z M297.59,402.76c10.1,0.49,17.72-7.47,18.09-16.89
			s-6.86-17.63-16.83-18.07c-9.8-0.43-17.57,7.58-17.84,16.92S287.73,402.28,297.59,402.76z"/>
		<path style="fill:#FFFFFF;" d="M372.86,435.02l-1.16-0.82c-1.67-1.18-3.97-1.31-5.79-2.5c-7.68-5.02-12.27-5.92-21.2-6.75
			c-2.03-0.19-10.67-3.22-9.15,0.86c-0.88-0.58-2.31-0.56-2.88,0.13c-1.84,2.22,3.41,2.61,2.96,8.61c-1.47-4.86-4.96-8.54-9.78-9.48
			c-5.48-1.07-10.53,1.64-13.08,5.74c-3.07,4.92-1.91,10.36,1.16,14.69c-0.72-0.29-1.92,0.4-2.65-0.15
			c-5.84-5.07-2.87-5.56-10.06-8.99c-3.36-1.6-6.45-1.74-9.82-0.55c-4.71,1.66-9.35,3.43-12.9,7.37c-0.25-0.02-0.45-0.06-0.53-0.05
			c18.54-27.83,59-38.6,85.92-18.27c3.71,2.8,7.1,6.12,8.97,10.14L372.86,435.02z"/>
		<path style="fill:#4F46E5;" d="M335.63,434.56c-0.13,1.74,0.17,3.51-0.08,5.25c-0.03,0.23-0.27,0.32-0.04,0.58
			c-0.48-0.11-0.39,0.3-0.47,0.59c-1.05,4.18-4.71,7.16-8.57,8.12c-4.48,1.12-8.41-0.25-11.81-2.85c0.23-0.59-0.34-0.59-0.72-0.74
			c-3.07-4.34-4.23-9.78-1.16-14.69c2.56-4.1,7.6-6.81,13.08-5.74C330.67,426.02,334.17,429.69,335.63,434.56L335.63,434.56z
			 M321.58,427.89c-5.43,0.95-8.72,6.09-7.52,11.44c1.07,4.76,5.88,8.05,10.82,7.17c5.37-0.96,8.62-5.61,7.77-11.05
			C331.88,430.51,327.1,426.93,321.58,427.89L321.58,427.89z"/>
		<path style="fill:#FFFFFF;" d="M335.54,439.8c0.26-1.74-0.05-3.51,0.08-5.25c0.47,0.68,1.42,1.58,1.23,2.65
			c-0.2,1.14,0.16,2.43-1.32,2.59L335.54,439.8z"/>
		<path style="fill:#FFFFFF;" d="M497.71,98.2c3.77,24.91-3.52,44.47-19.35,64.1c-8.81,11.22-14.56,21.04-7.74,35.48
			c-15.07-3.77-29.93-1.62-42.87,6.39c-15.72,9.72-25.24,26.19-25.95,44.17c-0.72,18.07,7.57,35.44,22.52,46.2
			c8.5,6.11,13.84,15.8,12.6,26.36c-0.58,4.96-1.86,9.63-3.56,14.62c-3.21,9.42-11.91,16.69-21.95,18.3
			c-15.73,2.52-28.46,10.61-37.65,23.41c-8.4,11.7-22.35,17.95-36.49,18.5c-6.86,0.27-13.14-1.01-19.91-3.08
			c0.91-3.14,1.15-5.69,1.28-8.81c23.67-6.16,45.71-21.69,58.11-41.93c8.37,3.29,17.06-1.19,19.78-8.83s-0.75-16.3-8.77-19.63
			c2.73-14.78,1.47-29.48-3.11-43.87l-7.41-23.34c-2.66-8.36-3.74-16.8-2.64-25.11c-0.16-0.97,0.81-1.25,1.84-1.24
			c5.28,0.09,9.5-3.68,10.27-8.59s-1.9-9.24-6.19-11.34c2.33-6.59,6.38-10.9,10.56-15.01c21.69,5.63,44.29,2.95,63.67-8.94
			c32.03-19.65,47.38-56.23,37.28-93.04c-0.17-0.63-0.35-1.11,0.31-1.13c2.05,5.17,4.51,10.79,5.35,16.36H497.71z"/>
		<path style="fill:#FFFFFF;" d="M226.45,360.32c8.98,3.16,17.13,6.93,25.68,10.47l26.22,10.86c-1.79,10.5,4.39,19.76,13.36,22.89
			c9.53,3.33,19.94-0.75,24.71-9.92c20.26,6.46,39.4,3.18,54.78-10.8c-6.27,13.95-6.45,29.29-1.12,43.56
			c-17.58-16.89-44.27-19.12-66.49-8.73c-18.56,8.67-31.58,25.42-39.33,43.73c-9.6,22.69-29.25,39.66-53.34,45.4
			c-30.69,7.31-61.07-4.74-80.01-28.94c-17.83-24.76-20.62-56.59-5.85-83.96c4.99-9.24,5.61-19.99,1.75-29.18
			c-0.62-1.47-1.26-2.52-1.63-4.93c3.49,2.62,7.03,2.9,10.43,3.86c7.44,2.09,15.66,1.17,23.41-2.32
			c14.82-6.66,30.39-9.36,46.61-6.81C212.83,356.63,219.9,358.03,226.45,360.32L226.45,360.32z M127.52,459.58
			c11.41,28,39.99,45.93,70.3,43.8c43.21-3.03,72.99-43.13,64.81-85.25c-4.08-21.04-17.05-37.34-34.81-47.68
			c-26.56-15.46-60.89-11.72-83.85,10.2c-21.16,20.2-27.94,52.15-16.45,78.94L127.52,459.58z"/>
		<path style="fill:#4F46E5;" d="M297.59,402.76c-9.86-0.48-16.85-8.81-16.58-18.04s8.04-17.35,17.84-16.92
			c9.96,0.44,17.19,8.63,16.83,18.07S307.69,403.25,297.59,402.76z"/>
		<path style="fill:#4F46E5;" d="M410.38,173.3c0.13,0.3,0.56,1.76,0.08,1.79c-1.2,0.08-2.02-0.08-2.05,0.73
			c-6.79,0.69-12.63,4.52-17.32,9.14c-4.18,4.11-8.23,8.43-10.56,15.01c4.29,2.11,6.92,6.67,6.19,11.34
			c-0.77,4.91-4.99,8.68-10.27,8.59c-1.03-0.02-2,0.27-1.84,1.24c-3.21-1.71,1.26,13.05-3.24,8.78l-0.21,7.01
			c-0.02,0.59-0.16,1.28,0.51,1.12l-1.1,26.23c-1.34,31.91-14.42,59.95-40.88,77.99c0.47,3.08,0.24,6.06-3,7.39
			c-2.01,0.82-5.03,0.56-6.86-2.09c-1.3-1.88-1.24-4.87,0.78-7c1.9-2.01,5.22-1.94,7.83,0.03c23.7-16.33,36.41-39.94,39.49-68.85
			c1.01-9.47,0.76-18.75,1.56-28.43l1.99-24.21c-3.54-3.22-7.01-7.66-4.86-13.04c1.92-4.8,6.66-6.93,11.62-7.04
			c3.13-4.74,5.76-10.62,9.82-14.66s8.58-6.52,13.53-9.09c-5.18-0.67-9.65-2.31-14.03-4.04c-0.05-0.78-0.85-1.05-1.86-1.61
			c0.59-0.42,1.31-0.42,1.79-0.93c7.35,2.38,15.09,4.42,22.89,4.61L410.38,173.3z M374.66,202.33c-4.41,1.02-6.66,5.43-5.46,9.55
			c1.1,3.78,5.07,6.11,9.21,5.1c3.83-0.93,6.26-5.12,5.33-9.21c-0.87-3.85-4.77-6.42-9.08-5.43V202.33z M322.93,342.15
			c-1.75,1.13-1.66,3.24-0.5,4.48c0.8,0.85,2.26,1.24,3.53,0.4c1.19-0.79,1.72-2.54,0.93-3.8c-0.68-1.1-2.37-2.1-3.97-1.07
			L322.93,342.15z"/>
		<path style="fill:#4F46E5;" d="M378.82,315.94c6.65-2.12,13.27,1.93,15.27,8.35s-1.83,13.53-8.49,15.31
			c-6.19,1.65-12.89-1.68-15.04-7.96C368.38,325.3,372.01,318.12,378.82,315.94z"/>
		<path style="fill:#E85D43;" d="M226.62,358.79c0.22,0.53-0.31,0.99-0.17,1.53c-6.55-2.3-13.62-3.7-20.82-4.83
			c-16.21-2.55-31.79,0.16-46.61,6.81c-7.75,3.48-15.97,4.4-23.41,2.32c-0.2-0.53,0.11-1.07,0.05-1.6
			c7.94,1.57,16.19,0.5,23.87-3.04c14.45-6.67,29.74-8.44,45.49-6.7c7.85,0.86,14.63,3.36,21.61,5.52L226.62,358.79z"/>
		<path style="fill:#4F46E5;" d="M321.58,427.89c5.53-0.96,10.3,2.62,11.07,7.56c0.85,5.43-2.4,10.08-7.77,11.05
			c-4.94,0.88-9.75-2.41-10.82-7.17C312.86,433.99,316.15,428.84,321.58,427.89L321.58,427.89z"/>
		<path style="fill:#4F46E5;" d="M374.66,202.33c4.3-1,8.2,1.58,9.08,5.43c0.93,4.1-1.5,8.28-5.33,9.21
			c-4.14,1.01-8.11-1.32-9.21-5.1c-1.2-4.12,1.05-8.53,5.46-9.55V202.33z"/>
		<path style="fill:#4F46E5;" d="M322.93,342.15c1.6-1.03,3.28-0.02,3.97,1.07c0.79,1.26,0.26,3.01-0.93,3.8
			c-1.28,0.85-2.73,0.46-3.53-0.4c-1.16-1.23-1.25-3.35,0.5-4.48L322.93,342.15z"/>
		<g>
			<path style="fill:#4F46E5;" d="M127.52,459.58c2.46,0.12,4.9-0.59,7.27-1.23c2.13,4.96,5.34,8.73,8.34,12.9
				c13.23,18.41,37.2,27.9,59.98,24.2c22.87-3.72,41.37-19.7,49.08-39.77c11.84-30.8-0.72-65.36-30.73-80.63
				c2.75-2.54,5.98-2.04,6.35-4.6c17.76,10.34,30.73,26.64,34.81,47.68c8.18,42.12-21.6,82.22-64.81,85.25
				c-30.31,2.12-58.89-15.8-70.3-43.8H127.52z"/>
			<path style="fill:#4F46E5;" d="M227.82,370.44c-0.37,2.56-3.6,2.06-6.35,4.6c-0.75-0.64-1.93-0.61-2.93-1.1
				c-14.86-7.26-32.49-7.49-48.48-1.3c-20.99,8.12-36.2,26.93-39.78,49.15c-2.01,12.48-0.51,24.87,4.51,36.56
				c-2.37,0.64-4.8,1.35-7.27,1.23c-11.49-26.79-4.72-58.74,16.45-78.94C166.93,358.73,201.26,354.98,227.82,370.44z"/>
			<path style="fill:#4F46E5;" d="M218.53,373.94c1.01,0.49,2.19,0.46,2.93,1.1c30,15.27,42.57,49.82,30.73,80.63
				c-7.71,20.07-26.21,36.05-49.08,39.77c-22.79,3.7-46.75-5.79-59.98-24.2c0.32-0.63,1.07-1.13,1.77-1.19
				c10.54,13.6,27.25,21.79,44.21,23.19c10.8,0.89,20.44-1.43,29.86-5.8c17.21-7.98,29.18-24.15,33.07-40.99
				c4.76-20.61-0.92-40.4-14.08-55.37c-6.35-7.22-14.23-11.68-22.38-15.89c0.55-0.95,1.93-1.18,2.95-1.26L218.53,373.94z"/>
			<path style="fill:#4F46E5;" d="M132.6,423.41c-2.23,16.18,2.21,33.61,12.31,46.64c-0.7,0.05-1.45,0.56-1.77,1.19
				c-3-4.17-6.21-7.94-8.34-12.9c-5.02-11.69-6.52-24.08-4.51-36.56c0.76,0.56,1.41,1.31,2.32,1.63H132.6z"/>
			<path style="fill:#4F46E5;" d="M218.53,373.94c-1.02,0.08-2.39,0.3-2.95,1.26c-18.1-6.29-37.52-5.65-54.91,5.35
				c-13.98,8.84-25.57,24.62-28.08,42.86c-0.91-0.32-1.56-1.07-2.32-1.63c3.57-22.21,18.78-41.02,39.78-49.15
				C186.04,366.44,203.67,366.68,218.53,373.94L218.53,373.94z"/>
			<path style="fill:#4F46E5;" d="M215.59,375.2c8.15,4.21,16.03,8.67,22.38,15.89c13.16,14.97,18.84,34.76,14.08,55.37
				c-3.89,16.85-15.86,33.01-33.07,40.99c-9.41,4.36-19.06,6.68-29.86,5.8c-16.96-1.39-33.66-9.59-44.21-23.19
				s-14.53-30.46-12.31-46.64c2.51-18.24,14.1-34.02,28.08-42.86C178.08,369.56,197.49,368.92,215.59,375.2L215.59,375.2z
				 M200.04,487.33c27.92-3.49,48.26-27.68,48.19-55.36c-0.09-32.59-28.7-58.76-61.6-54.88c-29.88,3.52-52.19,30.77-48.42,62.02
				S169.13,491.19,200.04,487.33L200.04,487.33z"/>
			<path style="fill:#4F46E5;" d="M200.04,487.33c-30.91,3.87-58.23-18.38-61.83-48.22s18.55-58.5,48.42-62.02
				c32.89-3.88,61.51,22.29,61.6,54.88C248.3,459.64,227.96,483.83,200.04,487.33L200.04,487.33z M247.25,434.26
				c0.49-1.48,0.44-2.6,0-4.07c-0.54-1.84-0.16-3.94-0.46-5.89c-2.65-16.64-12.27-31.6-27.65-39.91
				c-9.83-5.31-20.49-7.93-32.14-6.53c-29.72,3.55-51.26,30.37-48.19,59.88c3.08,29.61,29.66,51.92,59.37,48.99
				c25.37-2.5,44.42-21.62,48.68-46.54C247.2,438.2,246.66,436.08,247.25,434.26L247.25,434.26z"/>
			<path style="fill:#4F46E5;" d="M247.25,434.26c-0.61,1.81-0.06,3.94-0.4,5.93c-4.26,24.92-23.3,44.04-48.68,46.54
				c-29.71,2.93-56.29-19.38-59.37-48.99c-3.07-29.51,18.47-56.33,48.19-59.88c11.66-1.39,22.32,1.22,32.14,6.53
				c15.38,8.32,25.01,23.27,27.65,39.91c0.31,1.95-0.07,4.05,0.46,5.89C247.67,431.66,247.73,432.79,247.25,434.26L247.25,434.26z
				 M149.64,454.96c6.81,14.85,22.1,24.77,38.07,26.55c27.18,3.03,51.44-17.07,54.22-44.09c2.28-22.17-9.44-42.59-31.66-51.26
				c-18.52-7.23-40.07-2.61-53.95,13.01S139.77,437.01,149.64,454.96z"/>
			<path style="fill:#4F46E5;" d="M149.64,454.96h0.58c9.37,17.61,28.13,27.62,47.21,25.84c17.65-1.65,32.66-12.71,39.88-29.22
				c10.75-24.58-0.92-54.82-27.04-64.83v-0.58c22.22,8.67,33.94,29.09,31.66,51.26c-2.78,27.02-27.04,47.13-54.22,44.09
				c-15.97-1.78-31.26-11.7-38.07-26.55L149.64,454.96z"/>
			<path style="fill:#4F46E5;" d="M210.28,386.17v0.58c-2.03-1.02-4.28-1.24-6.74-2.1c-2.95-1.04-14.5-1.05-17.97-0.51
				c-22.78,3.55-39.16,22.35-40.95,44.81c-0.72,9.06,1.76,18.79,5.6,26.01h-0.58c-9.87-17.95-6.92-40.49,6.68-55.79
				s35.43-20.23,53.95-13.01L210.28,386.17z"/>
			<path style="fill:#4F46E5;" d="M210.28,386.75c26.13,10.02,37.8,40.25,27.04,64.83c-7.22,16.5-22.24,27.57-39.88,29.22
				c-19.08,1.78-37.84-8.23-47.21-25.84c-3.84-7.22-6.33-16.96-5.6-26.01c1.79-22.47,18.18-41.26,40.95-44.81
				c3.47-0.54,15.02-0.53,17.97,0.51c2.45,0.87,4.71,1.08,6.74,2.1L210.28,386.75z M163.64,463.63
				c6.77,7.47,17.46,11.78,27.88,12.14c21.8,0.75,39.4-14.59,43.63-34.86c4.98-23.86-10.47-47.17-34.82-51.31
				c-23.9-4.07-47.44,12.25-50.22,37.49c-1.49,13.54,3.13,28.1,13.53,36.55L163.64,463.63z"/>
			<path style="fill:#4F46E5;" d="M200.33,389.59c-0.17,0.43,0.21,1.49-0.5,1.61c-0.43,0.07-1.23-0.03-1.48,0.09
				c-0.2,0.09-0.56,0.05-0.36,0.52c-13.93-1.93-27.99,4.56-36.46,15.09c-9.42,11.71-11.3,27.27-5.73,40.9
				c2.59,6.33,6.67,11.21,11.24,15.78l-1.06-0.48c-0.73-0.33-1.26-0.82-1.74-0.3c-0.19,0.21-0.63,0.38-0.59,0.82
				c-10.4-8.44-15.02-23.01-13.53-36.55c2.78-25.24,26.32-41.55,50.22-37.49L200.33,389.59z"/>
			<path style="fill:#4F46E5;" d="M235.15,440.91c-4.23,20.28-21.84,35.61-43.63,34.86c-10.42-0.36-21.11-4.67-27.88-12.14
				c-0.04-0.45,0.4-0.61,0.59-0.82c0.48-0.52,1.02-0.03,1.74,0.3l1.06,0.48c11,4.93,21.63,11.29,34.2,8.44
				c15.02-3.41,28.04-15.37,31.26-30.85c0.26,0.14,1.01,0.83,1.36,0.69C234.24,441.71,234.3,440.41,235.15,440.91L235.15,440.91z"/>
			<path style="fill:#4F46E5;" d="M235.15,440.91c-0.84-0.51-0.91,0.8-1.3,0.96c-0.35,0.14-1.09-0.55-1.36-0.69
				c4.91-23.57-10.74-46.07-34.5-49.36c-0.2-0.47,0.16-0.43,0.36-0.52c0.26-0.12,1.05-0.02,1.48-0.09c0.71-0.12,0.33-1.17,0.5-1.61
				C224.68,393.74,240.13,417.05,235.15,440.91L235.15,440.91z"/>
		</g>
		<g>
			<path style="fill:#4F46E5;" d="M439.46,317.51c-1-10.06-5.42-18.48-13.32-24.19c-13.85-10.01-22.32-25.76-22.31-42.92
				c0.02-20.18,11.82-37.98,28.88-46.61c18.6-9.42,40.6-7.07,56.6,5.75c23.67,18.95,26.38,53.28,6.49,75.69
				c-9.1,10.25-21.06,16.38-34.67,17.91C451.98,304.16,444.31,309.73,439.46,317.51z M434.43,288.81c23.46,13.67,52.81,3,62.91-21.3
				c10.12-24.36-3.26-52.12-28.56-59.37c-25.43-7.28-51.5,9.03-55.96,35.48C409.82,261.39,418.42,279.48,434.43,288.81z"/>
			<path style="fill:#4F46E5;" d="M370.08,427.38c-5.34-14.27-5.16-29.61,1.12-43.56c2-1.82,3.6-4.16,5.26-6.48
				c8.37-11.66,20.54-18.99,34.51-21.21c9.46-1.5,17.21-6.96,22.5-15.12c0.96,10.69,5.79,18.46,13.91,24.44
				c17.14,12.59,24.92,34.36,19.04,55.05c-5.39,18.97-21.71,33.86-42.26,36.55c-19.16,2.5-37.68-6.41-48.47-22.28
				c-1.79-2.63-3.51-5.38-5.6-7.39L370.08,427.38z M450.63,433.85c15.39-18.94,12.2-45.76-6.48-60.72
				c-14.33-11.47-34.47-12.29-49.83-2.22c-14.77,9.68-22.19,27.8-18.06,45.58c3.62,15.59,15.94,27.86,30.52,31.57
				c16.44,4.18,33.11-0.98,43.86-14.21H450.63z"/>
			<path style="fill:#4F46E5;" d="M434.43,288.81c-16.01-9.33-24.61-27.42-21.61-45.19c4.47-26.45,30.54-42.76,55.96-35.48
				c25.3,7.25,38.68,35.01,28.56,59.37C487.24,291.81,457.89,302.48,434.43,288.81z M482.18,282.93
				c14.94-12.11,19.84-31.95,11.97-49.4c-7.42-16.45-25.01-26.7-44.13-23.77c-16.67,2.55-31,15.69-34.27,33.68
				c-3.06,16.82,5.04,33.65,19.17,42.32C449.61,294.77,468.53,293.99,482.18,282.93L482.18,282.93z"/>
			<path style="fill:#4F46E5;" d="M450.63,433.85c-10.75,13.23-27.42,18.39-43.86,14.21c-14.58-3.71-26.9-15.98-30.52-31.57
				c-4.13-17.78,3.29-35.9,18.06-45.58c15.37-10.07,35.51-9.26,49.83,2.22C462.82,388.09,466.01,414.91,450.63,433.85L450.63,433.85
				z M457.36,404.48c-0.79-16.73-12.09-30.64-26.8-35.59c-16.52-5.56-34.15-0.02-44.39,13.59c-7.99,10.62-10.43,23.72-5.94,37.23
				c3.36,10.12,11.64,19.71,23.18,24.23c12.89,5.05,27.19,3.06,38.27-5.4C451.92,430.71,458.03,418.49,457.36,404.48L457.36,404.48z
				"/>
			<path style="fill:#4F46E5;" d="M482.18,282.93c-13.65,11.06-32.57,11.84-47.26,2.83c-14.13-8.67-22.23-25.5-19.17-42.32
				c3.27-17.99,17.6-31.13,34.27-33.68c19.12-2.93,36.71,7.32,44.13,23.77C502.02,250.98,497.12,270.82,482.18,282.93L482.18,282.93
				z M453.63,288.21c15.41,1.16,28.65-6.55,35.99-19.65c9.43-16.83,4.11-38.2-12.01-49.15c-18.08-12.28-42.43-6.61-53.82,12.38
				c-3.98,6.64-5.42,13.97-4.78,22.07C420.44,272,435.13,286.82,453.63,288.21L453.63,288.21z"/>
			<path style="fill:#4F46E5;" d="M457.36,404.48c0.66,14.01-5.45,26.23-15.69,34.06c-11.08,8.46-25.37,10.45-38.27,5.4
				c-11.54-4.52-19.82-14.11-23.18-24.23c-4.49-13.51-2.05-26.62,5.94-37.23c10.24-13.61,27.87-19.15,44.39-13.59
				c14.71,4.95,26.01,18.86,26.8,35.59L457.36,404.48z M397.21,436.95c17.09,11.8,40.23,6.87,51.49-10.94
				c4.29-6.79,5.8-14.18,5.27-22.38c-1.11-17.26-14.93-31.32-32.02-33.36c-19.67-2.35-37.87,11.95-40.4,31.59
				C379.79,415.52,385.5,428.86,397.21,436.95z"/>
			<path style="fill:#4F46E5;" d="M453.63,288.21c-18.5-1.39-33.19-16.21-34.62-34.35c-0.64-8.1,0.81-15.43,4.78-22.07
				c11.39-19,35.73-24.66,53.82-12.38c16.13,10.95,21.44,32.32,12.01,49.15C482.28,281.66,469.04,289.37,453.63,288.21
				L453.63,288.21z M493.25,246.84c-2.39-20.94-21.15-35.57-41.61-32.79c-16.9,2.3-29.88,15.41-31.81,32.51
				c-1.59,14.07,5.14,28.37,17.72,35.74c7.18,4.21,15.22,6.09,23.1,5.09C481.03,284.79,495.5,266.6,493.25,246.84L493.25,246.84z"/>
			<path style="fill:#4F46E5;" d="M397.21,436.95c-11.71-8.08-17.42-21.42-15.66-35.09c2.53-19.64,20.73-33.94,40.4-31.59
				c17.09,2.04,30.91,16.1,32.02,33.36c0.53,8.21-0.98,15.6-5.27,22.38C437.44,443.82,414.3,448.74,397.21,436.95z M420.53,442.51
				c17.24-1.73,30.9-14.76,32.61-32.06c0.26-2.64,0.35-5.1,0.03-7.77c-2.31-19.53-19.57-34.01-39.91-31.45
				c-15.93,2-28.24,13.96-30.7,29.82c-3.26,20.99,11.61,39.59,32.5,41.44c1.96,0.17,3.6,0.22,5.47,0.03V442.51z"/>
			<path style="fill:#4F46E5;" d="M493.25,246.84c2.25,19.76-12.22,37.95-32.6,40.55c-7.89,1.01-15.93-0.88-23.1-5.09
				c-12.57-7.38-19.31-21.67-17.72-35.74c1.93-17.09,14.91-30.2,31.81-32.51C472.09,211.26,490.86,225.89,493.25,246.84z
				 M489.25,256.4c0.64-3.59,0.61-7.96,0-11.63c-2.71-16.54-18.49-28.71-34.93-27.42c-6.99,0.55-13.35,2.76-18.85,7.47
				c-7.06,6.04-11.31,13.71-12.18,22.82c-1.73,18.09,11.59,34.33,29.75,36.28S486.16,273.87,489.25,256.4z"/>
			<path style="fill:#4F46E5;" d="M420.53,442.51c-1.88,0.19-3.52,0.14-5.47-0.03c-20.89-1.84-35.75-20.45-32.5-41.44
				c2.46-15.85,14.77-27.81,30.7-29.82c20.34-2.56,37.6,11.92,39.91,31.45c0.32,2.68,0.23,5.13-0.03,7.77
				c-1.72,17.3-15.38,30.32-32.61,32.06L420.53,442.51z M424.83,438.52c16.47-3.62,27.7-20.01,24.79-37.48
				c-2.86-17.14-18.9-28.77-35.91-26.68c-17.4,2.14-30.14,18.16-28.29,35.49C387.45,428.83,405.12,442.86,424.83,438.52
				L424.83,438.52z"/>
			<path style="fill:#4F46E5;" d="M489.25,256.4c-3.09,17.47-18.87,29.39-36.21,27.52s-31.48-18.2-29.75-36.28
				c0.87-9.11,5.13-16.78,12.18-22.82c5.5-4.71,11.86-6.93,18.85-7.47c16.44-1.28,32.22,10.89,34.93,27.42
				C489.85,248.45,489.88,252.81,489.25,256.4L489.25,256.4z M462.36,282.66c16.65-3.08,27.61-17.71,26.55-34.29
				c-1.01-15.94-13.82-29.14-30.26-30.15c-7.49-0.46-13.71,1.29-20.03,5.24c-11.18,6.98-16.17,20.64-14.08,33.02
				C427.56,274.35,444.68,285.93,462.36,282.66z"/>
			<path style="fill:#4F46E5;" d="M424.83,438.52c-19.72,4.34-37.38-9.69-39.42-28.67c-1.86-17.33,10.89-33.35,28.29-35.49
				c17.01-2.09,33.06,9.53,35.91,26.68c2.91,17.47-8.32,33.86-24.79,37.48H424.83z M449.32,405.72
				c-0.46-15.78-12.42-29.17-28.64-30.6c-16.5-1.46-31.34,9.61-34.05,25.92c-3.03,18.24,8.84,34.37,26.47,37.14
				c18.9,2.97,36.79-12.35,36.21-32.46H449.32z"/>
			<path style="fill:#4F46E5;" d="M462.36,282.66c-17.68,3.27-34.79-8.31-37.82-26.18c-2.09-12.37,2.9-26.04,14.08-33.02
				c6.32-3.95,12.54-5.7,20.03-5.24c16.44,1.01,29.24,14.21,30.26,30.15C489.96,264.95,479,279.58,462.36,282.66z M468.09,277.07
				c12.36-5.64,18.86-18.2,16.8-31.04c-2-12.46-12.2-22.38-24.81-23.92c-12.58-1.54-24.77,5.26-30.04,17.2
				c-4.89,11.09-2.14,23.63,6.25,31.94c8.21,8.14,20.69,10.88,31.79,5.81L468.09,277.07z"/>
			<path style="fill:#4F46E5;" d="M449.32,405.72c0.58,20.12-17.32,35.43-36.21,32.46c-17.63-2.77-29.5-18.9-26.47-37.14
				c2.71-16.31,17.55-27.37,34.05-25.92c16.21,1.43,28.18,14.82,28.64,30.6L449.32,405.72z M443.46,395.2
				c-4.92-11.35-16.16-17.45-27.67-16.73c-11.36,0.71-21.48,8.71-24.88,19.17c-3.76,11.56-0.14,23.67,9.26,31.25
				c10.25,8.27,24.53,8.12,34.76,0.27C444.99,421.45,448.89,407.72,443.46,395.2z"/>
			<path style="fill:#4F46E5;" d="M468.09,277.07c-11.11,5.07-23.59,2.33-31.79-5.81c-8.39-8.32-11.14-20.86-6.25-31.94
				c5.27-11.94,17.46-18.74,30.04-17.2c12.61,1.54,22.82,11.47,24.81,23.92c2.06,12.83-4.45,25.39-16.8,31.04L468.09,277.07z
				 M450.77,276.05c15.53,3.51,29.64-7.49,31.42-22.41s-9.32-28.25-24.74-28.87c-13.56-0.54-24.83,9.49-26.56,22.45
				c-1.73,12.96,6.29,25.76,19.89,28.83H450.77z"/>
			<path style="fill:#4F46E5;" d="M443.46,395.2c5.43,12.52,1.53,26.25-8.53,33.96c-10.23,7.85-24.51,7.99-34.76-0.27
				c-9.4-7.58-13.02-19.69-9.26-31.25c3.4-10.46,13.52-18.46,24.88-19.17C427.3,377.75,438.54,383.85,443.46,395.2z M410.57,431.09
				c14.39,4.29,28.53-4.8,31.73-18.39s-5.3-28.17-19.81-30.93c-13.61-2.59-26.38,6.08-29.4,19.23S397.15,427.09,410.57,431.09
				L410.57,431.09z"/>
			<path style="fill:#FFFFFF;" d="M450.77,276.05c-13.6-3.07-21.63-15.8-19.89-28.83s13-22.98,26.56-22.45
				c15.43,0.61,26.5,14.13,24.74,28.87s-15.89,25.92-31.42,22.41H450.77z"/>
			<path style="fill:#FFFFFF;" d="M410.57,431.09c-13.42-4-20.39-17.45-17.48-30.09s15.79-21.81,29.4-19.23
				c14.51,2.76,23.11,16.91,19.81,30.93S424.96,435.38,410.57,431.09L410.57,431.09z"/>
		</g>
		<path style="fill:#FFFFFF;" d="M197.99,391.81c23.77,3.29,39.41,25.78,34.5,49.36c-3.22,15.48-16.24,27.45-31.26,30.85
			c-12.56,2.85-23.2-3.51-34.2-8.44c-4.56-4.56-8.65-9.45-11.24-15.78c-5.57-13.63-3.69-29.19,5.73-40.9
			C169.99,396.37,184.05,389.89,197.99,391.81L197.99,391.81z"/>
	</g>
</g>
</svg>
