<?xml version="1.0" encoding="iso-8859-1"?>
<!-- Generator: Adobe Illustrator 30.2.1, SVG Export Plug-In . SVG Version: 9.03 Build 0)  -->
<svg version="1.1" id="Header_x5F_White" xmlns="http://www.w3.org/2000/svg" xmlns:xlink="http://www.w3.org/1999/xlink" x="0px"
	 y="0px" viewBox="0 0 400 100" style="enable-background:new 0 0 400 100;" xml:space="preserve">
<rect style="fill:#111827;" width="400" height="100"/>
<polyline style="fill:none;stroke:#E75D44;stroke-width:5.1552;stroke-linecap:round;stroke-linejoin:round;stroke-miterlimit:10;" points="
	50,83.12 47.12,82.9 44.28,82.43 41.5,81.72 38.8,80.77 "/>
<polyline style="fill:none;stroke:#E55D46;stroke-width:5.0976;stroke-linecap:round;stroke-linejoin:round;stroke-miterlimit:10;" points="
	38.8,80.77 36.2,79.59 33.72,78.2 31.38,76.6 29.19,74.8 "/>
<polyline style="fill:none;stroke:#E35C48;stroke-width:5.04;stroke-linecap:round;stroke-linejoin:round;stroke-miterlimit:10;" points="
	29.19,74.8 27.17,72.83 25.34,70.69 23.71,68.41 22.29,66 "/>
<polyline style="fill:none;stroke:#E15C4A;stroke-width:4.9824;stroke-linecap:round;stroke-linejoin:round;stroke-miterlimit:10;" points="
	22.29,66 21.08,63.48 20.11,60.88 19.36,58.21 18.85,55.49 "/>
<polyline style="fill:none;stroke:#DF5C4C;stroke-width:4.9248;stroke-linecap:round;stroke-linejoin:round;stroke-miterlimit:10;" points="
	18.85,55.49 18.59,52.75 18.56,50 18.77,47.27 19.22,44.57 "/>
<polyline style="fill:none;stroke:#DD5B4E;stroke-width:4.8672;stroke-linecap:round;stroke-linejoin:round;stroke-miterlimit:10;" points="
	19.22,44.57 19.9,41.94 20.81,39.37 21.93,36.91 23.26,34.56 "/>
<polyline style="fill:none;stroke:#DC5B50;stroke-width:4.8096;stroke-linecap:round;stroke-linejoin:round;stroke-miterlimit:10;" points="
	23.26,34.56 24.78,32.34 26.49,30.27 28.36,28.36 30.39,26.63 "/>
<polyline style="fill:none;stroke:#DA5B52;stroke-width:4.752;stroke-linecap:round;stroke-linejoin:round;stroke-miterlimit:10;" points="
	30.39,26.63 32.56,25.09 34.84,23.74 37.23,22.61 39.69,21.68 "/>
<polyline style="fill:none;stroke:#D85B54;stroke-width:4.6944;stroke-linecap:round;stroke-linejoin:round;stroke-miterlimit:10;" points="
	39.69,21.68 42.23,20.98 44.8,20.51 47.4,20.26 50,20.24 "/>
<polyline style="fill:none;stroke:#D65A56;stroke-width:4.6368;stroke-linecap:round;stroke-linejoin:round;stroke-miterlimit:10;" points="
	50,20.24 52.59,20.45 55.14,20.88 57.63,21.52 60.05,22.39 62.38,23.45 "/>
<polyline style="fill:none;stroke:#D45A58;stroke-width:4.5792;stroke-linecap:round;stroke-linejoin:round;stroke-miterlimit:10;" points="
	62.38,23.45 64.6,24.71 66.69,26.16 68.65,27.77 70.45,29.55 "/>
<polyline style="fill:none;stroke:#D25A5A;stroke-width:4.5216;stroke-linecap:round;stroke-linejoin:round;stroke-miterlimit:10;" points="
	70.45,29.55 72.08,31.47 73.54,33.52 74.8,35.68 75.87,37.94 "/>
<polyline style="fill:none;stroke:#D0595C;stroke-width:4.464;stroke-linecap:round;stroke-linejoin:round;stroke-miterlimit:10;" points="
	75.87,37.94 76.74,40.27 77.39,42.66 77.84,45.09 78.07,47.54 "/>
<polyline style="fill:none;stroke:#CE595E;stroke-width:4.4064;stroke-linecap:round;stroke-linejoin:round;stroke-miterlimit:10;" points="
	78.07,47.54 78.08,50 77.88,52.44 77.47,54.84 76.85,57.2 "/>
<polyline style="fill:none;stroke:#CC5960;stroke-width:4.3488;stroke-linecap:round;stroke-linejoin:round;stroke-miterlimit:10;" points="
	76.85,57.2 76.04,59.48 75.03,61.67 73.83,63.76 72.47,65.73 "/>
<polyline style="fill:none;stroke:#CA5962;stroke-width:4.2912;stroke-linecap:round;stroke-linejoin:round;stroke-miterlimit:10;" points="
	72.47,65.73 70.94,67.57 69.26,69.26 67.45,70.8 65.52,72.16 "/>
<polyline style="fill:none;stroke:#C85864;stroke-width:4.2336;stroke-linecap:round;stroke-linejoin:round;stroke-miterlimit:10;" points="
	65.52,72.16 63.48,73.35 61.35,74.35 59.16,75.16 56.91,75.77 "/>
<polyline style="fill:none;stroke:#C75866;stroke-width:4.176;stroke-linecap:round;stroke-linejoin:round;stroke-miterlimit:10;" points="
	56.91,75.77 54.62,76.18 52.31,76.39 50,76.4 47.71,76.21 "/>
<polyline style="fill:none;stroke:#C55868;stroke-width:4.1184;stroke-linecap:round;stroke-linejoin:round;stroke-miterlimit:10;" points="
	47.71,76.21 45.45,75.82 43.24,75.23 41.1,74.46 39.04,73.5 "/>
<polyline style="fill:none;stroke:#C3576A;stroke-width:4.0608;stroke-linecap:round;stroke-linejoin:round;stroke-miterlimit:10;" points="
	39.04,73.5 37.08,72.38 35.23,71.09 33.51,69.65 31.93,68.07 "/>
<polyline style="fill:none;stroke:#C1576D;stroke-width:4.0032;stroke-linecap:round;stroke-linejoin:round;stroke-miterlimit:10;" points="
	31.93,68.07 30.49,66.37 29.22,64.55 28.11,62.64 27.17,60.64 "/>
<polyline style="fill:none;stroke:#BF576F;stroke-width:3.9456;stroke-linecap:round;stroke-linejoin:round;stroke-miterlimit:10;" points="
	27.17,60.64 26.42,58.58 25.85,56.47 25.47,54.32 25.28,52.16 "/>
<polyline style="fill:none;stroke:#BD5771;stroke-width:3.888;stroke-linecap:round;stroke-linejoin:round;stroke-miterlimit:10;" points="
	25.28,52.16 25.28,50 25.47,47.85 25.84,45.74 26.39,43.67 "/>
<polyline style="fill:none;stroke:#BB5673;stroke-width:3.8304;stroke-linecap:round;stroke-linejoin:round;stroke-miterlimit:10;" points="
	26.39,43.67 27.12,41.67 28.02,39.75 29.08,37.92 30.29,36.2 "/>
<polyline style="fill:none;stroke:#B95675;stroke-width:3.7728;stroke-linecap:round;stroke-linejoin:round;stroke-miterlimit:10;" points="
	30.29,36.2 31.64,34.59 33.11,33.11 34.71,31.78 36.41,30.59 "/>
<polyline style="fill:none;stroke:#B75677;stroke-width:3.7152;stroke-linecap:round;stroke-linejoin:round;stroke-miterlimit:10;" points="
	36.41,30.59 38.2,29.56 40.07,28.7 41.99,28 43.96,27.47 "/>
<polyline style="fill:none;stroke:#B55579;stroke-width:3.6576;stroke-linecap:round;stroke-linejoin:round;stroke-miterlimit:10;" points="
	43.96,27.47 45.97,27.13 47.98,26.95 50,26.96 52,27.14 "/>
<polyline style="fill:none;stroke:#B3557B;stroke-width:3.6;stroke-linecap:round;stroke-linejoin:round;stroke-miterlimit:10;" points="
	52,27.14 53.97,27.49 55.89,28.02 57.75,28.7 59.54,29.54 "/>
<polyline style="fill:none;stroke:#B1557D;stroke-width:3.5424;stroke-linecap:round;stroke-linejoin:round;stroke-miterlimit:10;" points="
	59.54,29.54 61.24,30.53 62.84,31.66 64.33,32.92 65.7,34.3 "/>
<polyline style="fill:none;stroke:#B0557F;stroke-width:3.4848;stroke-linecap:round;stroke-linejoin:round;stroke-miterlimit:10;" points="
	65.7,34.3 66.93,35.79 68.03,37.37 68.98,39.04 69.78,40.78 70.42,42.57 "/>
<polyline style="fill:none;stroke:#AE5481;stroke-width:3.4272;stroke-linecap:round;stroke-linejoin:round;stroke-miterlimit:10;" points="
	70.42,42.57 70.9,44.4 71.22,46.26 71.37,48.13 71.36,50 "/>
<polyline style="fill:none;stroke:#AC5483;stroke-width:3.3696;stroke-linecap:round;stroke-linejoin:round;stroke-miterlimit:10;" points="
	71.36,50 71.19,51.85 70.85,53.68 70.36,55.46 69.72,57.18 "/>
<polyline style="fill:none;stroke:#AA5485;stroke-width:3.312;stroke-linecap:round;stroke-linejoin:round;stroke-miterlimit:10;" points="
	69.72,57.18 68.94,58.83 68.01,60.4 66.96,61.88 65.79,63.25 "/>
<polyline style="fill:none;stroke:#A85387;stroke-width:3.2544;stroke-linecap:round;stroke-linejoin:round;stroke-miterlimit:10;" points="
	65.79,63.25 64.51,64.51 63.13,65.65 61.66,66.66 60.12,67.53 "/>
<polyline style="fill:none;stroke:#A65389;stroke-width:3.1968;stroke-linecap:round;stroke-linejoin:round;stroke-miterlimit:10;" points="
	60.12,67.53 58.51,68.26 56.86,68.84 55.17,69.28 53.45,69.56 "/>
<polyline style="fill:none;stroke:#A4538B;stroke-width:3.1392;stroke-linecap:round;stroke-linejoin:round;stroke-miterlimit:10;" points="
	53.45,69.56 51.72,69.7 50,69.68 48.29,69.51 46.62,69.2 "/>
<polyline style="fill:none;stroke:#A2538D;stroke-width:3.0816;stroke-linecap:round;stroke-linejoin:round;stroke-miterlimit:10;" points="
	46.62,69.2 44.98,68.74 43.4,68.14 41.88,67.41 40.44,66.56 "/>
<polyline style="fill:none;stroke:#A0528F;stroke-width:3.024;stroke-linecap:round;stroke-linejoin:round;stroke-miterlimit:10;" points="
	40.44,66.56 39.09,65.59 37.83,64.5 36.68,63.32 35.64,62.05 "/>
<polyline style="fill:none;stroke:#9E5291;stroke-width:2.9664;stroke-linecap:round;stroke-linejoin:round;stroke-miterlimit:10;" points="
	35.64,62.05 34.72,60.7 33.93,59.28 33.26,57.8 32.73,56.28 "/>
<polyline style="fill:none;stroke:#9C5293;stroke-width:2.9088;stroke-linecap:round;stroke-linejoin:round;stroke-miterlimit:10;" points="
	32.73,56.28 32.34,54.73 32.09,53.16 31.98,51.58 32,50 "/>
<polyline style="fill:none;stroke:#9B5195;stroke-width:2.8512;stroke-linecap:round;stroke-linejoin:round;stroke-miterlimit:10;" points="
	32,50 32.16,48.44 32.46,46.91 32.88,45.41 33.44,43.97 "/>
<polyline style="fill:none;stroke:#995197;stroke-width:2.7936;stroke-linecap:round;stroke-linejoin:round;stroke-miterlimit:10;" points="
	33.44,43.97 34.11,42.59 34.9,41.28 35.79,40.05 36.78,38.91 "/>
<polyline style="fill:none;stroke:#975199;stroke-width:2.736;stroke-linecap:round;stroke-linejoin:round;stroke-miterlimit:10;" points="
	36.78,38.91 37.87,37.87 39.03,36.93 40.26,36.1 41.56,35.38 "/>
<polyline style="fill:none;stroke:#95509B;stroke-width:2.6784;stroke-linecap:round;stroke-linejoin:round;stroke-miterlimit:10;" points="
	41.56,35.38 42.91,34.79 44.29,34.31 45.7,33.97 47.13,33.74 "/>
<polyline style="fill:none;stroke:#93509D;stroke-width:2.6208;stroke-linecap:round;stroke-linejoin:round;stroke-miterlimit:10;" points="
	47.13,33.74 48.57,33.65 50,33.68 51.41,33.84 52.8,34.11 "/>
<polyline style="fill:none;stroke:#91509F;stroke-width:2.5632;stroke-linecap:round;stroke-linejoin:round;stroke-miterlimit:10;" points="
	52.8,34.11 54.15,34.51 55.45,35.02 56.7,35.63 57.88,36.35 "/>
<polyline style="fill:none;stroke:#8F50A1;stroke-width:2.5056;stroke-linecap:round;stroke-linejoin:round;stroke-miterlimit:10;" points="
	57.88,36.35 58.99,37.17 60.01,38.07 60.95,39.05 61.79,40.11 "/>
<polyline style="fill:none;stroke:#8D4FA3;stroke-width:2.448;stroke-linecap:round;stroke-linejoin:round;stroke-miterlimit:10;" points="
	61.79,40.11 62.53,41.23 63.16,42.4 63.69,43.62 64.11,44.87 "/>
<polyline style="fill:none;stroke:#8B4FA5;stroke-width:2.3904;stroke-linecap:round;stroke-linejoin:round;stroke-miterlimit:10;" points="
	64.11,44.87 64.41,46.14 64.6,47.43 64.68,48.72 64.64,50 "/>
<polyline style="fill:none;stroke:#894FA7;stroke-width:2.3328;stroke-linecap:round;stroke-linejoin:round;stroke-miterlimit:10;" points="
	64.64,50 64.49,51.27 64.23,52.51 63.87,53.72 63.41,54.88 62.85,55.99 "/>
<polyline style="fill:none;stroke:#874EA9;stroke-width:2.2752;stroke-linecap:round;stroke-linejoin:round;stroke-miterlimit:10;" points="
	62.85,55.99 62.19,57.04 61.46,58.02 60.64,58.93 59.76,59.76 "/>
<polyline style="fill:none;stroke:#864EAB;stroke-width:2.2176;stroke-linecap:round;stroke-linejoin:round;stroke-miterlimit:10;" points="
	59.76,59.76 58.81,60.5 57.81,61.15 56.76,61.71 55.67,62.17 "/>
<polyline style="fill:none;stroke:#844EAD;stroke-width:2.16;stroke-linecap:round;stroke-linejoin:round;stroke-miterlimit:10;" points="
	55.67,62.17 54.56,62.53 53.43,62.79 52.28,62.95 51.14,63 "/>
<polyline style="fill:none;stroke:#824EAF;stroke-width:2.1024;stroke-linecap:round;stroke-linejoin:round;stroke-miterlimit:10;" points="
	51.14,63 50,62.96 48.88,62.82 47.78,62.58 46.72,62.25 "/>
<polyline style="fill:none;stroke:#804DB1;stroke-width:2.0448;stroke-linecap:round;stroke-linejoin:round;stroke-miterlimit:10;" points="
	46.72,62.25 45.7,61.83 44.72,61.32 43.8,60.74 42.94,60.08 "/>
<polyline style="fill:none;stroke:#7E4DB3;stroke-width:1.9872;stroke-linecap:round;stroke-linejoin:round;stroke-miterlimit:10;" points="
	42.94,60.08 42.15,59.36 41.43,58.57 40.79,57.73 40.22,56.84 "/>
<polyline style="fill:none;stroke:#7C4DB5;stroke-width:1.9296;stroke-linecap:round;stroke-linejoin:round;stroke-miterlimit:10;" points="
	40.22,56.84 39.75,55.92 39.35,54.96 39.05,53.99 38.83,52.99 "/>
<polyline style="fill:none;stroke:#7A4CB7;stroke-width:1.872;stroke-linecap:round;stroke-linejoin:round;stroke-miterlimit:10;" points="
	38.83,52.99 38.71,51.99 38.67,50.99 38.72,50 38.86,49.03 "/>
<polyline style="fill:none;stroke:#784CB9;stroke-width:1.8144;stroke-linecap:round;stroke-linejoin:round;stroke-miterlimit:10;" points="
	38.86,49.03 39.08,48.07 39.37,47.15 39.75,46.27 40.2,45.43 "/>
<polyline style="fill:none;stroke:#764CBB;stroke-width:1.7568;stroke-linecap:round;stroke-linejoin:round;stroke-miterlimit:10;" points="
	40.2,45.43 40.72,44.64 41.3,43.9 41.93,43.23 42.62,42.62 "/>
<polyline style="fill:none;stroke:#744CBE;stroke-width:1.6992;stroke-linecap:round;stroke-linejoin:round;stroke-miterlimit:10;" points="
	42.62,42.62 43.35,42.07 44.12,41.6 44.92,41.2 45.75,40.88 "/>
<polyline style="fill:none;stroke:#724BC0;stroke-width:1.6416;stroke-linecap:round;stroke-linejoin:round;stroke-miterlimit:10;" points="
	45.75,40.88 46.59,40.63 47.44,40.46 48.3,40.36 49.16,40.34 "/>
<polyline style="fill:none;stroke:#704BC2;stroke-width:1.584;stroke-linecap:round;stroke-linejoin:round;stroke-miterlimit:10;" points="
	49.16,40.34 50,40.4 50.83,40.53 51.63,40.73 52.41,41 "/>
<polyline style="fill:none;stroke:#6F4BC4;stroke-width:1.5264;stroke-linecap:round;stroke-linejoin:round;stroke-miterlimit:10;" points="
	52.41,41 53.16,41.33 53.86,41.72 54.52,42.17 55.13,42.67 "/>
<polyline style="fill:none;stroke:#6D4AC6;stroke-width:1.4688;stroke-linecap:round;stroke-linejoin:round;stroke-miterlimit:10;" points="
	55.13,42.67 55.69,43.22 56.19,43.81 56.64,44.43 57.02,45.08 "/>
<polyline style="fill:none;stroke:#6B4AC8;stroke-width:1.4112;stroke-linecap:round;stroke-linejoin:round;stroke-miterlimit:10;" points="
	57.02,45.08 57.34,45.76 57.6,46.46 57.79,47.16 57.92,47.88 "/>
<polyline style="fill:none;stroke:#694ACA;stroke-width:1.3536;stroke-linecap:round;stroke-linejoin:round;stroke-miterlimit:10;" points="
	57.92,47.88 57.98,48.59 57.98,49.3 57.92,50 57.8,50.68 "/>
<polyline style="fill:none;stroke:#674ACC;stroke-width:1.296;stroke-linecap:round;stroke-linejoin:round;stroke-miterlimit:10;" points="
	57.8,50.68 57.62,51.34 57.38,51.98 57.09,52.58 56.76,53.15 "/>
<polyline style="fill:none;stroke:#6549CE;stroke-width:1.2384;stroke-linecap:round;stroke-linejoin:round;stroke-miterlimit:10;" points="
	56.76,53.15 56.37,53.68 55.95,54.17 55.5,54.61 55.01,55.01 "/>
<polyline style="fill:none;stroke:#6349D0;stroke-width:1.1808;stroke-linecap:round;stroke-linejoin:round;stroke-miterlimit:10;" points="
	55.01,55.01 54.49,55.35 53.95,55.65 53.4,55.89 52.83,56.08 52.26,56.21 "/>
<polyline style="fill:none;stroke:#6149D2;stroke-width:1.1232;stroke-linecap:round;stroke-linejoin:round;stroke-miterlimit:10;" points="
	52.26,56.21 51.69,56.3 51.12,56.33 50.55,56.31 50,56.24 "/>
<polyline style="fill:none;stroke:#5F48D4;stroke-width:1.0656;stroke-linecap:round;stroke-linejoin:round;stroke-miterlimit:10;" points="
	50,56.24 49.46,56.12 48.95,55.96 48.46,55.76 47.99,55.51 "/>
<polyline style="fill:none;stroke:#5D48D6;stroke-width:1.008;stroke-linecap:round;stroke-linejoin:round;stroke-miterlimit:10;" points="
	47.99,55.51 47.56,55.23 47.16,54.92 46.8,54.58 46.47,54.21 "/>
<polyline style="fill:none;stroke:#5B48D8;stroke-width:0.9504;stroke-linecap:round;stroke-linejoin:round;stroke-miterlimit:10;" points="
	46.47,54.21 46.18,53.82 45.93,53.41 45.73,52.99 45.57,52.56 "/>
<polyline style="fill:none;stroke:#5A48DA;stroke-width:0.8928;stroke-linecap:round;stroke-linejoin:round;stroke-miterlimit:10;" points="
	45.57,52.56 45.44,52.12 45.36,51.69 45.32,51.25 45.33,50.82 "/>
<polyline style="fill:none;stroke:#5847DC;stroke-width:0.8352;stroke-linecap:round;stroke-linejoin:round;stroke-miterlimit:10;" points="
	45.33,50.82 45.36,50.41 45.44,50 45.55,49.61 45.69,49.24 "/>
<polyline style="fill:none;stroke:#5647DE;stroke-width:0.7776;stroke-linecap:round;stroke-linejoin:round;stroke-miterlimit:10;" points="
	45.69,49.24 45.87,48.89 46.07,48.57 46.29,48.27 46.54,48 "/>
<polyline style="fill:none;stroke:#5447E0;stroke-width:0.72;stroke-linecap:round;stroke-linejoin:round;stroke-miterlimit:10;" points="
	46.54,48 46.8,47.76 47.08,47.55 47.37,47.37 47.67,47.22 "/>
<polyline style="fill:none;stroke:#5246E2;stroke-width:0.6624;stroke-linecap:round;stroke-linejoin:round;stroke-miterlimit:10;" points="
	47.67,47.22 47.97,47.11 48.28,47.02 48.59,46.97 48.89,46.94 "/>
<polyline style="fill:none;stroke:#5046E4;stroke-width:0.6048;stroke-linecap:round;stroke-linejoin:round;stroke-miterlimit:10;" points="
	48.89,46.94 49.18,46.95 49.47,46.98 49.74,47.04 50,47.12 "/>
<circle style="fill:#4F46E5;" cx="50" cy="50.23" r="1.73"/>
<g>
	<path style="fill:#E85D43;" d="M112.7,63.49c-2.72,0-4.86-0.71-6.42-2.14s-2.35-3.45-2.35-6.09v-1.53h5.36v1.62
		c0,1.25,0.31,2.2,0.92,2.85s1.44,0.97,2.49,0.97s1.87-0.32,2.48-0.97s0.91-1.6,0.91-2.87V36.94h5.31v18.3
		c0,2.65-0.77,4.68-2.32,6.11S115.4,63.49,112.7,63.49z"/>
	<path style="fill:#E85D43;" d="M134.81,63.52c-1.97,0-3.67-0.42-5.12-1.27c-1.45-0.85-2.55-2.03-3.33-3.55s-1.17-3.28-1.17-5.3
		c0-2.04,0.39-3.82,1.17-5.33s1.89-2.7,3.33-3.55s3.15-1.27,5.12-1.27c1.98,0,3.69,0.42,5.12,1.27s2.54,2.03,3.32,3.55
		s1.17,3.3,1.17,5.33c0,2.02-0.39,3.78-1.17,5.3s-1.89,2.7-3.32,3.55S136.79,63.52,134.81,63.52z M134.81,59.37
		c0.94,0,1.72-0.26,2.36-0.78s1.11-1.24,1.42-2.14s0.47-1.93,0.47-3.07c0-1.16-0.16-2.19-0.47-3.09s-0.79-1.61-1.42-2.13
		s-1.42-0.77-2.36-0.77s-1.72,0.26-2.35,0.77c-0.63,0.51-1.1,1.22-1.42,2.13c-0.32,0.91-0.47,1.93-0.47,3.09
		c0,1.14,0.16,2.16,0.47,3.07s0.79,1.62,1.42,2.14C133.09,59.11,133.87,59.37,134.81,59.37z"/>
	<path style="fill:#E85D43;" d="M159.1,63.47c-1.07,0-1.97-0.18-2.71-0.54s-1.34-0.81-1.8-1.34s-0.82-1.06-1.06-1.59h-0.25v3.15
		h-5.19V36.96h5.27v9.84h0.16c0.25-0.52,0.59-1.05,1.05-1.6s1.05-1.01,1.78-1.39s1.66-0.56,2.78-0.56c1.45,0,2.78,0.38,3.99,1.12
		s2.17,1.88,2.89,3.38s1.08,3.37,1.08,5.61c0,2.18-0.35,4.02-1.05,5.53s-1.66,2.65-2.87,3.43S160.61,63.47,159.1,63.47z
		 M157.49,59.23c0.91,0,1.68-0.25,2.31-0.76s1.1-1.2,1.42-2.09s0.48-1.91,0.48-3.06s-0.16-2.16-0.48-3.04s-0.79-1.57-1.42-2.07
		s-1.39-0.76-2.32-0.76c-0.9,0-1.67,0.24-2.3,0.73s-1.11,1.17-1.44,2.04s-0.49,1.91-0.49,3.1c0,1.18,0.17,2.22,0.5,3.1
		s0.82,1.57,1.45,2.07S156.6,59.23,157.49,59.23z"/>
</g>
<g>
	<path style="fill:#4F46E5;" d="M183.57,63.66c-2.45,0-4.6-0.54-6.44-1.63s-3.29-2.63-4.32-4.64s-1.56-4.39-1.56-7.15
		c0-2.84,0.54-5.26,1.62-7.27s2.54-3.55,4.38-4.61s3.91-1.6,6.21-1.6c1.48,0,2.85,0.21,4.12,0.64s2.4,1.03,3.39,1.82
		s1.8,1.71,2.43,2.79s1.03,2.26,1.22,3.56h-5.45c-0.19-0.63-0.45-1.2-0.78-1.7s-0.74-0.92-1.21-1.27s-1.02-0.62-1.63-0.8
		s-1.28-0.27-2-0.27c-1.35,0-2.54,0.34-3.57,1.01s-1.83,1.66-2.41,2.94s-0.86,2.86-0.86,4.71s0.28,3.42,0.85,4.72
		s1.37,2.28,2.4,2.96s2.25,1.02,3.66,1.02c1.27,0,2.35-0.23,3.25-0.69s1.6-1.11,2.08-1.96s0.73-1.84,0.73-2.98l1.12,0.16h-6.82
		v-4.08h10.9v3.27c0,2.3-0.49,4.27-1.46,5.92s-2.31,2.91-4.01,3.8S185.77,63.66,183.57,63.66z"/>
	<path style="fill:#4F46E5;" d="M198.87,63.3V43.65h5.1v3.43h0.21c0.36-1.22,0.97-2.14,1.82-2.76s1.83-0.93,2.93-0.93
		c0.27,0,0.56,0.01,0.88,0.04s0.59,0.07,0.83,0.13v4.71c-0.23-0.08-0.57-0.15-1.02-0.19s-0.87-0.07-1.27-0.07
		c-0.8,0-1.52,0.17-2.16,0.52s-1.15,0.83-1.5,1.44s-0.54,1.33-0.54,2.15V63.3L198.87,63.3L198.87,63.3z"/>
	<path style="fill:#4F46E5;" d="M218.52,63.69c-1.24,0-2.36-0.22-3.35-0.66s-1.77-1.1-2.34-1.97s-0.85-1.96-0.85-3.26
		c0-1.09,0.2-2,0.61-2.74s0.96-1.33,1.65-1.78s1.49-0.79,2.37-1.02s1.81-0.4,2.79-0.49c1.14-0.12,2.05-0.23,2.75-0.33
		s1.21-0.26,1.53-0.47s0.48-0.54,0.48-0.96v-0.09c0-0.56-0.12-1.04-0.35-1.42s-0.58-0.68-1.05-0.89s-1.02-0.31-1.68-0.31
		c-0.68,0-1.27,0.1-1.78,0.31s-0.91,0.48-1.23,0.82s-0.55,0.72-0.7,1.14l-4.83-0.79c0.34-1.15,0.9-2.12,1.69-2.92
		s1.76-1.41,2.93-1.83s2.48-0.63,3.95-0.63c1.05,0,2.08,0.13,3.08,0.38s1.89,0.64,2.68,1.17s1.42,1.22,1.88,2.07
		s0.69,1.87,0.69,3.05v13.24h-4.99v-2.72h-0.18c-0.32,0.61-0.74,1.15-1.27,1.61s-1.16,0.83-1.91,1.1S219.49,63.69,218.52,63.69z
		 M220.01,59.98c0.83,0,1.56-0.16,2.19-0.49s1.12-0.77,1.47-1.34s0.53-1.19,0.53-1.88v-2.13c-0.15,0.12-0.39,0.22-0.7,0.32
		s-0.67,0.18-1.05,0.25s-0.77,0.13-1.14,0.19s-0.71,0.11-1,0.14c-0.64,0.09-1.21,0.25-1.71,0.46s-0.87,0.49-1.14,0.83
		s-0.4,0.79-0.4,1.33c0,0.5,0.13,0.93,0.39,1.27s0.61,0.61,1.05,0.78S219.44,59.98,220.01,59.98z"/>
	<path style="fill:#4F46E5;" d="M241.11,63.64c-1.5,0-2.86-0.39-4.07-1.17s-2.17-1.92-2.87-3.43s-1.05-3.35-1.05-5.53
		c0-2.24,0.36-4.11,1.09-5.61s1.69-2.62,2.9-3.38s2.54-1.12,3.99-1.12c1.11,0,2.04,0.19,2.78,0.56s1.34,0.84,1.79,1.39
		s0.8,1.08,1.02,1.6h0.18v-9.84h5.27V63.3h-5.19v-3.15h-0.27c-0.23,0.53-0.58,1.06-1.05,1.59s-1.06,0.98-1.8,1.34
		S242.19,63.64,241.11,63.64z M242.74,59.4c0.89,0,1.65-0.25,2.29-0.74s1.11-1.18,1.44-2.07s0.49-1.92,0.49-3.1
		c0-1.2-0.16-2.23-0.48-3.1s-0.8-1.55-1.43-2.04s-1.4-0.73-2.3-0.73c-0.93,0-1.7,0.25-2.33,0.76s-1.1,1.2-1.42,2.07
		s-0.47,1.89-0.47,3.04c0,1.15,0.16,2.17,0.48,3.06s0.8,1.59,1.42,2.09S241.83,59.4,242.74,59.4z"/>
	<path style="fill:#4F46E5;" d="M265.51,63.69c-2,0-3.73-0.41-5.19-1.23c-1.46-0.82-2.57-1.99-3.35-3.5s-1.17-3.3-1.17-5.38
		c0-2.03,0.39-3.8,1.16-5.33c0.77-1.53,1.87-2.71,3.29-3.57c1.42-0.86,3.08-1.28,4.99-1.28c1.29,0,2.49,0.21,3.6,0.62
		s2.09,1.03,2.94,1.85s1.5,1.86,1.98,3.1s0.71,2.71,0.71,4.39v1.48h-16.51v-3.3h13.92l-2.46,0.88c0-1.02-0.16-1.91-0.47-2.66
		s-0.77-1.34-1.39-1.76s-1.37-0.62-2.28-0.62s-1.69,0.21-2.33,0.63c-0.64,0.42-1.12,0.99-1.45,1.71c-0.33,0.72-0.49,1.54-0.49,2.47
		v2.34c0,1.14,0.19,2.09,0.57,2.87s0.91,1.35,1.6,1.74s1.49,0.58,2.4,0.58c0.62,0,1.18-0.09,1.69-0.26s0.93-0.44,1.29-0.78
		s0.63-0.77,0.82-1.27l4.78,0.9c-0.32,1.08-0.87,2.02-1.65,2.84s-1.77,1.44-2.94,1.89S267.04,63.69,265.51,63.69z"/>
</g>
<line style="fill:none;stroke:#D1D5DB;stroke-width:0.5;stroke-miterlimit:10;" x1="91" y1="75" x2="91" y2="25"/>
</svg>
