<?xml version="1.0" encoding="iso-8859-1"?>
<!-- Generator: Adobe Illustrator 30.2.1, SVG Export Plug-In . SVG Version: 9.03 Build 0)  -->
<svg version="1.1" id="Symbol_x5F_Square" xmlns="http://www.w3.org/2000/svg" xmlns:xlink="http://www.w3.org/1999/xlink" x="0px"
	 y="0px" viewBox="0 0 400 400" style="enable-background:new 0 0 400 400;" xml:space="preserve">
<polyline style="fill:none;stroke:#E75D44;stroke-width:28.64;stroke-linecap:round;stroke-linejoin:round;stroke-miterlimit:10;" points="
	200,372 185.05,370.87 170.3,368.44 155.86,364.74 141.83,359.82 "/>
<polyline style="fill:none;stroke:#E55D46;stroke-width:28.32;stroke-linecap:round;stroke-linejoin:round;stroke-miterlimit:10;" points="
	141.83,359.82 128.33,353.7 115.44,346.45 103.28,338.13 91.92,328.81 "/>
<polyline style="fill:none;stroke:#E35C48;stroke-width:28;stroke-linecap:round;stroke-linejoin:round;stroke-miterlimit:10;" points="
	91.92,328.81 81.44,318.56 71.93,307.46 63.44,295.62 56.05,283.11 "/>
<polyline style="fill:none;stroke:#E15C4A;stroke-width:27.68;stroke-linecap:round;stroke-linejoin:round;stroke-miterlimit:10;" points="
	56.05,283.11 49.79,270.05 44.71,256.52 40.84,242.65 38.2,228.53 "/>
<polyline style="fill:none;stroke:#DF5C4C;stroke-width:27.36;stroke-linecap:round;stroke-linejoin:round;stroke-miterlimit:10;" points="
	38.2,228.53 36.81,214.28 36.67,200 37.77,185.81 40.1,171.8 "/>
<polyline style="fill:none;stroke:#DD5B4E;stroke-width:27.04;stroke-linecap:round;stroke-linejoin:round;stroke-miterlimit:10;" points="
	40.1,171.8 43.63,158.1 48.33,144.8 54.15,131.99 61.05,119.78 "/>
<polyline style="fill:none;stroke:#DC5B50;stroke-width:26.72;stroke-linecap:round;stroke-linejoin:round;stroke-miterlimit:10;" points="
	61.05,119.78 68.97,108.25 77.83,97.49 87.57,87.57 98.11,78.57 "/>
<polyline style="fill:none;stroke:#DA5B52;stroke-width:26.4;stroke-linecap:round;stroke-linejoin:round;stroke-miterlimit:10;" points="
	98.11,78.57 109.35,70.54 121.22,63.55 133.62,57.64 146.44,52.85 "/>
<polyline style="fill:none;stroke:#D85B54;stroke-width:26.08;stroke-linecap:round;stroke-linejoin:round;stroke-miterlimit:10;" points="
	146.44,52.85 159.6,49.21 172.98,46.73 186.48,45.44 200,45.33 "/>
<polyline style="fill:none;stroke:#D65A56;stroke-width:25.76;stroke-linecap:round;stroke-linejoin:round;stroke-miterlimit:10;" points="
	200,45.33 213.44,46.4 226.69,48.63 239.66,52 252.24,56.47 264.35,62.01 "/>
<polyline style="fill:none;stroke:#D45A58;stroke-width:25.44;stroke-linecap:round;stroke-linejoin:round;stroke-miterlimit:10;" points="
	264.35,62.01 275.89,68.56 286.78,76.07 296.94,84.47 306.3,93.7 "/>
<polyline style="fill:none;stroke:#D25A5A;stroke-width:25.12;stroke-linecap:round;stroke-linejoin:round;stroke-miterlimit:10;" points="
	306.3,93.7 314.79,103.68 322.36,114.32 328.94,125.56 334.5,137.28 "/>
<polyline style="fill:none;stroke:#D0595C;stroke-width:24.8;stroke-linecap:round;stroke-linejoin:round;stroke-miterlimit:10;" points="
	334.5,137.28 339,149.41 342.42,161.84 344.73,174.48 345.92,187.23 "/>
<polyline style="fill:none;stroke:#CE595E;stroke-width:24.48;stroke-linecap:round;stroke-linejoin:round;stroke-miterlimit:10;" points="
	345.92,187.23 346,200 344.96,212.68 342.83,225.19 339.63,237.41 "/>
<polyline style="fill:none;stroke:#CC5960;stroke-width:24.16;stroke-linecap:round;stroke-linejoin:round;stroke-miterlimit:10;" points="
	339.63,237.41 335.39,249.28 330.14,260.68 323.94,271.56 316.84,281.81 "/>
<polyline style="fill:none;stroke:#CA5962;stroke-width:23.84;stroke-linecap:round;stroke-linejoin:round;stroke-miterlimit:10;" points="
	316.84,281.81 308.89,291.37 300.17,300.17 290.75,308.15 280.7,315.26 "/>
<polyline style="fill:none;stroke:#C85864;stroke-width:23.52;stroke-linecap:round;stroke-linejoin:round;stroke-miterlimit:10;" points="
	280.7,315.26 270.11,321.44 259.06,326.65 247.63,330.86 235.92,334.05 "/>
<polyline style="fill:none;stroke:#C75866;stroke-width:23.2;stroke-linecap:round;stroke-linejoin:round;stroke-miterlimit:10;" points="
	235.92,334.05 224.01,336.2 212.01,337.29 200,337.33 188.07,336.33 "/>
<polyline style="fill:none;stroke:#C55868;stroke-width:22.88;stroke-linecap:round;stroke-linejoin:round;stroke-miterlimit:10;" points="
	188.07,336.33 176.32,334.3 164.83,331.26 153.69,327.24 142.98,322.28 "/>
<polyline style="fill:none;stroke:#C3576A;stroke-width:22.56;stroke-linecap:round;stroke-linejoin:round;stroke-miterlimit:10;" points="
	142.98,322.28 132.78,316.43 123.16,309.74 114.2,302.25 105.95,294.05 "/>
<polyline style="fill:none;stroke:#C1576D;stroke-width:22.24;stroke-linecap:round;stroke-linejoin:round;stroke-miterlimit:10;" points="
	105.95,294.05 98.48,285.18 91.84,275.73 86.07,265.78 81.21,255.39 "/>
<polyline style="fill:none;stroke:#BF576F;stroke-width:21.92;stroke-linecap:round;stroke-linejoin:round;stroke-miterlimit:10;" points="
	81.21,255.39 77.28,244.67 74.32,233.68 72.34,222.51 71.34,211.26 "/>
<polyline style="fill:none;stroke:#BD5771;stroke-width:21.6;stroke-linecap:round;stroke-linejoin:round;stroke-miterlimit:10;" points="
	71.34,211.26 71.33,200 72.3,188.83 74.24,177.82 77.11,167.07 "/>
<polyline style="fill:none;stroke:#BB5673;stroke-width:21.28;stroke-linecap:round;stroke-linejoin:round;stroke-miterlimit:10;" points="
	77.11,167.07 80.9,156.65 85.57,146.64 91.07,137.11 97.36,128.13 "/>
<polyline style="fill:none;stroke:#B95675;stroke-width:20.96;stroke-linecap:round;stroke-linejoin:round;stroke-miterlimit:10;" points="
	97.36,128.13 104.39,119.77 112.08,112.08 120.39,105.12 129.24,98.94 "/>
<polyline style="fill:none;stroke:#B75677;stroke-width:20.64;stroke-linecap:round;stroke-linejoin:round;stroke-miterlimit:10;" points="
	129.24,98.94 138.56,93.58 148.27,89.06 158.3,85.43 168.57,82.69 "/>
<polyline style="fill:none;stroke:#B55579;stroke-width:20.32;stroke-linecap:round;stroke-linejoin:round;stroke-miterlimit:10;" points="
	168.57,82.69 178.99,80.87 189.5,79.98 200,80 210.42,80.94 "/>
<polyline style="fill:none;stroke:#B3557B;stroke-width:20;stroke-linecap:round;stroke-linejoin:round;stroke-miterlimit:10;" points="
	210.42,80.94 220.67,82.77 230.68,85.48 240.38,89.05 249.7,93.42 "/>
<polyline style="fill:none;stroke:#B1557D;stroke-width:19.68;stroke-linecap:round;stroke-linejoin:round;stroke-miterlimit:10;" points="
	249.7,93.42 258.56,98.58 266.9,104.46 274.66,111.03 281.79,118.21 "/>
<polyline style="fill:none;stroke:#B0557F;stroke-width:19.36;stroke-linecap:round;stroke-linejoin:round;stroke-miterlimit:10;" points="
	281.79,118.21 288.24,125.96 293.96,134.21 298.92,142.89 303.08,151.93 306.43,161.26 "/>
<polyline style="fill:none;stroke:#AE5481;stroke-width:19.04;stroke-linecap:round;stroke-linejoin:round;stroke-miterlimit:10;" points="
	306.43,161.26 308.93,170.81 310.59,180.5 311.39,190.25 311.33,200 "/>
<polyline style="fill:none;stroke:#AC5483;stroke-width:18.72;stroke-linecap:round;stroke-linejoin:round;stroke-miterlimit:10;" points="
	311.33,200 310.43,209.66 308.69,219.17 306.14,228.44 302.81,237.42 "/>
<polyline style="fill:none;stroke:#AA5485;stroke-width:18.4;stroke-linecap:round;stroke-linejoin:round;stroke-miterlimit:10;" points="
	302.81,237.42 298.72,246.03 293.92,254.22 288.44,261.93 282.34,269.09 "/>
<polyline style="fill:none;stroke:#A85387;stroke-width:18.08;stroke-linecap:round;stroke-linejoin:round;stroke-miterlimit:10;" points="
	282.34,269.09 275.66,275.66 268.47,281.6 260.82,286.86 252.78,291.41 "/>
<polyline style="fill:none;stroke:#A65389;stroke-width:17.76;stroke-linecap:round;stroke-linejoin:round;stroke-miterlimit:10;" points="
	252.78,291.41 244.41,295.23 235.77,298.28 226.95,300.56 218,302.06 "/>
<polyline style="fill:none;stroke:#A4538B;stroke-width:17.44;stroke-linecap:round;stroke-linejoin:round;stroke-miterlimit:10;" points="
	218,302.06 208.99,302.76 200,302.67 191.09,301.8 182.34,300.16 "/>
<polyline style="fill:none;stroke:#A2538D;stroke-width:17.12;stroke-linecap:round;stroke-linejoin:round;stroke-miterlimit:10;" points="
	182.34,300.16 173.8,297.77 165.54,294.67 157.63,290.87 150.11,286.41 "/>
<polyline style="fill:none;stroke:#A0528F;stroke-width:16.8;stroke-linecap:round;stroke-linejoin:round;stroke-miterlimit:10;" points="
	150.11,286.41 143.05,281.34 136.48,275.7 130.47,269.53 125.04,262.9 "/>
<polyline style="fill:none;stroke:#9E5291;stroke-width:16.48;stroke-linecap:round;stroke-linejoin:round;stroke-miterlimit:10;" points="
	125.04,262.9 120.24,255.85 116.09,248.44 112.63,240.74 109.86,232.81 "/>
<polyline style="fill:none;stroke:#9C5293;stroke-width:16.16;stroke-linecap:round;stroke-linejoin:round;stroke-miterlimit:10;" points="
	109.86,232.81 107.81,224.7 106.48,216.49 105.88,208.23 106,200 "/>
<polyline style="fill:none;stroke:#9B5195;stroke-width:15.84;stroke-linecap:round;stroke-linejoin:round;stroke-miterlimit:10;" points="
	106,200 106.84,191.85 108.38,183.84 110.6,176.04 113.48,168.51 "/>
<polyline style="fill:none;stroke:#995197;stroke-width:15.52;stroke-linecap:round;stroke-linejoin:round;stroke-miterlimit:10;" points="
	113.48,168.51 116.99,161.29 121.1,154.44 125.76,148.02 130.94,142.05 "/>
<polyline style="fill:none;stroke:#975199;stroke-width:15.2;stroke-linecap:round;stroke-linejoin:round;stroke-miterlimit:10;" points="
	130.94,142.05 136.6,136.6 142.67,131.68 149.12,127.34 155.89,123.6 "/>
<polyline style="fill:none;stroke:#95509B;stroke-width:14.88;stroke-linecap:round;stroke-linejoin:round;stroke-miterlimit:10;" points="
	155.89,123.6 162.92,120.48 170.16,118 177.54,116.18 185.01,115.01 "/>
<polyline style="fill:none;stroke:#93509D;stroke-width:14.56;stroke-linecap:round;stroke-linejoin:round;stroke-miterlimit:10;" points="
	185.01,115.01 192.52,114.51 200,114.67 207.4,115.47 214.65,116.91 "/>
<polyline style="fill:none;stroke:#91509F;stroke-width:14.24;stroke-linecap:round;stroke-linejoin:round;stroke-miterlimit:10;" points="
	214.65,116.91 221.71,118.97 228.53,121.62 235.05,124.84 241.22,128.6 "/>
<polyline style="fill:none;stroke:#8F50A1;stroke-width:13.92;stroke-linecap:round;stroke-linejoin:round;stroke-miterlimit:10;" points="
	241.22,128.6 247.01,132.86 252.38,137.58 257.28,142.72 261.68,148.24 "/>
<polyline style="fill:none;stroke:#8D4FA3;stroke-width:13.6;stroke-linecap:round;stroke-linejoin:round;stroke-miterlimit:10;" points="
	261.68,148.24 265.56,154.09 268.9,160.22 271.67,166.58 273.85,173.12 "/>
<polyline style="fill:none;stroke:#8B4FA5;stroke-width:13.28;stroke-linecap:round;stroke-linejoin:round;stroke-miterlimit:10;" points="
	273.85,173.12 275.45,179.78 276.45,186.52 276.85,193.28 276.67,200 "/>
<polyline style="fill:none;stroke:#894FA7;stroke-width:12.96;stroke-linecap:round;stroke-linejoin:round;stroke-miterlimit:10;" points="
	276.67,200 275.9,206.64 274.55,213.15 272.66,219.47 270.23,225.56 267.3,231.38 "/>
<polyline style="fill:none;stroke:#874EA9;stroke-width:12.64;stroke-linecap:round;stroke-linejoin:round;stroke-miterlimit:10;" points="
	267.3,231.38 263.89,236.89 260.04,242.04 255.78,246.8 251.15,251.15 "/>
<polyline style="fill:none;stroke:#864EAB;stroke-width:12.32;stroke-linecap:round;stroke-linejoin:round;stroke-miterlimit:10;" points="
	251.15,251.15 246.19,255.04 240.94,258.46 235.44,261.39 229.76,263.81 "/>
<polyline style="fill:none;stroke:#844EAD;stroke-width:12;stroke-linecap:round;stroke-linejoin:round;stroke-miterlimit:10;" points="
	229.76,263.81 223.92,265.71 217.97,267.08 211.98,267.92 205.97,268.22 "/>
<polyline style="fill:none;stroke:#824EAF;stroke-width:11.68;stroke-linecap:round;stroke-linejoin:round;stroke-miterlimit:10;" points="
	205.97,268.22 200,268 194.12,267.26 188.36,266.02 182.77,264.29 "/>
<polyline style="fill:none;stroke:#804DB1;stroke-width:11.36;stroke-linecap:round;stroke-linejoin:round;stroke-miterlimit:10;" points="
	182.77,264.29 177.4,262.09 172.28,259.45 167.44,256.39 162.93,252.94 "/>
<polyline style="fill:none;stroke:#7E4DB3;stroke-width:11.04;stroke-linecap:round;stroke-linejoin:round;stroke-miterlimit:10;" points="
	162.93,252.94 158.77,249.14 154.98,245.02 151.6,240.61 148.64,235.97 "/>
<polyline style="fill:none;stroke:#7C4DB5;stroke-width:10.72;stroke-linecap:round;stroke-linejoin:round;stroke-miterlimit:10;" points="
	148.64,235.97 146.11,231.11 144.04,226.09 142.44,220.95 141.29,215.73 "/>
<polyline style="fill:none;stroke:#7A4CB7;stroke-width:10.4;stroke-linecap:round;stroke-linejoin:round;stroke-miterlimit:10;" points="
	141.29,215.73 140.62,210.47 140.41,205.21 140.67,200 141.37,194.87 "/>
<polyline style="fill:none;stroke:#784CB9;stroke-width:10.08;stroke-linecap:round;stroke-linejoin:round;stroke-miterlimit:10;" points="
	141.37,194.87 142.52,189.86 144.08,185.02 146.05,180.37 148.41,175.94 "/>
<polyline style="fill:none;stroke:#764CBB;stroke-width:9.76;stroke-linecap:round;stroke-linejoin:round;stroke-miterlimit:10;" points="
	148.41,175.94 151.12,171.78 154.16,167.9 157.5,164.34 161.11,161.11 "/>
<polyline style="fill:none;stroke:#744CBE;stroke-width:9.44;stroke-linecap:round;stroke-linejoin:round;stroke-miterlimit:10;" points="
	161.11,161.11 164.96,158.24 169.01,155.74 173.22,153.62 177.57,151.9 "/>
<polyline style="fill:none;stroke:#724BC0;stroke-width:9.12;stroke-linecap:round;stroke-linejoin:round;stroke-miterlimit:10;" points="
	177.57,151.9 182.01,150.58 186.51,149.66 191.03,149.15 195.54,149.05 "/>
<polyline style="fill:none;stroke:#704BC2;stroke-width:8.8;stroke-linecap:round;stroke-linejoin:round;stroke-miterlimit:10;" points="
	195.54,149.05 200,149.33 204.37,150.01 208.63,151.05 212.74,152.45 "/>
<polyline style="fill:none;stroke:#6F4BC4;stroke-width:8.48;stroke-linecap:round;stroke-linejoin:round;stroke-miterlimit:10;" points="
	212.74,152.45 216.67,154.2 220.4,156.26 223.89,158.62 227.13,161.26 "/>
<polyline style="fill:none;stroke:#6D4AC6;stroke-width:8.16;stroke-linecap:round;stroke-linejoin:round;stroke-miterlimit:10;" points="
	227.13,161.26 230.09,164.14 232.76,167.24 235.12,170.53 237.17,173.98 "/>
<polyline style="fill:none;stroke:#6B4AC8;stroke-width:7.84;stroke-linecap:round;stroke-linejoin:round;stroke-miterlimit:10;" points="
	237.17,173.98 238.87,177.56 240.25,181.23 241.28,184.98 241.96,188.76 "/>
<polyline style="fill:none;stroke:#694ACA;stroke-width:7.52;stroke-linecap:round;stroke-linejoin:round;stroke-miterlimit:10;" points="
	241.96,188.76 242.31,192.54 242.32,196.3 242,200 241.36,203.62 "/>
<polyline style="fill:none;stroke:#674ACC;stroke-width:7.2;stroke-linecap:round;stroke-linejoin:round;stroke-miterlimit:10;" points="
	241.36,203.62 240.41,207.13 239.17,210.5 237.66,213.71 235.88,216.73 "/>
<polyline style="fill:none;stroke:#6549CE;stroke-width:6.88;stroke-linecap:round;stroke-linejoin:round;stroke-miterlimit:10;" points="
	235.88,216.73 233.87,219.56 231.64,222.16 229.22,224.52 226.63,226.63 "/>
<polyline style="fill:none;stroke:#6349D0;stroke-width:6.56;stroke-linecap:round;stroke-linejoin:round;stroke-miterlimit:10;" points="
	226.63,226.63 223.9,228.49 221.05,230.07 218.11,231.37 215.1,232.39 212.06,233.13 "/>
<polyline style="fill:none;stroke:#6149D2;stroke-width:6.24;stroke-linecap:round;stroke-linejoin:round;stroke-miterlimit:10;" points="
	212.06,233.13 209,233.59 205.96,233.78 202.95,233.69 200,233.33 "/>
<polyline style="fill:none;stroke:#5F48D4;stroke-width:5.92;stroke-linecap:round;stroke-linejoin:round;stroke-miterlimit:10;" points="
	200,233.33 197.14,232.73 194.38,231.88 191.75,230.8 189.26,229.51 "/>
<polyline style="fill:none;stroke:#5D48D6;stroke-width:5.6;stroke-linecap:round;stroke-linejoin:round;stroke-miterlimit:10;" points="
	189.26,229.51 186.93,228.03 184.78,226.37 182.81,224.54 181.05,222.58 "/>
<polyline style="fill:none;stroke:#5B48D8;stroke-width:5.28;stroke-linecap:round;stroke-linejoin:round;stroke-miterlimit:10;" points="
	181.05,222.58 179.49,220.51 178.15,218.33 177.03,216.08 176.14,213.78 "/>
<polyline style="fill:none;stroke:#5A48DA;stroke-width:4.96;stroke-linecap:round;stroke-linejoin:round;stroke-miterlimit:10;" points="
	176.14,213.78 175.46,211.44 175.01,209.1 174.78,206.76 174.76,204.45 "/>
<polyline style="fill:none;stroke:#5847DC;stroke-width:4.64;stroke-linecap:round;stroke-linejoin:round;stroke-miterlimit:10;" points="
	174.76,204.45 174.95,202.19 175.33,200 175.91,197.89 176.66,195.88 "/>
<polyline style="fill:none;stroke:#5647DE;stroke-width:4.32;stroke-linecap:round;stroke-linejoin:round;stroke-miterlimit:10;" points="
	176.66,195.88 177.57,193.99 178.63,192.22 179.83,190.59 181.14,189.11 "/>
<polyline style="fill:none;stroke:#5447E0;stroke-width:4;stroke-linecap:round;stroke-linejoin:round;stroke-miterlimit:10;" points="
	181.14,189.11 182.56,187.78 184.05,186.62 185.62,185.62 187.24,184.79 "/>
<polyline style="fill:none;stroke:#5246E2;stroke-width:3.68;stroke-linecap:round;stroke-linejoin:round;stroke-miterlimit:10;" points="
	187.24,184.79 188.89,184.13 190.56,183.64 192.22,183.32 193.87,183.16 "/>
<polyline style="fill:none;stroke:#5046E4;stroke-width:3.36;stroke-linecap:round;stroke-linejoin:round;stroke-miterlimit:10;" points="
	193.87,183.16 195.49,183.15 197.05,183.29 198.56,183.58 200,184 "/>
<circle style="fill:#4F46E5;" cx="200" cy="200" r="9.6"/>
<g>
</g>
<g>
</g>
<g>
</g>
<g>
</g>
<g>
</g>
<g>
</g>
<g>
</g>
<g>
</g>
<g>
</g>
<g>
</g>
<g>
</g>
<g>
</g>
<g>
</g>
<g>
</g>
<g>
</g>
</svg>
